<?xml version="1.0" encoding="UTF-8"?>
<svg id="svg8" xmlns="http://www.w3.org/2000/svg" xmlns:xlink="http://www.w3.org/1999/xlink" xmlns:svg="http://www.w3.org/2000/svg" xmlns:sodipodi="http://sodipodi.sourceforge.net/DTD/sodipodi-0.dtd" xmlns:rdf="http://www.w3.org/1999/02/22-rdf-syntax-ns#" xmlns:inkscape="http://www.inkscape.org/namespaces/inkscape" xmlns:dc="http://purl.org/dc/elements/1.1/" xmlns:cc="http://creativecommons.org/ns#" version="1.1" viewBox="0 0 1935.4 1564.7">
  <defs>
    <style>
      .cls-1 {
        stroke-width: 11.2px;
      }

      .cls-1, .cls-2, .cls-3, .cls-4, .cls-5, .cls-6, .cls-7, .cls-8, .cls-9, .cls-10, .cls-11, .cls-12, .cls-13, .cls-14, .cls-15, .cls-16 {
        fill: none;
      }

      .cls-1, .cls-2, .cls-4, .cls-5, .cls-6, .cls-17, .cls-7, .cls-8, .cls-9, .cls-18, .cls-19, .cls-10, .cls-11, .cls-12, .cls-13, .cls-14, .cls-15, .cls-16 {
        stroke-miterlimit: 11.3;
      }

      .cls-1, .cls-8, .cls-9, .cls-12 {
        stroke: #fff;
      }

      .cls-20 {
        font-size: 40px;
      }

      .cls-20, .cls-21, .cls-22, .cls-23, .cls-17, .cls-19, .cls-24, .cls-25, .cls-26 {
        fill: #000;
      }

      .cls-20, .cls-23, .cls-24 {
        font-family: Arial-BoldMT, Arial;
        font-weight: 700;
      }

      .cls-20, .cls-23, .cls-24, .cls-27 {
        isolation: isolate;
      }

      .cls-2 {
        stroke: #6ce;
      }

      .cls-2, .cls-7, .cls-11 {
        stroke-width: 2.2px;
      }

      .cls-3, .cls-28 {
        stroke-width: 0px;
      }

      .cls-21 {
        stroke-miterlimit: 10;
      }

      .cls-21, .cls-22, .cls-5, .cls-17, .cls-19, .cls-25, .cls-26, .cls-15, .cls-16 {
        stroke: #000;
      }

      .cls-4 {
        stroke: #21cee0;
      }

      .cls-4, .cls-10, .cls-14 {
        stroke-dasharray: 0 0 48 48;
        stroke-width: 12px;
      }

      .cls-22 {
        stroke-miterlimit: 28.8;
        stroke-width: 7.2px;
      }

      .cls-22, .cls-17, .cls-18, .cls-25, .cls-26 {
        fill-rule: evenodd;
      }

      .cls-28 {
        fill: #47a;
      }

      .cls-5, .cls-13 {
        stroke-width: 22.5px;
      }

      .cls-23 {
        font-size: 72px;
      }

      .cls-6 {
        stroke: #060602;
      }

      .cls-6, .cls-16 {
        stroke-width: 6px;
      }

      .cls-17, .cls-18 {
        stroke-width: 2.8px;
      }

      .cls-7, .cls-14 {
        stroke: #d7ff01;
      }

      .cls-8 {
        stroke-width: 3.7px;
      }

      .cls-9 {
        stroke-width: 3.8px;
      }

      .cls-18 {
        fill: #a37;
        stroke: #a37;
      }

      .cls-19 {
        stroke-width: 3.8px;
      }

      .cls-24 {
        font-size: 64px;
      }

      .cls-25 {
        stroke-miterlimit: 9.6;
        stroke-width: 2.4px;
      }

      .cls-26 {
        stroke-miterlimit: 9.6;
        stroke-width: 2.4px;
      }

      .cls-10, .cls-11 {
        stroke: #ff5e93;
      }

      .cls-12, .cls-15 {
        stroke-width: 1.3px;
      }

      .cls-13 {
        stroke: #47a;
      }
    </style>
  </defs>
  <sodipodi:namedview id="base" bordercolor="#666666" borderopacity="1.0" inkscape:current-layer="layer1" inkscape:cx="1069.7293" inkscape:cy="283.72121" inkscape:document-units="mm" inkscape:pageopacity="0.0" inkscape:pageshadow="2" inkscape:window-height="1017" inkscape:window-maximized="1" inkscape:window-width="1920" inkscape:window-x="1072" inkscape:window-y="237" inkscape:zoom="1" pagecolor="#ffffff" showgrid="false" showguides="true"/>
  <g id="layer1" inkscape:groupmode="layer" inkscape:label="Layer 1">
    <path id="path826" class="cls-15" d="M1273.6,1509.2l25.4-.3-.6-19.4h-26.3s-64.5.3-64.5.3h-102.6c0-.1-153.2-.1-153.2-.1l-178.5.3-120.7,1.1-49.3.5s-5.9-.2-8.7-.8c-1.9-.4-3.8-.9-5.5-1.9-1.4-.8-2.7-1.9-3.7-3.1-1.5-1.8-2.9-3.8-3.7-6-1.5-3.9-2.3-12.3-2.3-12.3l-4.8-26.3-5.2-21.1-7-20.8-8-18-21.6-41.5-7.9-14.9,7-3.3-7.7-17.9-16.7-45.7-21.4-57.9-29.8-77.3-18-55-20.6-67.4-15.2-60-16.4-73.3-9.4-56-13.4-85.2-11.9-75.2-9.1-47.2-13.7-56.3-13.5-41.9-14-36.5-15.7-35-16.5-36.5-23.7-39.6-20.6-36.3-37.3-65.7-32.9-57.3-36.1-60.4-9.7-16.3-2-5.8.8-5.4,3.5-3.7,6.4-3.2,11.3.3,15.2,1.6,52.9,7.8,51.9,8.4,55,12.3,59,15.2,82.1,27,69.4,29.5,53.8,25.8,65.2,31.4,73.6,35,106.6,52.7,75.9,35.8,61.5,24,92.7,33.9,125.9,38.5,89.7,26.2,12.9,5.5,7.4,7.5,5.6,10.7,3,10.8.3,10.3-2.5,9-6.5,9.6-30.1,26.8-32.3,25-33.5,18.1-37.1,14.8-36.4,9.7-36.2,6.1-25.1,1.1-29.6-.9-20.8-2.2-27.9-5.4-37.7-12.2-48.6-21-79.8-35-47.1-21.5-52.4-23.9-12.5-5.3-12.5-4.8-14.2-2.8-15.7-1.4-22.9.7-26.6,6.5-19.7,9.3-17.1,10.2-15,14.2-15.6,18.7-10.8,19.3-7.8,18.6-5,26.8,1.2,20.4,6.4,34,11.3,42.3,19.1,71.3,22.4,90.1,8.1,26.2,6.7,13.4,10.2,13.5,15.9,17.5,17,13.3,29.9,14.7,25,4.8,21.7.8,31.2-4.6,21.4-8.1,22.4-14.4,26.8-21.7,15.1-11.4,16.7-10,17.8-9,28.4-11.5,24.9-7.6,23-4.5,21.6-2.9,23.7-.8,22.7,1.1,32.1,5.2,57.1,13.1,77.1,19.5,129.7,32.9,127,31.3,267.3,64.8,28.6,6.9,9.9,3.6,12,6.5,14.1,9.5,10.8,12.1,9.3,14.9,5.9,12.3,4.2,11,3.3,20.8v22.4s1.3,115.2,1.3,115.2l3.1,58.6,1.5,37.5-.6,11.8-3,8.3-5.5,6.8-18.1,8.3-52.5,17-72.6,12.1-61.6,6.1-61.1.6-220.2,1.3.6,19.4,116.8-.5,138.7-1.1,70.6-1.4,54.5-8.9,56.7-14.6,27.8-10.2,20.1-8.6,12.7-6.6,6.4-5.9,4.5-7.4,3.6-11.1.6-12.8-2.7-37.4-1.8-69.7-1.4-91.4-.3-31.6-2.1-22.4-4.9-18-6.7-15.5-10.5-17.2-11.3-13.5-19.1-15.2-13.4-6.4-21.5-6.9-85-20.5-121.4-28.7-85.9-22.2-99.1-24.6-152.2-38.5-106.7-25.3-37.6-8.4-31.4-4.6-30.6-.9-47.1,5-46.1,12.3-31.6,13.6-40.8,24.1-19.5,15.8-18.5,15.2-14.4,8.8-22.8,8.2-20.2,2.4h-23.4c0-.1-18.5-4.4-18.5-4.4l-17.8-7-16.1-10-16.7-15.8-12.9-18.8-8.4-16.6-7.2-28.2-16.3-63.3-20.1-76.1-15.7-59-5.4-25.9-.4-15.6,1.7-16.9,3.9-13.9,10.1-22,9.9-14.9,10.4-11.5,13.8-11,20-10.8,21.8-6.1,22.4-2.6,21,.7,15.9,3.5,32.5,13.3,40.6,18.6,71.7,32.8,79.8,36.1,30,11.7,22.3,7.3,32.7,8.2,36.5,4,37.8,1.2,38.3-4.2,28.7-6.4,50.2-18.4,24.2-12.1,25.7-15.6,15.2-11.5,15.7-13.3,30.3-27.1,7.5-10.5,4.4-13,2.8-16.3-.4-10.6-5.3-13.7-9.7-12.8-9-7.6-8.3-4.1-12.6-4-52.6-16.1-122.2-37.4-53.7-17.4-62-21.4-48.2-19.2-46.8-21.5-81.2-37.8-72-34.9-90.6-43.9-75.5-37.3-49.7-23.2-47.2-19.1-44-15.7-39.4-12.6-52.1-15-55.5-11.8-46.3-8.5-59.5-8.6-37.5-3.4-13.4.4-8.9,3.7-7.7,7.5-3.8,7.7-1.6,11.7,5.3,14.7,24.8,39.2,24,42.1,33.3,57.7,29.6,52,32.3,55,20.9,41.8,21.7,46.8,17.2,44.6,16.2,51.4,11.2,45.9,7,37.1,13.2,84.8,14.8,89.8,17.5,92.5,14.1,59.3,14.1,52.4,19.6,63.1,15.4,43.3,20,55,29.5,75.2,23.1,59.8,22.8,59.4,11,30.5,7.7,26.1,5.4,23.5,4.2,22.9s1.5,8.5,3.3,12.4c1.1,2.5,4.4,6.9,4.4,6.9,0,0,4,3.4,6.3,4.5,2.3,1.1,7.3,2,7.3,2l20-1.1,30.4-1,48,.3h49.5s89.4-.3,89.4-.3l77.2-.3,199.7,2.7,122.9-1.1h51.7Z" inkscape:connector-curvature="0" sodipodi:nodetypes="ccccccccccaaaacccccccccccccccccccccccccccccccccccccccccccccccccccccccccccccccccccccccccccccccccccccccccccccccccccccccccccccccccccccccccccccccccccccccccccccccccccccccccccccccccccccccccccccccccccccccccccccccccccccccccccccccccccccccccccccccccccccccccccccccccccccccccccccccccccccccccccccccccccccccccccccacacccccccccc"/>
    <path id="path828" class="cls-12" d="M1787.9,1183.5l-7.6,45.6-9.3,40.9-11.3,47-10,46.3-7.3,21.5-10.3,18.4-19.3,19.7-14.9,11.2-25.3,9.7-74.1,19.1-54,10.9-23.2.2h-102.7s0,8.8,0,8.8l61.1-.2h60.7c0,0,17.3-1.2,17.3-1.2l36.5-8.3,53-14.9,41.1-11,15.3-7.4,13-8.7,12.9-11.5,14.2-19,7.5-12.8,5-15.9,8.9-33.5,21.9-68,1.5-4.3-.5-82.5Z" inkscape:connector-curvature="0"/>
    <path id="path985" class="cls-15" d="M241.7,395.3l-25.9-45.1-54.5-95.2-51.2-88.4-19.6-31.8" inkscape:connector-curvature="0"/>
    <path id="path1216" class="cls-9" d="M241.7,395.3l-25.9-45.1-54.5-95.2-51.2-88.4-19.6-31.8" inkscape:connector-curvature="0"/>
    <path id="path1263" class="cls-19" d="M1273.6,1509.2l25.4-.3-.6-19.4h-26.3s-64.5.3-64.5.3h-102.6c0-.1-153.2-.1-153.2-.1l-178.5.3-120.7,1.1-49.3.5s-5.9-.2-8.7-.8c-1.9-.4-3.8-.9-5.5-1.9-1.4-.8-2.7-1.9-3.7-3.1-1.5-1.8-2.9-3.8-3.7-6-1.5-3.9-2.3-12.3-2.3-12.3l-4.8-26.3-5.2-21.1-7-20.8-7.2-18.2-16.1-42.5-7.2-17h0s-7.7-17.9-7.7-17.9l-16.7-45.7-21.4-57.9-29.8-77.3-18-55-20.6-67.4-15.2-60-16.4-73.3-9.4-56-13.4-85.2-11.9-75.2-9.1-47.2-13.7-56.3-13.5-41.9-14-36.5-15.7-35s-10.4-24.6-16.5-36.5c-7.1-14.1-23.3-41.3-23.3-41.3l-21.1-34.6-37.3-65.7-32.9-57.3-36.1-60.4-9.7-16.3s-1.8-3.7-2-5.8c-.2-1.8,0-3.8.8-5.4.7-1.5,2.2-2.7,3.5-3.7,1.9-1.4,4.1-2.7,6.4-3.2,3.7-.8,7.5,0,11.3.3,5.1.3,15.2,1.6,15.2,1.6l52.9,7.8,51.9,8.4,55,12.3,59,15.2,82.1,27,69.4,29.5,53.8,25.8,65.2,31.4,73.6,35,106.6,52.7,75.9,35.8,61.5,24,92.7,33.9,125.9,38.5,89.7,26.2s9,2.9,12.9,5.5c2.9,2,5.3,4.6,7.4,7.5,2.4,3.3,4.1,7,5.6,10.7,1.4,3.5,2.4,7.1,3,10.8.5,3.4.7,6.9.3,10.3-.4,3.1-1.2,6.2-2.5,9-1.6,3.5-6.5,9.6-6.5,9.6l-30.1,26.8-32.3,25-33.5,18.1-37.1,14.8-36.4,9.7-36.2,6.1-25.1,1.1-29.6-.9-20.8-2.2-27.9-5.4-37.7-12.2-48.6-21-79.8-35-47.1-21.5-52.4-23.9-12.5-5.3s-8.2-3.6-12.5-4.8c-4.6-1.3-9.4-2.1-14.2-2.8-5.2-.7-10.5-1.2-15.7-1.4-7.6-.2-15.3-.3-22.9.7-9,1.2-18,3.5-26.6,6.5-6.8,2.4-13.3,5.9-19.7,9.3-5.9,3.1-11.8,6.2-17.1,10.2-5.5,4.2-10.3,9.2-15,14.2-5.6,5.9-11,12-15.6,18.7-4.2,6.1-7.6,12.7-10.8,19.3-2.9,6.1-5.9,12.2-7.8,18.6-2.6,8.7-4.4,17.7-5,26.8-.4,6.8,1.2,20.4,1.2,20.4l6.4,34,11.3,42.3,19.1,71.3,22.4,90.1,8.1,26.2s4.1,9.1,6.7,13.4c3,4.8,6.6,9.1,10.2,13.5,5,6.1,10.1,12.1,15.9,17.5,5.3,4.9,10.9,9.5,17,13.3,9.4,5.9,19.3,11.2,29.9,14.7,8.1,2.7,16.6,3.9,25,4.8,7.2.8,14.4,1.2,21.7.8,10.5-.6,21-2,31.2-4.6,7.4-1.9,14.6-4.6,21.4-8.1,7.9-4,15.2-9.2,22.4-14.4,9.3-6.7,17.7-14.6,26.8-21.7,5-3.9,9.9-7.9,15.1-11.4,5.4-3.6,11-6.8,16.7-10,5.8-3.2,11.7-6.3,17.8-9,9.3-4.2,18.8-8.1,28.4-11.5,8.2-2.9,16.5-5.5,24.9-7.6,7.6-1.9,15.3-3.2,23-4.5,7.2-1.2,14.4-2.3,21.6-2.9,7.9-.7,15.8-.9,23.7-.8,7.6,0,15.2.3,22.7,1.1,10.8,1.1,32.1,5.2,32.1,5.2l57.1,13.1,77.1,19.5,129.7,32.9,127,31.3,267.3,64.8,28.6,6.9s6.9,2.8,10.3,4.4c3.9,1.8,7.9,3.5,11.7,5.7,5,3,9.8,6.2,14.2,10,4,3.5,7.5,7.4,10.7,11.6,3.5,4.6,6.5,9.8,9.3,14.9,2.2,4,4.1,8.2,5.9,12.3,1.5,3.6,3.2,7.2,4.2,11,1.8,6.8,3.3,20.8,3.3,20.8v22.4s1.3,115.2,1.3,115.2l3.1,58.6,1.5,37.5s.1,7.9-.6,11.8c-.6,2.9-1.6,5.7-3,8.3-1.4,2.5-3.2,5-5.5,6.8-5.2,4.1-18.1,8.3-18.1,8.3l-52.5,17-72.6,12.1-61.6,6.1-61.1.6-220.2,1.3.6,19.4,116.8-.5,138.7-1.1,70.6-1.4,54.5-8.9,56.7-14.6,27.8-10.2,20.1-8.6s8.8-3.9,12.7-6.6c2.4-1.7,4.6-3.7,6.4-5.9,1.8-2.2,3.3-4.8,4.5-7.4,1.6-3.5,2.9-7.3,3.6-11.1.8-4.2.6-12.8.6-12.8l-2.7-37.4-1.8-69.7-1.4-91.4-.3-31.6s-.8-15-2.1-22.4c-1.1-6.1-2.8-12.1-4.9-18-1.9-5.3-4.1-10.5-6.7-15.6-3.1-6-6.6-11.8-10.5-17.2-3.4-4.8-7.1-9.4-11.3-13.5-5.8-5.7-12.2-10.9-19.1-15.2-4.2-2.6-8.8-4.5-13.4-6.4-7-2.8-21.5-6.9-21.5-6.9l-85-20.5-121.4-28.7-85.9-22.2-99.1-24.6-152.2-38.5-106.7-25.3-37.6-8.4s-20.9-3.7-31.4-4.6c-10.2-.9-20.4-1.3-30.6-.9-15.8.6-31.6,2.1-47.1,5-15.6,2.9-31,7.1-46.1,12.3-10.8,3.8-21.4,8.4-31.6,13.6-14.1,7.1-27.9,15-40.8,24.1-6.9,4.8-13,10.5-19.5,15.8-6.2,5.1-12,10.6-18.5,15.2-4.6,3.3-9.3,6.4-14.4,8.8-7.3,3.5-15,6.3-22.8,8.2-6.6,1.6-13.5,2.1-20.2,2.4-7.8.4-15.7.8-23.4-.1-6.3-.7-12.5-2.4-18.5-4.2-6.1-1.9-12.1-4.2-17.8-7-5.6-2.8-11.1-6.1-16.1-10-6.1-4.7-11.7-10-16.7-15.8-4.9-5.8-9.1-12.3-12.9-18.8-3.2-5.3-8.4-16.6-8.4-16.6l-7.2-28.2-16.3-63.3-20.1-76.1-15.7-59-5.4-25.9s-.6-10.4-.4-15.6c.2-5.7.7-11.4,1.7-16.9.9-4.7,2.3-9.4,3.9-13.9,2.8-7.6,10.1-22,10.1-22,0,0,6.2-10.2,9.9-14.9,3.2-4.1,6.6-8,10.4-11.5,4.3-4,8.9-7.8,13.8-11,6.3-4.2,13-7.9,20-10.8,7-2.8,14.4-4.7,21.8-6.1,7.4-1.5,14.9-2.3,22.4-2.6,7-.3,14.1-.2,21,.7,5.4.7,15.9,3.5,15.9,3.5l32.5,13.3,40.6,18.6,71.7,32.8,79.8,36.1,30,11.7,22.3,7.3,32.7,8.2,36.5,4,37.8,1.2,38.3-4.2,28.7-6.4,50.2-18.4,24.2-12.1,25.7-15.6,15.2-11.5,15.7-13.3,30.3-27.1s5.6-6.7,7.5-10.5c2.1-4.1,3.3-8.6,4.4-13,1.4-5.3,2.5-10.8,2.8-16.3.2-3.5.3-7.1-.4-10.6-1-4.8-2.9-9.4-5.3-13.7-2.6-4.7-6-8.9-9.7-12.8-2.7-2.8-5.7-5.5-9-7.6-2.6-1.7-5.4-2.9-8.3-4.1-4.1-1.6-12.6-4-12.6-4l-52.6-16.1-122.2-37.4-53.7-17.4-62-21.4-48.2-19.2-46.8-21.5-81.2-37.8-72-34.9-90.6-43.9-75.5-37.3-49.7-23.2-47.2-19.1-44-15.7-39.4-12.6-52.1-15-55.5-11.8-46.3-8.5-59.5-8.6-32.4-4.2s-13.8-1.9-20.3-.1c-3.8,1.1-7.1,3.6-10.1,6.2-1.9,1.7-3.6,3.6-5,5.8-1.6,2.5-2.7,5.3-3.5,8.2-1.1,3.8-2,7.8-1.6,11.7.5,5.2,5.3,14.7,5.3,14.7l24.8,39.2,24,42.1,33.3,57.7,29.6,52,32.3,55,20.9,41.8,21.7,46.8,17.2,44.6,16.2,51.4,11.2,45.9,7,37.1,13.2,84.8,14.8,89.8,17.5,92.5,14.1,59.3,14.1,52.4,19.6,63.1,15.4,43.3,20,55,29.5,75.2,23.1,59.8,22.8,59.4,11,30.5,7.7,26.1,5.4,23.5,4.2,22.9s1.5,8.5,3.3,12.4c1.1,2.5,4.4,6.9,4.4,6.9,0,0,4,3.4,6.3,4.5,2.3,1.1,7.3,2,7.3,2l20-1.1,30.4-1,48,.3h49.5s89.4-.3,89.4-.3l77.2-.3,199.7,2.7,122.9-1.1h51.7Z" inkscape:connector-curvature="0" sodipodi:nodetypes="ccccccccccaaaaccccccccccccccccccccccccaccccccaaaaaccccccccccccccccaaaaaacccccccccccccccccaaaaaaaaaaaaccccccaaaaaaaaaaaaaaaaaaaacccccccaaaaaaacccccaaaccccccccccccccaaaacccccaaaaaaaccccccccaaaaaaaaaaaaaaaaaccccccaaacaaaaaaaccccccccccccccccccaaaaaaaaccccccccccccccccccccaaaaacccccccccccccccccccccccccccacacccccccccc"/>
    <path id="path1265" class="cls-28" d="M850.5,1475.1l-101.6,1.7-98.3.9s-13.9.6-20.8,0c-4.2-.4-8.3-1.1-12.4-2.1-4.2-1.1-8.5-2.1-12.3-4.3-2.8-1.6-5.5-3.7-7.5-6.3-3.2-4.3-6.6-14.7-6.6-14.7l-9.5-26.6-10.2-22.7-13.4-30.4-19.9-41.5-2.5-5.5-3.1-5.1,22.6,62.8,7.3,18.2,7,20.8,11.9,37.1s2.4,7.5,4.1,11.1c1.7,3.6,3.3,7.4,6.1,10.2,2,1.9,4.6,3.1,7.1,4.1,3.3,1.4,6.8,2.3,10.3,2.7,4.2.6,12.7.1,12.7.1l83.1-1.5,80.9-.5,64.5.6.3-9.1Z" inkscape:connector-curvature="0" sodipodi:nodetypes="cccaaaacccccccccccaaaaccccc"/>
    <path id="path1271" class="cls-28" d="M1785.9,1191.6l-5.6,37.5-9.3,40.9-11.3,47-10,46.3s-4.2,14.6-7.3,21.5c-2.9,6.4-6.1,12.7-10.3,18.4-5.5,7.3-12.4,13.6-19.3,19.7-4.7,4.1-9.5,8.2-14.9,11.2-7.9,4.4-25.3,9.7-25.3,9.7l-74.1,19.1-54,10.9-23.2.2h-102.7s0,8.8,0,8.8l61.1-.2h60.7c0,0,17.3-1.2,17.3-1.2l36.5-8.3,53-14.9,41.1-11s10.4-4.6,15.3-7.4c4.5-2.6,8.9-5.5,13-8.7,4.6-3.5,9-7.2,12.9-11.5,5.4-5.8,9.9-12.4,14.2-19,2.7-4.1,5.5-8.3,7.5-12.8,2.3-5.1,5-15.9,5-15.9l8.9-33.5,20.8-66.1.8-3.8-.8-76.8Z" inkscape:connector-curvature="0" sodipodi:nodetypes="cccccaaaaccccccccccccaaaaaccccc"/>
    <path id="path1273" class="cls-28" d="M1418.5,1473.9l-70-15.6-431,2.5-67,14.3-.3,9.1,109.3-.3,408.4-.7,50.7-.5v-8.8Z" inkscape:connector-curvature="0"/>
    <path class="cls-3" d=""/>
    <path id="path1431" class="cls-21" d="M49.7,750.6l14.4,24.8-1.3-73.8-37.9,63.4,24.8-14.4Z" inkscape:connector-curvature="0"/>
    <path id="path1167" class="cls-18" d="M62.7,701.6" inkscape:connector-curvature="0" sodipodi:nodetypes="cc"/>
    <path class="cls-3" d=""/>
    <path id="path1306" class="cls-22" d="M1234.2,1413.9l35.3-36.7-125.3,38.5,126.7,33.5-36.7-35.3Z"/>
    <path id="path1301" class="cls-17" d="M1144.2,1415.7" inkscape:connector-curvature="0" sodipodi:nodetypes="cc"/>
    <g id="text1750" class="cls-27">
      <text class="cls-23" transform="translate(619.9 1456)"><tspan x="0" y="0">1</tspan></text>
    </g>
    <g id="text1754" class="cls-27">
      <text class="cls-23" transform="translate(234.6 566.7)"><tspan x="0" y="0">2</tspan></text>
    </g>
    <g id="text1758" class="cls-27">
      <text class="cls-23" transform="translate(25.4 167.1)"><tspan x="0" y="0">3</tspan></text>
    </g>
    <g id="text1762" class="cls-27">
      <text class="cls-23" transform="translate(1207.8 576.9)"><tspan x="0" y="0">4</tspan></text>
    </g>
    <g id="text1766" class="cls-27">
      <text class="cls-23" transform="translate(1027.8 651.4)"><tspan x="0" y="0">5</tspan></text>
    </g>
    <g id="text1770" class="cls-27">
      <text class="cls-23" transform="translate(599.3 635.2)"><tspan x="0" y="0">6</tspan></text>
    </g>
    <g id="text1774" class="cls-27">
      <text class="cls-23" transform="translate(671.5 979.8)"><tspan x="0" y="0">7</tspan></text>
    </g>
    <g id="text1778" class="cls-27">
      <text class="cls-23" transform="translate(943.3 990)"><tspan x="0" y="0">8</tspan></text>
    </g>
    <g id="text1782" class="cls-27">
      <text class="cls-23" transform="translate(1710.6 1184.5)"><tspan x="0" y="0">9</tspan></text>
    </g>
    <g id="text1786" class="cls-27">
      <text class="cls-23" transform="translate(1831.3 1457)"><tspan x="0" y="0">10</tspan></text>
    </g>
    <path id="path1794" class="cls-8" d="M201,320.2l18.6-11.2" inkscape:connector-curvature="0" sodipodi:nodetypes="cc"/>
    <path id="path1796" class="cls-8" d="M573.5,854.7l-21.4,4.3" inkscape:connector-curvature="0" sodipodi:nodetypes="cc"/>
    <g id="text1802" class="cls-27">
      <text class="cls-24" transform="translate(17.1 841.6)"><tspan x="0" y="0">N</tspan></text>
    </g>
    <g id="text1810" class="cls-27">
      <text class="cls-24" transform="translate(123.8 367)"><tspan x="0" y="0">S1</tspan></text>
    </g>
    <g id="text1814" class="cls-27">
      <text class="cls-24" transform="translate(577.7 877.1)"><tspan x="0" y="0">S2</tspan></text>
    </g>
    <path id="path2075" class="cls-1" d="M1299.2,1510.9l-1-52.6" inkscape:connector-curvature="0" sodipodi:nodetypes="cc"/>
    <ellipse id="path2077" class="cls-16" cx="640.9" cy="1430.9" rx="40.1" ry="40.9"/>
    <ellipse id="path2077-3" class="cls-16" cx="254.6" cy="542.4" rx="40.1" ry="40.9"/>
    <ellipse id="path2077-9" class="cls-16" cx="45.8" cy="142.9" rx="40.1" ry="40.9"/>
    <ellipse id="path2077-7" class="cls-16" cx="1227.7" cy="552.7" rx="40.1" ry="40.9"/>
    <ellipse id="path2077-6" class="cls-16" cx="1047.2" cy="626.1" rx="40.1" ry="40.9"/>
    <ellipse id="path2077-4" class="cls-16" cx="620.6" cy="610.7" rx="40.1" ry="40.9"/>
    <ellipse id="path2077-0" class="cls-16" cx="690" cy="953.9" rx="40.1" ry="40.9"/>
    <ellipse id="path2077-65" class="cls-6" cx="963.7" cy="966.6" rx="40.1" ry="40.9"/>
    <ellipse id="path2077-67" class="cls-16" cx="1729.8" cy="1159.9" rx="40.1" ry="40.9"/>
    <ellipse id="path2077-97" class="cls-16" cx="1871.4" cy="1434.8" rx="46.7" ry="48.5"/>
    <path class="cls-3" d=""/>
    <path id="path2471" class="cls-26" d="M228.2,276.5l16.4,4.4-31.4-30.3,10.7,42.4,4.4-16.4Z"/>
    <path id="path2466" class="cls-17" d="M213.2,250.6" inkscape:connector-curvature="0"/>
    <path class="cls-3" d=""/>
    <path id="path2742" class="cls-25" d="M544.4,900.5l-15.1-7.7,24.5,36.2-1.7-43.6-7.7,15.1Z"/>
    <path id="path2740" class="cls-17" d="M553.8,929" inkscape:connector-curvature="0" sodipodi:nodetypes="cc"/>
    <path id="path2746" class="cls-10" d="M1293.3,1499.8l-683.3.3-19.3-.4-8.8-3.2-6.4-7.9-2.6-13.5-7.5-33-21.2-61.5-48.8-130.4-39.8-100.8-26-72.1-30.8-110.8-23.9-110.8-23.3-143.2-19.1-119.9-29.2-94.9-46.9-103.1-45.1-78.8" inkscape:connector-curvature="0"/>
    <path id="path2748" class="cls-4" d="M208.7,313l-63.9-112.6-33.9-56.2-12.4-22.6-1.1-12.4,4.9-9.7,8.2-4.9,12.2-.7,21.3,2.5,108.1,16.2,66,15,76.5,22.1,78,27.4,130.1,60.8,127.5,62.6,177.8,82.9,105,40.5,130.5,42.8,118.4,34.3,18,8.6,11.1,15.5,4.2,16.2-.3,16.3-6.4,16.4-18.7,16.6-47.5,38.2-39.5,23.6-48.8,17-66.6,13.3-61.9-2.8-44.5-8-51.7-17.2-137.2-62.6-90-39.8-28.3-6.4-30.9,2.3-24.6,5.8-27,14.1-18.6,16.1-18.7,26.1-12,28.5-4.3,29.1,5.4,42,39.4,144.6" inkscape:connector-curvature="0"/>
    <path id="path2750" class="cls-14" d="M564,858.7l12.2,52.1,7.6,27.4,8.9,17.4,13.8,19.1,17.9,17.4,26.4,14.2,30.9,7.6,28.8-.3,33.4-5.8,29.4-18.2,30.5-24.9,28.6-20.7,37.9-17.5,36.1-10.9,35.8-5,45.9-1.9,33.9,4,79.3,18.6,528.5,131,92.4,22.7,26.8,12.2,23.8,22.9,13.3,20.8,9.2,30.8,1.9,25.9,1.7,102.4,4.1,111.9-2.3,21.6-6,14.8-13.1,8.4-42.1,14.8-81.7,17-66.8,8-285.8,2.7" inkscape:connector-curvature="0"/>
    <ellipse id="ellipse2752" class="cls-11" cx="640.9" cy="1430.9" rx="40.1" ry="40.9"/>
    <ellipse id="ellipse2754" class="cls-7" cx="1871.4" cy="1434.8" rx="46.7" ry="48.5"/>
    <ellipse id="ellipse2756" class="cls-7" cx="1729.8" cy="1159.9" rx="40.1" ry="40.9"/>
    <ellipse id="ellipse2758" class="cls-7" cx="963.7" cy="966.6" rx="40.1" ry="40.9"/>
    <ellipse id="ellipse2760" class="cls-7" cx="690" cy="953.9" rx="40.1" ry="40.9"/>
    <ellipse id="ellipse2762" class="cls-2" cx="1227.7" cy="552.7" rx="40.1" ry="40.9"/>
    <ellipse id="ellipse2764" class="cls-2" cx="1047.2" cy="626.1" rx="40.1" ry="40.9"/>
    <ellipse id="ellipse2766" class="cls-2" cx="620.6" cy="610.7" rx="40.1" ry="40.9"/>
    <ellipse id="ellipse2768" class="cls-11" cx="254.6" cy="542.4" rx="40.1" ry="40.9"/>
    <ellipse id="ellipse2770" class="cls-2" cx="45.8" cy="142.9" rx="40.1" ry="40.9"/>
    <path id="path2807" class="cls-5" d="M1674.7,31l218.2.2" inkscape:connector-curvature="0" sodipodi:nodetypes="cc"/>
    <path id="path2811" class="cls-5" d="M1674.7,76l218.2.2" inkscape:connector-curvature="0" sodipodi:nodetypes="cc"/>
    <path id="path2813" class="cls-5" d="M1674.7,120.8l218.2.2" inkscape:connector-curvature="0" sodipodi:nodetypes="cc"/>
    <path id="path2824" class="cls-10" d="M1674.7,31l218.2.2" inkscape:connector-curvature="0" sodipodi:nodetypes="cc"/>
    <path id="path2826" class="cls-14" d="M1674.7,120.8l218.2.2" inkscape:connector-curvature="0" sodipodi:nodetypes="cc"/>
    <path id="path2828" class="cls-4" d="M1674.7,76l218.2.2" inkscape:connector-curvature="0" sodipodi:nodetypes="cc"/>
    <g id="text2832" class="cls-27">
      <text class="cls-20" transform="translate(1448.5 44.4)"><tspan x="0" y="0">F1 Sector 1</tspan></text>
    </g>
    <g id="text2836" class="cls-27">
      <text class="cls-20" transform="translate(1448.2 89)"><tspan x="0" y="0">F1 Sector 2</tspan></text>
    </g>
    <g id="text2840" class="cls-27">
      <text class="cls-20" transform="translate(1447.9 132.9)"><tspan x="0" y="0">F1 Sector 3</tspan></text>
    </g>
    <path id="path2844" class="cls-13" d="M1674.6,165.8l218.2.2" inkscape:connector-curvature="0" sodipodi:nodetypes="cc"/>
    <g id="text2857" class="cls-27">
      <text class="cls-20" transform="translate(1520.9 177.2)"><tspan x="0" y="0">Pit lane</tspan></text>
    </g>
    <image id="image2867" class="cls-27" width="240" height="240" transform="translate(1251.9 1510.6) scale(.2)" xlink:href="Austria-1.png"/>
    <image id="image2880" class="cls-27" width="240" height="240" transform="translate(1674.5 199.5) scale(.2)" xlink:href="Austria-2.png"/>
    <g id="text2895" class="cls-27">
      <text class="cls-20" transform="translate(1374.3 222.9)"><tspan x="0" y="0">Start/finish line</tspan></text>
    </g>
    <g id="text2953" class="cls-27">
      <text class="cls-20" transform="translate(579.2 1381.4)"><tspan x="0" y="0">Niki Lauda</tspan></text>
    </g>
    <g id="text2957" class="cls-27">
      <text class="cls-20" transform="translate(34.5 75.2)"><tspan x="0" y="0">Ams Ag</tspan></text>
    </g>
    <g id="text2961" class="cls-27">
      <text class="cls-20" transform="translate(1070.1 524.7)"><tspan x="0" y="0">Rauch</tspan></text>
    </g>
    <g id="text2965" class="cls-27">
      <text class="cls-20" transform="translate(1587.2 1134.2)"><tspan x="0" y="0">Rindt</tspan></text>
    </g>
  </g>
</svg>