<?xml version="1.0" encoding="UTF-8"?>
<svg id="svg2383" xmlns="http://www.w3.org/2000/svg" xmlns:xlink="http://www.w3.org/1999/xlink" xmlns:svg="http://www.w3.org/2000/svg" xmlns:sodipodi="http://sodipodi.sourceforge.net/DTD/sodipodi-0.dtd" xmlns:rdf="http://www.w3.org/1999/02/22-rdf-syntax-ns#" xmlns:inkscape="http://www.inkscape.org/namespaces/inkscape" xmlns:dc="http://purl.org/dc/elements/1.1/" xmlns:cc="http://creativecommons.org/ns#" version="1.1" viewBox="0 0 847.6 893.2">
  <defs>
    <style>
      .cls-1, .cls-2, .cls-3, .cls-4, .cls-5, .cls-6, .cls-7, .cls-8, .cls-9, .cls-10, .cls-11 {
        fill: none;
      }

      .cls-1, .cls-12, .cls-13, .cls-14 {
        isolation: isolate;
      }

      .cls-1, .cls-12, .cls-14 {
        font-family: TimesNewRomanPSMT, 'Times New Roman';
      }

      .cls-1, .cls-4, .cls-15, .cls-16, .cls-9 {
        stroke: #fff;
      }

      .cls-1, .cls-14 {
        font-size: 64px;
      }

      .cls-17 {
        clip-path: url(#clippath);
      }

      .cls-2, .cls-18, .cls-19 {
        stroke-width: 0px;
      }

      .cls-12 {
        font-size: 40px;
      }

      .cls-12, .cls-18, .cls-15, .cls-16, .cls-14 {
        fill: #000;
      }

      .cls-3 {
        stroke-width: 10px;
      }

      .cls-3, .cls-4, .cls-5, .cls-6, .cls-16, .cls-7, .cls-8, .cls-9, .cls-10, .cls-20, .cls-21, .cls-11 {
        stroke-linejoin: round;
      }

      .cls-3, .cls-11 {
        stroke: #c8c8c8;
      }

      .cls-4, .cls-5, .cls-6, .cls-10 {
        stroke-width: 4px;
      }

      .cls-5 {
        stroke: #d7ff01;
      }

      .cls-5, .cls-15, .cls-6, .cls-16, .cls-10, .cls-20, .cls-21 {
        stroke-linecap: round;
      }

      .cls-5, .cls-6, .cls-10 {
        stroke-dasharray: 0 0 4 8;
      }

      .cls-22 {
        clip-path: url(#clippath-1);
      }

      .cls-23 {
        clip-path: url(#clippath-4);
      }

      .cls-24 {
        clip-path: url(#clippath-3);
      }

      .cls-25 {
        clip-path: url(#clippath-2);
      }

      .cls-26 {
        clip-path: url(#clippath-5);
      }

      .cls-15 {
        stroke-width: .8px;
      }

      .cls-6 {
        stroke: #21cee0;
      }

      .cls-7 {
        stroke-width: 11.8px;
      }

      .cls-7, .cls-8, .cls-20 {
        stroke: #000;
      }

      .cls-8 {
        stroke-width: 5.8px;
      }

      .cls-9 {
        stroke-width: 12px;
      }

      .cls-10 {
        stroke: #ff5e93;
      }

      .cls-19, .cls-21 {
        fill: #fff;
      }

      .cls-20 {
        fill: url(#pattern4166);
        stroke-width: .7px;
      }

      .cls-21 {
        stroke: #181818;
        stroke-width: 1px;
      }

      .cls-11 {
        stroke-width: 3.9px;
      }
    </style>
    <clipPath id="clippath">
      <path class="cls-2" d="M-864.8,174.8H953.6v763.8H-864.8V174.8Z"/>
    </clipPath>
    <clipPath id="clippath-1">
      <path class="cls-2" d="M927.5,399.6c-606.1-3.8-1212.2-7.7-1818.3-11.5l-4.8,763.7c606.1,3.8,1212.2,7.7,1818.3,11.5,1.6-254.6,3.2-509.2,4.8-763.7Z"/>
    </clipPath>
    <clipPath id="clippath-2">
      <rect class="cls-2" x="35.5" y="518.9" width="1511.8" height="1003.7" transform="translate(-482 804.5) rotate(-42.6)"/>
    </clipPath>
    <clipPath id="clippath-3">
      <rect class="cls-2" x="-25.8" y="522.3" width="1511.8" height="1003.7" transform="translate(-500.5 763.9) rotate(-42.6)"/>
    </clipPath>
    <pattern id="pattern4166" x="0" y="0" width="18.2" height="18.1" patternTransform="translate(-3704.4 -11411) rotate(1.5) scale(.5 -.5)" patternUnits="userSpaceOnUse" viewBox="0 0 18.2 18.1">
      <g>
        <rect class="cls-2" width="18.2" height="18.1"/>
        <g id="g4907">
          <rect id="rect4899" class="cls-18" y="0" width="18.2" height="18.1"/>
          <rect id="rect4903" class="cls-19" y="9.1" width="9.1" height="9.1"/>
          <rect id="rect4905" class="cls-19" x="9.1" y="0" width="9.1" height="9.1"/>
        </g>
      </g>
    </pattern>
    <clipPath id="clippath-4">
      <rect class="cls-2" x="-172" y="-402.6" width="1511.8" height="1003.7" transform="translate(288.8 612.8) rotate(-69.8)"/>
    </clipPath>
    <clipPath id="clippath-5">
      <rect class="cls-2" x="-680.8" y="-493.7" width="1511.8" height="1003.7" transform="translate(41.5 75.9) rotate(-69.8)"/>
    </clipPath>
  </defs>
  <g id="_defs" data-name="&amp;lt;defs">
    <inkscape:perspective id="perspective2391" inkscape:persp3d-origin="372.04724 : 350.78739 : 1" inkscape:vp_x="0 : 526.18109 : 1" inkscape:vp_y="0 : 1000 : 0" inkscape:vp_z="744.09448 : 526.18109 : 1" sodipodi:type="inkscape:persp3d"/>
    <inkscape:perspective id="perspective2400" inkscape:persp3d-origin="372.04724 : 350.78739 : 1" inkscape:vp_x="0 : 526.18109 : 1" inkscape:vp_y="0 : 1000 : 0" inkscape:vp_z="744.09448 : 526.18109 : 1" sodipodi:type="inkscape:persp3d"/>
    <inkscape:perspective id="perspective3200" inkscape:persp3d-origin="372.04724 : 350.78739 : 1" inkscape:vp_x="0 : 526.18109 : 1" inkscape:vp_y="0 : 1000 : 0" inkscape:vp_z="744.09448 : 526.18109 : 1" sodipodi:type="inkscape:persp3d"/>
  </g>
  <sodipodi:namedview id="base" bordercolor="#ffffff" borderopacity="0.0" inkscape:current-layer="layer1" inkscape:cx="369.48188" inkscape:cy="671.75833" inkscape:document-units="px" inkscape:pageopacity="0.0" inkscape:pageshadow="0" inkscape:window-height="822" inkscape:window-maximized="0" inkscape:window-width="1422" inkscape:window-x="7" inkscape:window-y="0" inkscape:zoom="0.94711919" pagecolor="#ffffff" showborder="false" showgrid="false"/>
  <g id="layer1" inkscape:groupmode="layer" inkscape:label="Layer 1">
    <path id="path3185" class="cls-9" d="M274,598.6c-.3-1.2-20.6-106.2-20.6-106.2" sodipodi:nodetypes="cc"/>
    <path id="path3183" class="cls-3" d="M274.3,597.8c.9-6.2,6-16.8,9.9-19.9,4.1-2.8,10.5-10.9,13.5-14.2,2.9-3.3,4.5-7.3,6.1-11.2.8-4.7-.6-14.1-2.5-18.1-4.1-6.8-17.1-15.8-23.8-16.9-4.5-1.7-16.1-3.6-20.5-11.4" inkscape:connector-curvature="0" sodipodi:nodetypes="ccscccc"/>
    <path id="path3189" class="cls-4" d="M687.9,842.1c-17.9.5-36.2-.4-54.1.9-24.1,1.7-48,4.6-72,7.1" sodipodi:nodetypes="css"/>
    <path id="path3191" class="cls-4" d="M661.5,752.1c17.8-.9,35.6,1.3,53.4,2.6,11.2.8,22.8,1.4,33.2,4.5,6.4,1.9,12.7,5.4,17.1,10.5,5.1,5.9,10,13.6,11.8,21.1,1.7,6.8.2,14.8-1.3,21.8-1.4,6.5-5.2,12.6-9.5,17.2-4.5,4.9-9.9,11.1-16.8,11.4-20.3,1-44.2.7-62.9.8-5.3,0-6.6-9.6-10.8-12.9-1.9-1.5-4.9-1.8-7.4-1.3-32.7,6.1-65.3,14.7-98.2,21.1-8.4,1.6-17.2,1.6-25.8,1.6-84.6-.2-168.5-1.2-253.3-1.1-26.9,0-53.8,6.4-80.7,6.6-41.2.3-83.2.1-124.7.3-23.4,0-34.9,1.9-52,2.5" sodipodi:nodetypes="cssssssssssssssss"/>
    <path id="path2406" class="cls-7" d="M321.9,863.9c-96.1-.7-181.1,1.2-276.4-.4-9.2-.2-16-5.8-19.8-13.1-1.6-3-3.7-10.1-2.6-17.9.8-5.3,9-14.6,13.4-18.2,17.9-14.4,28-23.8,48.1-35.3,14.6-8.4,25.7-16,41.8-21.1,14.2-4.5,35.3-9.1,50.2-9.5,66-2,119.1-.5,184.8-2.9,8.9-.3,22.7-1.8,30-6.2,6.4-3.8,16.6-13.4,19.1-28.6,1.5-9.3-.5-22.9-4.3-28.8-9-13.8-15.5-18.5-23.2-22.5-29.4-15.2-67.4-22.3-95.2-39-9.3-5.6-12.3-17.6-14.3-26.2-7.2-31.1-5.7-28.4-9.7-50.7-5.9-29.7-7.5-38.6-13-62.3-15.6-67.5-29.6-136.1-42.5-204.6-4.3-23,2.7-50.2-1.8-71.8-1.9-9.1-9.5-14.3-17.3-20.3-35.3-27.1-76.4-48.6-108.9-77.8-9.8-8.7-15.9-23.5-17.9-35.9-1.6-9.9,1.8-22.5,7.2-31.1,6.2-9.8,16.7-19.2,27.5-23.9,14.8-6.5,32.6-10.4,49.1-9.6,55.3,2.8,112.3,10.4,166.3,20.3,6.6,1.2,13,7.6,15.6,13.2,2.6,5.6-1,13.7,0,20.3,1,6.5,1.4,10,6.4,14.3,29.8,25.7,67.2,52.1,101.5,71.7,7.3,4.2,21.1,5.8,27.4,4.9,11.5-1.8,50.4-31.5,74.6-41.6,9.2-3.9,22.5-2.4,31.1,1.9,10.5,5.3,20.5,19.4,27.1,30.1,19,31.1,29.6,68.7,50.2,98.1,9.6,13.7,25.3,24.2,40.7,31.1,33.7,15.1,74.5,18.3,106.5,34.7,11.5,5.9,23.7,19.2,23.9,32.3,2.1,112.1-3.9,214.5-12.6,329.9-.7,9.1-4.9,21-16.2,19.9-29.9-3-74.2-8.2-105.2-11.2-26.9-2.6-51.5-3.4-76.9,1.2-7.4,1.3-15,8.1-19,14.7-4,6.6-4.5,18.3-3.1,25.2,1.4,7.4,6.6,15.4,13,20.7,6.7,5.5,13.8,9.7,22.6,10,44.5,1.7,68-1.4,110.1-.6,8.9.2,28.9,2.9,38.4,12.2,14.5,14.2,19.1,22.6,21.9,34.6,2.4,10.3-.3,23-5.2,32.8-5.4,10.6-14.9,21.4-25.1,27.5-11.3,6.7-26.8,7.6-40.4,7.6-132.4-.2-264.7,2.9-397.5,2h0Z" inkscape:connector-curvature="0" sodipodi:nodetypes="sssssssssssssssccssssssssssssssssssssssssssssssssssss"/>
    <path id="path3181" class="cls-11" d="M700.9,845c-6.3-5.9-17.7-15.8-20.5-17.6-3.1-2-16.4,0-28.1,3-4.8,1.3-10.1,2.9-17.6,5.3-5.4,1.7-20.9,7.5-26.2,9.2-5.1,1.6-11.4,3.3-20.1,3.7" inkscape:connector-curvature="0" sodipodi:nodetypes="csssss"/>
    <path id="path3179" class="cls-8" d="M655.9,750.2c17.8-.9,41.2,3.1,59,4.5,11.2.8,23.9,3.3,34.3,6.3,6.4,1.9,14.9,8.8,19.3,13.9,5.1,5.9,7.8,10.9,9.6,18.4,1.7,6.8,1,12.9-.6,20-1.4,6.5-4.4,12.6-8.7,17.2-4.5,4.9-14,9.2-20.6,11.4-11.8,4-20.3,4.8-39,4.9-16.7-.3-20.6-.1-28.2,0-38.6,1.6-56.6,1.7-87,1.3-8.6-.1-39.3,3.8-47.8,3.8-84.6-.2-170.7-.5-255.6-.3-26.9,0-80.3,4.3-80.3,4.3-19.6,1.5-24.3,2.3-28.1,2.5-14.1.6-19.2,2.3-36.3,2.9" inkscape:connector-curvature="0" sodipodi:nodetypes="csssssssccssssss"/>
    <g class="cls-17">
      <g id="g3804">
        <g id="text3180" class="cls-13">
          <text class="cls-14" transform="translate(481.4 419.5)"><tspan x="0" y="0">N</tspan></text>
          <text class="cls-1" transform="translate(481.4 419.5)"><tspan x="0" y="0">N</tspan></text>
        </g>
        <path id="path2745" class="cls-16" d="M544.2,376l39.7,37.8-.8.6-14.6-3.7-1.5,15-.8.6-21.9-50.2Z"/>
      </g>
    </g>
    <g class="cls-22">
      <g id="g4801">
        <g class="cls-25">
          <path id="path3463" class="cls-15" d="M621.1,875.6l-.4,12.6-32.8-7.3,33.2-5.3Z" inkscape:flatsided="true" inkscape:randomized="0" inkscape:rounded="0" sodipodi:arg1="0.52359878" sodipodi:arg2="1.5707963" sodipodi:cx="1683.6964" sodipodi:cy="1391.4535" sodipodi:r1="14.134234" sodipodi:r2="7.0671172" sodipodi:sides="3" sodipodi:type="star"/>
        </g>
        <g class="cls-24">
          <polygon id="rect3457" class="cls-20" points="569.6 830.1 582.6 830.4 581.2 884 568.2 883.7 569.6 830.1"/>
        </g>
      </g>
    </g>
    <g id="g3571">
      <path id="path3569" class="cls-21" d="M100.4,830.2c0,11.9-9.6,21.5-21.5,21.5s-21.5-9.6-21.5-21.5,9.6-21.5,21.5-21.5,21.5,9.6,21.5,21.5Z" sodipodi:cx="1773.0109" sodipodi:cy="962.63489" sodipodi:rx="23.927273" sodipodi:ry="23.927273" sodipodi:type="arc"/>
      <g id="text3389" class="cls-13">
        <text class="cls-12" transform="translate(69 843.8)"><tspan x="0" y="0">1</tspan></text>
      </g>
    </g>
    <g id="g3564">
      <path id="path3562" class="cls-21" d="M468.6,702.4c0,11.9-9.6,21.5-21.5,21.5s-21.5-9.6-21.5-21.5,9.6-21.5,21.5-21.5,21.5,9.6,21.5,21.5Z" sodipodi:cx="1773.0109" sodipodi:cy="962.63489" sodipodi:rx="23.927273" sodipodi:ry="23.927273" sodipodi:type="arc"/>
      <g id="text3393" class="cls-13">
        <text class="cls-12" transform="translate(437.5 715.9)"><tspan x="0" y="0">2</tspan></text>
      </g>
    </g>
    <g id="g3539">
      <path id="path3537" class="cls-21" d="M266.5,202.9c0,11.9-9.6,21.5-21.5,21.5s-21.5-9.6-21.5-21.5,9.6-21.5,21.5-21.5,21.5,9.6,21.5,21.5Z" sodipodi:cx="1773.0109" sodipodi:cy="962.63489" sodipodi:rx="23.927273" sodipodi:ry="23.927273" sodipodi:type="arc"/>
      <g id="text3401" class="cls-13">
        <text class="cls-12" transform="translate(235.3 216.4)"><tspan x="0" y="0">4</tspan></text>
      </g>
    </g>
    <g id="g3532">
      <path id="path3530" class="cls-21" d="M122.4,69.6c0,11.9-9.6,21.5-21.5,21.5s-21.5-9.6-21.5-21.5,9.6-21.5,21.5-21.5,21.5,9.6,21.5,21.5Z" sodipodi:cx="1773.0109" sodipodi:cy="962.63489" sodipodi:rx="23.927273" sodipodi:ry="23.927273" sodipodi:type="arc"/>
      <g id="text3405" class="cls-13">
        <text class="cls-12" transform="translate(91.2 82.6)"><tspan x="0" y="0">5</tspan></text>
      </g>
    </g>
    <g id="g3525">
      <path id="path3523" class="cls-21" d="M284.3,69.2c0,11.9-9.6,21.5-21.5,21.5s-21.5-9.6-21.5-21.5,9.6-21.5,21.5-21.5,21.5,9.6,21.5,21.5Z" sodipodi:cx="1773.0109" sodipodi:cy="962.63489" sodipodi:rx="23.927273" sodipodi:ry="23.927273" sodipodi:type="arc"/>
      <g id="text3409" class="cls-13">
        <text class="cls-12" transform="translate(252.7 82.5)"><tspan x="0" y="0">6</tspan></text>
      </g>
    </g>
    <g id="g3518">
      <path id="path3516" class="cls-21" d="M420.1,43.2c0,11.9-9.6,21.5-21.5,21.5s-21.5-9.6-21.5-21.5,9.6-21.5,21.5-21.5,21.5,9.6,21.5,21.5Z" sodipodi:cx="1773.0109" sodipodi:cy="962.63489" sodipodi:rx="23.927273" sodipodi:ry="23.927273" sodipodi:type="arc"/>
      <g id="text3413" class="cls-13">
        <text class="cls-12" transform="translate(388.7 56.2)"><tspan x="0" y="0">7</tspan></text>
      </g>
    </g>
    <g id="g3511">
      <path id="path3509" class="cls-21" d="M432.3,179.7c0,11.9-9.6,21.5-21.5,21.5s-21.5-9.6-21.5-21.5,9.6-21.5,21.5-21.5,21.5,9.6,21.5,21.5Z" sodipodi:cx="1773.0109" sodipodi:cy="962.63489" sodipodi:rx="23.927273" sodipodi:ry="23.927273" sodipodi:type="arc"/>
      <g id="text3417" class="cls-13">
        <text class="cls-12" transform="translate(400.7 193)"><tspan x="0" y="0">8</tspan></text>
      </g>
    </g>
    <g id="g3504">
      <path id="path3502" class="cls-21" d="M569.4,150.5c0,11.9-9.6,21.5-21.5,21.5s-21.5-9.6-21.5-21.5,9.6-21.5,21.5-21.5,21.5,9.6,21.5,21.5Z" sodipodi:cx="1773.0109" sodipodi:cy="962.63489" sodipodi:rx="23.927273" sodipodi:ry="23.927273" sodipodi:type="arc"/>
      <g id="text3421" class="cls-13">
        <text class="cls-12" transform="translate(538 163.8)"><tspan x="0" y="0">9</tspan></text>
      </g>
    </g>
    <g id="g3497">
      <path id="path3495" class="cls-21" d="M707.1,216.6c0,11.9-9.6,21.5-21.5,21.5s-21.5-9.6-21.5-21.5,9.6-21.5,21.5-21.5,21.5,9.6,21.5,21.5Z" sodipodi:cx="1773.0109" sodipodi:cy="962.63489" sodipodi:rx="23.927273" sodipodi:ry="23.927273" sodipodi:type="arc"/>
      <g id="text3425" class="cls-13">
        <text class="cls-12" transform="translate(663.9 229.9)"><tspan x="0" y="0">10</tspan></text>
      </g>
    </g>
    <g id="g3490">
      <path id="path3488" class="cls-21" d="M795.8,344.5c0,11.9-9.6,21.5-21.5,21.5s-21.5-9.6-21.5-21.5,9.6-21.5,21.5-21.5,21.5,9.6,21.5,21.5Z" sodipodi:cx="1773.0109" sodipodi:cy="962.63489" sodipodi:rx="23.927273" sodipodi:ry="23.927273" sodipodi:type="arc"/>
      <g id="text3429" class="cls-13">
        <text class="cls-12" transform="translate(754.3 358)"><tspan x="0" y="0">11</tspan></text>
      </g>
    </g>
    <g id="g3483">
      <path id="path3481" class="cls-21" d="M788.5,644c0,11.9-9.6,21.5-21.5,21.5s-21.5-9.6-21.5-21.5,9.6-21.5,21.5-21.5,21.5,9.6,21.5,21.5Z" sodipodi:cx="1773.0109" sodipodi:cy="962.63489" sodipodi:rx="23.927273" sodipodi:ry="23.927273" sodipodi:type="arc"/>
      <g id="text3433" class="cls-13">
        <text class="cls-12" transform="translate(745.5 657.5)"><tspan x="0" y="0">12</tspan></text>
      </g>
    </g>
    <g id="g3476">
      <path id="path3474" class="cls-21" d="M643.6,712.6c0,11.9-9.6,21.5-21.5,21.5s-21.5-9.6-21.5-21.5,9.6-21.5,21.5-21.5,21.5,9.6,21.5,21.5Z" sodipodi:cx="1773.0109" sodipodi:cy="962.63489" sodipodi:rx="23.927273" sodipodi:ry="23.927273" sodipodi:type="arc"/>
      <g id="text3437" class="cls-13">
        <text class="cls-12" transform="translate(601.4 725.9)"><tspan x="0" y="0">13</tspan></text>
      </g>
    </g>
    <g id="g3469">
      <path id="path3467" class="cls-21" d="M762.6,799.8c0,11.9-9.6,21.5-21.5,21.5s-21.5-9.6-21.5-21.5,9.6-21.5,21.5-21.5,21.5,9.6,21.5,21.5Z" sodipodi:cx="1773.0109" sodipodi:cy="962.63489" sodipodi:rx="23.927273" sodipodi:ry="23.927273" sodipodi:type="arc"/>
      <g id="text3441" class="cls-13">
        <text class="cls-12" transform="translate(719.4 813.3)"><tspan x="0" y="0">14</tspan></text>
      </g>
    </g>
    <g id="g3557">
      <path id="path3546" class="cls-21" d="M268,629c0,11.9-9.6,21.5-21.5,21.5s-21.5-9.6-21.5-21.5,9.6-21.5,21.5-21.5,21.5,9.6,21.5,21.5Z" sodipodi:cx="1773.0109" sodipodi:cy="962.63489" sodipodi:rx="23.927273" sodipodi:ry="23.927273" sodipodi:type="arc"/>
      <g id="text3548" class="cls-13">
        <text class="cls-12" transform="translate(237.3 642.3)"><tspan x="0" y="0">3</tspan></text>
      </g>
    </g>
    <g class="cls-23">
      <path id="path3582" class="cls-15" d="M366.1,48l5.4,11.4-32.5,8.5,27.1-19.9Z" inkscape:flatsided="true" inkscape:randomized="0" inkscape:rounded="0" sodipodi:arg1="0.52359878" sodipodi:arg2="1.5707963" sodipodi:cx="1683.6964" sodipodi:cy="1391.4535" sodipodi:r1="14.134234" sodipodi:r2="7.0671172" sodipodi:sides="3" sodipodi:type="star"/>
    </g>
    <g class="cls-26">
      <path id="path3584" class="cls-15" d="M292.9,59.5l-5.4-11.4,32.5-8.5-27.1,19.9Z" inkscape:flatsided="true" inkscape:randomized="0" inkscape:rounded="0" sodipodi:arg1="0.52359878" sodipodi:arg2="1.5707963" sodipodi:cx="1683.6964" sodipodi:cy="1391.4535" sodipodi:r1="14.134234" sodipodi:r2="7.0671172" sodipodi:sides="3" sodipodi:type="star"/>
    </g>
    <path id="path3594" class="cls-6" d="M817,423.9c-.6,56.1-6,184.1-12.4,239-1.1,9.1-4.1,24.4-13.2,24-30-1.2-77.2-7.9-108.2-10.9-26.9-2.6-53.8-3.4-79.1,1.2-7.4,1.3-13.9,10.7-17.9,17.3-4,6.6-3,13.8-1.6,20.7,1.4,7.4,5.1,16.6,11.5,21.8,6.7,5.5,14.9,10.4,23.7,10.8,44.5,1.7,68-1.4,110.1-.6,8.9.2,33.3,6.2,39.5,12.6,9,9.2,18.7,21.5,21.5,33.5,2.4,10.3-1,23.8-6,33.5-5.4,10.6-14.9,21.4-25.1,27.5-11.3,6.7-29,8-42.6,7.9-54.2-.1-85.7.3-132.8.3" inkscape:connector-curvature="0" sodipodi:nodetypes="cssssssssssssscc"/>
    <path id="path3592" class="cls-10" d="M220.1,339.7c-3.1-15.4-5.4-28.9-11.8-63.2-4.3-23,2.7-50.2-1.8-71.8-1.9-9.1-9.5-14.3-17.3-20.3-35.3-27.1-76.4-48.6-108.9-77.8-9.8-8.7-15.9-23.5-17.9-35.9-1.6-9.9,1.8-22.5,7.2-31.1,6.2-9.8,16.7-19.2,27.5-23.9,14.8-6.5,32.6-10.4,49.1-9.6,55.3,2.8,112.3,10.4,166.3,20.3,6.6,1.2,13,7.6,15.6,13.2,2.6,5.6-1,13.7,0,20.3,1,6.5,1.8,10.4,6.7,14.7,29.8,25.7,63.4,48.1,96.6,69.5,8.8,5.7,25.9,9.1,37.1,5.2,24.3-8.5,45.5-30,69.8-40.1,9.2-3.9,22.9-1.6,31.5,2.7,10.5,5.3,19.8,18.6,26.3,29.4,19,31.1,29.6,68.7,50.2,98.1,9.6,13.7,25.3,24.2,40.7,31.1,33.7,15.1,74.5,18.3,106.5,34.7,11.5,5.9,23.7,19.2,23.9,32.3,1.1,56.1.2,68.9.3,86.4" inkscape:connector-curvature="0" sodipodi:nodetypes="csssssssssssssssssssssc"/>
    <path id="path3616" class="cls-5" d="M580.6,862.6c-65.1,0-192.3,1.8-258.7,1.3-96.1-.7-178.1,1.2-273.4-.4-9.2-.2-15.2-4.2-20.6-10.5-4.2-4.9-6.7-13.1-5.6-19.8.9-5.3,8.6-15.7,13-19.3,17.9-14.4,35.5-27.5,55.5-39,14.6-8.4,20.9-13,37-18.1,14.2-4.5,26.7-7.9,41.7-8.4,66-2,126.2-.5,191.9-2.9,8.9-.3,27.2-4,33.7-9.6,7.9-6.8,12.8-16.4,15.3-26.4,2.3-9.2-2-21.5-5.8-30.3-3.3-7.6-14-15.9-21.7-19.9-29.4-15.2-65.6-21.6-93.3-38.3-9.3-5.6-15.2-20.6-16.7-29.1-7.8-43-14.7-74.2-22.7-113.1-7-33.9-23.3-106-30.1-139.2" inkscape:connector-curvature="0" sodipodi:nodetypes="cssssssssssssssssc"/>
  </g>
</svg>