<?xml version="1.0" encoding="UTF-8"?>
<svg id="svg5" xmlns="http://www.w3.org/2000/svg" xmlns:xlink="http://www.w3.org/1999/xlink" xmlns:svg="http://www.w3.org/2000/svg" xmlns:sodipodi="http://sodipodi.sourceforge.net/DTD/sodipodi-0.dtd" xmlns:inkscape="http://www.inkscape.org/namespaces/inkscape" version="1.1" viewBox="0 0 900 572.6">
  <defs>
    <style>
      .cls-1, .cls-2, .cls-3, .cls-4, .cls-5 {
        stroke: #fff;
      }

      .cls-1, .cls-2, .cls-4, .cls-5, .cls-6 {
        stroke-linecap: round;
      }

      .cls-1, .cls-3, .cls-7, .cls-4, .cls-5, .cls-8 {
        fill: #000;
      }

      .cls-1, .cls-5, .cls-6 {
        stroke-width: .8px;
      }

      .cls-1, .cls-8 {
        stroke-miterlimit: 11.3;
      }

      .cls-9, .cls-10 {
        fill: none;
      }

      .cls-9, .cls-7, .cls-11, .cls-12, .cls-13, .cls-14 {
        stroke-width: 0px;
      }

      .cls-2 {
        fill: #181818;
        stroke-width: .7px;
      }

      .cls-2, .cls-4, .cls-6 {
        stroke-linejoin: round;
      }

      .cls-10 {
        stroke: #18c448;
        stroke-dasharray: 0 0 0 0 0 0 6 3 6 3 6 3;
        stroke-width: 6px;
      }

      .cls-3 {
        stroke-width: 2.4px;
      }

      .cls-4 {
        stroke-width: .5px;
      }

      .cls-11 {
        fill: #21cee0;
      }

      .cls-5 {
        stroke-miterlimit: 7.6;
      }

      .cls-8 {
        stroke-width: 6.3px;
      }

      .cls-8, .cls-6 {
        stroke: #000;
      }

      .cls-12 {
        fill: #d7ff01;
      }

      .cls-15 {
        isolation: isolate;
      }

      .cls-6 {
        fill: url(#pattern4166-9);
      }

      .cls-13 {
        fill: #fff;
      }

      .cls-14 {
        fill: #ff5e93;
      }
    </style>
    <pattern id="pattern4166-9" x="0" y="0" width="900" height="572.6" patternTransform="translate(-8869.1 -4773) rotate(52) scale(.5 -.5)" patternUnits="userSpaceOnUse" viewBox="0 0 900 572.6">
      <g>
        <rect class="cls-9" width="900" height="572.6"/>
        <rect class="cls-9" width="900" height="572.6"/>
      </g>
    </pattern>
  </defs>
  <sodipodi:namedview id="namedview7" bordercolor="#eeeeee" borderopacity="1" inkscape:current-layer="layer1" inkscape:cx="890.24744" inkscape:cy="575.58492" inkscape:deskcolor="#505050" inkscape:document-units="mm" inkscape:pagecheckerboard="0" inkscape:pageopacity="0" inkscape:showpageshadow="0" inkscape:window-height="1017" inkscape:window-maximized="1" inkscape:window-width="1920" inkscape:window-x="-8" inkscape:window-y="-8" inkscape:zoom="0.70710678" pagecolor="#505050" showgrid="false"/>
  <g id="_defs" data-name=" defs">
    <inkscape:perspective id="perspective3843" inkscape:persp3d-origin="372.04725 : 44.80077 : 1" inkscape:vp_x="0 : 220.19446 : 1" inkscape:vp_y="0 : 999.99996 : 0" inkscape:vp_z="744.09449 : 220.19446 : 1" sodipodi:type="inkscape:persp3d"/>
    <inkscape:perspective id="perspective3853" inkscape:persp3d-origin="0.5 : -305.65329 : 1" inkscape:vp_x="0 : -305.48662 : 1" inkscape:vp_y="0 : 999.99996 : 0" inkscape:vp_z="1 : -305.48662 : 1" sodipodi:type="inkscape:persp3d"/>
    <inkscape:perspective id="perspective3997" inkscape:persp3d-origin="0.5 : -305.65329 : 1" inkscape:vp_x="0 : -305.48662 : 1" inkscape:vp_y="0 : 999.99996 : 0" inkscape:vp_z="1 : -305.48662 : 1" sodipodi:type="inkscape:persp3d"/>
    <inkscape:perspective id="perspective5263" inkscape:persp3d-origin="0.5 : -305.65329 : 1" inkscape:vp_x="0 : -305.48662 : 1" inkscape:vp_y="0 : 999.99996 : 0" inkscape:vp_z="1 : -305.48662 : 1" sodipodi:type="inkscape:persp3d"/>
    <inkscape:perspective id="perspective6022" inkscape:persp3d-origin="0.5 : -305.65329 : 1" inkscape:vp_x="0 : -305.48662 : 1" inkscape:vp_y="0 : 999.99996 : 0" inkscape:vp_z="1 : -305.48662 : 1" sodipodi:type="inkscape:persp3d"/>
    <inkscape:perspective id="perspective6022-9" inkscape:persp3d-origin="0.5 : -305.65329 : 1" inkscape:vp_x="0 : -305.48662 : 1" inkscape:vp_y="0 : 999.99996 : 0" inkscape:vp_z="1 : -305.48662 : 1" sodipodi:type="inkscape:persp3d"/>
    <inkscape:perspective id="perspective6022-4" inkscape:persp3d-origin="0.5 : -305.65329 : 1" inkscape:vp_x="0 : -305.48662 : 1" inkscape:vp_y="0 : 999.99996 : 0" inkscape:vp_z="1 : -305.48662 : 1" sodipodi:type="inkscape:persp3d"/>
    <inkscape:perspective id="perspective6022-1" inkscape:persp3d-origin="0.5 : -305.65329 : 1" inkscape:vp_x="0 : -305.48662 : 1" inkscape:vp_y="0 : 999.99996 : 0" inkscape:vp_z="1 : -305.48662 : 1" sodipodi:type="inkscape:persp3d"/>
    <inkscape:perspective id="perspective6022-14" inkscape:persp3d-origin="0.5 : -305.65329 : 1" inkscape:vp_x="0 : -305.48662 : 1" inkscape:vp_y="0 : 999.99996 : 0" inkscape:vp_z="1 : -305.48662 : 1" sodipodi:type="inkscape:persp3d"/>
    <inkscape:perspective id="perspective6022-6" inkscape:persp3d-origin="0.5 : -305.65329 : 1" inkscape:vp_x="0 : -305.48662 : 1" inkscape:vp_y="0 : 999.99996 : 0" inkscape:vp_z="1 : -305.48662 : 1" sodipodi:type="inkscape:persp3d"/>
    <inkscape:perspective id="perspective6022-8" inkscape:persp3d-origin="0.5 : -305.65329 : 1" inkscape:vp_x="0 : -305.48662 : 1" inkscape:vp_y="0 : 999.99996 : 0" inkscape:vp_z="1 : -305.48662 : 1" sodipodi:type="inkscape:persp3d"/>
    <inkscape:perspective id="perspective6022-43" inkscape:persp3d-origin="0.5 : -305.65329 : 1" inkscape:vp_x="0 : -305.48662 : 1" inkscape:vp_y="0 : 999.99996 : 0" inkscape:vp_z="1 : -305.48662 : 1" sodipodi:type="inkscape:persp3d"/>
    <inkscape:perspective id="perspective6022-3" inkscape:persp3d-origin="0.5 : -305.65329 : 1" inkscape:vp_x="0 : -305.48662 : 1" inkscape:vp_y="0 : 999.99996 : 0" inkscape:vp_z="1 : -305.48662 : 1" sodipodi:type="inkscape:persp3d"/>
    <inkscape:perspective id="perspective6022-31" inkscape:persp3d-origin="0.5 : -305.65329 : 1" inkscape:vp_x="0 : -305.48662 : 1" inkscape:vp_y="0 : 999.99996 : 0" inkscape:vp_z="1 : -305.48662 : 1" sodipodi:type="inkscape:persp3d"/>
    <inkscape:perspective id="perspective6907" inkscape:persp3d-origin="0.5 : -305.65329 : 1" inkscape:vp_x="0 : -305.48662 : 1" inkscape:vp_y="0 : 999.99996 : 0" inkscape:vp_z="1 : -305.48662 : 1" sodipodi:type="inkscape:persp3d"/>
    <inkscape:perspective id="perspective6907-2" inkscape:persp3d-origin="0.5 : -305.65329 : 1" inkscape:vp_x="0 : -305.48662 : 1" inkscape:vp_y="0 : 999.99996 : 0" inkscape:vp_z="1 : -305.48662 : 1" sodipodi:type="inkscape:persp3d"/>
    <inkscape:perspective id="perspective6907-4" inkscape:persp3d-origin="0.5 : -305.65329 : 1" inkscape:vp_x="0 : -305.48662 : 1" inkscape:vp_y="0 : 999.99996 : 0" inkscape:vp_z="1 : -305.48662 : 1" sodipodi:type="inkscape:persp3d"/>
    <inkscape:perspective id="perspective6907-0" inkscape:persp3d-origin="0.5 : -305.65329 : 1" inkscape:vp_x="0 : -305.48662 : 1" inkscape:vp_y="0 : 999.99996 : 0" inkscape:vp_z="1 : -305.48662 : 1" sodipodi:type="inkscape:persp3d"/>
    <inkscape:perspective id="perspective6907-9" inkscape:persp3d-origin="0.5 : -305.65329 : 1" inkscape:vp_x="0 : -305.48662 : 1" inkscape:vp_y="0 : 999.99996 : 0" inkscape:vp_z="1 : -305.48662 : 1" sodipodi:type="inkscape:persp3d"/>
    <inkscape:perspective id="perspective6907-06" inkscape:persp3d-origin="0.5 : -305.65329 : 1" inkscape:vp_x="0 : -305.48662 : 1" inkscape:vp_y="0 : 999.99996 : 0" inkscape:vp_z="1 : -305.48662 : 1" sodipodi:type="inkscape:persp3d"/>
    <inkscape:perspective id="perspective7033" inkscape:persp3d-origin="0.5 : -305.65329 : 1" inkscape:vp_x="0 : -305.48662 : 1" inkscape:vp_y="0 : 999.99996 : 0" inkscape:vp_z="1 : -305.48662 : 1" sodipodi:type="inkscape:persp3d"/>
    <inkscape:perspective id="perspective7033-8" inkscape:persp3d-origin="0.5 : -305.65329 : 1" inkscape:vp_x="0 : -305.48662 : 1" inkscape:vp_y="0 : 999.99996 : 0" inkscape:vp_z="1 : -305.48662 : 1" sodipodi:type="inkscape:persp3d"/>
    <inkscape:perspective id="perspective7033-2" inkscape:persp3d-origin="0.5 : -305.65329 : 1" inkscape:vp_x="0 : -305.48662 : 1" inkscape:vp_y="0 : 999.99996 : 0" inkscape:vp_z="1 : -305.48662 : 1" sodipodi:type="inkscape:persp3d"/>
    <inkscape:perspective id="perspective7033-1" inkscape:persp3d-origin="0.5 : -305.65329 : 1" inkscape:vp_x="0 : -305.48662 : 1" inkscape:vp_y="0 : 999.99996 : 0" inkscape:vp_z="1 : -305.48662 : 1" sodipodi:type="inkscape:persp3d"/>
    <inkscape:perspective id="perspective8674" inkscape:persp3d-origin="0.5 : -305.65329 : 1" inkscape:vp_x="0 : -305.48662 : 1" inkscape:vp_y="0 : 999.99996 : 0" inkscape:vp_z="1 : -305.48662 : 1" sodipodi:type="inkscape:persp3d"/>
    <inkscape:perspective id="perspective12254" inkscape:persp3d-origin="0.5 : -305.65329 : 1" inkscape:vp_x="0 : -305.48662 : 1" inkscape:vp_y="0 : 999.99996 : 0" inkscape:vp_z="1 : -305.48662 : 1" sodipodi:type="inkscape:persp3d"/>
    <inkscape:perspective id="perspective12415" inkscape:persp3d-origin="0.5 : -305.65329 : 1" inkscape:vp_x="0 : -305.48662 : 1" inkscape:vp_y="0 : 999.99996 : 0" inkscape:vp_z="1 : -305.48662 : 1" sodipodi:type="inkscape:persp3d"/>
    <inkscape:perspective id="perspective4266" inkscape:persp3d-origin="372.04725 : 44.80077 : 1" inkscape:vp_x="0 : 220.19446 : 1" inkscape:vp_y="0 : 999.99996 : 0" inkscape:vp_z="744.09449 : 220.19446 : 1" sodipodi:type="inkscape:persp3d"/>
    <inkscape:perspective id="perspective4275" inkscape:persp3d-origin="372.04725 : 44.80077 : 1" inkscape:vp_x="0 : 220.19446 : 1" inkscape:vp_y="0 : 999.99996 : 0" inkscape:vp_z="744.09449 : 220.19446 : 1" sodipodi:type="inkscape:persp3d"/>
    <inkscape:perspective id="perspective4801" inkscape:persp3d-origin="372.04725 : 44.80077 : 1" inkscape:vp_x="0 : 220.19446 : 1" inkscape:vp_y="0 : 999.99996 : 0" inkscape:vp_z="744.09449 : 220.19446 : 1" sodipodi:type="inkscape:persp3d"/>
    <inkscape:perspective id="perspective4818" inkscape:persp3d-origin="372.04725 : 44.80077 : 1" inkscape:vp_x="0 : 220.19446 : 1" inkscape:vp_y="0 : 999.99996 : 0" inkscape:vp_z="744.09449 : 220.19446 : 1" sodipodi:type="inkscape:persp3d"/>
    <inkscape:perspective id="perspective2563" inkscape:persp3d-origin="372.04725 : 44.80077 : 1" inkscape:vp_x="0 : 220.19446 : 1" inkscape:vp_y="0 : 999.99996 : 0" inkscape:vp_z="744.09449 : 220.19446 : 1" sodipodi:type="inkscape:persp3d"/>
    <inkscape:perspective id="perspective2576" inkscape:persp3d-origin="372.04725 : 44.80077 : 1" inkscape:vp_x="0 : 220.19446 : 1" inkscape:vp_y="0 : 999.99996 : 0" inkscape:vp_z="744.09449 : 220.19446 : 1" sodipodi:type="inkscape:persp3d"/>
    <inkscape:perspective id="perspective3371" inkscape:persp3d-origin="372.04725 : 44.80077 : 1" inkscape:vp_x="0 : 220.19446 : 1" inkscape:vp_y="0 : 999.99996 : 0" inkscape:vp_z="744.09449 : 220.19446 : 1" sodipodi:type="inkscape:persp3d"/>
    <inkscape:perspective id="perspective3843-9" inkscape:persp3d-origin="372.04725 : 44.80077 : 1" inkscape:vp_x="0 : 220.19446 : 1" inkscape:vp_y="0 : 999.99996 : 0" inkscape:vp_z="744.09449 : 220.19446 : 1" sodipodi:type="inkscape:persp3d"/>
    <inkscape:perspective id="perspective3853-8" inkscape:persp3d-origin="0.5 : -305.65329 : 1" inkscape:vp_x="0 : -305.48662 : 1" inkscape:vp_y="0 : 999.99996 : 0" inkscape:vp_z="1 : -305.48662 : 1" sodipodi:type="inkscape:persp3d"/>
    <inkscape:perspective id="perspective3997-9" inkscape:persp3d-origin="0.5 : -305.65329 : 1" inkscape:vp_x="0 : -305.48662 : 1" inkscape:vp_y="0 : 999.99996 : 0" inkscape:vp_z="1 : -305.48662 : 1" sodipodi:type="inkscape:persp3d"/>
    <inkscape:perspective id="perspective5263-3" inkscape:persp3d-origin="0.5 : -305.65329 : 1" inkscape:vp_x="0 : -305.48662 : 1" inkscape:vp_y="0 : 999.99996 : 0" inkscape:vp_z="1 : -305.48662 : 1" sodipodi:type="inkscape:persp3d"/>
    <inkscape:perspective id="perspective6022-92" inkscape:persp3d-origin="0.5 : -305.65329 : 1" inkscape:vp_x="0 : -305.48662 : 1" inkscape:vp_y="0 : 999.99996 : 0" inkscape:vp_z="1 : -305.48662 : 1" sodipodi:type="inkscape:persp3d"/>
    <inkscape:perspective id="perspective6022-9-2" inkscape:persp3d-origin="0.5 : -305.65329 : 1" inkscape:vp_x="0 : -305.48662 : 1" inkscape:vp_y="0 : 999.99996 : 0" inkscape:vp_z="1 : -305.48662 : 1" sodipodi:type="inkscape:persp3d"/>
    <inkscape:perspective id="perspective6022-4-6" inkscape:persp3d-origin="0.5 : -305.65329 : 1" inkscape:vp_x="0 : -305.48662 : 1" inkscape:vp_y="0 : 999.99996 : 0" inkscape:vp_z="1 : -305.48662 : 1" sodipodi:type="inkscape:persp3d"/>
    <inkscape:perspective id="perspective6022-1-9" inkscape:persp3d-origin="0.5 : -305.65329 : 1" inkscape:vp_x="0 : -305.48662 : 1" inkscape:vp_y="0 : 999.99996 : 0" inkscape:vp_z="1 : -305.48662 : 1" sodipodi:type="inkscape:persp3d"/>
    <inkscape:perspective id="perspective6022-14-0" inkscape:persp3d-origin="0.5 : -305.65329 : 1" inkscape:vp_x="0 : -305.48662 : 1" inkscape:vp_y="0 : 999.99996 : 0" inkscape:vp_z="1 : -305.48662 : 1" sodipodi:type="inkscape:persp3d"/>
    <inkscape:perspective id="perspective6022-6-6" inkscape:persp3d-origin="0.5 : -305.65329 : 1" inkscape:vp_x="0 : -305.48662 : 1" inkscape:vp_y="0 : 999.99996 : 0" inkscape:vp_z="1 : -305.48662 : 1" sodipodi:type="inkscape:persp3d"/>
    <inkscape:perspective id="perspective6022-8-7" inkscape:persp3d-origin="0.5 : -305.65329 : 1" inkscape:vp_x="0 : -305.48662 : 1" inkscape:vp_y="0 : 999.99996 : 0" inkscape:vp_z="1 : -305.48662 : 1" sodipodi:type="inkscape:persp3d"/>
    <inkscape:perspective id="perspective6022-43-0" inkscape:persp3d-origin="0.5 : -305.65329 : 1" inkscape:vp_x="0 : -305.48662 : 1" inkscape:vp_y="0 : 999.99996 : 0" inkscape:vp_z="1 : -305.48662 : 1" sodipodi:type="inkscape:persp3d"/>
    <inkscape:perspective id="perspective6022-3-3" inkscape:persp3d-origin="0.5 : -305.65329 : 1" inkscape:vp_x="0 : -305.48662 : 1" inkscape:vp_y="0 : 999.99996 : 0" inkscape:vp_z="1 : -305.48662 : 1" sodipodi:type="inkscape:persp3d"/>
    <inkscape:perspective id="perspective6022-31-6" inkscape:persp3d-origin="0.5 : -305.65329 : 1" inkscape:vp_x="0 : -305.48662 : 1" inkscape:vp_y="0 : 999.99996 : 0" inkscape:vp_z="1 : -305.48662 : 1" sodipodi:type="inkscape:persp3d"/>
    <inkscape:perspective id="perspective6907-6" inkscape:persp3d-origin="0.5 : -305.65329 : 1" inkscape:vp_x="0 : -305.48662 : 1" inkscape:vp_y="0 : 999.99996 : 0" inkscape:vp_z="1 : -305.48662 : 1" sodipodi:type="inkscape:persp3d"/>
    <inkscape:perspective id="perspective6907-2-2" inkscape:persp3d-origin="0.5 : -305.65329 : 1" inkscape:vp_x="0 : -305.48662 : 1" inkscape:vp_y="0 : 999.99996 : 0" inkscape:vp_z="1 : -305.48662 : 1" sodipodi:type="inkscape:persp3d"/>
    <inkscape:perspective id="perspective6907-4-8" inkscape:persp3d-origin="0.5 : -305.65329 : 1" inkscape:vp_x="0 : -305.48662 : 1" inkscape:vp_y="0 : 999.99996 : 0" inkscape:vp_z="1 : -305.48662 : 1" sodipodi:type="inkscape:persp3d"/>
    <inkscape:perspective id="perspective6907-0-6" inkscape:persp3d-origin="0.5 : -305.65329 : 1" inkscape:vp_x="0 : -305.48662 : 1" inkscape:vp_y="0 : 999.99996 : 0" inkscape:vp_z="1 : -305.48662 : 1" sodipodi:type="inkscape:persp3d"/>
    <inkscape:perspective id="perspective6907-9-0" inkscape:persp3d-origin="0.5 : -305.65329 : 1" inkscape:vp_x="0 : -305.48662 : 1" inkscape:vp_y="0 : 999.99996 : 0" inkscape:vp_z="1 : -305.48662 : 1" sodipodi:type="inkscape:persp3d"/>
    <inkscape:perspective id="perspective6907-06-6" inkscape:persp3d-origin="0.5 : -305.65329 : 1" inkscape:vp_x="0 : -305.48662 : 1" inkscape:vp_y="0 : 999.99996 : 0" inkscape:vp_z="1 : -305.48662 : 1" sodipodi:type="inkscape:persp3d"/>
    <inkscape:perspective id="perspective7033-29" inkscape:persp3d-origin="0.5 : -305.65329 : 1" inkscape:vp_x="0 : -305.48662 : 1" inkscape:vp_y="0 : 999.99996 : 0" inkscape:vp_z="1 : -305.48662 : 1" sodipodi:type="inkscape:persp3d"/>
    <inkscape:perspective id="perspective7033-8-5" inkscape:persp3d-origin="0.5 : -305.65329 : 1" inkscape:vp_x="0 : -305.48662 : 1" inkscape:vp_y="0 : 999.99996 : 0" inkscape:vp_z="1 : -305.48662 : 1" sodipodi:type="inkscape:persp3d"/>
    <inkscape:perspective id="perspective7033-2-7" inkscape:persp3d-origin="0.5 : -305.65329 : 1" inkscape:vp_x="0 : -305.48662 : 1" inkscape:vp_y="0 : 999.99996 : 0" inkscape:vp_z="1 : -305.48662 : 1" sodipodi:type="inkscape:persp3d"/>
    <inkscape:perspective id="perspective7033-1-4" inkscape:persp3d-origin="0.5 : -305.65329 : 1" inkscape:vp_x="0 : -305.48662 : 1" inkscape:vp_y="0 : 999.99996 : 0" inkscape:vp_z="1 : -305.48662 : 1" sodipodi:type="inkscape:persp3d"/>
    <inkscape:perspective id="perspective8674-3" inkscape:persp3d-origin="0.5 : -305.65329 : 1" inkscape:vp_x="0 : -305.48662 : 1" inkscape:vp_y="0 : 999.99996 : 0" inkscape:vp_z="1 : -305.48662 : 1" sodipodi:type="inkscape:persp3d"/>
    <inkscape:perspective id="perspective12254-7" inkscape:persp3d-origin="0.5 : -305.65329 : 1" inkscape:vp_x="0 : -305.48662 : 1" inkscape:vp_y="0 : 999.99996 : 0" inkscape:vp_z="1 : -305.48662 : 1" sodipodi:type="inkscape:persp3d"/>
    <inkscape:perspective id="perspective12415-4" inkscape:persp3d-origin="0.5 : -305.65329 : 1" inkscape:vp_x="0 : -305.48662 : 1" inkscape:vp_y="0 : 999.99996 : 0" inkscape:vp_z="1 : -305.48662 : 1" sodipodi:type="inkscape:persp3d"/>
    <inkscape:path-effect id="path-effect4364" add_other_stroke_width="true" add_stroke_width="true" both="false" crossing_points_vector="346.59613 | 422.83373 | 0 | 0 | 0 | 1 | 55.285257 | 94.701298 | -1" effect="knot" interruption_width="16" inverse_width="false" is_visible="true" lpeversion="0" prop_to_stroke_width="true" switcher_size="30"/>
    <inkscape:perspective id="perspective4225" inkscape:persp3d-origin="0.50000001 : -100.16415 : 1" inkscape:vp_x="0 : -99.997482 : 1" inkscape:vp_y="0 : 999.99996 : 0" inkscape:vp_z="1 : -99.997482 : 1" sodipodi:type="inkscape:persp3d"/>
    <inkscape:perspective id="perspective4283" inkscape:persp3d-origin="0.50000001 : -100.16415 : 1" inkscape:vp_x="0 : -99.997482 : 1" inkscape:vp_y="0 : 999.99996 : 0" inkscape:vp_z="1 : -99.997482 : 1" sodipodi:type="inkscape:persp3d"/>
    <inkscape:perspective id="perspective4348" inkscape:persp3d-origin="0.50000001 : -100.16415 : 1" inkscape:vp_x="0 : -99.997482 : 1" inkscape:vp_y="0 : 999.99996 : 0" inkscape:vp_z="1 : -99.997482 : 1" sodipodi:type="inkscape:persp3d"/>
    <inkscape:perspective id="perspective4579" inkscape:persp3d-origin="0.50000001 : -100.16415 : 1" inkscape:vp_x="0 : -99.997482 : 1" inkscape:vp_y="0 : 999.99996 : 0" inkscape:vp_z="1 : -99.997482 : 1" sodipodi:type="inkscape:persp3d"/>
    <inkscape:perspective id="perspective4622" inkscape:persp3d-origin="0.50000001 : -100.16415 : 1" inkscape:vp_x="0 : -99.997482 : 1" inkscape:vp_y="0 : 999.99996 : 0" inkscape:vp_z="1 : -99.997482 : 1" sodipodi:type="inkscape:persp3d"/>
    <inkscape:perspective id="perspective4622-4" inkscape:persp3d-origin="0.50000001 : -100.16415 : 1" inkscape:vp_x="0 : -99.997482 : 1" inkscape:vp_y="0 : 999.99996 : 0" inkscape:vp_z="1 : -99.997482 : 1" sodipodi:type="inkscape:persp3d"/>
    <inkscape:perspective id="perspective4622-5" inkscape:persp3d-origin="0.50000001 : -100.16415 : 1" inkscape:vp_x="0 : -99.997482 : 1" inkscape:vp_y="0 : 999.99996 : 0" inkscape:vp_z="1 : -99.997482 : 1" sodipodi:type="inkscape:persp3d"/>
    <inkscape:perspective id="perspective4622-1" inkscape:persp3d-origin="0.50000001 : -100.16415 : 1" inkscape:vp_x="0 : -99.997482 : 1" inkscape:vp_y="0 : 999.99996 : 0" inkscape:vp_z="1 : -99.997482 : 1" sodipodi:type="inkscape:persp3d"/>
    <inkscape:perspective id="perspective4622-2" inkscape:persp3d-origin="0.50000001 : -100.16415 : 1" inkscape:vp_x="0 : -99.997482 : 1" inkscape:vp_y="0 : 999.99996 : 0" inkscape:vp_z="1 : -99.997482 : 1" sodipodi:type="inkscape:persp3d"/>
    <inkscape:perspective id="perspective4622-6" inkscape:persp3d-origin="0.50000001 : -100.16415 : 1" inkscape:vp_x="0 : -99.997482 : 1" inkscape:vp_y="0 : 999.99996 : 0" inkscape:vp_z="1 : -99.997482 : 1" sodipodi:type="inkscape:persp3d"/>
    <inkscape:perspective id="perspective4622-18" inkscape:persp3d-origin="0.50000001 : -100.16415 : 1" inkscape:vp_x="0 : -99.997482 : 1" inkscape:vp_y="0 : 999.99996 : 0" inkscape:vp_z="1 : -99.997482 : 1" sodipodi:type="inkscape:persp3d"/>
    <inkscape:perspective id="perspective4622-43" inkscape:persp3d-origin="0.50000001 : -100.16415 : 1" inkscape:vp_x="0 : -99.997482 : 1" inkscape:vp_y="0 : 999.99996 : 0" inkscape:vp_z="1 : -99.997482 : 1" sodipodi:type="inkscape:persp3d"/>
    <inkscape:perspective id="perspective4622-11" inkscape:persp3d-origin="0.50000001 : -100.16415 : 1" inkscape:vp_x="0 : -99.997482 : 1" inkscape:vp_y="0 : 999.99996 : 0" inkscape:vp_z="1 : -99.997482 : 1" sodipodi:type="inkscape:persp3d"/>
    <inkscape:perspective id="perspective4622-7" inkscape:persp3d-origin="0.50000001 : -100.16415 : 1" inkscape:vp_x="0 : -99.997482 : 1" inkscape:vp_y="0 : 999.99996 : 0" inkscape:vp_z="1 : -99.997482 : 1" sodipodi:type="inkscape:persp3d"/>
    <inkscape:perspective id="perspective4622-65" inkscape:persp3d-origin="0.50000001 : -100.16415 : 1" inkscape:vp_x="0 : -99.997482 : 1" inkscape:vp_y="0 : 999.99996 : 0" inkscape:vp_z="1 : -99.997482 : 1" sodipodi:type="inkscape:persp3d"/>
    <inkscape:perspective id="perspective4622-24" inkscape:persp3d-origin="0.50000001 : -100.16415 : 1" inkscape:vp_x="0 : -99.997482 : 1" inkscape:vp_y="0 : 999.99996 : 0" inkscape:vp_z="1 : -99.997482 : 1" sodipodi:type="inkscape:persp3d"/>
    <inkscape:perspective id="perspective4818-2" inkscape:persp3d-origin="0.50000001 : -100.16415 : 1" inkscape:vp_x="0 : -99.997482 : 1" inkscape:vp_y="0 : 999.99996 : 0" inkscape:vp_z="1 : -99.997482 : 1" sodipodi:type="inkscape:persp3d"/>
    <inkscape:perspective id="perspective4818-3" inkscape:persp3d-origin="0.50000001 : -100.16415 : 1" inkscape:vp_x="0 : -99.997482 : 1" inkscape:vp_y="0 : 999.99996 : 0" inkscape:vp_z="1 : -99.997482 : 1" sodipodi:type="inkscape:persp3d"/>
    <inkscape:perspective id="perspective4818-6" inkscape:persp3d-origin="0.50000001 : -100.16415 : 1" inkscape:vp_x="0 : -99.997482 : 1" inkscape:vp_y="0 : 999.99996 : 0" inkscape:vp_z="1 : -99.997482 : 1" sodipodi:type="inkscape:persp3d"/>
    <inkscape:perspective id="perspective4818-37" inkscape:persp3d-origin="0.50000001 : -100.16415 : 1" inkscape:vp_x="0 : -99.997482 : 1" inkscape:vp_y="0 : 999.99996 : 0" inkscape:vp_z="1 : -99.997482 : 1" sodipodi:type="inkscape:persp3d"/>
    <inkscape:perspective id="perspective4818-35" inkscape:persp3d-origin="0.50000001 : -100.16415 : 1" inkscape:vp_x="0 : -99.997482 : 1" inkscape:vp_y="0 : 999.99996 : 0" inkscape:vp_z="1 : -99.997482 : 1" sodipodi:type="inkscape:persp3d"/>
    <inkscape:perspective id="perspective4818-63" inkscape:persp3d-origin="0.50000001 : -100.16415 : 1" inkscape:vp_x="0 : -99.997482 : 1" inkscape:vp_y="0 : 999.99996 : 0" inkscape:vp_z="1 : -99.997482 : 1" sodipodi:type="inkscape:persp3d"/>
    <inkscape:perspective id="perspective4818-0" inkscape:persp3d-origin="0.50000001 : -100.16415 : 1" inkscape:vp_x="0 : -99.997482 : 1" inkscape:vp_y="0 : 999.99996 : 0" inkscape:vp_z="1 : -99.997482 : 1" sodipodi:type="inkscape:persp3d"/>
    <inkscape:perspective id="perspective4818-65" inkscape:persp3d-origin="0.50000001 : -100.16415 : 1" inkscape:vp_x="0 : -99.997482 : 1" inkscape:vp_y="0 : 999.99996 : 0" inkscape:vp_z="1 : -99.997482 : 1" sodipodi:type="inkscape:persp3d"/>
    <inkscape:perspective id="perspective4954" inkscape:persp3d-origin="0.50000001 : -100.16415 : 1" inkscape:vp_x="0 : -99.997482 : 1" inkscape:vp_y="0 : 999.99996 : 0" inkscape:vp_z="1 : -99.997482 : 1" sodipodi:type="inkscape:persp3d"/>
    <inkscape:perspective id="perspective4976" inkscape:persp3d-origin="0.50000001 : -100.16415 : 1" inkscape:vp_x="0 : -99.997482 : 1" inkscape:vp_y="0 : 999.99996 : 0" inkscape:vp_z="1 : -99.997482 : 1" sodipodi:type="inkscape:persp3d"/>
    <inkscape:perspective id="perspective4998" inkscape:persp3d-origin="0.50000001 : -100.16415 : 1" inkscape:vp_x="0 : -99.997482 : 1" inkscape:vp_y="0 : 999.99996 : 0" inkscape:vp_z="1 : -99.997482 : 1" sodipodi:type="inkscape:persp3d"/>
  </g>
  <g id="layer1" inkscape:groupmode="layer" inkscape:label="Layer 1">
    <g id="g911">
      <path class="cls-8" d="M321.4,157.6c.5,31.4.5,31.6,3.6,34.7,1.2,1.2,2.6,1.9,4.5,2.5,3.1.9,4.9.9,203.2-2.8,161.9-3,167.6-3.2,176.2-4.4,19.5-2.8,34.7-10.1,44.3-21.3,6.1-7.2,8.3-12.2,8.3-19.7s-.7-9.2-2.8-14.4c-2.6-6.7-5.7-11.7-18.6-30.5-2.5-3.6-4.9-7.6-5.4-8.8-1.7-4.5-3-17.1-3-32.4,0-9.8,0-10.4.9-11.6.7-1,1.4-1.4,2.6-1.5,3.2-.3,6.1,2.1,10.5,8.6,2.7,4,4.9,7,12.3,17.1,2,2.8,16.8,22.5,32.8,43.9,6.8,9.1,13.3,17.8,18.6,24.9.9-.7,1.9-1.5,2.8-2.2-5.5-7.5-12.3-16.6-19.5-26.1-30.2-40.3-40.6-54.4-45.1-61-1.3-2-3.5-4.5-4.8-5.7-5.8-5.2-12.5-4.1-14.3,2.3-1.2,4.2,0,34.1,1.8,41.6.8,3.5,2.4,6.3,10.2,17.7,10.8,15.7,13.2,19.8,15.8,27.5,4.1,11.9,1.5,20.9-9.2,31.1-6.3,6-13,9.8-23,13.1-6.8,2.2-13.4,3.6-20.6,4.3-8,.8-34,1.3-317.4,6.5-35.9.7-52.3.8-54.3.5-4.1-.6-6-2.6-6.7-6.8-.2-1-.5-17.4-.7-36.3,0-1.7,0-3.3,0-4.8h-3.3c0,4.1.2,8.7.2,14Z"/>
      <path class="cls-8" d="M51,382.6c-5.9-1.6-8.4-2.5-8.9-3.3s6.6-30.3,10.6-43.9c4.3-14.6,6.3-18.7,12.3-24.7,8.2-8.3,20.7-15,40.6-21.8,17.6-6,31-12.5,44.2-21.3,8.9-6,18.1-14.4,22-20,6.2-9,9.9-24.7,11.2-47.3.3-4.8.5-34.7.5-69.9s.2-62.3.3-63.1c.5-2.6,1.5-2.8,9.8-1.3,17.5,3.1,25,4.5,30.3,5.6,6.8,1.5,7.4,1.5,9.8.3,2.2-1.1,3.4-2.9,4.4-6.9,1.1-4.6,1.5-4.8,11.2-5,15.3-.3,28.3,2.6,39.9,8.9,16.2,8.8,26.3,22,30.4,39.8,1,4.1,1,3,1.6,34.9h3.3c-.4-32.6-.5-33.3-3.1-41.9-6.9-22.1-26.7-38.8-52.3-43.9-8.4-1.7-10.8-1.9-18.2-1.9-10.7,0-14.5,1.5-15.6,5.8-1.9,7.7-2.7,8.2-9.8,6.6-3.2-.7-16.1-3.1-28.6-5.3-9.3-1.6-12-1.7-13.9-.6-3,1.7-2.8-2.6-3,70.5-.1,43.4-.4,68.4-.7,72.2-1.6,17.4-4,28.2-8.2,36.6-7.4,14.8-33.8,32.4-64.3,43-20.5,7.1-32.2,12.9-40.7,20-8.7,7.4-11.8,12.9-16.7,29.3-3.6,12.1-10.9,42.6-10.9,45.1s3.5,4.8,9.5,6.3c14.2,3.6,26.5,10.2,53.3,28.5,0,0,.2.1.2.2.7-.9,1.4-1.9,2.2-2.8-32-21.4-39.2-25-52.6-28.6Z"/>
      <path class="cls-8" d="M835.6,181.9c-1.9-8.8-5.1-16.5-10.1-24.1-.7-1.2-5.9-8.2-13.2-18.1-.9.7-1.9,1.5-2.8,2.2,7.2,9.7,12.2,16.5,13,17.7,6.7,10.2,10.3,20.8,11.1,32.6.2,2.4,0,24.1-.2,48.1s-1.1,88.4-1.7,143c-.7,59.4-1.3,100-1.6,101-.7,2.4-1.9,3.7-5,5.4-5.8,3.1-7.9,6.9-8.3,14.7-.3,5.7-.8,7.5-2.3,8.1-.7.3-25.9.6-61.9.9h0c-77.5.6-368,1-395.2.5-21.5-.3-28.9-.6-36.7-1.4-30.6-3.1-70-17.5-120.2-44-17.2-9-47.6-25.4-52.2-28.1-6.7-4-17.2-10.6-26.7-17.1-6.7-4.6-12.7-8.6-17.9-12.1-.7.9-1.4,1.9-2.2,2.8,26.4,18,40.6,27.1,52.5,33.5,29.1,15.9,53.6,28.8,66.4,35,39.6,19.3,69,29.4,96.7,33,10.1,1.3,27.2,1.7,89.6,2l.2-.4c34.3.2,70.3.2,79.8.2s65.8-.2,125-.4c59.2-.2,129.1-.4,155.3-.6,45.5-.3,47.7-.4,49.4-1.2,2.5-1.3,3.4-3.6,3.7-9.5.2-4.7,1-7.9,2.4-10,.4-.5,2.1-1.9,3.9-2.9,1.8-1.1,3.8-2.6,4.6-3.4,2.9-3,2.8-2.4,3.3-39.2,1.4-111.4,2.4-202.6,2.4-231s0-32.6-1-37.3Z"/>
      <g id="g766">
        <circle id="path4923-6-6" class="cls-7" cx="42.3" cy="294" r="15.8"/>
      </g>
      <path id="path22241" class="cls-7" d="M853.6,186c-.8,0-2.2-.3-3-.6-3.7-1.1-6.9-3.4-9.1-6.7-.6-.9-1.3-2.3-1.7-3.3-1.6-4.3-1.3-9.1.8-13.1.8-1.5,1.6-2.6,2.8-3.8,2.6-2.7,5.8-4.3,9.7-4.9.9-.1,3.4-.1,4.3,0,3.5.5,6.5,2,9,4.4,2.6,2.5,4.3,5.7,4.8,9.3.2,1,.2,3.3,0,4.4-.7,5.5-4,10.2-8.9,12.7-2.7,1.4-5.7,1.9-8.8,1.7h.1Z"/>
      <g id="g22348">
        <g id="text3180" class="cls-15" inkscape:export-xdpi="90.015755" inkscape:export-ydpi="90.015755">
          <g class="cls-15">
            <path class="cls-7" d="M452.1,298.3h5.7l21.8,34.4-.7.8v-35.2h6.2v44.5h-5.7l-21.7-33.9.7-.8v34.7h-6.2v-44.5Z"/>
          </g>
          <g class="cls-15">
            <path class="cls-7" d="M452.1,298.3h5.7l21.8,34.4-.7.8v-35.2h6.2v44.5h-5.7l-21.7-33.9.7-.8v34.7h-6.2v-44.5Z"/>
          </g>
        </g>
        <path id="path2745" class="cls-4" d="M499.8,324.1l52.6-10.7-11.2,10.6,11.2,10.6-52.6-10.5h0Z" inkscape:connector-curvature="0" inkscape:export-filename="D:\Images\Race Tracks\text3180.png" inkscape:export-xdpi="90.015755" inkscape:export-ydpi="90.015755" inkscape:transform-center-x="3.3570385" inkscape:transform-center-y="-3.330635" sodipodi:nodetypes="cccccc"/>
      </g>
      <g id="text3594" class="cls-15">
        <g class="cls-15">
          <g class="cls-15">
            <path class="cls-7" d="M468.1,159.2h2.1v15.3h-2.1v-15.3ZM469.8,167.8l6.7-8.6h2.6l-9.7,11.8.3-3.2ZM472.3,166.4l1.7-1.6,5.8,9.7h-2.6l-4.9-8.1Z"/>
            <path class="cls-7" d="M483.2,174.1c-.7-.4-1.2-.9-1.5-1.6-.4-.7-.5-1.6-.5-2.6v-1.8c0-1,.2-1.8.5-2.5.4-.7.9-1.2,1.5-1.6.7-.4,1.5-.6,2.4-.6s1.8.2,2.4.6c.7.4,1.2.9,1.5,1.6.4.7.5,1.5.5,2.5v1.8c0,1-.2,1.8-.5,2.5-.4.7-.9,1.2-1.5,1.6-.7.4-1.5.6-2.4.6s-1.8-.2-2.4-.6ZM487.4,171.9c.4-.5.6-1.1.6-2v-1.8c0-.8-.2-1.5-.6-2s-1-.7-1.7-.7-1.3.2-1.7.7c-.4.5-.6,1.1-.6,2v1.8c0,.8.2,1.5.6,2,.4.5,1,.7,1.7.7s1.3-.2,1.7-.7Z"/>
            <path class="cls-7" d="M499.2,163.6h2.2l-4.1,10.9h-1.6l-4.1-10.9h2.2l2.7,7.8,2.7-7.8Z"/>
            <path class="cls-7" d="M504,173.8c-.7-.6-1-1.4-1-2.5s.3-1.9.9-2.4c.6-.5,1.5-.8,2.8-.8h3.1v1.7c.1,0-3.1,0-3.1,0-.6,0-1,.1-1.3.4-.3.2-.4.6-.4,1.1s.2,1,.6,1.2c.4.3.9.4,1.7.4s1.4,0,1.8-.3c.4-.2.6-.4.6-.8l.2,1.5c-.2.3-.4.5-.7.7-.3.2-.6.3-1,.4s-.8.1-1.2.1c-1.3,0-2.3-.3-3-.8ZM509.7,167.6c0-.7-.2-1.3-.6-1.7-.4-.4-.9-.6-1.6-.6s-.9,0-1.3.2c-.4.1-.8.3-1.1.6l-1.6-1.1c.4-.5,1-.9,1.6-1.2.7-.3,1.4-.4,2.3-.4s1.7.2,2.3.5c.6.3,1.1.8,1.5,1.4.3.6.5,1.3.5,2.2v7h-2v-6.9Z"/>
            <path class="cls-7" d="M517.1,171.7c0,.3,0,.5.2.6s.3.2.5.2h1v2h-1.3c-.8,0-1.4-.3-1.9-.8s-.7-1.2-.7-2.1v-12.4h2.1v12.5Z"/>
            <path class="cls-7" d="M527.2,159.2h2.1v15.3h-2.1v-15.3ZM528.2,172.5h8.7v2h-8.7v-2Z"/>
            <path class="cls-7" d="M539.8,173.8c-.7-.6-1-1.4-1-2.5s.3-1.9.9-2.4c.6-.5,1.5-.8,2.8-.8h3.1v1.7c.1,0-3.1,0-3.1,0-.6,0-1,.1-1.3.4-.3.2-.4.6-.4,1.1s.2,1,.6,1.2c.4.3.9.4,1.7.4s1.4,0,1.8-.3.6-.4.6-.8l.2,1.5c-.2.3-.4.5-.7.7-.3.2-.6.3-1,.4-.4,0-.8.1-1.2.1-1.3,0-2.3-.3-3-.8ZM545.4,167.6c0-.7-.2-1.3-.6-1.7-.4-.4-.9-.6-1.6-.6s-.9,0-1.3.2c-.4.1-.8.3-1.1.6l-1.6-1.1c.4-.5,1-.9,1.6-1.2s1.4-.4,2.3-.4,1.7.2,2.3.5c.6.3,1.1.8,1.5,1.4.3.6.5,1.3.5,2.2v7h-2v-6.9Z"/>
            <path class="cls-7" d="M550.7,163.6h2.1v10.9h-2.1v-10.9ZM557.3,167.9c0-.8-.2-1.4-.6-1.8-.4-.4-1-.6-1.7-.6s-1.2.2-1.6.6c-.4.4-.6.9-.6,1.6l-.2-2.1c.3-.7.8-1.2,1.3-1.5.5-.4,1.1-.5,1.8-.5,1.2,0,2.1.4,2.7,1.2s1,1.9,1,3.3v6.6h-2.1v-6.6Z"/>
            <path class="cls-7" d="M564.6,174.1c-.7-.4-1.3-.9-1.6-1.7-.4-.7-.6-1.6-.6-2.7v-1.2c0-1.1.2-2,.5-2.8.4-.8.9-1.3,1.6-1.7s1.5-.6,2.5-.6,1.7.2,2.3.7c.6.5,1.1,1.1,1.5,2,.3.9.5,1.9.5,3.1v.7h-7.3v-1.7h5.3c0-.9-.3-1.6-.7-2.1-.4-.5-.9-.7-1.6-.7s-1.4.3-1.9.8c-.4.5-.7,1.3-.7,2.3v1.4c0,.9.2,1.6.7,2.1.5.5,1.2.7,2,.7s.9,0,1.3-.3.8-.4,1.1-.7l1.4,1.4c-.5.5-1.1.9-1.8,1.2s-1.3.4-2,.4c-1,0-1.9-.2-2.6-.6Z"/>
          </g>
        </g>
      </g>
      <g id="g22277">
        <path id="path3463-9-4" class="cls-5" d="M815.6,121.9l9.9-7.8-25.5-22.2s15.6,30,15.6,30Z"/>
        <polygon id="rect3457-6-3" class="cls-6" points="785.8 151.5 793.9 161.8 836.3 128.6 828.3 118.3 785.8 151.5"/>
      </g>
      <path id="path3463-9-4-5" class="cls-1" d="M170,119.3h-12.6l6.2,33.2,6.5-33.2h0Z"/>
      <g id="g743">
        <ellipse id="path4761-33-33-3-3" class="cls-7" cx="313.9" cy="211.7" rx="14.4" ry="14.7"/>
        <g id="text4757-41-41-8-2" class="cls-15">
          <g class="cls-15">
            <path class="cls-13" d="M312,220.9c-.8-.4-1.5-1-2-1.8-.5-.8-.9-1.7-1-2.8h0s2.9,0,2.9,0h0c.1.8.4,1.4.9,1.8s1.2.6,2,.6,1.7-.3,2.2-.9c.5-.6.8-1.5.8-2.6v-1.8c0-1.1-.3-2-.8-2.6-.5-.6-1.2-.9-2.2-.9s-1,.1-1.5.4c-.5.3-.9.7-1.2,1.2h-2.7v-11h10.6v2.8h-7.7v4.7c.4-.3.8-.5,1.2-.7.4-.2.9-.2,1.4-.2,1.2,0,2.2.2,3.1.7.9.5,1.5,1.2,2,2.2.4,1,.7,2.1.7,3.5v1.8c0,1.3-.2,2.5-.7,3.5s-1.1,1.7-2,2.2c-.9.5-1.9.8-3.2.8s-2-.2-2.8-.6Z"/>
          </g>
        </g>
      </g>
      <g id="g774">
        <circle id="path4923-6" class="cls-7" cx="189.6" cy="266.1" r="15.8"/>
        <g id="text4919-14" class="cls-15">
          <g class="cls-15">
            <g>
              <path class="cls-13" d="M183.4,272.9h-2.1v-12.4l-2.1,1.3v-2.1l2.1-1.4h2.1v14.6Z"/>
              <path class="cls-13" d="M187.8,272c-.7-.7-1.1-1.8-1.1-3.1v-6.6c0-1.3.4-2.3,1.1-3.1.7-.7,1.7-1.1,3.1-1.1s2.4.4,3.1,1.1c.7.7,1.1,1.7,1.1,3.1v6.6c0,1.3-.4,2.3-1.1,3.1-.7.7-1.7,1.1-3.1,1.1s-2.4-.4-3.1-1.1ZM192.5,270.5c.3-.4.5-.9.5-1.6v-6.6c0-.7-.2-1.3-.5-1.6s-.9-.6-1.6-.6-1.3.2-1.6.6-.5.9-.5,1.6v6.6c0,.7.2,1.3.5,1.6s.9.6,1.6.6,1.3-.2,1.6-.6Z"/>
            </g>
          </g>
        </g>
      </g>
      <g id="g758">
        <circle id="path4923-6-5" class="cls-7" cx="16.3" cy="389.7" r="15.8" transform="translate(-4 .2) rotate(-.6)"/>
        <g id="text4919-14-09" class="cls-15">
          <g class="cls-15">
            <g>
              <path class="cls-13" d="M10.2,396.8h-2.1v-12.6l-2.1,1.3v-2.2l2.1-1.4h2.1v14.9Z"/>
              <path class="cls-13" d="M13.4,395l5.2-6.9c.3-.4.5-.8.7-1.2.2-.4.3-.8.3-1.2h0c0-.6-.2-1.1-.5-1.4s-.8-.5-1.5-.5-1.1.2-1.5.5c-.4.4-.6.9-.7,1.5h0s-2.2,0-2.2,0h0c.1-.9.4-1.6.8-2.2.4-.6.9-1.1,1.5-1.4.6-.3,1.3-.5,2.1-.5s1.6.2,2.3.5c.6.3,1.1.7,1.4,1.3.3.6.5,1.3.5,2.1h0c0,.5-.1,1.1-.3,1.7s-.5,1.1-.9,1.7l-4.3,5.9h5.6v2h-8.4v-1.8Z"/>
            </g>
          </g>
        </g>
        <g id="text4919-14-09-2" data-name="text4919-14-09" class="cls-15">
          <g class="cls-15">
            <g>
              <path class="cls-13" d="M40.3,301.1h-2.1v-12.6l-2.1,1.3v-2.2l2.1-1.4h2.1v14.9Z"/>
              <path class="cls-13" d="M47.2,301.1h-2.1v-12.6l-2.1,1.3v-2.2l2.1-1.4h2.1v14.9Z"/>
            </g>
          </g>
        </g>
      </g>
      <g id="g750">
        <circle id="path4923-6-1" class="cls-7" cx="304.8" cy="537.9" r="15.8"/>
        <g id="text4919-14-3" class="cls-15">
          <g class="cls-15">
            <g>
              <path class="cls-13" d="M299.1,544.7h-2.1v-12.4l-2.1,1.3v-2.1l2.1-1.4h2.1v14.6Z"/>
              <path class="cls-13" d="M304.1,544.4c-.6-.3-1.1-.7-1.5-1.3-.4-.6-.6-1.2-.7-2h2.1c0,.4.2.8.4,1s.5.5.8.6c.3.1.7.2,1.1.2.7,0,1.2-.2,1.6-.5.4-.4.6-.9.6-1.5v-.4c0-.7-.2-1.3-.5-1.7-.4-.4-.9-.6-1.5-.6h-1v-2h1c.6,0,1-.2,1.3-.5.3-.3.5-.8.5-1.4v-.5c0-.6-.2-1-.5-1.3-.3-.3-.8-.5-1.4-.5s-.7,0-.9.2-.5.3-.7.6c-.2.3-.3.6-.4,1h-2.1c.1-.8.4-1.5.8-2.1.4-.6.8-1,1.4-1.3.6-.3,1.2-.4,2-.4,1.3,0,2.2.3,2.9,1,.7.7,1,1.6,1,2.8v.2c0,.7-.2,1.4-.6,1.9s-1,.9-1.7,1.2c.8.2,1.4.6,1.9,1.2.4.6.7,1.4.7,2.3v.2c0,.9-.2,1.6-.5,2.2s-.8,1.1-1.4,1.4c-.6.3-1.4.5-2.3.5s-1.5-.1-2.2-.4Z"/>
            </g>
          </g>
        </g>
      </g>
      <path id="path21444" class="cls-7" d="M881.8,503.3c-3.7-.5-7-2.1-9.7-4.7-3.3-3.3-5.1-8-4.7-12.5.2-3.3,1.3-6.1,3.3-8.8.7-.9,2.1-2.4,3-3.1,2.4-1.8,5-2.9,8.1-3.3,1-.1,3.1,0,4.2,0,2.5.4,4.7,1.2,6.7,2.6,2.5,1.7,4.3,3.7,5.6,6.4.9,1.7,1.4,3.6,1.6,5.5v4c-.8,5-3.8,9.3-8.2,11.8-1.8,1-4,1.7-6.1,2-.9.1-2.8.1-3.7,0h0ZM885.3,502.7c1.6-.2,3.6-.7,5-1.4,4.9-2.3,8.3-7,8.9-12.4v-3.7c-.5-3.5-2-6.6-4.5-9.1s-5.6-4-9.1-4.5c-.8-.1-3.1-.1-3.8,0-1.8.3-3.4.7-4.9,1.5-1.7.8-2.9,1.7-4.2,3-2.5,2.5-3.9,5.4-4.4,9,0,.9-.2,3,0,3.9.5,3.5,2,6.7,4.4,9.1,2.6,2.6,5.9,4.2,9.6,4.6h3.2-.2Z"/>
      <g id="g694">
        <g id="g22224">
          <g id="text3441" class="cls-15">
            <g class="cls-15">
              <g>
                <path class="cls-13" d="M852.1,177.5h-2.1v-12.4l-2.1,1.3v-2.1l2.1-1.4h2.1v14.6Z"/>
                <path class="cls-13" d="M863,164.7l-3.8,12.8h-2.2l3.8-12.7h-3.7v2.1h-2.1v-4.1h8v1.8Z"/>
              </g>
            </g>
          </g>
        </g>
      </g>
      <path id="path3463-9-4-9" class="cls-1" d="M516.9,532.5v12.6c0,0,33.1-6,33.1-6l-33.1-6.6Z"/>
      <g id="text3594-8" class="cls-15">
        <g class="cls-15">
          <g class="cls-15">
            <path class="cls-7" d="M242.1,139.9h2v15.3h-2.1v-11.4.7c.1,0-3.7,8.6-3.7,8.6h-1.5l-3.8-8.4v-.9c.1,0,.1,11.4.1,11.4h-2.1v-15.3h2l4.5,10.1,4.5-10.1Z"/>
            <path class="cls-7" d="M250.3,155.1c-.7-.1-1.3-.3-1.8-.6-.6-.3-1.1-.6-1.6-1l1.3-1.6c.6.5,1.2.9,1.9,1.1s1.5.4,2.3.4,2-.2,2.6-.6c.6-.4.9-1,.9-1.7h0c0-.5-.1-1-.4-1.3s-.6-.5-1.1-.7-1-.3-1.7-.4c0,0,0,0,0,0s0,0,0,0h-.2c-1-.2-1.9-.4-2.5-.6-.6-.2-1.2-.6-1.6-1.2-.5-.6-.7-1.4-.7-2.5h0c0-1,.2-1.8.6-2.4s1-1.2,1.9-1.5c.8-.4,1.8-.5,2.9-.5s1.1,0,1.6.2c.5.1,1,.3,1.6.5.5.2,1,.5,1.5.9l-1.2,1.7c-.6-.4-1.2-.7-1.7-1-.6-.2-1.2-.3-1.7-.3-1,0-1.9.2-2.4.6-.6.4-.9,1-.9,1.8h0c0,.5.1.9.4,1.2.3.3.7.5,1.1.7s1.1.3,1.9.4c0,0,0,0,0,0,0,0,0,0,0,0,0,0,0,0,.1,0s0,0,.1,0c.9.2,1.7.4,2.3.7.6.3,1.1.7,1.6,1.3s.6,1.4.6,2.4h0c0,1-.2,1.7-.7,2.4s-1.1,1.2-1.9,1.5-1.8.5-3,.5-1.4,0-2.1-.2Z"/>
            <path class="cls-7" d="M271.1,147v2.7c0,1.1-.2,2.1-.7,3-.4.9-1.1,1.5-1.9,2-.8.5-1.7.7-2.8.7s-2-.2-2.8-.7c-.8-.4-1.4-1.1-1.9-1.9s-.7-1.8-.7-2.8v-4.5c0-1.1.2-2.1.7-3,.4-.9,1.1-1.5,1.9-2,.8-.5,1.7-.7,2.8-.7s1.7.2,2.4.6c.7.4,1.4.9,1.9,1.6s.8,1.5,1,2.4h-2.3c-.1-.5-.3-1-.6-1.3s-.7-.6-1.1-.8c-.4-.2-.8-.3-1.3-.3-.6,0-1.2.2-1.7.5-.5.3-.8.7-1.1,1.3-.3.5-.4,1.2-.4,1.9v4.5c0,.7.1,1.2.4,1.7.3.5.6.9,1.1,1.1.5.3,1,.4,1.7.4s1.2-.1,1.7-.4c.5-.3.8-.7,1.1-1.2.3-.5.4-1.2.4-1.9v-.7h-3.1v-2h5.3Z"/>
          </g>
        </g>
        <g class="cls-15">
          <g class="cls-15">
            <path class="cls-7" d="M223.4,182c-.7-.1-1.3-.3-1.8-.6-.6-.3-1.1-.6-1.6-1l1.3-1.6c.6.5,1.2.9,1.9,1.1s1.5.4,2.3.4,2-.2,2.6-.6c.6-.4.9-1,.9-1.7h0c0-.5-.1-1-.4-1.3s-.6-.5-1.1-.7-1-.3-1.7-.4c0,0,0,0,0,0s0,0,0,0h-.2c-1-.2-1.9-.4-2.5-.6-.6-.2-1.2-.6-1.6-1.2-.5-.6-.7-1.4-.7-2.5h0c0-1,.2-1.8.6-2.4s1-1.2,1.9-1.5c.8-.4,1.8-.5,2.9-.5s1.1,0,1.6.2c.5.1,1,.3,1.6.5.5.2,1,.5,1.5.9l-1.2,1.7c-.6-.4-1.2-.7-1.7-1-.6-.2-1.2-.3-1.7-.3-1,0-1.9.2-2.4.6-.6.4-.9,1-.9,1.8h0c0,.5.1.9.4,1.2.3.3.7.5,1.1.7s1.1.3,1.9.4c0,0,0,0,0,0,0,0,0,0,0,0,0,0,0,0,.1,0s0,0,.1,0c.9.2,1.7.4,2.3.7.6.3,1.1.7,1.6,1.3s.6,1.4.6,2.4h0c0,1-.2,1.7-.7,2.4s-1.1,1.2-1.9,1.5-1.8.5-3,.5-1.4,0-2.1-.2Z"/>
            <path class="cls-7" d="M233.9,171.2h2.1v15.3h-2.1v-15.3ZM237,181.8c-.5-.3-.9-.8-1.1-1.4v-2.3c.1.5.2.9.4,1.2.2.3.4.6.7.8.3.2.7.3,1.2.3.7,0,1.3-.2,1.6-.6.4-.4.6-1,.6-1.8v-2.4c0-.8-.2-1.4-.6-1.9-.4-.4-.9-.7-1.6-.7s-.8,0-1.2.3-.6.4-.7.7-.3.7-.3,1.2l-.2-2.1c.3-.6.8-1.1,1.3-1.5.5-.3,1.1-.5,1.8-.5s1.4.2,2,.5c.5.3,1,.9,1.3,1.5.3.7.4,1.5.4,2.4v2.4c0,.9-.1,1.7-.4,2.4-.3.7-.7,1.2-1.3,1.5-.6.3-1.2.5-2,.5s-1.3-.2-1.8-.5Z"/>
            <path class="cls-7" d="M245.6,166.8h2.1v15.3h-2.1v-15.3ZM252.2,175.5c0-.8-.2-1.4-.6-1.8-.4-.4-1-.6-1.7-.6s-1.2.2-1.6.5c-.4.4-.6.9-.6,1.5l-.2-2.1c.3-.6.8-1.1,1.3-1.5.5-.4,1.1-.5,1.8-.5,1.2,0,2.1.4,2.7,1.2s1,1.9,1,3.3v6.6h-2.1v-6.6Z"/>
            <path class="cls-7" d="M259.5,181.7c-.7-.4-1.3-.9-1.6-1.7s-.6-1.6-.6-2.7v-1.2c0-1.1.2-2,.5-2.8.4-.8.9-1.3,1.6-1.7.7-.4,1.5-.6,2.5-.6s1.7.2,2.3.7c.6.5,1.1,1.1,1.5,2s.5,1.9.5,3.1v.7h-7.3v-1.7h5.3c0-.9-.3-1.6-.7-2.1-.4-.5-.9-.7-1.6-.7s-1.4.3-1.9.8c-.4.5-.7,1.3-.7,2.3v1.4c0,.9.2,1.6.7,2.1s1.2.7,2,.7.9,0,1.3-.3.8-.4,1.1-.7l1.4,1.4c-.5.5-1.1.9-1.8,1.2s-1.3.4-2,.4c-1,0-1.9-.2-2.6-.6Z"/>
            <path class="cls-7" d="M269.1,171.2h2.1v10.9h-2.1v-10.9ZM274.4,173.3c-.3-.1-.6-.2-1-.2-.7,0-1.2.2-1.6.6s-.6.9-.6,1.6l-.2-2.1c.3-.7.8-1.2,1.3-1.5.5-.4,1.1-.5,1.8-.5s.9,0,1.3.2.8.4,1.1.6l-1.4,1.9c-.2-.2-.4-.4-.7-.5Z"/>
            <path class="cls-7" d="M280,181.7c-.7-.4-1.3-.9-1.6-1.7s-.6-1.6-.6-2.7v-1.2c0-1.1.2-2,.5-2.8.4-.8.9-1.3,1.6-1.7.7-.4,1.5-.6,2.5-.6s1.7.2,2.3.7c.6.5,1.1,1.1,1.5,2s.5,1.9.5,3.1v.7h-7.3v-1.7h5.3c0-.9-.3-1.6-.7-2.1-.4-.5-.9-.7-1.6-.7s-1.4.3-1.9.8c-.4.5-.7,1.3-.7,2.3v1.4c0,.9.2,1.6.7,2.1s1.2.7,2,.7.9,0,1.3-.3.8-.4,1.1-.7l1.4,1.4c-.5.5-1.1.9-1.8,1.2s-1.3.4-2,.4c-1,0-1.9-.2-2.6-.6Z"/>
          </g>
        </g>
      </g>
      <g id="text3594-8-2" class="cls-15">
        <g class="cls-15">
          <g class="cls-15">
            <path class="cls-7" d="M318.8,483h2.1v15.3h-2.1v-15.3ZM319.9,496.3h8.7v2h-8.7v-2Z"/>
            <path class="cls-7" d="M331.4,497.6c-.7-.6-1-1.4-1-2.5s.3-1.9.9-2.4c.6-.5,1.5-.8,2.8-.8h3.1v1.7c.1,0-3.1,0-3.1,0-.6,0-1,.1-1.3.4-.3.2-.4.6-.4,1.1s.2,1,.6,1.2c.4.3.9.4,1.7.4s1.4,0,1.8-.3c.4-.2.6-.4.6-.8l.2,1.5c-.2.3-.4.5-.7.7-.3.2-.6.3-1,.4-.4,0-.8.1-1.2.1-1.3,0-2.3-.3-3-.8ZM337.1,491.4c0-.7-.2-1.3-.6-1.7s-.9-.6-1.6-.6-.9,0-1.3.2c-.4.1-.8.3-1.1.6l-1.6-1.1c.4-.5,1-.9,1.6-1.2.7-.3,1.4-.4,2.3-.4s1.7.2,2.3.5c.6.3,1.1.8,1.5,1.4.3.6.5,1.3.5,2.2v7h-2v-6.9Z"/>
            <path class="cls-7" d="M344.4,498.3c-.6-.1-1.1-.3-1.6-.6s-.9-.6-1.4-.9l1.3-1.6c.6.4,1.2.8,1.8,1,.6.2,1.2.3,1.7.3.8,0,1.5-.1,1.9-.4.4-.3.6-.7.6-1.2s-.1-.6-.3-.8-.5-.3-.9-.4-.8-.1-1.4-.2c0,0-.1,0-.2,0,0,0-.1,0-.2,0,0,0,0,0,0,0,0,0,0,0,0,0-.7,0-1.3-.2-1.8-.3-.5-.2-.9-.4-1.2-.8-.3-.4-.5-1-.5-1.8s.2-1.4.5-1.9c.3-.5.8-.9,1.4-1.1.6-.3,1.4-.4,2.3-.4s1.1,0,1.6.2c.5.1,1,.3,1.5.5.5.2.9.5,1.4.8l-1.3,1.6c-.5-.3-1.1-.6-1.6-.8s-1-.3-1.5-.3c-.7,0-1.3.1-1.6.4-.4.2-.5.6-.5,1.1s.1.5.3.7c.2.1.5.2.8.3s.8,0,1.3.1c0,0,0,0,.1,0s0,0,.1,0h0s0,0,0,0c.8,0,1.4.2,1.9.3.5.2,1,.5,1.3.9.4.5.5,1.1.5,2s-.2,1.4-.5,1.9c-.3.5-.8.9-1.5,1.2-.7.3-1.5.4-2.5.4s-1.2,0-1.8-.2Z"/>
            <path class="cls-7" d="M357.9,483h2.3l3.7,12,3.7-12h2.3l-5,15.3h-2l-5-15.3Z"/>
            <path class="cls-7" d="M372.8,497.9c-.7-.4-1.3-.9-1.6-1.7s-.6-1.6-.6-2.7v-1.2c0-1.1.2-2,.5-2.8.4-.8.9-1.3,1.6-1.7.7-.4,1.5-.6,2.5-.6s1.7.2,2.3.7c.6.5,1.1,1.1,1.5,2s.5,1.9.5,3.1v.7h-7.3v-1.7h5.3c0-.9-.3-1.6-.7-2.1-.4-.5-.9-.7-1.6-.7s-1.4.3-1.9.8c-.4.5-.7,1.3-.7,2.3v1.4c0,.9.2,1.6.7,2.1s1.2.7,2,.7.9,0,1.3-.3.8-.4,1.1-.7l1.4,1.4c-.5.5-1.1.9-1.8,1.2s-1.3.4-2,.4c-1,0-1.9-.2-2.6-.6Z"/>
            <path class="cls-7" d="M383.9,498c-.6-.3-1-.9-1.3-1.5s-.4-1.5-.4-2.4v-2.4c0-.9.1-1.7.4-2.4.3-.7.7-1.2,1.3-1.5.5-.3,1.2-.5,2-.5s1.2.2,1.8.5c.5.3,1,.8,1.3,1.4l-.2,2.2c0-.5,0-.9-.3-1.2-.2-.3-.4-.6-.7-.8-.3-.2-.7-.3-1.2-.3-.7,0-1.3.2-1.6.7-.4.4-.6,1.1-.6,1.9v2.4c0,.8.2,1.4.6,1.8.4.4.9.6,1.6.6s.8,0,1.2-.3c.3-.2.6-.4.7-.8s.3-.7.3-1.2v2.3c0,.5-.4,1-.9,1.4-.5.4-1.1.5-1.8.5s-1.5-.2-2-.5ZM383.9,502.3c-.6-.3-1.1-.7-1.5-1.3l1.4-1.3c.3.4.6.7,1,.9.4.2.8.3,1.2.3.8,0,1.5-.2,1.9-.7s.7-1.1.7-1.9v-10.9h2.1v10.6c0,1-.2,1.9-.6,2.6-.4.7-.9,1.3-1.6,1.6-.7.4-1.5.6-2.5.6s-1.6-.2-2.2-.5Z"/>
            <path class="cls-7" d="M394.5,497.6c-.7-.6-1-1.4-1-2.5s.3-1.9.9-2.4c.6-.5,1.5-.8,2.8-.8h3.1v1.7c.1,0-3.1,0-3.1,0-.6,0-1,.1-1.3.4-.3.2-.4.6-.4,1.1s.2,1,.6,1.2c.4.3.9.4,1.7.4s1.4,0,1.8-.3c.4-.2.6-.4.6-.8l.2,1.5c-.2.3-.4.5-.7.7-.3.2-.6.3-1,.4-.4,0-.8.1-1.2.1-1.3,0-2.3-.3-3-.8ZM400.2,491.4c0-.7-.2-1.3-.6-1.7s-.9-.6-1.6-.6-.9,0-1.3.2c-.4.1-.8.3-1.1.6l-1.6-1.1c.4-.5,1-.9,1.6-1.2.7-.3,1.4-.4,2.3-.4s1.7.2,2.3.5c.6.3,1.1.8,1.5,1.4.3.6.5,1.3.5,2.2v7h-2v-6.9Z"/>
            <path class="cls-7" d="M407.5,498.3c-.6-.1-1.1-.3-1.6-.6s-.9-.6-1.4-.9l1.3-1.6c.6.4,1.2.8,1.8,1,.6.2,1.2.3,1.7.3.8,0,1.5-.1,1.9-.4.4-.3.6-.7.6-1.2s-.1-.6-.3-.8-.5-.3-.9-.4-.8-.1-1.4-.2c0,0-.1,0-.2,0,0,0-.1,0-.2,0,0,0,0,0,0,0,0,0,0,0,0,0-.7,0-1.3-.2-1.8-.3-.5-.2-.9-.4-1.2-.8-.3-.4-.5-1-.5-1.8s.2-1.4.5-1.9c.3-.5.8-.9,1.4-1.1.6-.3,1.4-.4,2.3-.4s1.1,0,1.6.2c.5.1,1,.3,1.5.5.5.2.9.5,1.4.8l-1.3,1.6c-.5-.3-1.1-.6-1.6-.8s-1-.3-1.5-.3c-.7,0-1.3.1-1.6.4-.4.2-.5.6-.5,1.1s.1.5.3.7c.2.1.5.2.8.3s.8,0,1.3.1c0,0,0,0,.1,0s0,0,.1,0h0s0,0,0,0c.8,0,1.4.2,1.9.3.5.2,1,.5,1.3.9.4.5.5,1.1.5,2s-.2,1.4-.5,1.9c-.3.5-.8.9-1.5,1.2-.7.3-1.5.4-2.5.4s-1.2,0-1.8-.2Z"/>
            <path class="cls-7" d="M422.6,483h2.1v15.3h-2.1v-15.3ZM423.9,496.3h4.1c1.1,0,1.9-.2,2.4-.6s.7-1,.7-1.7h0c0-.5,0-1-.3-1.4-.2-.4-.5-.7-.8-.9-.4-.2-.9-.3-1.5-.3h-4.7v-1.9h4.7c.8,0,1.4-.2,1.8-.6.4-.4.6-.9.6-1.6s-.2-1.3-.7-1.7-1.1-.6-2-.6h-4.4v-2h4.8c1,0,1.8.2,2.5.5.7.3,1.2.8,1.5,1.4.3.6.5,1.4.5,2.2s-.1,1-.3,1.5c-.2.5-.5.9-.9,1.2-.4.3-.9.5-1.5.7.6,0,1.1.3,1.6.7.4.3.8.8,1,1.3.2.5.4,1.1.4,1.7h0c0,.9-.2,1.6-.5,2.2-.4.6-.9,1.1-1.6,1.5s-1.5.5-2.4.5h-4.9v-2Z"/>
            <path class="cls-7" d="M438.1,497.9c-.7-.4-1.2-.9-1.5-1.6-.4-.7-.5-1.6-.5-2.6v-1.8c0-1,.2-1.8.5-2.5.4-.7.9-1.2,1.5-1.6.7-.4,1.5-.6,2.4-.6s1.8.2,2.4.6c.7.4,1.2.9,1.5,1.6.4.7.5,1.5.5,2.5v1.8c0,1-.2,1.8-.5,2.5-.4.7-.9,1.2-1.5,1.6-.7.4-1.5.6-2.4.6s-1.8-.2-2.4-.6ZM442.2,495.7c.4-.5.6-1.1.6-2v-1.8c0-.8-.2-1.5-.6-2-.4-.5-1-.7-1.7-.7s-1.3.2-1.7.7c-.4.5-.6,1.1-.6,2v1.8c0,.8.2,1.5.6,2,.4.5,1,.7,1.7.7s1.3-.2,1.7-.7Z"/>
            <path class="cls-7" d="M449.9,494c0,.8.2,1.4.6,1.8.4.4.9.6,1.6.6s1.2-.2,1.6-.6.6-.9.6-1.6v2.3c0,.5-.4,1-.9,1.4-.5.4-1.1.5-1.9.5-1.2,0-2.1-.4-2.8-1.2-.7-.8-1-1.9-1-3.3v-6.6h2.1v6.6ZM454.3,487.4h2.1v10.9h-2.1v-10.9Z"/>
            <path class="cls-7" d="M461.9,495.5c0,.3,0,.5.2.6s.3.2.5.2h1v2h-1.3c-.8,0-1.4-.3-1.9-.8s-.7-1.2-.7-2.1v-12.4h2.1v12.5Z"/>
            <path class="cls-7" d="M467.8,497.9c-.7-.4-1.3-.9-1.6-1.7-.4-.7-.6-1.6-.6-2.7v-1.2c0-1.1.2-2,.5-2.8.4-.8.9-1.3,1.6-1.7s1.5-.6,2.5-.6,1.7.2,2.3.7c.6.5,1.1,1.1,1.5,2,.3.9.5,1.9.5,3.1v.7h-7.3v-1.7h5.3c0-.9-.3-1.6-.7-2.1-.4-.5-.9-.7-1.6-.7s-1.4.3-1.9.8c-.4.5-.7,1.3-.7,2.3v1.4c0,.9.2,1.6.7,2.1.5.5,1.2.7,2,.7s.9,0,1.3-.3.8-.4,1.1-.7l1.4,1.4c-.5.5-1.1.9-1.8,1.2s-1.3.4-2,.4c-1,0-1.9-.2-2.6-.6Z"/>
            <path class="cls-7" d="M483.5,487.4h2.2l-4.1,10.9h-1.6l-4.1-10.9h2.2l2.7,7.8,2.7-7.8Z"/>
            <path class="cls-7" d="M488.3,497.6c-.7-.6-1-1.4-1-2.5s.3-1.9.9-2.4c.6-.5,1.5-.8,2.8-.8h3.1v1.7c.1,0-3.1,0-3.1,0-.6,0-1,.1-1.3.4-.3.2-.4.6-.4,1.1s.2,1,.6,1.2c.4.3.9.4,1.7.4s1.4,0,1.8-.3.6-.4.6-.8l.2,1.5c-.2.3-.4.5-.7.7-.3.2-.6.3-1,.4-.4,0-.8.1-1.2.1-1.3,0-2.3-.3-3-.8ZM493.9,491.4c0-.7-.2-1.3-.6-1.7-.4-.4-.9-.6-1.6-.6s-.9,0-1.3.2c-.4.1-.8.3-1.1.6l-1.6-1.1c.4-.5,1-.9,1.6-1.2s1.4-.4,2.3-.4,1.7.2,2.3.5c.6.3,1.1.8,1.5,1.4.3.6.5,1.3.5,2.2v7h-2v-6.9Z"/>
            <path class="cls-7" d="M499.2,487.4h2.1v10.9h-2.1v-10.9ZM504.5,489.5c-.3-.1-.6-.2-1-.2-.7,0-1.2.2-1.6.6-.4.4-.6.9-.6,1.6l-.2-2.1c.3-.7.8-1.2,1.3-1.5s1.1-.5,1.8-.5.9,0,1.3.2.8.4,1.1.6l-1.4,1.9c-.2-.2-.4-.4-.7-.5Z"/>
            <path class="cls-7" d="M509.6,498c-.6-.3-1-.9-1.3-1.5s-.4-1.5-.4-2.4v-2.4c0-.9.1-1.7.4-2.4.3-.7.7-1.2,1.3-1.5.5-.3,1.2-.5,2-.5s1.2.2,1.8.5c.5.3,1,.8,1.3,1.4l-.2,2.2c0-.5,0-.9-.3-1.2-.2-.3-.4-.6-.7-.8s-.7-.3-1.2-.3c-.7,0-1.3.2-1.6.7-.4.4-.6,1.1-.6,1.9v2.4c0,.8.2,1.4.6,1.8s.9.6,1.6.6.8,0,1.2-.3.6-.4.7-.8.3-.7.3-1.2v2.3c0,.5-.4,1-.9,1.4-.5.4-1.1.5-1.8.5s-1.5-.2-2-.5ZM514.4,483h2.1v15.3h-2.1v-15.3Z"/>
            <path class="cls-7" d="M526.7,497c-.6-1.7-.9-3.5-.9-5.5s.3-3.9.9-5.5c.6-1.7,1.6-3.2,2.8-4.5l1.5,1.3c-1.1,1.2-1.8,2.5-2.4,3.9-.5,1.5-.8,3.1-.8,4.8s.3,3.4.8,4.8c.5,1.5,1.3,2.8,2.4,4l-1.5,1.3c-1.2-1.4-2.2-2.9-2.8-4.5Z"/>
            <path class="cls-7" d="M531,483h10.8v2h-10.8v-2ZM535.3,484.3h2.1v14h-2.1v-14Z"/>
            <path class="cls-7" d="M543.2,483h2.1v15.3h-2.1v-15.3ZM549.8,491.7c0-.8-.2-1.4-.6-1.8-.4-.4-1-.6-1.7-.6s-1.2.2-1.6.5c-.4.4-.6.9-.6,1.5l-.2-2.1c.3-.6.8-1.1,1.3-1.5.5-.4,1.1-.5,1.8-.5,1.2,0,2.1.4,2.7,1.2s1,1.9,1,3.3v6.6h-2.1v-6.6Z"/>
            <path class="cls-7" d="M557.1,497.9c-.7-.4-1.3-.9-1.6-1.7-.4-.7-.6-1.6-.6-2.7v-1.2c0-1.1.2-2,.5-2.8.4-.8.9-1.3,1.6-1.7.7-.4,1.5-.6,2.5-.6s1.7.2,2.3.7,1.1,1.1,1.5,2c.3.9.5,1.9.5,3.1v.7h-7.3v-1.7h5.3c0-.9-.3-1.6-.7-2.1s-.9-.7-1.6-.7-1.4.3-1.9.8c-.4.5-.7,1.3-.7,2.3v1.4c0,.9.2,1.6.7,2.1.5.5,1.2.7,2,.7s.9,0,1.3-.3.8-.4,1.1-.7l1.4,1.4c-.5.5-1.1.9-1.8,1.2s-1.3.4-2,.4c-1,0-1.9-.2-2.6-.6Z"/>
            <path class="cls-7" d="M575.2,498.2c-.7-.1-1.3-.3-1.8-.6-.6-.3-1.1-.6-1.6-1l1.3-1.6c.6.5,1.2.9,1.9,1.1.7.3,1.5.4,2.3.4s2-.2,2.6-.6c.6-.4.9-1,.9-1.7h0c0-.5-.1-1-.4-1.3s-.6-.5-1.1-.7-1-.3-1.7-.4c0,0,0,0,0,0s0,0,0,0h-.2c-1-.2-1.9-.4-2.5-.6-.6-.2-1.2-.6-1.6-1.2-.5-.6-.7-1.4-.7-2.5h0c0-1,.2-1.8.6-2.4.4-.7,1-1.2,1.9-1.5.8-.4,1.8-.5,2.9-.5s1.1,0,1.6.2c.5.1,1,.3,1.6.5.5.2,1,.5,1.5.9l-1.2,1.7c-.6-.4-1.2-.7-1.7-1-.6-.2-1.2-.3-1.7-.3-1,0-1.9.2-2.4.6s-.9,1-.9,1.8h0c0,.5.1.9.4,1.2.3.3.7.5,1.1.7s1.1.3,1.9.4c0,0,0,0,0,0,0,0,0,0,0,0,0,0,0,0,.1,0s0,0,.1,0c.9.2,1.7.4,2.3.7s1.1.7,1.6,1.3c.4.6.6,1.4.6,2.4h0c0,1-.2,1.7-.7,2.4-.4.7-1.1,1.2-1.9,1.5-.8.3-1.8.5-3,.5s-1.4,0-2.1-.2Z"/>
            <path class="cls-7" d="M584.9,487.4h4.9v1.9h-4.9v-1.9ZM586.7,497.6c-.4-.5-.6-1.2-.6-2.2v-11.2h2.1v11.3c0,.3,0,.5.2.6.1.1.3.2.5.2h1v2h-1.2c-.9,0-1.5-.2-1.9-.7Z"/>
            <path class="cls-7" d="M592.8,487.4h2.1v10.9h-2.1v-10.9ZM598.1,489.5c-.3-.1-.6-.2-1-.2-.7,0-1.2.2-1.6.6-.4.4-.6.9-.6,1.6l-.2-2.1c.3-.7.8-1.2,1.3-1.5s1.1-.5,1.8-.5.9,0,1.3.2.8.4,1.1.6l-1.4,1.9c-.2-.2-.4-.4-.7-.5Z"/>
            <path class="cls-7" d="M602,483h2.1v2.1h-2.1v-2.1ZM602,487.4h2.1v10.9h-2.1v-10.9Z"/>
            <path class="cls-7" d="M607.3,487.4h2.1v15.3h-2.1v-15.3ZM610.5,498c-.5-.3-.9-.8-1.1-1.4v-2.3c.1.5.2.9.4,1.2.2.3.4.6.7.8.3.2.7.3,1.2.3.7,0,1.3-.2,1.6-.6s.6-1,.6-1.8v-2.4c0-.8-.2-1.4-.6-1.9-.4-.4-.9-.7-1.6-.7s-.8,0-1.2.3-.6.4-.7.7-.3.7-.3,1.2l-.2-2.1c.3-.6.8-1.1,1.3-1.5.5-.3,1.1-.5,1.8-.5s1.4.2,2,.5c.5.3,1,.9,1.3,1.5s.4,1.5.4,2.4v2.4c0,.9-.1,1.7-.4,2.4-.3.7-.7,1.2-1.3,1.5-.6.3-1.2.5-2,.5s-1.3-.2-1.8-.5Z"/>
            <path class="cls-7" d="M617.6,500.3c1.1-1.2,1.8-2.5,2.4-4,.5-1.5.8-3.1.8-4.8s-.3-3.4-.8-4.8c-.5-1.5-1.3-2.8-2.4-3.9l1.5-1.3c1.2,1.4,2.2,2.9,2.8,4.5.6,1.7.9,3.5.9,5.5s-.3,3.9-.9,5.5c-.6,1.7-1.6,3.2-2.8,4.5l-1.5-1.3Z"/>
          </g>
        </g>
      </g>
      <g id="text3594-8-2-1" class="cls-15">
        <g class="cls-15">
          <g class="cls-15">
            <path class="cls-7" d="M843.8,390.8v-2.1h15.3v2.1h-15.3ZM843.8,399.5v-2.1h15.3v2.1h-15.3ZM850.6,398.2v-8.5h2v8.5h-2Z"/>
            <path class="cls-7" d="M852.2,379c-.7,0-1.3.2-1.7.6s-.6.9-.6,1.6,0,.9.2,1.3c.1.4.3.8.6,1.1l-1.1,1.6c-.5-.4-.9-1-1.2-1.6-.3-.7-.4-1.4-.4-2.3s.2-1.7.5-2.3c.3-.6.8-1.1,1.4-1.5.6-.3,1.3-.5,2.2-.5h7v2h-6.9ZM858.4,384.7c-.6.7-1.4,1-2.5,1s-1.9-.3-2.4-.9-.8-1.5-.8-2.8v-3.1h1.7c0-.1,0,3.1,0,3.1,0,.6.1,1,.4,1.3.2.3.6.4,1.1.4s1-.2,1.2-.6c.3-.4.4-.9.4-1.7s0-1.4-.3-1.8-.4-.6-.8-.6l1.5-.2c.3.2.5.4.7.7.2.3.3.6.4,1,0,.4.1.8.1,1.2,0,1.3-.3,2.3-.8,3Z"/>
            <path class="cls-7" d="M850.3,368.4c-.1.3-.2.6-.2,1,0,.7.2,1.2.6,1.6s.9.6,1.6.6l-2.1.2c-.7-.3-1.2-.8-1.5-1.3-.4-.5-.5-1.1-.5-1.8s0-.9.2-1.3.4-.8.6-1.1l1.9,1.4c-.2.2-.4.4-.5.7ZM848.2,373.7v-2.1h10.9v2.1h-10.9Z"/>
            <path class="cls-7" d="M852.5,351.5c-.8,0-1.4.2-1.8.6-.4.4-.6,1-.6,1.7s.2,1.2.6,1.5c.4.4,1,.5,1.7.5l-2.1.4c-.7-.3-1.3-.8-1.7-1.4s-.6-1.2-.6-1.9.2-1.5.5-2c.3-.6.9-1,1.5-1.3.7-.3,1.5-.4,2.4-.4h6.6v2.1h-6.6ZM852.5,358c-.8,0-1.4.2-1.8.6s-.6.9-.6,1.6.2,1.2.6,1.6c.4.4.9.6,1.6.6l-2.1.2c-.7-.3-1.2-.8-1.5-1.3-.4-.5-.5-1.1-.5-1.8s.2-1.4.5-2c.3-.5.9-1,1.5-1.2s1.5-.4,2.4-.4h6.6v2.1h-6.6ZM848.2,364.5v-2.1h10.9v2.1h-10.9Z"/>
            <path class="cls-7" d="M858.7,344.3c-.4.7-.9,1.2-1.6,1.5-.7.4-1.6.5-2.6.5h-1.8c-1,0-1.8-.2-2.5-.5-.7-.4-1.2-.9-1.6-1.5-.4-.7-.6-1.5-.6-2.4s.2-1.8.6-2.4c.4-.7.9-1.2,1.6-1.5.7-.4,1.5-.5,2.5-.5h1.8c1,0,1.8.2,2.5.5.7.4,1.2.9,1.6,1.5.4.7.6,1.5.6,2.4s-.2,1.8-.6,2.4ZM856.5,340.2c-.5-.4-1.1-.6-2-.6h-1.8c-.8,0-1.5.2-2,.6-.5.4-.7,1-.7,1.7s.2,1.3.7,1.7c.5.4,1.1.6,2,.6h1.8c.8,0,1.5-.2,2-.6.5-.4.7-1,.7-1.7s-.2-1.3-.7-1.7Z"/>
            <path class="cls-7" d="M852.5,327.8c-.8,0-1.4.2-1.8.6-.4.4-.6,1-.6,1.7s.2,1.2.6,1.6c.4.4.9.6,1.6.6l-2.1.2c-.7-.3-1.2-.8-1.5-1.3-.4-.5-.5-1.1-.5-1.8,0-1.2.4-2.1,1.2-2.7s1.9-1,3.3-1h6.6v2.1h-6.6ZM848.2,334.4v-2.1h10.9v2.1h-10.9Z"/>
            <path class="cls-7" d="M843.8,312.2v-1.8l15.3-5.6v2.3l-12.3,4.2,12.3,4.2v2.3l-15.3-5.6ZM853.7,315.3v-8h2v8h-2Z"/>
            <path class="cls-7" d="M848.2,296.6v-2.2l10.9,4.1v1.6l-10.9,4.1v-2.2l7.8-2.7-7.8-2.7Z"/>
            <path class="cls-7" d="M858.7,290.6c-.4.7-.9,1.3-1.7,1.6s-1.6.6-2.7.6h-1.2c-1.1,0-2-.2-2.8-.5-.8-.4-1.3-.9-1.7-1.6s-.6-1.5-.6-2.5.2-1.7.7-2.3c.5-.6,1.1-1.1,2-1.5s1.9-.5,3.1-.5h.7v7.3h-1.7v-5.3c-.9,0-1.6.3-2.1.7-.5.4-.7.9-.7,1.6s.3,1.4.8,1.9c.5.4,1.3.7,2.3.7h1.4c.9,0,1.6-.2,2.1-.7.5-.5.7-1.2.7-2s0-.9-.3-1.3c-.2-.4-.4-.8-.7-1.1l1.4-1.4c.5.5.9,1.1,1.2,1.8s.4,1.3.4,2c0,1-.2,1.9-.6,2.6Z"/>
            <path class="cls-7" d="M852.5,274.3c-.8,0-1.4.2-1.8.6-.4.4-.6,1-.6,1.7s.2,1.2.6,1.6c.4.4.9.6,1.6.6l-2.1.2c-.7-.3-1.2-.8-1.5-1.3-.4-.5-.5-1.1-.5-1.8,0-1.2.4-2.1,1.2-2.7s1.9-1,3.3-1h6.6v2.1h-6.6ZM848.2,280.9v-2.1h10.9v2.1h-10.9Z"/>
            <path class="cls-7" d="M848.2,262.3v-2.1h10.9v2.1h-10.9ZM854.8,266.8c.8,0,1.4-.2,1.8-.6.4-.4.6-.9.6-1.6s-.2-1.2-.6-1.6c-.4-.4-.9-.6-1.6-.6h2.3c.5,0,1,.4,1.4.9.4.5.5,1.1.5,1.9,0,1.2-.4,2.1-1.2,2.8-.8.7-1.9,1-3.3,1h-6.6v-2.1h6.6Z"/>
            <path class="cls-7" d="M858.7,255.1c-.4.7-.9,1.3-1.7,1.6s-1.6.6-2.7.6h-1.2c-1.1,0-2-.2-2.8-.5-.8-.4-1.3-.9-1.7-1.6-.4-.7-.6-1.5-.6-2.5s.2-1.7.7-2.3c.5-.6,1.1-1.1,2-1.5s1.9-.5,3.1-.5h.7v7.3h-1.7v-5.3c-.9,0-1.6.3-2.1.7-.5.4-.7.9-.7,1.6s.3,1.4.8,1.9c.5.4,1.3.7,2.3.7h1.4c.9,0,1.6-.2,2.1-.7s.7-1.2.7-2,0-.9-.3-1.3-.4-.8-.7-1.1l1.4-1.4c.5.5.9,1.1,1.2,1.8s.4,1.3.4,2c0,1-.2,1.9-.6,2.6Z"/>
          </g>
        </g>
      </g>
      <circle id="ellipse22772-83" class="cls-7" cx="816.4" cy="513.4" r="4.4"/>
      <circle id="ellipse22772-15" class="cls-7" cx="820.6" cy="495.7" r="4.4"/>
      <circle id="ellipse22772-39" class="cls-7" cx="831.1" cy="486.5" r="4.4"/>
      <circle id="ellipse22772" class="cls-7" cx="734.1" cy="45.7" r="4.4"/>
      <circle id="ellipse22772-1" class="cls-7" cx="732.4" cy="91.9" r="4.4"/>
      <circle id="ellipse22772-0" class="cls-7" cx="759.7" cy="148.9" r="4.4"/>
      <circle id="ellipse22772-9" class="cls-7" cx="708.5" cy="185.9" r="4.4"/>
      <circle id="ellipse22772-3" class="cls-7" cx="327.1" cy="191.9" r="4.4"/>
      <circle id="ellipse22772-5" class="cls-7" cx="311.3" cy="85.8" r="4.4"/>
      <circle id="ellipse22772-4" class="cls-7" cx="239.8" cy="59.1" r="4.4"/>
      <circle id="ellipse22772-51" class="cls-7" cx="231.3" cy="70.8" r="4.4"/>
      <circle id="ellipse22772-53" class="cls-7" cx="183.7" cy="64.1" r="4.4"/>
      <circle id="ellipse22772-95" class="cls-7" cx="169.4" cy="247.7" r="4.4"/>
      <circle id="ellipse22772-8" class="cls-7" cx="62.6" cy="310.3" r="4.4"/>
      <circle id="ellipse22772-19" class="cls-7" cx="40.6" cy="380" r="4.4"/>
      <circle id="ellipse22772-49" class="cls-7" cx="315.8" cy="513.6" r="4.4"/>
      <circle id="ellipse22772-99" class="cls-7" cx="832.1" cy="176" r="4.4"/>
      <g id="g724">
        <circle id="path4923-6-4" class="cls-7" cx="845.9" cy="556.3" r="15.8"/>
        <g id="text4919-14-4" class="cls-15">
          <g class="cls-15">
            <g>
              <path class="cls-13" d="M839.7,563.4h-2.1v-12.6l-2.1,1.3v-2.2l2.1-1.4h2.1v14.9Z"/>
              <path class="cls-13" d="M842.9,559.3l5-10.8h2.2l-4.9,10.7h7.3v1.9h-9.6v-1.8ZM849.3,554.6h2v8.8h-2v-8.8Z"/>
            </g>
          </g>
        </g>
        <path id="path7016-9" class="cls-3" d="M839.8,537.6l-8.6,5.9-10.2-24,18.8,18.1Z" inkscape:flatsided="true" inkscape:randomized="0" inkscape:rounded="0" sodipodi:arg1="0.52359878" sodipodi:arg2="1.5707963" sodipodi:cx="616.78491" sodipodi:cy="441.05292" sodipodi:r1="49.321915" sodipodi:r2="24.660957" sodipodi:sides="3" sodipodi:type="star"/>
      </g>
      <g id="g682">
        <circle id="path4923-6-8" class="cls-7" cx="775.9" cy="466.6" r="15.8"/>
        <g id="text4919-14-49" class="cls-15">
          <g class="cls-15">
            <g>
              <path class="cls-13" d="M770,473.5h-2.1v-12.4l-2.1,1.3v-2.1l2.1-1.4h2.1v14.6Z"/>
              <path class="cls-13" d="M775.5,473.2c-.6-.3-1-.7-1.4-1.3-.4-.5-.6-1.2-.7-2h0s2.1,0,2.1,0h0c0,.5.3,1,.6,1.3.4.3.8.4,1.4.4s1.2-.2,1.5-.7c.4-.4.5-1.1.5-1.9v-1.2c0-.8-.2-1.4-.5-1.8-.4-.4-.9-.7-1.5-.7s-.7.1-1,.3c-.3.2-.6.5-.9.8h-1.9v-7.7h7.5v2h-5.4v3.3c.3-.2.5-.4.9-.5.3-.1.6-.2,1-.2.8,0,1.6.2,2.2.5s1.1.9,1.4,1.5.5,1.5.5,2.4v1.2c0,.9-.2,1.8-.5,2.4-.3.7-.8,1.2-1.4,1.5-.6.4-1.4.5-2.2.5s-1.4-.1-2-.4Z"/>
            </g>
          </g>
        </g>
        <path id="path7016-3" class="cls-3" d="M790,480.6l6.1-8.5,17.7,19.1-23.8-10.6Z" inkscape:flatsided="true" inkscape:randomized="0" inkscape:rounded="0" sodipodi:arg1="0.52359878" sodipodi:arg2="1.5707963" sodipodi:cx="616.78491" sodipodi:cy="441.05292" sodipodi:r1="49.321915" sodipodi:r2="24.660957" sodipodi:sides="3" sodipodi:type="star"/>
      </g>
      <g id="g676">
        <path id="path7016-8" class="cls-3" d="M865,482.5l.2,10.5-25.7-4.6,25.4-5.8h0Z" inkscape:flatsided="true" inkscape:randomized="0" inkscape:rounded="0" sodipodi:arg1="0.52359878" sodipodi:arg2="1.5707963" sodipodi:cx="616.78491" sodipodi:cy="441.05292" sodipodi:r1="49.321915" sodipodi:r2="24.660957" sodipodi:sides="3" sodipodi:type="star"/>
        <circle id="path3454" class="cls-2" cx="883.7" cy="487.1" r="16"/>
        <g id="text3437" class="cls-15">
          <g class="cls-15">
            <g>
              <path class="cls-13" d="M877.5,494h-2.1v-12.4l-2.1,1.3v-2.1l2.1-1.4h2.1v14.6Z"/>
              <path class="cls-13" d="M882.4,493.6c-.6-.3-1.1-.8-1.4-1.5s-.5-1.5-.5-2.4h0c0-.6,0-1.1.2-1.7.1-.6.3-1.2.6-1.8,0-.1,0-.2.1-.3,0,0,0-.2.1-.3l3.2-6.3h2.2l-3.7,7.3v-.4c.2-.3.4-.6.7-.7.3-.2.7-.3,1.1-.3.8,0,1.4.2,2,.5s1,.8,1.2,1.5c.3.7.4,1.4.4,2.4h0c0,.9-.2,1.8-.5,2.4-.3.7-.8,1.2-1.4,1.5-.6.3-1.3.5-2.2.5s-1.6-.2-2.2-.5ZM886.1,491.6c.4-.4.5-1,.5-1.7h0c0-.8-.2-1.5-.6-1.9-.4-.4-.9-.7-1.6-.7s-1.1.2-1.4.7c-.3.4-.5,1.1-.5,1.9h0c0,.8.2,1.3.5,1.7.4.4.9.6,1.5.6s1.2-.2,1.5-.6Z"/>
            </g>
          </g>
        </g>
      </g>
      <g id="g789">
        <ellipse id="path4761-33-33-3" class="cls-7" cx="727.8" cy="20.1" rx="14.4" ry="14.7"/>
        <g id="text4757-41-41-8" class="cls-15">
          <g class="cls-15">
            <path class="cls-13" d="M727.8,30h-2.9V12.3l-3,1.8v-3l3-2h2.9v20.9Z"/>
          </g>
        </g>
      </g>
      <g id="g781">
        <ellipse id="path4761-33-33-3-8" class="cls-7" cx="705.6" cy="92.7" rx="14.4" ry="14.7"/>
        <g id="text4757-41-41-8-8" class="cls-15">
          <g class="cls-15">
            <path class="cls-13" d="M700.3,100.1l7.3-9.7c.4-.6.7-1.1,1-1.7.2-.6.4-1.2.4-1.7h0c0-.9-.2-1.5-.7-2-.5-.5-1.2-.7-2.1-.7s-1.5.3-2.1.8c-.5.5-.8,1.2-1,2.1h0s-3,0-3,0h0c.2-1.2.5-2.2,1.1-3.1.5-.8,1.2-1.5,2.1-1.9.8-.4,1.8-.7,2.9-.7s2.3.2,3.2.6,1.6,1,2,1.9c.5.8.7,1.8.7,2.9h0c0,.8-.2,1.5-.5,2.3-.3.8-.7,1.6-1.3,2.3l-6,8.2h7.9v2.8h-11.8v-2.5Z"/>
          </g>
        </g>
      </g>
      <g id="g765">
        <path id="path7016" class="cls-3" d="M723.2,145.5l2.7-10.1,23.3,11.7-26-1.7h0Z" inkscape:flatsided="true" inkscape:randomized="0" inkscape:rounded="0" sodipodi:arg1="0.52359878" sodipodi:arg2="1.5707963" sodipodi:cx="616.78491" sodipodi:cy="441.05292" sodipodi:r1="49.321915" sodipodi:r2="24.660957" sodipodi:sides="3" sodipodi:type="star"/>
        <ellipse id="path4761-33-33-3-5" class="cls-7" cx="706" cy="137.3" rx="14.4" ry="14.7"/>
        <g id="text4757-41-41-8-1" class="cls-15">
          <g class="cls-15">
            <path class="cls-13" d="M703.8,146.4c-.9-.4-1.6-1-2.1-1.8-.5-.8-.9-1.8-1-2.9h2.9c0,.6.3,1.1.5,1.4s.6.7,1.1.8c.4.2,1,.3,1.6.3,1,0,1.7-.3,2.2-.8.5-.5.8-1.2.8-2.1v-.6c0-1-.2-1.8-.7-2.4-.5-.6-1.2-.8-2.1-.8h-1.5v-2.7h1.5c.8,0,1.4-.2,1.9-.7s.7-1.2.7-2v-.6c0-.8-.2-1.4-.7-1.9-.5-.4-1.1-.7-2-.7s-.9,0-1.3.3-.7.5-1,.8c-.3.4-.5.9-.6,1.4h-2.9c.2-1.1.5-2.1,1.1-2.9s1.2-1.4,2-1.8,1.7-.6,2.8-.6c1.8,0,3.1.5,4.1,1.4,1,.9,1.5,2.2,1.5,3.9v.3c0,1-.3,1.9-.8,2.7-.6.8-1.3,1.3-2.4,1.7,1.1.2,2,.8,2.6,1.7.6.9.9,1.9.9,3.3v.3c0,1.2-.2,2.2-.7,3.1s-1.1,1.5-2,1.9-1.9.7-3.2.7-2.2-.2-3-.6Z"/>
          </g>
        </g>
      </g>
      <g id="g751">
        <ellipse id="path4761-33-33-3-52" class="cls-7" cx="717.7" cy="208.1" rx="14.4" ry="14.7"/>
        <g id="text4757-41-41-8-7" class="cls-15">
          <g class="cls-15">
            <path class="cls-13" d="M712.5,212.3l7-15.1h3l-6.8,14.9h10.2v2.7h-13.4v-2.5ZM721.5,205.7h2.9v12.3h-2.9v-12.3Z"/>
          </g>
        </g>
      </g>
      <g id="g735">
        <ellipse id="path4761-33-33-3-57" class="cls-7" cx="330.3" cy="73.8" rx="14.4" ry="14.7"/>
        <g id="text4757-41-41-8-6" class="cls-15">
          <g class="cls-15">
            <path class="cls-13" d="M327.3,82.9c-.9-.5-1.5-1.2-2-2.1-.4-.9-.7-2-.7-3.4h0c0-.8,0-1.6.3-2.4.2-.8.4-1.7.8-2.5,0-.1.1-.3.2-.4,0-.1.1-.3.2-.4l4.5-8.8h3.1l-5.2,10.2v-.5c.2-.4.6-.8,1-1,.5-.2,1-.4,1.6-.4,1.1,0,2,.2,2.7.7.8.5,1.3,1.2,1.7,2.1s.6,2,.6,3.3h0c0,1.3-.2,2.5-.7,3.4s-1.1,1.7-2,2.1c-.9.5-1.9.7-3.1.7s-2.2-.2-3.1-.7ZM332.5,80c.5-.6.7-1.4.7-2.4h0c0-1.2-.3-2-.8-2.7-.5-.6-1.3-.9-2.2-.9s-1.5.3-2,.9c-.5.6-.7,1.5-.7,2.7h0c0,1.1.2,1.9.7,2.4.5.6,1.2.8,2.1.8s1.6-.3,2.1-.8Z"/>
          </g>
        </g>
      </g>
      <g id="g727">
        <ellipse id="path4761-33-33-3-2" class="cls-7" cx="216.2" cy="15.2" rx="14.4" ry="14.7"/>
        <g id="text4757-41-41-8-79" class="cls-15">
          <g class="cls-15">
            <path class="cls-13" d="M221.9,6.4l-5.4,18.3h-3.1l5.4-18.1h-5.3v3h-2.9V3.8h11.4v2.6Z"/>
          </g>
        </g>
        <path id="path7016-3-6" class="cls-3" d="M219.9,33.1l9.3-4.8,6.9,25.1-16.3-20.4h.1Z" inkscape:flatsided="true" inkscape:randomized="0" inkscape:rounded="0" sodipodi:arg1="0.52359878" sodipodi:arg2="1.5707963" sodipodi:cx="616.78491" sodipodi:cy="441.05292" sodipodi:r1="49.321915" sodipodi:r2="24.660957" sodipodi:sides="3" sodipodi:type="star"/>
      </g>
      <g id="g713">
        <path id="path7016-3-6-6" class="cls-3" d="M251.2,98.1l-9.3,4.8-7.1-25.1,16.4,20.3h0Z" inkscape:flatsided="true" inkscape:randomized="0" inkscape:rounded="0" sodipodi:arg1="0.52359878" sodipodi:arg2="1.5707963" sodipodi:cx="616.78491" sodipodi:cy="441.05292" sodipodi:r1="49.321915" sodipodi:r2="24.660957" sodipodi:sides="3" sodipodi:type="star"/>
        <ellipse id="path4761-33-33-3-33" class="cls-7" cx="254.9" cy="115.3" rx="14.4" ry="14.7"/>
        <g id="text4757-41-41-8-4" class="cls-15">
          <g class="cls-15">
            <path class="cls-13" d="M252.6,124.4c-.9-.5-1.7-1.1-2.2-2-.5-.9-.8-1.9-.8-3v-.3c0-1,.3-2,.8-2.9.5-.9,1.2-1.6,2.1-2-.7-.4-1.3-1-1.7-1.7s-.7-1.5-.7-2.4v-.5c0-1.1.2-2,.7-2.8.5-.8,1.2-1.4,2-1.9.9-.4,1.9-.7,3-.7s2.2.2,3,.7c.9.4,1.6,1.1,2,1.9.5.8.7,1.8.7,2.8v.5c0,.8-.2,1.6-.7,2.4-.4.7-1,1.3-1.8,1.7.9.5,1.6,1.2,2.1,2.1.5.9.8,1.9.8,2.9v.3c0,1.1-.3,2.1-.8,3-.5.9-1.2,1.5-2.2,2-.9.5-2,.7-3.3.7s-2.3-.2-3.3-.7ZM257.6,122c.5-.3.9-.6,1.2-1.1.3-.5.4-1,.4-1.6v-.2c0-.6-.1-1.2-.4-1.7-.3-.5-.7-.8-1.2-1.1-.5-.3-1.1-.4-1.8-.4s-1.3.1-1.8.4-.9.6-1.2,1.1c-.3.5-.4,1-.4,1.7v.2c0,.6.1,1.2.4,1.6.3.5.7.8,1.2,1.1s1.1.4,1.8.4,1.3-.1,1.8-.4ZM257.4,112.7c.4-.2.8-.6,1-1.1s.4-1,.4-1.6v-.2c0-.6-.1-1.1-.4-1.5-.2-.4-.6-.8-1-1-.4-.2-1-.4-1.5-.4s-1.1.1-1.5.4c-.4.2-.8.6-1,1-.2.4-.4,1-.4,1.5v.2c0,.6.1,1.1.4,1.6.2.5.6.8,1,1.1s1,.4,1.5.4,1.1-.1,1.5-.4Z"/>
          </g>
        </g>
      </g>
      <g id="g4763-12-12-11-87">
        <g id="g699">
          <ellipse id="path4761-33-33-3-4" class="cls-7" cx="162.6" cy="52.2" rx="14.4" ry="14.7"/>
          <g id="text4757-41-41-8-27" class="cls-15">
            <g class="cls-15">
              <path class="cls-13" d="M164.8,51.5v.5c-.2.4-.6.7-1.1.9-.5.2-1,.3-1.7.3-1,0-1.8-.2-2.6-.7-.7-.5-1.3-1.2-1.7-2.1-.4-.9-.6-2-.6-3.1h0c0-1.3.2-2.5.7-3.4s1.1-1.7,2-2.1,1.9-.7,3.1-.7,2.2.2,3.1.7,1.5,1.2,1.9,2.2c.4.9.7,2.1.7,3.4h0c0,.7,0,1.5-.3,2.4-.2.8-.5,1.7-.8,2.5,0,.1-.1.2-.2.4,0,.1-.1.3-.2.4l-4.4,8.8h-3.1l5.1-10.2ZM164.9,49.8c.5-.6.7-1.5.7-2.6h0c0-1.1-.2-1.9-.7-2.5s-1.2-.9-2.1-.9-1.6.3-2.1.9-.7,1.4-.7,2.5h0c0,1.1.2,2,.7,2.6s1.2.9,2.1.9,1.6-.3,2.1-.9Z"/>
            </g>
          </g>
        </g>
      </g>
    </g>
  </g>
  <path class="cls-12" d="M835.6,181.9c-1.9-8.8-5.1-16.5-10.1-24.1-.7-1.2-5.9-8.2-13.2-18.1-.9.7-1.9,1.5-2.8,2.2,7.2,9.7,12.2,16.5,13,17.7,6.7,10.2,10.3,20.8,11.1,32.6.2,2.4,0,24.1-.2,48.1s-1.1,88.4-1.7,143c-.7,59.4-1.3,100-1.6,101-.7,2.4-1.9,3.7-5,5.4-5.8,3.1-7.9,6.9-8.3,14.7-.3,5.7-.8,7.5-2.3,8.1-.7.3-25.9.6-61.9.9h0c-77.5.6-368,1-395.2.5-21.5-.3-28.9-.6-36.7-1.4-30.6-3.1-70-17.5-120.2-44-17.2-9-47.6-25.4-52.2-28.1-6.7-4-17.2-10.6-26.7-17.1-6.7-4.6-12.7-8.6-17.9-12.1-.7.9-1.4,1.9-2.2,2.8,26.4,18,40.6,27.1,52.5,33.5,29.1,15.9,53.6,28.8,66.4,35,39.6,19.3,69,29.4,96.7,33,10.1,1.3,27.2,1.7,89.6,2l.2-.4c34.3.2,70.3.2,79.8.2s65.8-.2,125-.4c59.2-.2,129.1-.4,155.3-.6,45.5-.3,47.7-.4,49.4-1.2,2.5-1.3,3.4-3.6,3.7-9.5.2-4.7,1-7.9,2.4-10,.4-.5,2.1-1.9,3.9-2.9,1.8-1.1,3.8-2.6,4.6-3.4,2.9-3,2.8-2.4,3.3-39.2,1.4-111.4,2.4-202.6,2.4-231s0-32.6-1-37.3Z"/>
  <path class="cls-14" d="M321.4,157.6c.5,31.4.5,31.6,3.6,34.7,1.2,1.2,2.6,1.9,4.5,2.5,3.1.9,4.9.9,203.2-2.8,161.9-3,167.6-3.2,176.2-4.4,19.5-2.8,34.7-10.1,44.3-21.3,6.1-7.2,8.3-12.2,8.3-19.7s-.7-9.2-2.8-14.4c-2.6-6.7-5.7-11.7-18.6-30.5-2.5-3.6-4.9-7.6-5.4-8.8-1.7-4.5-3-17.1-3-32.4,0-9.8,0-10.4.9-11.6.7-1,1.4-1.4,2.6-1.5,3.2-.3,6.1,2.1,10.5,8.6,2.7,4,4.9,7,12.3,17.1,2,2.8,16.8,22.5,32.8,43.9,6.8,9.1,13.3,17.8,18.6,24.9.9-.7,1.9-1.5,2.8-2.2-5.5-7.5-12.3-16.6-19.5-26.1-30.2-40.3-40.6-54.4-45.1-61-1.3-2-3.5-4.5-4.8-5.7-5.8-5.2-12.5-4.1-14.3,2.3-1.2,4.2,0,34.1,1.8,41.6.8,3.5,2.4,6.3,10.2,17.7,10.8,15.7,13.2,19.8,15.8,27.5,4.1,11.9,1.5,20.9-9.2,31.1-6.3,6-13,9.8-23,13.1-6.8,2.2-13.4,3.6-20.6,4.3-8,.8-34,1.3-317.4,6.5-35.9.7-52.3.8-54.3.5-4.1-.6-6-2.6-6.7-6.8-.2-1-.5-17.4-.7-36.3,0-1.7,0-3.3,0-4.8h-3.3c0,4.1.2,8.7.2,14Z"/>
  <path class="cls-11" d="M51,382.6c-5.9-1.6-8.4-2.5-8.9-3.3s6.6-30.3,10.6-43.9c4.3-14.6,6.3-18.7,12.3-24.7,8.2-8.3,20.7-15,40.6-21.8,17.6-6,31-12.5,44.2-21.3,8.9-6,18.1-14.4,22-20,6.2-9,9.9-24.7,11.2-47.3.3-4.8.5-34.7.5-69.9s.2-62.3.3-63.1c.5-2.6,1.5-2.8,9.8-1.3,17.5,3.1,25,4.5,30.3,5.6,6.8,1.5,7.4,1.5,9.8.3,2.2-1.1,3.4-2.9,4.4-6.9,1.1-4.6,1.5-4.8,11.2-5,15.3-.3,28.3,2.6,39.9,8.9,16.2,8.8,26.3,22,30.4,39.8,1,4.1,1,3,1.6,34.9h3.3c-.4-32.6-.5-33.3-3.1-41.9-6.9-22.1-26.7-38.8-52.3-43.9-8.4-1.7-10.8-1.9-18.2-1.9-10.7,0-14.5,1.5-15.6,5.8-1.9,7.7-2.7,8.2-9.8,6.6-3.2-.7-16.1-3.1-28.6-5.3-9.3-1.6-12-1.7-13.9-.6-3,1.7-2.8-2.6-3,70.5-.1,43.4-.4,68.4-.7,72.2-1.6,17.4-4,28.2-8.2,36.6-7.4,14.8-33.8,32.4-64.3,43-20.5,7.1-32.2,12.9-40.7,20-8.7,7.4-11.8,12.9-16.7,29.3-3.6,12.1-10.9,42.6-10.9,45.1s3.5,4.8,9.5,6.3c14.2,3.6,26.5,10.2,53.3,28.5,0,0,.2.1.2.2.7-.9,1.4-1.9,2.2-2.8-32-21.4-39.2-25-52.6-28.6Z"/>
  <g id="text4919-14-0" class="cls-15">
    <g class="cls-15">
      <g>
        <path class="cls-13" d="M37.3,301.1h-2.1v-12.6l-2.1,1.3v-2.2l2.1-1.4h2.1v14.9Z"/>
        <path class="cls-13" d="M44.3,301.1h-2.1v-12.6l-2.1,1.3v-2.2l2.1-1.4h2.1v14.9Z"/>
      </g>
    </g>
  </g>
  <line class="cls-10" x1="336.1" y1="526.8" x2="801.9" y2="526.8"/>
  <line class="cls-10" x1="344.7" y1="208.1" x2="695.1" y2="200.4"/>
</svg>