<?xml version="1.0" encoding="UTF-8"?>
<svg id="svg5" xmlns="http://www.w3.org/2000/svg" xmlns:xlink="http://www.w3.org/1999/xlink" xmlns:svg="http://www.w3.org/2000/svg" xmlns:sodipodi="http://sodipodi.sourceforge.net/DTD/sodipodi-0.dtd" xmlns:inkscape="http://www.inkscape.org/namespaces/inkscape" version="1.1" viewBox="0 0 900 572.6">
  <defs>
    <style>
      .cls-1 {
        font-size: 20.6px;
      }

      .cls-1, .cls-2, .cls-3, .cls-4, .cls-5, .cls-6, .cls-7, .cls-8, .cls-9, .cls-10, .cls-11, .cls-12, .cls-13, .cls-14, .cls-15 {
        fill: #000;
      }

      .cls-1, .cls-3, .cls-4, .cls-5, .cls-16, .cls-6, .cls-8, .cls-11, .cls-12 {
        font-family: TimesNewRomanPSMT, 'Times New Roman';
      }

      .cls-1, .cls-3, .cls-4, .cls-5, .cls-16, .cls-6, .cls-8, .cls-11, .cls-12, .cls-17, .cls-14 {
        isolation: isolate;
      }

      .cls-2 {
        stroke-width: .8px;
      }

      .cls-2, .cls-18, .cls-19, .cls-20, .cls-21, .cls-22, .cls-23, .cls-7, .cls-10, .cls-24 {
        stroke-linecap: round;
      }

      .cls-2, .cls-18, .cls-19, .cls-20, .cls-13, .cls-15 {
        stroke-miterlimit: 11.3;
      }

      .cls-2, .cls-16, .cls-7, .cls-9, .cls-10 {
        stroke: #fff;
      }

      .cls-25 {
        stroke-width: 0px;
      }

      .cls-25, .cls-16 {
        fill: none;
      }

      .cls-18 {
        stroke-width: 1px;
      }

      .cls-18, .cls-19, .cls-20, .cls-26, .cls-21, .cls-22, .cls-23 {
        fill: #fff;
      }

      .cls-18, .cls-19, .cls-20, .cls-26, .cls-21, .cls-13, .cls-24, .cls-15 {
        stroke: #000;
      }

      .cls-19 {
        stroke-width: 1px;
      }

      .cls-20 {
        stroke-width: 1px;
      }

      .cls-3, .cls-16 {
        font-size: 62.7px;
      }

      .cls-4 {
        font-size: 21px;
      }

      .cls-5 {
        font-size: 29.4px;
      }

      .cls-26 {
        stroke-miterlimit: 28.3;
        stroke-width: 1px;
      }

      .cls-16 {
        stroke-width: .5px;
      }

      .cls-16, .cls-10 {
        stroke-miterlimit: 7.6;
      }

      .cls-6 {
        font-size: 20.6px;
      }

      .cls-21 {
        stroke-width: 1px;
      }

      .cls-22 {
        stroke-width: .7px;
      }

      .cls-22, .cls-23 {
        stroke: #181818;
      }

      .cls-22, .cls-23, .cls-7, .cls-24 {
        stroke-linejoin: round;
      }

      .cls-23 {
        stroke-width: .7px;
      }

      .cls-7 {
        stroke-width: .5px;
      }

      .cls-8 {
        font-size: 28.9px;
      }

      .cls-9 {
        stroke-width: 2.4px;
      }

      .cls-10 {
        stroke-width: .8px;
      }

      .cls-11 {
        font-size: 29.4px;
      }

      .cls-12 {
        font-size: 28.8px;
      }

      .cls-13 {
        stroke-width: 6.3px;
      }

      .cls-24 {
        fill: url(#pattern4166-9);
        stroke-width: .8px;
      }

      .cls-14 {
        font-family: ArialMT, Arial;
        font-size: 21.5px;
      }

      .cls-15 {
        stroke-width: 0px;
      }
    </style>
    <pattern id="pattern4166-9" x="0" y="0" width="900" height="572.6" patternTransform="translate(-7360.2 -1358.7) rotate(52) scale(.5)" patternUnits="userSpaceOnUse" viewBox="0 0 900 572.6">
      <rect class="cls-25" width="900" height="572.6"/>
    </pattern>
  </defs>
  <sodipodi:namedview id="namedview7" bordercolor="#eeeeee" borderopacity="1" inkscape:current-layer="layer1" inkscape:cx="890.24744" inkscape:cy="575.58492" inkscape:deskcolor="#505050" inkscape:document-units="mm" inkscape:pagecheckerboard="0" inkscape:pageopacity="0" inkscape:showpageshadow="0" inkscape:window-height="1017" inkscape:window-maximized="1" inkscape:window-width="1920" inkscape:window-x="-8" inkscape:window-y="-8" inkscape:zoom="0.70710678" pagecolor="#505050" showgrid="false"/>
  <g id="_defs" data-name="&amp;lt;defs">
    <inkscape:perspective id="perspective3843" inkscape:persp3d-origin="372.04725 : 44.80077 : 1" inkscape:vp_x="0 : 220.19446 : 1" inkscape:vp_y="0 : 999.99996 : 0" inkscape:vp_z="744.09449 : 220.19446 : 1" sodipodi:type="inkscape:persp3d"/>
    <inkscape:perspective id="perspective3853" inkscape:persp3d-origin="0.5 : -305.65329 : 1" inkscape:vp_x="0 : -305.48662 : 1" inkscape:vp_y="0 : 999.99996 : 0" inkscape:vp_z="1 : -305.48662 : 1" sodipodi:type="inkscape:persp3d"/>
    <inkscape:perspective id="perspective3997" inkscape:persp3d-origin="0.5 : -305.65329 : 1" inkscape:vp_x="0 : -305.48662 : 1" inkscape:vp_y="0 : 999.99996 : 0" inkscape:vp_z="1 : -305.48662 : 1" sodipodi:type="inkscape:persp3d"/>
    <inkscape:perspective id="perspective5263" inkscape:persp3d-origin="0.5 : -305.65329 : 1" inkscape:vp_x="0 : -305.48662 : 1" inkscape:vp_y="0 : 999.99996 : 0" inkscape:vp_z="1 : -305.48662 : 1" sodipodi:type="inkscape:persp3d"/>
    <inkscape:perspective id="perspective6022" inkscape:persp3d-origin="0.5 : -305.65329 : 1" inkscape:vp_x="0 : -305.48662 : 1" inkscape:vp_y="0 : 999.99996 : 0" inkscape:vp_z="1 : -305.48662 : 1" sodipodi:type="inkscape:persp3d"/>
    <inkscape:perspective id="perspective6022-9" inkscape:persp3d-origin="0.5 : -305.65329 : 1" inkscape:vp_x="0 : -305.48662 : 1" inkscape:vp_y="0 : 999.99996 : 0" inkscape:vp_z="1 : -305.48662 : 1" sodipodi:type="inkscape:persp3d"/>
    <inkscape:perspective id="perspective6022-4" inkscape:persp3d-origin="0.5 : -305.65329 : 1" inkscape:vp_x="0 : -305.48662 : 1" inkscape:vp_y="0 : 999.99996 : 0" inkscape:vp_z="1 : -305.48662 : 1" sodipodi:type="inkscape:persp3d"/>
    <inkscape:perspective id="perspective6022-1" inkscape:persp3d-origin="0.5 : -305.65329 : 1" inkscape:vp_x="0 : -305.48662 : 1" inkscape:vp_y="0 : 999.99996 : 0" inkscape:vp_z="1 : -305.48662 : 1" sodipodi:type="inkscape:persp3d"/>
    <inkscape:perspective id="perspective6022-14" inkscape:persp3d-origin="0.5 : -305.65329 : 1" inkscape:vp_x="0 : -305.48662 : 1" inkscape:vp_y="0 : 999.99996 : 0" inkscape:vp_z="1 : -305.48662 : 1" sodipodi:type="inkscape:persp3d"/>
    <inkscape:perspective id="perspective6022-6" inkscape:persp3d-origin="0.5 : -305.65329 : 1" inkscape:vp_x="0 : -305.48662 : 1" inkscape:vp_y="0 : 999.99996 : 0" inkscape:vp_z="1 : -305.48662 : 1" sodipodi:type="inkscape:persp3d"/>
    <inkscape:perspective id="perspective6022-8" inkscape:persp3d-origin="0.5 : -305.65329 : 1" inkscape:vp_x="0 : -305.48662 : 1" inkscape:vp_y="0 : 999.99996 : 0" inkscape:vp_z="1 : -305.48662 : 1" sodipodi:type="inkscape:persp3d"/>
    <inkscape:perspective id="perspective6022-43" inkscape:persp3d-origin="0.5 : -305.65329 : 1" inkscape:vp_x="0 : -305.48662 : 1" inkscape:vp_y="0 : 999.99996 : 0" inkscape:vp_z="1 : -305.48662 : 1" sodipodi:type="inkscape:persp3d"/>
    <inkscape:perspective id="perspective6022-3" inkscape:persp3d-origin="0.5 : -305.65329 : 1" inkscape:vp_x="0 : -305.48662 : 1" inkscape:vp_y="0 : 999.99996 : 0" inkscape:vp_z="1 : -305.48662 : 1" sodipodi:type="inkscape:persp3d"/>
    <inkscape:perspective id="perspective6022-31" inkscape:persp3d-origin="0.5 : -305.65329 : 1" inkscape:vp_x="0 : -305.48662 : 1" inkscape:vp_y="0 : 999.99996 : 0" inkscape:vp_z="1 : -305.48662 : 1" sodipodi:type="inkscape:persp3d"/>
    <inkscape:perspective id="perspective6907" inkscape:persp3d-origin="0.5 : -305.65329 : 1" inkscape:vp_x="0 : -305.48662 : 1" inkscape:vp_y="0 : 999.99996 : 0" inkscape:vp_z="1 : -305.48662 : 1" sodipodi:type="inkscape:persp3d"/>
    <inkscape:perspective id="perspective6907-2" inkscape:persp3d-origin="0.5 : -305.65329 : 1" inkscape:vp_x="0 : -305.48662 : 1" inkscape:vp_y="0 : 999.99996 : 0" inkscape:vp_z="1 : -305.48662 : 1" sodipodi:type="inkscape:persp3d"/>
    <inkscape:perspective id="perspective6907-4" inkscape:persp3d-origin="0.5 : -305.65329 : 1" inkscape:vp_x="0 : -305.48662 : 1" inkscape:vp_y="0 : 999.99996 : 0" inkscape:vp_z="1 : -305.48662 : 1" sodipodi:type="inkscape:persp3d"/>
    <inkscape:perspective id="perspective6907-0" inkscape:persp3d-origin="0.5 : -305.65329 : 1" inkscape:vp_x="0 : -305.48662 : 1" inkscape:vp_y="0 : 999.99996 : 0" inkscape:vp_z="1 : -305.48662 : 1" sodipodi:type="inkscape:persp3d"/>
    <inkscape:perspective id="perspective6907-9" inkscape:persp3d-origin="0.5 : -305.65329 : 1" inkscape:vp_x="0 : -305.48662 : 1" inkscape:vp_y="0 : 999.99996 : 0" inkscape:vp_z="1 : -305.48662 : 1" sodipodi:type="inkscape:persp3d"/>
    <inkscape:perspective id="perspective6907-06" inkscape:persp3d-origin="0.5 : -305.65329 : 1" inkscape:vp_x="0 : -305.48662 : 1" inkscape:vp_y="0 : 999.99996 : 0" inkscape:vp_z="1 : -305.48662 : 1" sodipodi:type="inkscape:persp3d"/>
    <inkscape:perspective id="perspective7033" inkscape:persp3d-origin="0.5 : -305.65329 : 1" inkscape:vp_x="0 : -305.48662 : 1" inkscape:vp_y="0 : 999.99996 : 0" inkscape:vp_z="1 : -305.48662 : 1" sodipodi:type="inkscape:persp3d"/>
    <inkscape:perspective id="perspective7033-8" inkscape:persp3d-origin="0.5 : -305.65329 : 1" inkscape:vp_x="0 : -305.48662 : 1" inkscape:vp_y="0 : 999.99996 : 0" inkscape:vp_z="1 : -305.48662 : 1" sodipodi:type="inkscape:persp3d"/>
    <inkscape:perspective id="perspective7033-2" inkscape:persp3d-origin="0.5 : -305.65329 : 1" inkscape:vp_x="0 : -305.48662 : 1" inkscape:vp_y="0 : 999.99996 : 0" inkscape:vp_z="1 : -305.48662 : 1" sodipodi:type="inkscape:persp3d"/>
    <inkscape:perspective id="perspective7033-1" inkscape:persp3d-origin="0.5 : -305.65329 : 1" inkscape:vp_x="0 : -305.48662 : 1" inkscape:vp_y="0 : 999.99996 : 0" inkscape:vp_z="1 : -305.48662 : 1" sodipodi:type="inkscape:persp3d"/>
    <inkscape:perspective id="perspective8674" inkscape:persp3d-origin="0.5 : -305.65329 : 1" inkscape:vp_x="0 : -305.48662 : 1" inkscape:vp_y="0 : 999.99996 : 0" inkscape:vp_z="1 : -305.48662 : 1" sodipodi:type="inkscape:persp3d"/>
    <inkscape:perspective id="perspective12254" inkscape:persp3d-origin="0.5 : -305.65329 : 1" inkscape:vp_x="0 : -305.48662 : 1" inkscape:vp_y="0 : 999.99996 : 0" inkscape:vp_z="1 : -305.48662 : 1" sodipodi:type="inkscape:persp3d"/>
    <inkscape:perspective id="perspective12415" inkscape:persp3d-origin="0.5 : -305.65329 : 1" inkscape:vp_x="0 : -305.48662 : 1" inkscape:vp_y="0 : 999.99996 : 0" inkscape:vp_z="1 : -305.48662 : 1" sodipodi:type="inkscape:persp3d"/>
    <inkscape:perspective id="perspective4266" inkscape:persp3d-origin="372.04725 : 44.80077 : 1" inkscape:vp_x="0 : 220.19446 : 1" inkscape:vp_y="0 : 999.99996 : 0" inkscape:vp_z="744.09449 : 220.19446 : 1" sodipodi:type="inkscape:persp3d"/>
    <inkscape:perspective id="perspective4275" inkscape:persp3d-origin="372.04725 : 44.80077 : 1" inkscape:vp_x="0 : 220.19446 : 1" inkscape:vp_y="0 : 999.99996 : 0" inkscape:vp_z="744.09449 : 220.19446 : 1" sodipodi:type="inkscape:persp3d"/>
    <inkscape:perspective id="perspective4801" inkscape:persp3d-origin="372.04725 : 44.80077 : 1" inkscape:vp_x="0 : 220.19446 : 1" inkscape:vp_y="0 : 999.99996 : 0" inkscape:vp_z="744.09449 : 220.19446 : 1" sodipodi:type="inkscape:persp3d"/>
    <inkscape:perspective id="perspective4818" inkscape:persp3d-origin="372.04725 : 44.80077 : 1" inkscape:vp_x="0 : 220.19446 : 1" inkscape:vp_y="0 : 999.99996 : 0" inkscape:vp_z="744.09449 : 220.19446 : 1" sodipodi:type="inkscape:persp3d"/>
    <inkscape:perspective id="perspective2563" inkscape:persp3d-origin="372.04725 : 44.80077 : 1" inkscape:vp_x="0 : 220.19446 : 1" inkscape:vp_y="0 : 999.99996 : 0" inkscape:vp_z="744.09449 : 220.19446 : 1" sodipodi:type="inkscape:persp3d"/>
    <inkscape:perspective id="perspective2576" inkscape:persp3d-origin="372.04725 : 44.80077 : 1" inkscape:vp_x="0 : 220.19446 : 1" inkscape:vp_y="0 : 999.99996 : 0" inkscape:vp_z="744.09449 : 220.19446 : 1" sodipodi:type="inkscape:persp3d"/>
    <inkscape:perspective id="perspective3371" inkscape:persp3d-origin="372.04725 : 44.80077 : 1" inkscape:vp_x="0 : 220.19446 : 1" inkscape:vp_y="0 : 999.99996 : 0" inkscape:vp_z="744.09449 : 220.19446 : 1" sodipodi:type="inkscape:persp3d"/>
    <inkscape:perspective id="perspective3843-9" inkscape:persp3d-origin="372.04725 : 44.80077 : 1" inkscape:vp_x="0 : 220.19446 : 1" inkscape:vp_y="0 : 999.99996 : 0" inkscape:vp_z="744.09449 : 220.19446 : 1" sodipodi:type="inkscape:persp3d"/>
    <inkscape:perspective id="perspective3853-8" inkscape:persp3d-origin="0.5 : -305.65329 : 1" inkscape:vp_x="0 : -305.48662 : 1" inkscape:vp_y="0 : 999.99996 : 0" inkscape:vp_z="1 : -305.48662 : 1" sodipodi:type="inkscape:persp3d"/>
    <inkscape:perspective id="perspective3997-9" inkscape:persp3d-origin="0.5 : -305.65329 : 1" inkscape:vp_x="0 : -305.48662 : 1" inkscape:vp_y="0 : 999.99996 : 0" inkscape:vp_z="1 : -305.48662 : 1" sodipodi:type="inkscape:persp3d"/>
    <inkscape:perspective id="perspective5263-3" inkscape:persp3d-origin="0.5 : -305.65329 : 1" inkscape:vp_x="0 : -305.48662 : 1" inkscape:vp_y="0 : 999.99996 : 0" inkscape:vp_z="1 : -305.48662 : 1" sodipodi:type="inkscape:persp3d"/>
    <inkscape:perspective id="perspective6022-92" inkscape:persp3d-origin="0.5 : -305.65329 : 1" inkscape:vp_x="0 : -305.48662 : 1" inkscape:vp_y="0 : 999.99996 : 0" inkscape:vp_z="1 : -305.48662 : 1" sodipodi:type="inkscape:persp3d"/>
    <inkscape:perspective id="perspective6022-9-2" inkscape:persp3d-origin="0.5 : -305.65329 : 1" inkscape:vp_x="0 : -305.48662 : 1" inkscape:vp_y="0 : 999.99996 : 0" inkscape:vp_z="1 : -305.48662 : 1" sodipodi:type="inkscape:persp3d"/>
    <inkscape:perspective id="perspective6022-4-6" inkscape:persp3d-origin="0.5 : -305.65329 : 1" inkscape:vp_x="0 : -305.48662 : 1" inkscape:vp_y="0 : 999.99996 : 0" inkscape:vp_z="1 : -305.48662 : 1" sodipodi:type="inkscape:persp3d"/>
    <inkscape:perspective id="perspective6022-1-9" inkscape:persp3d-origin="0.5 : -305.65329 : 1" inkscape:vp_x="0 : -305.48662 : 1" inkscape:vp_y="0 : 999.99996 : 0" inkscape:vp_z="1 : -305.48662 : 1" sodipodi:type="inkscape:persp3d"/>
    <inkscape:perspective id="perspective6022-14-0" inkscape:persp3d-origin="0.5 : -305.65329 : 1" inkscape:vp_x="0 : -305.48662 : 1" inkscape:vp_y="0 : 999.99996 : 0" inkscape:vp_z="1 : -305.48662 : 1" sodipodi:type="inkscape:persp3d"/>
    <inkscape:perspective id="perspective6022-6-6" inkscape:persp3d-origin="0.5 : -305.65329 : 1" inkscape:vp_x="0 : -305.48662 : 1" inkscape:vp_y="0 : 999.99996 : 0" inkscape:vp_z="1 : -305.48662 : 1" sodipodi:type="inkscape:persp3d"/>
    <inkscape:perspective id="perspective6022-8-7" inkscape:persp3d-origin="0.5 : -305.65329 : 1" inkscape:vp_x="0 : -305.48662 : 1" inkscape:vp_y="0 : 999.99996 : 0" inkscape:vp_z="1 : -305.48662 : 1" sodipodi:type="inkscape:persp3d"/>
    <inkscape:perspective id="perspective6022-43-0" inkscape:persp3d-origin="0.5 : -305.65329 : 1" inkscape:vp_x="0 : -305.48662 : 1" inkscape:vp_y="0 : 999.99996 : 0" inkscape:vp_z="1 : -305.48662 : 1" sodipodi:type="inkscape:persp3d"/>
    <inkscape:perspective id="perspective6022-3-3" inkscape:persp3d-origin="0.5 : -305.65329 : 1" inkscape:vp_x="0 : -305.48662 : 1" inkscape:vp_y="0 : 999.99996 : 0" inkscape:vp_z="1 : -305.48662 : 1" sodipodi:type="inkscape:persp3d"/>
    <inkscape:perspective id="perspective6022-31-6" inkscape:persp3d-origin="0.5 : -305.65329 : 1" inkscape:vp_x="0 : -305.48662 : 1" inkscape:vp_y="0 : 999.99996 : 0" inkscape:vp_z="1 : -305.48662 : 1" sodipodi:type="inkscape:persp3d"/>
    <inkscape:perspective id="perspective6907-6" inkscape:persp3d-origin="0.5 : -305.65329 : 1" inkscape:vp_x="0 : -305.48662 : 1" inkscape:vp_y="0 : 999.99996 : 0" inkscape:vp_z="1 : -305.48662 : 1" sodipodi:type="inkscape:persp3d"/>
    <inkscape:perspective id="perspective6907-2-2" inkscape:persp3d-origin="0.5 : -305.65329 : 1" inkscape:vp_x="0 : -305.48662 : 1" inkscape:vp_y="0 : 999.99996 : 0" inkscape:vp_z="1 : -305.48662 : 1" sodipodi:type="inkscape:persp3d"/>
    <inkscape:perspective id="perspective6907-4-8" inkscape:persp3d-origin="0.5 : -305.65329 : 1" inkscape:vp_x="0 : -305.48662 : 1" inkscape:vp_y="0 : 999.99996 : 0" inkscape:vp_z="1 : -305.48662 : 1" sodipodi:type="inkscape:persp3d"/>
    <inkscape:perspective id="perspective6907-0-6" inkscape:persp3d-origin="0.5 : -305.65329 : 1" inkscape:vp_x="0 : -305.48662 : 1" inkscape:vp_y="0 : 999.99996 : 0" inkscape:vp_z="1 : -305.48662 : 1" sodipodi:type="inkscape:persp3d"/>
    <inkscape:perspective id="perspective6907-9-0" inkscape:persp3d-origin="0.5 : -305.65329 : 1" inkscape:vp_x="0 : -305.48662 : 1" inkscape:vp_y="0 : 999.99996 : 0" inkscape:vp_z="1 : -305.48662 : 1" sodipodi:type="inkscape:persp3d"/>
    <inkscape:perspective id="perspective6907-06-6" inkscape:persp3d-origin="0.5 : -305.65329 : 1" inkscape:vp_x="0 : -305.48662 : 1" inkscape:vp_y="0 : 999.99996 : 0" inkscape:vp_z="1 : -305.48662 : 1" sodipodi:type="inkscape:persp3d"/>
    <inkscape:perspective id="perspective7033-29" inkscape:persp3d-origin="0.5 : -305.65329 : 1" inkscape:vp_x="0 : -305.48662 : 1" inkscape:vp_y="0 : 999.99996 : 0" inkscape:vp_z="1 : -305.48662 : 1" sodipodi:type="inkscape:persp3d"/>
    <inkscape:perspective id="perspective7033-8-5" inkscape:persp3d-origin="0.5 : -305.65329 : 1" inkscape:vp_x="0 : -305.48662 : 1" inkscape:vp_y="0 : 999.99996 : 0" inkscape:vp_z="1 : -305.48662 : 1" sodipodi:type="inkscape:persp3d"/>
    <inkscape:perspective id="perspective7033-2-7" inkscape:persp3d-origin="0.5 : -305.65329 : 1" inkscape:vp_x="0 : -305.48662 : 1" inkscape:vp_y="0 : 999.99996 : 0" inkscape:vp_z="1 : -305.48662 : 1" sodipodi:type="inkscape:persp3d"/>
    <inkscape:perspective id="perspective7033-1-4" inkscape:persp3d-origin="0.5 : -305.65329 : 1" inkscape:vp_x="0 : -305.48662 : 1" inkscape:vp_y="0 : 999.99996 : 0" inkscape:vp_z="1 : -305.48662 : 1" sodipodi:type="inkscape:persp3d"/>
    <inkscape:perspective id="perspective8674-3" inkscape:persp3d-origin="0.5 : -305.65329 : 1" inkscape:vp_x="0 : -305.48662 : 1" inkscape:vp_y="0 : 999.99996 : 0" inkscape:vp_z="1 : -305.48662 : 1" sodipodi:type="inkscape:persp3d"/>
    <inkscape:perspective id="perspective12254-7" inkscape:persp3d-origin="0.5 : -305.65329 : 1" inkscape:vp_x="0 : -305.48662 : 1" inkscape:vp_y="0 : 999.99996 : 0" inkscape:vp_z="1 : -305.48662 : 1" sodipodi:type="inkscape:persp3d"/>
    <inkscape:perspective id="perspective12415-4" inkscape:persp3d-origin="0.5 : -305.65329 : 1" inkscape:vp_x="0 : -305.48662 : 1" inkscape:vp_y="0 : 999.99996 : 0" inkscape:vp_z="1 : -305.48662 : 1" sodipodi:type="inkscape:persp3d"/>
    <inkscape:path-effect id="path-effect4364" add_other_stroke_width="true" add_stroke_width="true" both="false" crossing_points_vector="346.59613 | 422.83373 | 0 | 0 | 0 | 1 | 55.285257 | 94.701298 | -1" effect="knot" interruption_width="16" inverse_width="false" is_visible="true" lpeversion="0" prop_to_stroke_width="true" switcher_size="30"/>
    <inkscape:perspective id="perspective4225" inkscape:persp3d-origin="0.50000001 : -100.16415 : 1" inkscape:vp_x="0 : -99.997482 : 1" inkscape:vp_y="0 : 999.99996 : 0" inkscape:vp_z="1 : -99.997482 : 1" sodipodi:type="inkscape:persp3d"/>
    <inkscape:perspective id="perspective4283" inkscape:persp3d-origin="0.50000001 : -100.16415 : 1" inkscape:vp_x="0 : -99.997482 : 1" inkscape:vp_y="0 : 999.99996 : 0" inkscape:vp_z="1 : -99.997482 : 1" sodipodi:type="inkscape:persp3d"/>
    <inkscape:perspective id="perspective4348" inkscape:persp3d-origin="0.50000001 : -100.16415 : 1" inkscape:vp_x="0 : -99.997482 : 1" inkscape:vp_y="0 : 999.99996 : 0" inkscape:vp_z="1 : -99.997482 : 1" sodipodi:type="inkscape:persp3d"/>
    <inkscape:perspective id="perspective4579" inkscape:persp3d-origin="0.50000001 : -100.16415 : 1" inkscape:vp_x="0 : -99.997482 : 1" inkscape:vp_y="0 : 999.99996 : 0" inkscape:vp_z="1 : -99.997482 : 1" sodipodi:type="inkscape:persp3d"/>
    <inkscape:perspective id="perspective4622" inkscape:persp3d-origin="0.50000001 : -100.16415 : 1" inkscape:vp_x="0 : -99.997482 : 1" inkscape:vp_y="0 : 999.99996 : 0" inkscape:vp_z="1 : -99.997482 : 1" sodipodi:type="inkscape:persp3d"/>
    <inkscape:perspective id="perspective4622-4" inkscape:persp3d-origin="0.50000001 : -100.16415 : 1" inkscape:vp_x="0 : -99.997482 : 1" inkscape:vp_y="0 : 999.99996 : 0" inkscape:vp_z="1 : -99.997482 : 1" sodipodi:type="inkscape:persp3d"/>
    <inkscape:perspective id="perspective4622-5" inkscape:persp3d-origin="0.50000001 : -100.16415 : 1" inkscape:vp_x="0 : -99.997482 : 1" inkscape:vp_y="0 : 999.99996 : 0" inkscape:vp_z="1 : -99.997482 : 1" sodipodi:type="inkscape:persp3d"/>
    <inkscape:perspective id="perspective4622-1" inkscape:persp3d-origin="0.50000001 : -100.16415 : 1" inkscape:vp_x="0 : -99.997482 : 1" inkscape:vp_y="0 : 999.99996 : 0" inkscape:vp_z="1 : -99.997482 : 1" sodipodi:type="inkscape:persp3d"/>
    <inkscape:perspective id="perspective4622-2" inkscape:persp3d-origin="0.50000001 : -100.16415 : 1" inkscape:vp_x="0 : -99.997482 : 1" inkscape:vp_y="0 : 999.99996 : 0" inkscape:vp_z="1 : -99.997482 : 1" sodipodi:type="inkscape:persp3d"/>
    <inkscape:perspective id="perspective4622-6" inkscape:persp3d-origin="0.50000001 : -100.16415 : 1" inkscape:vp_x="0 : -99.997482 : 1" inkscape:vp_y="0 : 999.99996 : 0" inkscape:vp_z="1 : -99.997482 : 1" sodipodi:type="inkscape:persp3d"/>
    <inkscape:perspective id="perspective4622-18" inkscape:persp3d-origin="0.50000001 : -100.16415 : 1" inkscape:vp_x="0 : -99.997482 : 1" inkscape:vp_y="0 : 999.99996 : 0" inkscape:vp_z="1 : -99.997482 : 1" sodipodi:type="inkscape:persp3d"/>
    <inkscape:perspective id="perspective4622-43" inkscape:persp3d-origin="0.50000001 : -100.16415 : 1" inkscape:vp_x="0 : -99.997482 : 1" inkscape:vp_y="0 : 999.99996 : 0" inkscape:vp_z="1 : -99.997482 : 1" sodipodi:type="inkscape:persp3d"/>
    <inkscape:perspective id="perspective4622-11" inkscape:persp3d-origin="0.50000001 : -100.16415 : 1" inkscape:vp_x="0 : -99.997482 : 1" inkscape:vp_y="0 : 999.99996 : 0" inkscape:vp_z="1 : -99.997482 : 1" sodipodi:type="inkscape:persp3d"/>
    <inkscape:perspective id="perspective4622-7" inkscape:persp3d-origin="0.50000001 : -100.16415 : 1" inkscape:vp_x="0 : -99.997482 : 1" inkscape:vp_y="0 : 999.99996 : 0" inkscape:vp_z="1 : -99.997482 : 1" sodipodi:type="inkscape:persp3d"/>
    <inkscape:perspective id="perspective4622-65" inkscape:persp3d-origin="0.50000001 : -100.16415 : 1" inkscape:vp_x="0 : -99.997482 : 1" inkscape:vp_y="0 : 999.99996 : 0" inkscape:vp_z="1 : -99.997482 : 1" sodipodi:type="inkscape:persp3d"/>
    <inkscape:perspective id="perspective4622-24" inkscape:persp3d-origin="0.50000001 : -100.16415 : 1" inkscape:vp_x="0 : -99.997482 : 1" inkscape:vp_y="0 : 999.99996 : 0" inkscape:vp_z="1 : -99.997482 : 1" sodipodi:type="inkscape:persp3d"/>
    <inkscape:perspective id="perspective4818-2" inkscape:persp3d-origin="0.50000001 : -100.16415 : 1" inkscape:vp_x="0 : -99.997482 : 1" inkscape:vp_y="0 : 999.99996 : 0" inkscape:vp_z="1 : -99.997482 : 1" sodipodi:type="inkscape:persp3d"/>
    <inkscape:perspective id="perspective4818-3" inkscape:persp3d-origin="0.50000001 : -100.16415 : 1" inkscape:vp_x="0 : -99.997482 : 1" inkscape:vp_y="0 : 999.99996 : 0" inkscape:vp_z="1 : -99.997482 : 1" sodipodi:type="inkscape:persp3d"/>
    <inkscape:perspective id="perspective4818-6" inkscape:persp3d-origin="0.50000001 : -100.16415 : 1" inkscape:vp_x="0 : -99.997482 : 1" inkscape:vp_y="0 : 999.99996 : 0" inkscape:vp_z="1 : -99.997482 : 1" sodipodi:type="inkscape:persp3d"/>
    <inkscape:perspective id="perspective4818-37" inkscape:persp3d-origin="0.50000001 : -100.16415 : 1" inkscape:vp_x="0 : -99.997482 : 1" inkscape:vp_y="0 : 999.99996 : 0" inkscape:vp_z="1 : -99.997482 : 1" sodipodi:type="inkscape:persp3d"/>
    <inkscape:perspective id="perspective4818-35" inkscape:persp3d-origin="0.50000001 : -100.16415 : 1" inkscape:vp_x="0 : -99.997482 : 1" inkscape:vp_y="0 : 999.99996 : 0" inkscape:vp_z="1 : -99.997482 : 1" sodipodi:type="inkscape:persp3d"/>
    <inkscape:perspective id="perspective4818-63" inkscape:persp3d-origin="0.50000001 : -100.16415 : 1" inkscape:vp_x="0 : -99.997482 : 1" inkscape:vp_y="0 : 999.99996 : 0" inkscape:vp_z="1 : -99.997482 : 1" sodipodi:type="inkscape:persp3d"/>
    <inkscape:perspective id="perspective4818-0" inkscape:persp3d-origin="0.50000001 : -100.16415 : 1" inkscape:vp_x="0 : -99.997482 : 1" inkscape:vp_y="0 : 999.99996 : 0" inkscape:vp_z="1 : -99.997482 : 1" sodipodi:type="inkscape:persp3d"/>
    <inkscape:perspective id="perspective4818-65" inkscape:persp3d-origin="0.50000001 : -100.16415 : 1" inkscape:vp_x="0 : -99.997482 : 1" inkscape:vp_y="0 : 999.99996 : 0" inkscape:vp_z="1 : -99.997482 : 1" sodipodi:type="inkscape:persp3d"/>
    <inkscape:perspective id="perspective4954" inkscape:persp3d-origin="0.50000001 : -100.16415 : 1" inkscape:vp_x="0 : -99.997482 : 1" inkscape:vp_y="0 : 999.99996 : 0" inkscape:vp_z="1 : -99.997482 : 1" sodipodi:type="inkscape:persp3d"/>
    <inkscape:perspective id="perspective4976" inkscape:persp3d-origin="0.50000001 : -100.16415 : 1" inkscape:vp_x="0 : -99.997482 : 1" inkscape:vp_y="0 : 999.99996 : 0" inkscape:vp_z="1 : -99.997482 : 1" sodipodi:type="inkscape:persp3d"/>
    <inkscape:perspective id="perspective4998" inkscape:persp3d-origin="0.50000001 : -100.16415 : 1" inkscape:vp_x="0 : -99.997482 : 1" inkscape:vp_y="0 : 999.99996 : 0" inkscape:vp_z="1 : -99.997482 : 1" sodipodi:type="inkscape:persp3d"/>
  </g>
  <g id="layer1" inkscape:groupmode="layer" inkscape:label="Layer 1">
    <g id="g911">
      <path id="path5483" class="cls-13" d="M406.6,517.6c-62.4-.3-79.5-.7-89.6-2-27.7-3.6-57.1-13.7-96.7-33-12.8-6.2-37.3-19.1-66.4-35-11.9-6.5-26.2-15.6-52.7-33.7-26.8-18.3-39.1-24.9-53.3-28.5-6-1.5-9.5-3.8-9.5-6.3s7.3-33,10.9-45.1c4.9-16.4,8-21.9,16.7-29.3,8.5-7.1,20.2-12.9,40.7-20,30.5-10.6,56.9-28.2,64.3-43,4.2-8.4,6.6-19.2,8.2-36.6.3-3.8.6-28.8.7-72.2.2-73.1,0-68.8,3-70.5,1.9-1.1,4.6-1,13.9.6,12.5,2.2,25.4,4.6,28.6,5.3,7.1,1.6,7.9,1.1,9.8-6.6,1.1-4.3,4.9-5.8,15.6-5.8,7.4,0,9.8.2,18.2,1.9,25.6,5.1,45.4,21.8,52.3,43.9,2.8,9,2.8,9.3,3.2,46.7.2,18.9.5,35.3.7,36.3.7,4.2,2.6,6.2,6.7,6.8,2,.3,18.4.2,54.3-.5,283.4-5.2,309.4-5.7,317.4-6.5,7.2-.7,13.8-2.1,20.6-4.3,10-3.3,16.7-7.1,23-13.1,10.7-10.2,13.3-19.2,9.2-31.1-2.6-7.7-5-11.8-15.8-27.5-7.8-11.4-9.4-14.2-10.2-17.7-1.7-7.5-3-37.4-1.8-41.6,1.8-6.4,8.5-7.5,14.3-2.3,1.3,1.2,3.5,3.7,4.8,5.7,4.5,6.6,14.9,20.7,45.1,61,16.6,22.2,31.4,42.1,32.7,44.2,5,7.6,8.2,15.3,10.1,24.1,1,4.7,1,5,1,37.3,0,28.4-1,119.6-2.4,231-.5,36.8-.4,36.2-3.3,39.2-.8.8-2.8,2.3-4.6,3.4-1.8,1-3.5,2.4-3.9,2.9-1.4,2.1-2.2,5.3-2.4,10-.3,5.9-1.2,8.2-3.7,9.5-1.7.8-3.9.9-49.4,1.2-26.2.2-96.1.4-155.3.6-59.2.2-115.4.4-125,.4-9.5,0-45.5,0-79.8-.2h0ZM752.5,513.4c36-.3,61.2-.6,61.9-.9,1.5-.6,2-2.4,2.3-8.1.4-7.8,2.5-11.6,8.3-14.7,3.1-1.7,4.3-3,5-5.4.3-1,.9-41.6,1.6-101,.6-54.6,1.4-119,1.7-143s.4-45.7.2-48.1c-.8-11.8-4.4-22.4-11.1-32.6-1.3-2-15.5-21.2-31.6-42.6-16-21.4-30.8-41.1-32.8-43.9-7.4-10.1-9.6-13.1-12.3-17.1-4.4-6.5-7.3-8.9-10.5-8.6-1.2.1-1.9.5-2.6,1.5-.9,1.2-1,1.8-.9,11.6,0,15.3,1.3,27.9,3,32.4.5,1.2,2.9,5.2,5.4,8.8,12.9,18.8,16,23.8,18.6,30.5,2.1,5.2,2.8,9.1,2.8,14.4,0,7.5-2.2,12.5-8.3,19.7-9.6,11.2-24.8,18.5-44.3,21.3-8.6,1.2-14.3,1.4-176.2,4.4-198.3,3.7-200.1,3.7-203.2,2.8-1.9-.6-3.3-1.3-4.5-2.5-3.1-3.1-3.1-3.3-3.6-34.7-.8-46.3-.7-44.3-1.8-48.9-4.1-17.8-14.2-31-30.4-39.8-11.6-6.3-24.6-9.2-39.9-8.9-9.7.2-10.1.4-11.2,5-1,4-2.2,5.8-4.4,6.9-2.4,1.2-3,1.2-9.8-.3-5.3-1.1-12.8-2.5-30.3-5.6-8.3-1.5-9.3-1.3-9.8,1.3-.1.8-.3,29.2-.3,63.1,0,35.2-.2,65.1-.5,69.9-1.3,22.6-5,38.3-11.2,47.3-3.9,5.6-13.1,14-22,20-13.2,8.8-26.6,15.3-44.2,21.3-19.9,6.8-32.4,13.5-40.6,21.8-6,6-8,10.1-12.3,24.7-4,13.6-11.1,43.1-10.6,43.9.5.8,3,1.7,8.9,3.3,15.6,4.2,22.8,8.4,70.5,40.7,9.5,6.5,20,13.1,26.7,17.1,4.6,2.7,35,19.1,52.2,28.1,50.2,26.5,89.6,40.9,120.2,44,7.8.8,15.2,1.1,36.7,1.4,27.2.5,317.7.1,395.2-.5h0Z"/>
      <g id="g22348">
        <g id="text3180" class="cls-17" inkscape:export-xdpi="90.015755" inkscape:export-ydpi="90.015755">
          <text class="cls-3" transform="translate(446.6 342.8)"><tspan x="0" y="0">N</tspan></text>
          <text class="cls-16" transform="translate(446.6 342.8)"><tspan x="0" y="0">N</tspan></text>
        </g>
        <path id="path2745" class="cls-7" d="M499.8,324.1l52.6-10.7-11.2,10.6,11.2,10.6-52.6-10.5h0Z" inkscape:connector-curvature="0" inkscape:export-filename="D:\Images\Race Tracks\text3180.png" inkscape:export-xdpi="90.015755" inkscape:export-ydpi="90.015755" inkscape:transform-center-x="3.3570385" inkscape:transform-center-y="-3.330635" sodipodi:nodetypes="cccccc"/>
      </g>
      <g id="text3594" class="cls-17">
        <text class="cls-14" transform="translate(466.2 174.5)"><tspan x="0" y="0">Koval Lane</tspan></text>
      </g>
      <g id="g22277">
        <path id="path3463-9-4" class="cls-10" d="M815.6,121.9l9.9-7.8-25.5-22.2,15.6,30Z"/>
        <polygon id="rect3457-6-3" class="cls-24" points="785.8 151.5 793.9 161.8 836.3 128.6 828.3 118.3 785.8 151.5"/>
      </g>
      <path id="path3463-9-4-5" class="cls-2" d="M170,119.3h-12.6c0,0,6.2,33.2,6.2,33.2l6.5-33.2Z"/>
      <g id="g743">
        <ellipse id="path4761-33-33-3-3" class="cls-18" cx="313.9" cy="211.7" rx="14.4" ry="14.7"/>
        <g id="text4757-41-41-8-2" class="cls-17">
          <text class="cls-5" transform="translate(306.8 221.3)"><tspan x="0" y="0">5</tspan></text>
        </g>
      </g>
      <g id="g774">
        <circle id="path4923-6" class="cls-19" cx="189.6" cy="266.1" r="15.8"/>
        <g id="text4919-14" class="cls-17">
          <text class="cls-1" transform="translate(178.4 272.9)"><tspan x="0" y="0">10</tspan></text>
        </g>
      </g>
      <g id="g766">
        <circle id="path4923-6-6" class="cls-19" cx="42.3" cy="294" r="15.8"/>
        <g id="text4919-14-0" class="cls-17">
          <text class="cls-4" transform="translate(32.2 301.1)"><tspan x="0" y="0">11</tspan></text>
        </g>
      </g>
      <g id="g758">
        <circle id="path4923-6-5" class="cls-19" cx="16.3" cy="389.7" r="15.8"/>
        <g id="text4919-14-09" class="cls-17">
          <text class="cls-4" transform="translate(5.1 396.8)"><tspan x="0" y="0">12</tspan></text>
        </g>
      </g>
      <g id="g750">
        <circle id="path4923-6-1" class="cls-20" cx="304.8" cy="537.9" r="15.8"/>
        <g id="text4919-14-3" class="cls-17">
          <text class="cls-1" transform="translate(294.1 544.7)"><tspan x="0" y="0">13</tspan></text>
        </g>
      </g>
      <path id="path21444" class="cls-15" d="M881.8,503.3c-3.7-.5-7-2.1-9.7-4.7-3.3-3.3-5.1-8-4.7-12.5.2-3.3,1.3-6.1,3.3-8.8.7-.9,2.1-2.4,3-3.1,2.4-1.8,5-2.9,8.1-3.3,1-.1,3.1,0,4.2,0,2.5.4,4.7,1.2,6.7,2.6,2.5,1.7,4.3,3.7,5.6,6.4.9,1.7,1.4,3.6,1.6,5.5,0,.9,0,3.2,0,4-.8,5-3.8,9.3-8.2,11.8-1.8,1-4,1.7-6.1,2-.9.1-2.8.1-3.7,0h0ZM885.3,502.7c1.6-.2,3.6-.7,5-1.4,4.9-2.3,8.3-7,8.9-12.4,0-.9,0-2.9,0-3.7-.5-3.5-2-6.6-4.5-9.1-2.5-2.5-5.6-4-9.1-4.5-.8-.1-3.1-.1-3.8,0-1.8.3-3.4.7-4.9,1.5-1.7.8-2.9,1.7-4.2,3-2.5,2.5-3.9,5.4-4.4,9-.1.9-.2,3,0,3.9.5,3.5,2,6.7,4.4,9.1,2.6,2.6,5.9,4.2,9.6,4.6.5,0,2.6,0,3.2,0h0Z"/>
      <g id="g694">
        <g id="g22239">
          <circle id="path3445" class="cls-23" cx="858.1" cy="170.7" r="16"/>
        </g>
        <g id="g22224">
          <g id="text3441" class="cls-17">
            <text class="cls-6" transform="translate(847.1 177.5)"><tspan x="0" y="0">17</tspan></text>
          </g>
        </g>
      </g>
      <path id="path22241" class="cls-15" d="M856.6,187c-.8,0-2.2-.3-3-.6-3.7-1.1-6.9-3.4-9.1-6.7-.6-.9-1.3-2.3-1.7-3.3-1.6-4.3-1.3-9.1.8-13.1.8-1.5,1.6-2.6,2.8-3.8,2.6-2.7,5.8-4.3,9.7-4.9.9-.1,3.4-.1,4.3,0,3.5.5,6.5,2,9,4.4,2.6,2.5,4.3,5.7,4.8,9.3.2,1,.2,3.3,0,4.4-.7,5.5-4,10.2-8.9,12.7-2.7,1.4-5.7,1.9-8.8,1.7h0ZM860.4,186.2c4.4-.7,8.2-3,10.7-6.7,1.4-2,2.3-4.6,2.6-7,0-.8,0-2.6,0-3.4-.3-2.5-1.1-4.8-2.5-6.9-2.4-3.7-6.3-6.1-10.7-6.8-.9-.1-2.9-.2-3.8,0-3.8.4-7.1,2-9.8,4.7-1.2,1.3-2,2.4-2.8,4-1.1,2.2-1.6,4.3-1.6,6.8s.1,2.5.5,3.8c.7,2.8,2.1,5.2,4.1,7.2,1.3,1.3,2.4,2.1,4,2.9,1.7.9,3.6,1.4,5.6,1.6.8,0,3,0,3.8,0h0Z"/>
      <path id="path3463-9-4-9" class="cls-2" d="M516.9,529.5v12.6c-.1,0,33.1-6,33.1-6l-33.1-6.6Z"/>
      <g id="text3594-8" class="cls-17">
        <text class="cls-14" transform="translate(229.2 155.2)"><tspan x="0" y="0">MSG</tspan></text>
        <text class="cls-14" transform="translate(219 182.1)"><tspan x="0" y="0">Sphere</tspan></text>
      </g>
      <g id="text3594-8-2" class="cls-17">
        <text class="cls-14" transform="translate(316.9 498.3)"><tspan x="0" y="0">Las Vegas Boulevard (The Strip)</tspan></text>
      </g>
      <g id="text3594-8-2-1" class="cls-17">
        <text class="cls-14" transform="translate(859.1 401.4) rotate(-90)"><tspan x="0" y="0">Harmon Avenue</tspan></text>
      </g>
      <circle id="ellipse22772-83" class="cls-26" cx="816.4" cy="513.4" r="4.4"/>
      <circle id="ellipse22772-15" class="cls-26" cx="820.6" cy="495.7" r="4.4"/>
      <circle id="ellipse22772-39" class="cls-26" cx="831.1" cy="486.5" r="4.4"/>
      <circle id="ellipse22772" class="cls-26" cx="734.1" cy="45.7" r="4.4"/>
      <circle id="ellipse22772-1" class="cls-26" cx="732.4" cy="91.9" r="4.4"/>
      <circle id="ellipse22772-0" class="cls-26" cx="759.7" cy="148.9" r="4.4"/>
      <circle id="ellipse22772-9" class="cls-26" cx="708.5" cy="185.9" r="4.4"/>
      <circle id="ellipse22772-3" class="cls-26" cx="327.1" cy="191.9" r="4.4"/>
      <circle id="ellipse22772-5" class="cls-26" cx="311.3" cy="85.8" r="4.4"/>
      <circle id="ellipse22772-4" class="cls-26" cx="239.8" cy="59.1" r="4.4"/>
      <circle id="ellipse22772-51" class="cls-26" cx="231.3" cy="70.8" r="4.4"/>
      <circle id="ellipse22772-53" class="cls-26" cx="183.7" cy="64.1" r="4.4"/>
      <circle id="ellipse22772-95" class="cls-26" cx="169.4" cy="247.7" r="4.4"/>
      <circle id="ellipse22772-8" class="cls-26" cx="62.6" cy="310.3" r="4.4"/>
      <circle id="ellipse22772-19" class="cls-26" cx="40.6" cy="380" r="4.4"/>
      <circle id="ellipse22772-49" class="cls-26" cx="315.8" cy="513.6" r="4.4"/>
      <circle id="ellipse22772-99" class="cls-26" cx="832.1" cy="176" r="4.4"/>
      <g id="g724">
        <circle id="path4923-6-4" class="cls-19" cx="845.9" cy="556.3" r="15.8"/>
        <g id="text4919-14-4" class="cls-17">
          <text class="cls-4" transform="translate(834.6 563.4)"><tspan x="0" y="0">14</tspan></text>
        </g>
        <path id="path7016-9" class="cls-9" d="M839.8,537.6l-8.6,5.9-10.2-24,18.8,18.1Z" inkscape:flatsided="true" inkscape:randomized="0" inkscape:rounded="0" sodipodi:arg1="0.52359878" sodipodi:arg2="1.5707963" sodipodi:cx="616.78491" sodipodi:cy="441.05292" sodipodi:r1="49.321915" sodipodi:r2="24.660957" sodipodi:sides="3" sodipodi:type="star"/>
      </g>
      <g id="g682">
        <circle id="path4923-6-8" class="cls-19" cx="775.9" cy="466.6" r="15.8"/>
        <g id="text4919-14-49" class="cls-17">
          <text class="cls-1" transform="translate(765 473.5)"><tspan x="0" y="0">15</tspan></text>
        </g>
        <path id="path7016-3" class="cls-9" d="M790,480.6l6.1-8.5,17.7,19.1-23.8-10.6Z" inkscape:flatsided="true" inkscape:randomized="0" inkscape:rounded="0" sodipodi:arg1="0.52359878" sodipodi:arg2="1.5707963" sodipodi:cx="616.78491" sodipodi:cy="441.05292" sodipodi:r1="49.321915" sodipodi:r2="24.660957" sodipodi:sides="3" sodipodi:type="star"/>
      </g>
      <g id="g676">
        <path id="path7016-8" class="cls-9" d="M865,482.5l.2,10.5-25.7-4.6,25.4-5.8Z" inkscape:flatsided="true" inkscape:randomized="0" inkscape:rounded="0" sodipodi:arg1="0.52359878" sodipodi:arg2="1.5707963" sodipodi:cx="616.78491" sodipodi:cy="441.05292" sodipodi:r1="49.321915" sodipodi:r2="24.660957" sodipodi:sides="3" sodipodi:type="star"/>
        <circle id="path3454" class="cls-22" cx="883.7" cy="487.1" r="16"/>
        <g id="text3437" class="cls-17">
          <text class="cls-1" transform="translate(872.5 494)"><tspan x="0" y="0">16</tspan></text>
        </g>
      </g>
      <g id="g789">
        <ellipse id="path4761-33-33-3" class="cls-18" cx="727.8" cy="20.1" rx="14.4" ry="14.7"/>
        <g id="text4757-41-41-8" class="cls-17">
          <text class="cls-11" transform="translate(720.6 30)"><tspan x="0" y="0">1</tspan></text>
        </g>
      </g>
      <g id="g781">
        <ellipse id="path4761-33-33-3-8" class="cls-18" cx="705.6" cy="92.7" rx="14.4" ry="14.7"/>
        <g id="text4757-41-41-8-8" class="cls-17">
          <text class="cls-11" transform="translate(698.5 102.6)"><tspan x="0" y="0">2</tspan></text>
        </g>
      </g>
      <g id="g765">
        <path id="path7016" class="cls-9" d="M723.2,145.5l2.7-10.1,23.3,11.7-26-1.7Z" inkscape:flatsided="true" inkscape:randomized="0" inkscape:rounded="0" sodipodi:arg1="0.52359878" sodipodi:arg2="1.5707963" sodipodi:cx="616.78491" sodipodi:cy="441.05292" sodipodi:r1="49.321915" sodipodi:r2="24.660957" sodipodi:sides="3" sodipodi:type="star"/>
        <ellipse id="path4761-33-33-3-5" class="cls-18" cx="706" cy="137.3" rx="14.4" ry="14.7"/>
        <g id="text4757-41-41-8-1" class="cls-17">
          <text class="cls-8" transform="translate(699.4 146.8)"><tspan x="0" y="0">3</tspan></text>
        </g>
      </g>
      <g id="g751">
        <ellipse id="path4761-33-33-3-52" class="cls-18" cx="717.7" cy="208.1" rx="14.4" ry="14.7"/>
        <g id="text4757-41-41-8-7" class="cls-17">
          <text class="cls-11" transform="translate(710.6 218)"><tspan x="0" y="0">4</tspan></text>
        </g>
      </g>
      <g id="g735">
        <ellipse id="path4761-33-33-3-57" class="cls-18" cx="330.3" cy="73.8" rx="14.4" ry="14.7"/>
        <g id="text4757-41-41-8-6" class="cls-17">
          <text class="cls-8" transform="translate(323 83.4)"><tspan x="0" y="0">6</tspan></text>
        </g>
      </g>
      <g id="g727">
        <ellipse id="path4761-33-33-3-2" class="cls-18" cx="216.2" cy="15.2" rx="14.4" ry="14.7"/>
        <g id="text4757-41-41-8-79" class="cls-17">
          <text class="cls-11" transform="translate(209 24.7)"><tspan x="0" y="0">7</tspan></text>
        </g>
        <path id="path7016-3-6" class="cls-9" d="M219.9,33.1l9.3-4.8,6.9,25.1-16.3-20.4Z" inkscape:flatsided="true" inkscape:randomized="0" inkscape:rounded="0" sodipodi:arg1="0.52359878" sodipodi:arg2="1.5707963" sodipodi:cx="616.78491" sodipodi:cy="441.05292" sodipodi:r1="49.321915" sodipodi:r2="24.660957" sodipodi:sides="3" sodipodi:type="star"/>
      </g>
      <g id="g713">
        <path id="path7016-3-6-6" class="cls-9" d="M251.2,98.1l-9.3,4.8-7.1-25.1,16.4,20.3Z" inkscape:flatsided="true" inkscape:randomized="0" inkscape:rounded="0" sodipodi:arg1="0.52359878" sodipodi:arg2="1.5707963" sodipodi:cx="616.78491" sodipodi:cy="441.05292" sodipodi:r1="49.321915" sodipodi:r2="24.660957" sodipodi:sides="3" sodipodi:type="star"/>
        <ellipse id="path4761-33-33-3-33" class="cls-18" cx="254.9" cy="115.3" rx="14.4" ry="14.7"/>
        <g id="text4757-41-41-8-4" class="cls-17">
          <text class="cls-8" transform="translate(247.7 124.9)"><tspan x="0" y="0">8</tspan></text>
        </g>
      </g>
      <g id="g4763-12-12-11-87">
        <g id="g699">
          <ellipse id="path4761-33-33-3-4" class="cls-21" cx="162.6" cy="52.2" rx="14.4" ry="14.7"/>
          <g id="text4757-41-41-8-27" class="cls-17">
            <text class="cls-12" transform="translate(155.4 61.7)"><tspan x="0" y="0">9</tspan></text>
          </g>
        </g>
      </g>
    </g>
  </g>
</svg>