<?xml version="1.0" encoding="UTF-8"?>
<svg id="Layer_1" data-name="Layer 1" xmlns="http://www.w3.org/2000/svg" version="1.1" viewBox="0 0 538.6 396.6">
  <defs>
    <style>
      .cls-1 {
        stroke: #d7ff01;
      }

      .cls-1, .cls-2, .cls-3, .cls-4, .cls-5, .cls-6 {
        fill: none;
      }

      .cls-1, .cls-3, .cls-5 {
        stroke-width: 3px;
      }

      .cls-1, .cls-3, .cls-6 {
        stroke-dasharray: 0 0 0 0 0 0 0 0 0 0 0 0;
        stroke-miterlimit: 11.3;
      }

      .cls-7 {
        stroke-width: .8px;
      }

      .cls-7, .cls-2, .cls-4, .cls-5 {
        stroke-miterlimit: 10;
      }

      .cls-7, .cls-2, .cls-5 {
        stroke: #000;
      }

      .cls-7, .cls-8 {
        fill: #fff;
      }

      .cls-9 {
        fill: #000;
      }

      .cls-9, .cls-8 {
        stroke-width: 0px;
      }

      .cls-2 {
        stroke-width: 8px;
      }

      .cls-3 {
        stroke: #21cee0;
      }

      .cls-4 {
        stroke: #b3b3b3;
        stroke-width: 7px;
      }

      .cls-10 {
        isolation: isolate;
      }

      .cls-6 {
        stroke: #ff5e93;
        stroke-width: 2px;
      }
    </style>
  </defs>
  <path id="Graphic_6" data-name="Graphic 6" class="cls-4" d="M126.8,53.1c38.1,5.9,48.5,7.5,86.6,13.4,17.5,2.7,28.7,25.1,25,45.6-3.7,20.6-28.1,35-46.5,32-33.7-5.5-63-10-96.7-15.6-24.7-4.1-39.4-24.5-36.4-44.4,4.4-29.1,24.6-37.8,40.6-35.2l27.3,4.1h.1Z"/>
  <path id="Graphic_7" data-name="Graphic 7" class="cls-4" d="M391.9,288.2c-5.4,7.8-11.6,11.9-19.7,9.7-7.1-1.9-9.9-10.2-7.9-19.8"/>
  <path id="Graphic_5" data-name="Graphic 5" class="cls-2" d="M407,266c-8.3,12.9-19.3,27.9-28.1,40.3-1,1.3-2.2,3.1-2,4.7.3,2.7,9.5,7,12.2,8.8s3.5,2.9,3.1,5.8c-.3,2.1-2.6,3.4-4.2,4.5-7.8,5.5-15.3,10.6-23.1,16.1-1.1.7-2.4,1.2-3.6.7-1.3-.5-3.1-1.8-4.6-2.7-1.6-.9-1.3-2.7-1.1-4.5,3.9-27,7.9-54.8,11.9-81.8.5-3.3-.9-6.7-3.7-8.5-5.2-3.2-8.8-5.8-13.9-8.9-5.2-3.2-9.1-10.8-11-16.6-2.3-7.2-8.1-14.1-15.3-15.4-10.8-2.1-21.7-3.7-32.5-5.6-6.4-1.1-12.6-3.9-15.5-11.6-1.7-4.5-2.9-8.6-4.5-13.2-1.1-3.3-5-5.4-8.1-7.1-10.2-5.6-20.8-11.2-30.9-16.7-7.2-3.9-15.5-6.1-23.6-7.4-9.6-1.6-19.2-3.1-28.8-4.7"/>
  <path id="Graphic_5-2" data-name="Graphic 5" class="cls-3" d="M407,266c-8.3,12.9-19.3,27.9-28.1,40.3-1,1.3-2.2,3.1-2,4.7.3,2.7,9.5,7,12.2,8.8s3.5,2.9,3.1,5.8c-.3,2.1-2.6,3.4-4.2,4.5-7.8,5.5-15.3,10.6-23.1,16.1-1.1.7-2.4,1.2-3.6.7-1.3-.5-3.1-1.8-4.6-2.7-1.6-.9-1.3-2.7-1.1-4.5,3.9-27,7.9-54.8,11.9-81.8.5-3.3-.9-6.7-3.7-8.5-5.2-3.2-8.8-5.8-13.9-8.9-5.2-3.2-9.1-10.8-11-16.6-2.3-7.2-8.1-14.1-15.3-15.4-10.8-2.1-21.7-3.7-32.5-5.6-6.4-1.1-12.6-3.9-15.5-11.6-1.7-4.5-2.9-8.6-4.5-13.2-1.1-3.3-5-5.4-8.1-7.1-10.2-5.6-20.8-11.2-30.9-16.7-7.2-3.9-15.5-6.1-23.6-7.4-9.6-1.6-19.2-3.1-28.8-4.7"/>
  <path id="Graphic_5-3" data-name="Graphic 5" class="cls-2" d="M112.4,50.8l71.1,11h.1c106.1,16.5,162.8,22.1,198.1,27.8,23.6,3.8,65.3,10.6,76.1,13.3,9.8,2.5,10,2.2,9.1,9.6-.8,6.2-1.3,9-2.4,15.2-.5,2.8,1.8,4.1,5.6,7.7,2.3,2.2,4.4,3.7,4,5.7-3.9,20-6,23-10.9,33.7-2.3,5-4.5,7.6-7.2,12.4-16.3,26.2-32.7,52.5-49,78.8"/>
  <path id="Graphic_5-4" data-name="Graphic 5" class="cls-6" d="M112.4,50.8l71.1,11h.1c106.1,16.5,162.8,22.1,198.1,27.8,23.6,3.8,65.3,10.6,76.1,13.3,9.8,2.5,10,2.2,9.1,9.6-.8,6.2-1.3,9-2.4,15.2-.5,2.8,1.8,4.1,5.6,7.7,2.3,2.2,4.4,3.7,4,5.7-3.9,20-6,23-10.9,33.7-2.3,5-4.5,7.6-7.2,12.4-16.3,26.2-32.7,52.5-49,78.8"/>
  <path id="Graphic_5-5" data-name="Graphic 5" class="cls-6" d="M112.4,50.8l71.1,11h.1c106.1,16.5,162.8,22.1,198.1,27.8,23.6,3.8,65.3,10.6,76.1,13.3,9.8,2.5,10,2.2,9.1,9.6-.8,6.2-1.3,9-2.4,15.2-.5,2.8,1.8,4.1,5.6,7.7,2.3,2.2,4.4,3.7,4,5.7-3.9,20-6,23-10.9,33.7-2.3,5-4.5,7.6-7.2,12.4-16.3,26.2-32.7,52.5-49,78.8"/>
  <path id="Graphic_5-6" data-name="Graphic 5" class="cls-2" d="M179.7,142.2c-16.9-2.7-37.5-6.1-54.5-8.8-4.9-.8-9.8-2.5-10.6-10-1.3-12-2.2-23.9-3.3-35.9-.2-2.2-.3-5.1-3.1-6.2-1.8-.7-3.9-.4-5,1.1-1.7,2.3-3.6,4.3-5.3,6.6-1.5,2-5.5,2-7.8.9-2.6-1.2-5-3.5-7.9-3.8-5.8-.8-11.3-1.1-17.1-1.8-2.6-.3-5.1-3.5-4.9-6,.3-2.6.5-3.4,1.2-5.2,2.8-7.5,8.3-15.8,15.3-19.9,6.4-3.8,13.8-6.1,22.4-4.5l13.3,2.1"/>
  <path id="Graphic_5-7" data-name="Graphic 5" class="cls-1" d="M179.7,142.2c-16.9-2.7-37.5-6.1-54.5-8.8-4.9-.8-9.8-2.5-10.6-10-1.3-12-2.2-23.9-3.3-35.9-.2-2.2-.3-5.1-3.1-6.2-1.8-.7-3.9-.4-5,1.1-1.7,2.3-3.6,4.3-5.3,6.6-1.5,2-5.5,2-7.8.9-2.6-1.2-5-3.5-7.9-3.8-5.8-.8-11.3-1.1-17.1-1.8-2.6-.3-5.1-3.5-4.9-6,.3-2.6.5-3.4,1.2-5.2,2.8-7.5,8.3-15.8,15.3-19.9,6.4-3.8,13.8-6.1,22.4-4.5l13.3,2.1"/>
  <path id="Graphic_8" data-name="Graphic 8" class="cls-5" d="M62.3,73.3c3.9-8.7,12.9-14.3,17-14.4,13.9-.6,29.1-1,39.9.7,30.8,4.8,60,8.9,88,13.4,16.6,2.6,33.7.3,54.5,3.2"/>
  <path id="Graphic_28" data-name="Graphic 28" class="cls-9" d="M151.9,32.6c-.6,4.8-1.2,9.5-1.7,14.3,9-1.3,18-2.6,26.9-3.8l-25.2-10.5Z"/>
  <g>
    <path id="Rect_24" data-name="Rect 24" class="cls-9" d="M173.8,73.1l1.1-7.4,7.4,1.1-1.1,7.4-7.4-1.1Z"/>
    <path id="Rect_24-2" data-name="Rect 24" class="cls-8" d="M181.2,74.2l1.1-7.4,7.4,1.1-1.1,7.4-7.4-1.1Z"/>
    <path id="Rect_24-3" data-name="Rect 24" class="cls-9" d="M188.6,75.2l1.1-7.4,7.4,1.1-1.1,7.4-7.4-1.1Z"/>
    <path id="Rect_24-4" data-name="Rect 24" class="cls-8" d="M174.8,65.8l1.1-7.4,7.4,1.1-1.1,7.4-7.4-1.1Z"/>
    <path id="Rect_24-5" data-name="Rect 24" class="cls-8" d="M189.6,67.9l1.1-7.4,7.4,1.1-1.1,7.4-7.4-1.1Z"/>
    <path id="Rect_24-6" data-name="Rect 24" class="cls-9" d="M182.2,66.9l1.1-7.4,7.4,1.1-1.1,7.4-7.4-1.1Z"/>
    <path id="Rect_24-7" data-name="Rect 24" class="cls-9" d="M175.9,58.4l1.1-7.4,7.4,1.1-1.1,7.4-7.4-1.1Z"/>
    <path id="Rect_24_11_-2" data-name="Rect 24 11 -2" class="cls-8" d="M183.3,59.5l1.1-7.4,7.4,1.1-1.1,7.4-7.4-1.1Z"/>
    <path id="Rect_24_11_-3" data-name="Rect 24 11 -3" class="cls-9" d="M190.7,60.6l1.1-7.4,7.4,1.1-1.1,7.4-7.4-1.1Z"/>
    <path id="Rect_24_11_-4" data-name="Rect 24 11 -4" class="cls-8" d="M177,51.1l1.1-7.4,7.4,1.1-1.1,7.4-7.4-1.1Z"/>
    <path id="Rect_24_11_-5" data-name="Rect 24 11 -5" class="cls-8" d="M191.8,53.2l1.1-7.4,7.4,1.1-1.1,7.4-7.4-1.1Z"/>
    <path id="Rect_24_11_-6" data-name="Rect 24 11 -6" class="cls-9" d="M184.4,52.2l1.1-7.4,7.4,1.1-1.1,7.4-7.4-1.1Z"/>
    <path id="Rect_24-8" data-name="Rect 24" class="cls-9" d="M177.8,43.8l1.1-7.4,7.4,1.1-1.1,7.4-7.4-1.1Z"/>
    <path id="Rect_24_17_-2" data-name="Rect 24 17 -2" class="cls-8" d="M185.2,44.9l1.1-7.4,7.4,1.1-1.1,7.4-7.4-1.1Z"/>
    <path id="Rect_24_17_-3" data-name="Rect 24 17 -3" class="cls-9" d="M192.6,46l1.1-7.4,7.4,1.1-1.1,7.4-7.4-1.1Z"/>
  </g>
  <circle id="Oval_36" data-name="Oval 36" class="cls-9" cx="480.7" cy="94.2" r="10.5"/>
  <g id="Rect_37" data-name="Rect 37">
    <g class="cls-10">
      <g class="cls-10">
        <path class="cls-8" d="M481.4,97.9h-1v-5.9l-1,.6v-1l1-.7h1v7Z"/>
      </g>
    </g>
  </g>
  <circle id="Oval_39" data-name="Oval 39" class="cls-7" cx="466.6" cy="106.5" r="3.6"/>
  <circle id="Oval_39_12_-2" data-name="Oval 39 12 -2" class="cls-7" cx="464.6" cy="129.2" r="3.6"/>
  <circle id="Oval_39_12_-3" data-name="Oval 39 12 -3" class="cls-7" cx="473.8" cy="139.4" r="3.6"/>
  <circle id="Oval_39_12_-4" data-name="Oval 39 12 -4" class="cls-7" cx="377.4" cy="310.5" r="3.6"/>
  <circle id="Oval_39_12_-5" data-name="Oval 39 12 -5" class="cls-7" cx="392.3" cy="324.2" r="3.6"/>
  <circle id="Oval_39_12_-6" data-name="Oval 39 12 -6" class="cls-7" cx="359" cy="345.6" r="3.6"/>
  <circle id="Oval_39_12_-7" data-name="Oval 39 12 -7" class="cls-7" cx="367" cy="253" r="3.6"/>
  <circle id="Oval_39_12_-8" data-name="Oval 39 12 -8" class="cls-7" cx="345.9" cy="236.9" r="3.6"/>
  <circle id="Oval_39_12_-9" data-name="Oval 39 12 -9" class="cls-7" cx="332.4" cy="213.7" r="3.6"/>
  <circle id="Oval_39_12_-10" data-name="Oval 39 12 -10" class="cls-7" cx="279.9" cy="197.7" r="3.6"/>
  <circle id="Oval_39_12_-11" data-name="Oval 39 12 -11" class="cls-7" cx="269.9" cy="175.7" r="3.6"/>
  <circle id="Oval_39_12_-12" data-name="Oval 39 12 -12" class="cls-7" cx="118.4" cy="131.7" r="3.6"/>
  <circle id="Oval_39_12_-13" data-name="Oval 39 12 -13" class="cls-7" cx="107.9" cy="81.2" r="3.6"/>
  <circle id="Oval_39_12_-14" data-name="Oval 39 12 -14" class="cls-7" cx="93.4" cy="91.2" r="3.6"/>
  <circle id="Oval_39_12_-15" data-name="Oval 39 12 -15" class="cls-7" cx="60.7" cy="80.3" r="3.6"/>
  <circle id="Oval_39_12_-16" data-name="Oval 39 12 -16" class="cls-7" cx="82.3" cy="86.6" r="3.6"/>
  <circle id="Oval_36_1_-2" data-name="Oval 36 1 -2" class="cls-9" cx="442.7" cy="131.7" r="10.5"/>
  <g id="Rect_37_1_-2" data-name="Rect 37 1 -2">
    <g class="cls-10">
      <g class="cls-10">
        <path class="cls-8" d="M441.6,134.5l2.4-3.2c.1-.2.2-.4.3-.6s.1-.4.1-.6h0c0-.3,0-.5-.2-.7-.2-.2-.4-.2-.7-.2s-.5,0-.7.3c-.2.2-.3.4-.3.7h0s-1,0-1,0h0c0-.4.2-.7.4-1s.4-.5.7-.6c.3-.1.6-.2,1-.2s.8,0,1.1.2.5.3.7.6c.2.3.2.6.2,1h0c0,.2,0,.5-.2.8-.1.3-.2.5-.4.8l-2,2.7h2.6v.9h-3.9v-.8Z"/>
      </g>
    </g>
  </g>
  <circle id="Oval_36_1_-3" data-name="Oval 36 1 -3" class="cls-9" cx="492.2" cy="137.8" r="10.5"/>
  <g id="Rect_37_1_-3" data-name="Rect 37 1 -3">
    <g class="cls-10">
      <g class="cls-10">
        <path class="cls-8" d="M492,141.3c-.3-.1-.5-.3-.7-.6-.2-.3-.3-.6-.3-1h1c0,.2,0,.4.2.5s.2.2.4.3c.2,0,.3,0,.5,0,.3,0,.6,0,.8-.3.2-.2.3-.4.3-.7v-.2c0-.3,0-.6-.3-.8-.2-.2-.4-.3-.7-.3h-.5v-.9h.5c.3,0,.5,0,.6-.2.1-.2.2-.4.2-.7v-.2c0-.3,0-.5-.2-.6-.2-.2-.4-.2-.7-.2s-.3,0-.4,0c-.1,0-.2.2-.3.3,0,.1-.2.3-.2.5h-1c0-.4.2-.7.4-1,.2-.3.4-.5.7-.6.3-.1.6-.2.9-.2.6,0,1.1.2,1.4.5.3.3.5.8.5,1.3h0c0,.5,0,.8-.3,1-.2.3-.5.4-.8.6.4,0,.7.3.9.6s.3.7.3,1.1h0c0,.5,0,.9-.2,1.2s-.4.5-.7.7c-.3.2-.7.2-1.1.2s-.7,0-1-.2Z"/>
      </g>
    </g>
  </g>
  <circle id="Oval_36_1_-4" data-name="Oval 36 1 -4" class="cls-9" cx="401.4" cy="303.9" r="10.5"/>
  <g id="Rect_37_1_-4" data-name="Rect 37 1 -4">
    <g class="cls-10">
      <g class="cls-10">
        <path class="cls-8" d="M400.3,305.7l2.3-5h1l-2.3,5h3.4v.9h-4.5v-.8ZM403.3,303.5h1v4.1h-1v-4.1Z"/>
      </g>
    </g>
  </g>
  <circle id="Oval_36_1_-5" data-name="Oval 36 1 -5" class="cls-9" cx="405.6" cy="333.5" r="10.5"/>
  <g id="Rect_37_1_-5" data-name="Rect 37 1 -5">
    <g class="cls-10">
      <g class="cls-10">
        <path class="cls-8" d="M405.5,337.1c-.3-.1-.5-.3-.7-.6-.2-.3-.3-.6-.3-.9h0s1,0,1,0h0c0,.3.1.5.3.6.2.1.4.2.7.2s.6-.1.7-.3.3-.5.3-.9v-.6c0-.4,0-.7-.3-.9s-.4-.3-.7-.3-.3,0-.5.1-.3.2-.4.4h-.9v-3.7h3.5v.9h-2.6v1.6c.1,0,.3-.2.4-.2.2,0,.3,0,.5,0,.4,0,.7,0,1,.2.3.2.5.4.7.7.1.3.2.7.2,1.2v.6c0,.5,0,.8-.2,1.2-.2.3-.4.6-.7.7-.3.2-.6.3-1.1.3s-.7,0-.9-.2Z"/>
      </g>
    </g>
  </g>
  <circle id="Oval_36_1_-6" data-name="Oval 36 1 -6" class="cls-9" cx="351" cy="361.4" r="10.5"/>
  <g id="Rect_37_1_-6" data-name="Rect 37 1 -6">
    <g class="cls-10">
      <g class="cls-10">
        <path class="cls-8" d="M350.8,364.8c-.3-.2-.5-.4-.7-.7s-.2-.7-.2-1.1h0c0-.3,0-.5,0-.8,0-.3.1-.6.3-.8,0,0,0,0,0-.1,0,0,0,0,0-.1l1.5-3h1.1l-1.8,3.5v-.2c0-.2.2-.3.4-.3s.3-.1.5-.1c.4,0,.7,0,.9.2.3.2.5.4.6.7.1.3.2.7.2,1.1h0c0,.5,0,.8-.2,1.2-.2.3-.4.6-.7.7s-.6.2-1,.2-.8,0-1-.2ZM352.5,363.8c.2-.2.3-.5.3-.8h0c0-.4,0-.7-.3-.9-.2-.2-.4-.3-.8-.3s-.5.1-.7.3c-.2.2-.2.5-.2.9h0c0,.4,0,.6.3.8.2.2.4.3.7.3s.5,0,.7-.3Z"/>
      </g>
    </g>
  </g>
  <circle id="Oval_36_1_-7" data-name="Oval 36 1 -7" class="cls-9" cx="384.4" cy="243.6" r="10.5"/>
  <g id="Rect_37_1_-7" data-name="Rect 37 1 -7">
    <g class="cls-10">
      <g class="cls-10">
        <path class="cls-8" d="M386.9,241.1l-1.8,6.1h-1l1.8-6h-1.8v1h-1v-1.9h3.8v.9Z"/>
      </g>
    </g>
  </g>
  <circle id="Oval_36_1_-8" data-name="Oval 36 1 -8" class="cls-9" cx="331.4" cy="251" r="10.5"/>
  <g id="Rect_37_1_-8" data-name="Rect 37 1 -8">
    <g class="cls-10">
      <g class="cls-10">
        <path class="cls-8" d="M331.3,254.4c-.3-.2-.6-.4-.7-.7s-.3-.6-.3-1h0c0-.5,0-.8.3-1.1.2-.3.4-.5.7-.7-.2-.1-.4-.3-.6-.6s-.2-.5-.2-.8v-.2c0-.4,0-.7.2-1,.2-.3.4-.5.7-.6s.6-.2,1-.2.7,0,1,.2c.3.2.5.4.7.6.2.3.2.6.2,1v.2c0,.3,0,.6-.2.8s-.4.4-.6.6c.3.2.5.4.7.7s.3.6.3,1h0c0,.5,0,.8-.3,1.1s-.4.5-.7.7c-.3.2-.7.2-1.1.2s-.8,0-1.1-.2ZM333.1,253.6c.2,0,.3-.2.4-.4,0-.2.1-.3.1-.6h0c0-.3,0-.5-.1-.6,0-.2-.2-.3-.4-.4-.2,0-.4-.1-.6-.1s-.4,0-.6.1c-.2,0-.3.2-.4.4,0,.2-.1.4-.1.6h0c0,.3,0,.5.1.6,0,.2.2.3.4.4.2,0,.4.1.6.1s.4,0,.6-.1ZM333,250.5c.2,0,.3-.2.3-.4s.1-.3.1-.5h0c0-.3,0-.4-.1-.6,0-.1-.2-.3-.3-.3-.1,0-.3-.1-.5-.1s-.4,0-.5.1c-.2,0-.3.2-.3.3,0,.2-.1.3-.1.5h0c0,.3,0,.5.1.6,0,.2.2.3.3.4.1,0,.3.1.5.1s.4,0,.5-.1Z"/>
      </g>
    </g>
  </g>
  <circle id="Oval_36_1_-9" data-name="Oval 36 1 -9" class="cls-9" cx="347.8" cy="202" r="10.5"/>
  <g id="Rect_37_1_-9" data-name="Rect 37 1 -9">
    <g class="cls-10">
      <g class="cls-10">
        <path class="cls-8" d="M349.3,202.2v.2c0,.1-.2.3-.4.3-.2,0-.4.1-.6.1-.3,0-.6,0-.9-.3s-.4-.4-.6-.7c-.1-.3-.2-.7-.2-1.1h0c0-.5,0-.8.2-1.2.2-.3.4-.6.7-.7s.6-.2,1.1-.2.8,0,1,.3c.3.2.5.4.7.7.2.3.2.7.2,1.2h0c0,.3,0,.5,0,.8s-.2.6-.3.8c0,0,0,0,0,.1,0,0,0,0,0,.1l-1.5,3h-1.1l1.8-3.5ZM349.3,201.6c.2-.2.3-.5.3-.9h0c0-.4,0-.7-.3-.9-.2-.2-.4-.3-.7-.3s-.5.1-.7.3c-.2.2-.3.5-.3.9h0c0,.4,0,.7.3.9.2.2.4.3.7.3s.5-.1.7-.3Z"/>
      </g>
    </g>
  </g>
  <circle id="Oval_36_1_-10" data-name="Oval 36 1 -10" class="cls-9" cx="270.7" cy="214.6" r="10.5"/>
  <g id="Rect_37_1_-10" data-name="Rect 37 1 -10">
    <g class="cls-10">
      <g class="cls-10">
        <path class="cls-8" d="M268.6,218.2h-1v-5.9l-1,.6v-1l1-.7h1v7Z"/>
        <path class="cls-8" d="M270.7,217.8c-.3-.3-.5-.8-.5-1.5v-3.2c0-.6.2-1.1.5-1.5.3-.3.8-.5,1.5-.5s1.1.2,1.5.5c.3.3.5.8.5,1.5v3.2c0,.6-.2,1.1-.5,1.5-.3.3-.8.5-1.5.5s-1.1-.2-1.5-.5ZM272.9,217.1c.2-.2.2-.4.2-.8v-3.2c0-.3,0-.6-.2-.8-.2-.2-.4-.3-.8-.3s-.6,0-.8.3c-.2.2-.2.4-.2.8v3.2c0,.3,0,.6.2.8.2.2.4.3.8.3s.6,0,.8-.3Z"/>
      </g>
    </g>
  </g>
  <circle id="Oval_36_1_-11" data-name="Oval 36 1 -11" class="cls-9" cx="108.6" cy="149.1" r="10.5"/>
  <g id="Rect_37_1_-11" data-name="Rect 37 1 -11">
    <g class="cls-10">
      <g class="cls-10">
        <path class="cls-8" d="M106.5,152.7h-1v-5.9l-1,.6v-1l1-.7h1v7Z"/>
        <path class="cls-8" d="M108,151.9l2.4-3.2c.1-.2.2-.4.3-.6s.1-.4.1-.6h0c0-.3,0-.5-.2-.7-.2-.2-.4-.2-.7-.2s-.5,0-.7.3c-.2.2-.3.4-.3.7h0s-1,0-1,0h0c0-.4.2-.7.4-1,.2-.3.4-.5.7-.6.3-.1.6-.2,1-.2s.8,0,1.1.2c.3.1.5.3.7.6.2.3.2.6.2,1h0c0,.2,0,.5-.2.8-.1.3-.2.5-.4.8l-2,2.7h2.6v.9h-3.9v-.8Z"/>
      </g>
    </g>
  </g>
  <circle id="Oval_36_1_-12" data-name="Oval 36 1 -12" class="cls-9" cx="124.6" cy="75.5" r="10.5"/>
  <g id="Rect_37_1_-12" data-name="Rect 37 1 -12">
    <g class="cls-10">
      <g class="cls-10">
        <path class="cls-8" d="M122.5,79.2h-1v-5.9l-1,.6v-1l1-.7h1v7Z"/>
        <path class="cls-8" d="M124.8,79.1c-.3-.1-.5-.3-.7-.6s-.3-.6-.3-1h1c0,.2,0,.4.2.5s.2.2.4.3c.2,0,.3,0,.5,0,.3,0,.6,0,.8-.3.2-.2.3-.4.3-.7v-.2c0-.3,0-.6-.3-.8-.2-.2-.4-.3-.7-.3h-.5v-.9h.5c.3,0,.5,0,.6-.2.1-.2.2-.4.2-.7v-.2c0-.3,0-.5-.2-.6-.2-.2-.4-.2-.7-.2s-.3,0-.4,0c-.1,0-.2.2-.3.3,0,.1-.2.3-.2.5h-1c0-.4.2-.7.4-1,.2-.3.4-.5.7-.6.3-.1.6-.2.9-.2.6,0,1.1.2,1.4.5s.5.8.5,1.3h0c0,.5,0,.8-.3,1-.2.3-.5.4-.8.6.4,0,.7.3.9.6.2.3.3.7.3,1.1h0c0,.5,0,.9-.2,1.2s-.4.5-.7.7c-.3.2-.7.2-1.1.2s-.7,0-1-.2Z"/>
      </g>
    </g>
  </g>
  <circle id="Oval_36_1_-13" data-name="Oval 36 1 -13" class="cls-9" cx="94.1" cy="108.9" r="10.5"/>
  <g id="Rect_37_1_-13" data-name="Rect 37 1 -13">
    <g class="cls-10">
      <g class="cls-10">
        <path class="cls-8" d="M92,112.6h-1v-5.9l-1,.6v-1l1-.7h1v7Z"/>
        <path class="cls-8" d="M93.5,110.7l2.3-5h1l-2.3,5h3.4v.9h-4.5v-.8ZM96.5,108.5h1v4.1h-1v-4.1Z"/>
      </g>
    </g>
  </g>
  <circle id="Oval_36_1_-14" data-name="Oval 36 1 -14" class="cls-9" cx="39.5" cy="80.9" r="10.5"/>
  <g id="Rect_37_1_-14" data-name="Rect 37 1 -14">
    <g class="cls-10">
      <g class="cls-10">
        <path class="cls-8" d="M37.5,84.6h-1v-5.9l-1,.6v-1l1-.7h1v7Z"/>
        <path class="cls-8" d="M39.8,84.4c-.3-.2-.5-.4-.7-.7-.2-.3-.2-.7-.2-1.1h0c0-.3,0-.5,0-.8,0-.3.1-.6.3-.8,0,0,0,0,0-.1,0,0,0,0,0-.1l1.5-3h1.1l-1.8,3.5v-.2c0-.2.2-.3.4-.3s.3-.1.5-.1c.4,0,.7,0,.9.2.3.2.5.4.6.7.1.3.2.7.2,1.1h0c0,.5,0,.8-.2,1.2-.2.3-.4.6-.7.7s-.6.2-1.1.2-.8,0-1-.2ZM41.6,83.4c.2-.2.3-.5.3-.8h0c0-.4,0-.7-.3-.9-.2-.2-.4-.3-.8-.3s-.5.1-.7.3-.2.5-.2.9h0c0,.4,0,.6.3.8.2.2.4.3.7.3s.5,0,.7-.3Z"/>
      </g>
    </g>
  </g>
  <circle id="Oval_36_1_-15" data-name="Oval 36 1 -15" class="cls-9" cx="87.7" cy="71.5" r="10.5"/>
  <g id="Rect_37_1_-15" data-name="Rect 37 1 -15">
    <g class="cls-10">
      <g class="cls-10">
        <path class="cls-8" d="M85.6,75.1h-1v-5.9l-1,.6v-1l1-.7h1v7Z"/>
        <path class="cls-8" d="M88.2,75c-.3-.1-.5-.3-.7-.6-.2-.3-.3-.6-.3-.9h0s1,0,1,0h0c0,.3.1.5.3.6.2.1.4.2.7.2s.6-.1.7-.3c.2-.2.3-.5.3-.9v-.6c0-.4,0-.7-.3-.9-.2-.2-.4-.3-.7-.3s-.3,0-.5.1-.3.2-.4.4h-.9v-3.7h3.5v.9h-2.6v1.6c.1,0,.3-.2.4-.2.1,0,.3,0,.5,0,.4,0,.7,0,1,.2.3.2.5.4.7.7.1.3.2.7.2,1.2v.6c0,.5,0,.8-.2,1.2-.2.3-.4.6-.7.7-.3.2-.6.3-1.1.3s-.7,0-.9-.2Z"/>
      </g>
    </g>
  </g>
  <circle id="Oval_36_1_-16" data-name="Oval 36 1 -16" class="cls-9" cx="284.7" cy="164.1" r="10.5"/>
  <g id="Rect_37_1_-16" data-name="Rect 37 1 -16">
    <g class="cls-10">
      <g class="cls-10">
        <path class="cls-8" d="M283,167.7h-1v-5.9l-1,.6v-1l1-.7h1v7Z"/>
        <path class="cls-8" d="M286.3,167.7h-1v-5.9l-1,.6v-1l1-.7h1v7Z"/>
      </g>
    </g>
  </g>
  <circle id="Oval_36_1_-17" data-name="Oval 36 1 -17" class="cls-9" cx="59.6" cy="38.2" r="10.5"/>
  <g id="Rect_37_1_-17" data-name="Rect 37 1 -17">
    <g class="cls-10">
      <g class="cls-10">
        <path class="cls-8" d="M57.6,41.8h-1v-5.9l-1,.6v-1l1-.7h1v7Z"/>
        <path class="cls-8" d="M62.8,35.7l-1.8,6.1h-1l1.8-6h-1.8v1h-1v-1.9h3.8v.9Z"/>
      </g>
    </g>
  </g>
  <circle id="Oval_39_12_-17" data-name="Oval 39 12 -17" class="cls-7" cx="72.1" cy="57.2" r="3.6"/>
</svg>