<?xml version="1.0" encoding="UTF-8"?>
<svg id="Layer_1" data-name="Layer 1" xmlns="http://www.w3.org/2000/svg" version="1.1" viewBox="0 0 538.6 425.2">
  <defs>
    <style>
      .cls-1 {
        stroke-width: .6px;
      }

      .cls-1, .cls-2, .cls-3, .cls-4, .cls-5 {
        stroke-miterlimit: 10;
      }

      .cls-1, .cls-2, .cls-3, .cls-5 {
        stroke: #000;
      }

      .cls-1, .cls-2, .cls-6 {
        fill: #fff;
      }

      .cls-2 {
        stroke-width: .8px;
      }

      .cls-7 {
        isolation: isolate;
      }

      .cls-7, .cls-8 {
        font-family: ArialMT, Arial;
        font-size: 9.8px;
      }

      .cls-7, .cls-8, .cls-9 {
        fill: #000;
      }

      .cls-9, .cls-6 {
        stroke-width: 0px;
      }

      .cls-3 {
        stroke-width: 8px;
      }

      .cls-3, .cls-4, .cls-5 {
        fill: none;
      }

      .cls-4 {
        stroke: #b3b3b3;
        stroke-width: 7px;
      }

      .cls-5 {
        stroke-width: 3px;
      }
    </style>
  </defs>
  <path id="Graphic_6" data-name="Graphic 6" class="cls-4" d="M126.8,53.1c38.1,5.9,48.5,7.5,86.6,13.4,17.5,2.7,28.7,25.1,25,45.6-3.7,20.6-28.1,35-46.5,32-33.7-5.5-63-10-96.7-15.6-24.7-4.1-39.4-24.5-36.4-44.4,4.4-29.1,24.6-37.8,40.6-35.2l27.3,4.1Z"/>
  <path id="Graphic_7" data-name="Graphic 7" class="cls-4" d="M391.9,288.2c-5.4,7.8-11.6,11.9-19.7,9.7-7.1-1.9-9.9-10.2-7.9-19.8"/>
  <path id="Graphic_5" data-name="Graphic 5" class="cls-3" d="M183.6,61.9c106.1,16.4,162.8,22,198.1,27.7,23.6,3.8,65.3,10.6,76.1,13.3,9.8,2.5,10,2.2,9.1,9.6-.8,6.2-1.3,9-2.4,15.2-.5,2.8,1.8,4.1,5.6,7.7,2.3,2.2,4.4,3.7,4,5.7-3.9,20-6,23-10.9,33.7-2.3,5-4.5,7.6-7.2,12.4-16.3,26.2-32.7,52.5-49,78.8-8.7,13.9-18.7,27-28.1,40.3-1,1.3-2.2,3.1-2,4.7.3,2.7,9.5,7,12.2,8.8,2.7,1.8,3.5,2.9,3.1,5.8-.3,2.1-2.6,3.4-4.2,4.5-7.8,5.5-15.3,10.6-23.1,16.1-1.1.7-2.4,1.2-3.6.7-1.3-.5-3.1-1.8-4.6-2.7-1.6-.9-1.3-2.7-1.1-4.5,3.9-27,7.9-54.8,11.9-81.8.5-3.3-.9-6.7-3.7-8.5-5.2-3.2-8.8-5.8-13.9-8.9-5.2-3.2-9.1-10.8-11-16.6-2.3-7.2-8.1-14.1-15.3-15.4-10.8-2.1-21.7-3.7-32.5-5.6-6.4-1.1-12.6-3.9-15.5-11.6-1.7-4.5-2.9-8.6-4.5-13.2-1.1-3.3-5-5.4-8.1-7.1-10.2-5.6-20.8-11.2-30.9-16.7-7.2-3.9-15.5-6.1-23.6-7.4-27.8-4.5-55.5-9-83.3-13.5-4.9-.8-9.8-2.5-10.6-10-1.3-12-2.2-23.9-3.3-35.9-.2-2.2-.3-5.1-3.1-6.2-1.8-.7-3.9-.4-5,1.1-1.7,2.3-3.6,4.3-5.3,6.6-1.5,2-5.5,2-7.8.9-2.6-1.2-5-3.5-7.9-3.8-5.8-.8-11.3-1.1-17.1-1.8-2.6-.3-5.1-3.5-4.9-6,.3-2.6.5-3.4,1.2-5.2,2.8-7.5,8.3-15.8,15.3-19.9,6.4-3.8,13.8-6.1,22.4-4.5l84.4,13.1Z"/>
  <path id="Graphic_8" data-name="Graphic 8" class="cls-5" d="M62.3,73.3c3.9-8.7,12.9-14.3,17-14.4,13.9-.6,29.1-1,39.9.7,30.8,4.8,60,8.9,88,13.4,16.6,2.6,33.7.3,54.5,3.2"/>
  <path id="Graphic_28_1_" data-name="Graphic 28 (1)" class="cls-9" d="M151.9,32.6c-.6,4.8-1.2,9.5-1.7,14.3,9-1.3,18-2.6,26.9-3.8l-25.2-10.5Z"/>
  <g>
    <path id="Rect_24" data-name="Rect 24" class="cls-9" d="M173.8,73.1l1.1-7.4,7.4,1.1-1.1,7.4-7.4-1.1Z"/>
    <path id="Rect_24_1_" data-name="Rect 24 (1)" class="cls-6" d="M181.2,74.2l1.1-7.4,7.4,1.1-1.1,7.4-7.4-1.1Z"/>
    <path id="Rect_24_2_" data-name="Rect 24 (2)" class="cls-9" d="M188.6,75.2l1.1-7.4,7.4,1.1-1.1,7.4-7.4-1.1Z"/>
    <path id="Rect_24_3_" data-name="Rect 24 (3)" class="cls-6" d="M174.8,65.8l1.1-7.4,7.4,1.1-1.1,7.4-7.4-1.1Z"/>
    <path id="Rect_24_4_" data-name="Rect 24 (4)" class="cls-6" d="M189.6,67.9l1.1-7.4,7.4,1.1-1.1,7.4-7.4-1.1Z"/>
    <path id="Rect_24_5_" data-name="Rect 24 (5)" class="cls-9" d="M182.2,66.9l1.1-7.4,7.4,1.1-1.1,7.4-7.4-1.1Z"/>
    <path id="Rect_24_11_" data-name="Rect 24 (11)" class="cls-9" d="M175.9,58.4l1.1-7.4,7.4,1.1-1.1,7.4-7.4-1.1Z"/>
    <path id="Rect_24_11_-2" data-name="Rect 24 (11)" class="cls-6" d="M183.3,59.5l1.1-7.4,7.4,1.1-1.1,7.4-7.4-1.1Z"/>
    <path id="Rect_24_11_-3" data-name="Rect 24 (11)" class="cls-9" d="M190.7,60.6l1.1-7.4,7.4,1.1-1.1,7.4-7.4-1.1Z"/>
    <path id="Rect_24_11_-4" data-name="Rect 24 (11)" class="cls-6" d="M177,51.1l1.1-7.4,7.4,1.1-1.1,7.4-7.4-1.1Z"/>
    <path id="Rect_24_11_-5" data-name="Rect 24 (11)" class="cls-6" d="M191.8,53.2l1.1-7.4,7.4,1.1-1.1,7.4-7.4-1.1Z"/>
    <path id="Rect_24_11_-6" data-name="Rect 24 (11)" class="cls-9" d="M184.4,52.2l1.1-7.4,7.4,1.1-1.1,7.4-7.4-1.1Z"/>
    <path id="Rect_24_17_" data-name="Rect 24 (17)" class="cls-9" d="M177.8,43.8l1.1-7.4,7.4,1.1-1.1,7.4-7.4-1.1Z"/>
    <path id="Rect_24_17_-2" data-name="Rect 24 (17)" class="cls-6" d="M185.2,44.9l1.1-7.4,7.4,1.1-1.1,7.4-7.4-1.1Z"/>
    <path id="Rect_24_17_-3" data-name="Rect 24 (17)" class="cls-9" d="M192.6,46l1.1-7.4,7.4,1.1-1.1,7.4-7.4-1.1Z"/>
  </g>
  <circle id="Oval_36_1_" data-name="Oval 36 (1)" class="cls-1" cx="480.7" cy="94.2" r="10.5"/>
  <g id="Rect_37_1_" data-name="Rect 37 (1)">
    <text class="cls-7"><tspan x="0" y="0" xml:space="preserve">             </tspan></text>
    <text class="cls-7" transform="translate(478 97.9)"><tspan x="0" y="0">1</tspan></text>
    <text class="cls-8" transform="translate(483.4 97.9)"><tspan x="0" y="0" xml:space="preserve">         </tspan></text>
  </g>
  <circle id="Oval_39_12_" data-name="Oval 39 (12)" class="cls-2" cx="466.6" cy="106.5" r="3.6"/>
  <circle id="Oval_39_12_-2" data-name="Oval 39 (12)" class="cls-2" cx="464.6" cy="129.2" r="3.6"/>
  <circle id="Oval_39_12_-3" data-name="Oval 39 (12)" class="cls-2" cx="473.8" cy="139.4" r="3.6"/>
  <circle id="Oval_39_12_-4" data-name="Oval 39 (12)" class="cls-2" cx="377.4" cy="310.5" r="3.6"/>
  <circle id="Oval_39_12_-5" data-name="Oval 39 (12)" class="cls-2" cx="392.3" cy="324.2" r="3.6"/>
  <circle id="Oval_39_12_-6" data-name="Oval 39 (12)" class="cls-2" cx="359" cy="345.6" r="3.6"/>
  <circle id="Oval_39_12_-7" data-name="Oval 39 (12)" class="cls-2" cx="367" cy="253" r="3.6"/>
  <circle id="Oval_39_12_-8" data-name="Oval 39 (12)" class="cls-2" cx="345.9" cy="236.9" r="3.6"/>
  <circle id="Oval_39_12_-9" data-name="Oval 39 (12)" class="cls-2" cx="332.4" cy="213.7" r="3.6"/>
  <circle id="Oval_39_12_-10" data-name="Oval 39 (12)" class="cls-2" cx="279.9" cy="197.7" r="3.6"/>
  <circle id="Oval_39_12_-11" data-name="Oval 39 (12)" class="cls-2" cx="269.9" cy="175.7" r="3.6"/>
  <circle id="Oval_39_12_-12" data-name="Oval 39 (12)" class="cls-2" cx="118.4" cy="131.7" r="3.6"/>
  <circle id="Oval_39_12_-13" data-name="Oval 39 (12)" class="cls-2" cx="107.9" cy="81.2" r="3.6"/>
  <circle id="Oval_39_12_-14" data-name="Oval 39 (12)" class="cls-2" cx="93.4" cy="91.2" r="3.6"/>
  <circle id="Oval_39_12_-15" data-name="Oval 39 (12)" class="cls-2" cx="60.7" cy="80.3" r="3.6"/>
  <circle id="Oval_39_12_-16" data-name="Oval 39 (12)" class="cls-2" cx="82.3" cy="86.6" r="3.6"/>
  <circle id="Oval_36_1_-2" data-name="Oval 36 (1)" class="cls-1" cx="442.7" cy="131.7" r="10.5"/>
  <g id="Rect_37_1_-2" data-name="Rect 37 (1)">
    <text class="cls-7"><tspan x="0" y="0" xml:space="preserve">             </tspan></text>
    <text class="cls-7" transform="translate(440 135.3)"><tspan x="0" y="0">2</tspan></text>
    <text class="cls-8" transform="translate(445.4 135.3)"><tspan x="0" y="0" xml:space="preserve">         </tspan></text>
  </g>
  <circle id="Oval_36_1_-3" data-name="Oval 36 (1)" class="cls-1" cx="492.2" cy="137.8" r="10.5"/>
  <g id="Rect_37_1_-3" data-name="Rect 37 (1)">
    <text class="cls-7"><tspan x="0" y="0" xml:space="preserve">             </tspan></text>
    <text class="cls-7" transform="translate(489.5 141.4)"><tspan x="0" y="0">3</tspan></text>
    <text class="cls-8" transform="translate(494.9 141.4)"><tspan x="0" y="0" xml:space="preserve">         </tspan></text>
  </g>
  <circle id="Oval_36_1_-4" data-name="Oval 36 (1)" class="cls-1" cx="401.4" cy="303.9" r="10.5"/>
  <g id="Rect_37_1_-4" data-name="Rect 37 (1)">
    <text class="cls-7"><tspan x="0" y="0" xml:space="preserve">             </tspan></text>
    <text class="cls-7" transform="translate(398.7 307.6)"><tspan x="0" y="0">4</tspan></text>
    <text class="cls-8" transform="translate(404.1 307.6)"><tspan x="0" y="0" xml:space="preserve">         </tspan></text>
  </g>
  <circle id="Oval_36_1_-5" data-name="Oval 36 (1)" class="cls-1" cx="405.6" cy="333.5" r="10.5"/>
  <g id="Rect_37_1_-5" data-name="Rect 37 (1)">
    <text class="cls-7"><tspan x="0" y="0" xml:space="preserve">             </tspan></text>
    <text class="cls-7" transform="translate(402.8 337.2)"><tspan x="0" y="0">5</tspan></text>
    <text class="cls-8" transform="translate(408.3 337.2)"><tspan x="0" y="0" xml:space="preserve">         </tspan></text>
  </g>
  <circle id="Oval_36_1_-6" data-name="Oval 36 (1)" class="cls-1" cx="351" cy="361.4" r="10.5"/>
  <g id="Rect_37_1_-6" data-name="Rect 37 (1)">
    <text class="cls-7"><tspan x="0" y="0" xml:space="preserve">             </tspan></text>
    <text class="cls-7" transform="translate(348.3 365)"><tspan x="0" y="0">6</tspan></text>
    <text class="cls-8" transform="translate(353.8 365)"><tspan x="0" y="0" xml:space="preserve">         </tspan></text>
  </g>
  <circle id="Oval_36_1_-7" data-name="Oval 36 (1)" class="cls-1" cx="384.4" cy="243.6" r="10.5"/>
  <g id="Rect_37_1_-7" data-name="Rect 37 (1)">
    <text class="cls-7"><tspan x="0" y="0" xml:space="preserve">             </tspan></text>
    <text class="cls-7" transform="translate(381.6 247.2)"><tspan x="0" y="0">7</tspan></text>
    <text class="cls-8" transform="translate(387.1 247.2)"><tspan x="0" y="0" xml:space="preserve">         </tspan></text>
  </g>
  <circle id="Oval_36_1_-8" data-name="Oval 36 (1)" class="cls-1" cx="331.4" cy="251" r="10.5"/>
  <g id="Rect_37_1_-8" data-name="Rect 37 (1)">
    <text class="cls-7"><tspan x="0" y="0" xml:space="preserve">             </tspan></text>
    <text class="cls-7" transform="translate(328.7 254.6)"><tspan x="0" y="0">8</tspan></text>
    <text class="cls-8" transform="translate(334.1 254.6)"><tspan x="0" y="0" xml:space="preserve">         </tspan></text>
  </g>
  <circle id="Oval_36_1_-9" data-name="Oval 36 (1)" class="cls-1" cx="347.8" cy="202" r="10.5"/>
  <g id="Rect_37_1_-9" data-name="Rect 37 (1)">
    <text class="cls-7"><tspan x="0" y="0" xml:space="preserve">             </tspan></text>
    <text class="cls-7" transform="translate(345.1 205.7)"><tspan x="0" y="0">9</tspan></text>
    <text class="cls-8" transform="translate(350.5 205.7)"><tspan x="0" y="0" xml:space="preserve">         </tspan></text>
  </g>
  <circle id="Oval_36_1_-10" data-name="Oval 36 (1)" class="cls-1" cx="270.7" cy="214.6" r="10.5"/>
  <g id="Rect_37_1_-10" data-name="Rect 37 (1)">
    <text class="cls-7"><tspan x="0" y="0" xml:space="preserve">             </tspan></text>
    <text class="cls-7" transform="translate(265.2 218.2)"><tspan x="0" y="0">10</tspan></text>
    <text class="cls-8" transform="translate(276.1 218.2)"><tspan x="0" y="0" xml:space="preserve">         </tspan></text>
  </g>
  <circle id="Oval_36_1_-11" data-name="Oval 36 (1)" class="cls-1" cx="108.6" cy="149.1" r="10.5"/>
  <g id="Rect_37_1_-11" data-name="Rect 37 (1)">
    <text class="cls-7"><tspan x="0" y="0" xml:space="preserve">             </tspan></text>
    <text class="cls-7" transform="translate(103.1 152.7)"><tspan x="0" y="0">12</tspan></text>
    <text class="cls-8" transform="translate(114.1 152.7)"><tspan x="0" y="0" xml:space="preserve">         </tspan></text>
  </g>
  <circle id="Oval_36_1_-12" data-name="Oval 36 (1)" class="cls-1" cx="124.6" cy="75.5" r="10.5"/>
  <g id="Rect_37_1_-12" data-name="Rect 37 (1)">
    <text class="cls-7"><tspan x="0" y="0" xml:space="preserve">             </tspan></text>
    <text class="cls-7" transform="translate(119.1 79.2)"><tspan x="0" y="0">13</tspan></text>
    <text class="cls-8" transform="translate(130 79.2)"><tspan x="0" y="0" xml:space="preserve">         </tspan></text>
  </g>
  <circle id="Oval_36_1_-13" data-name="Oval 36 (1)" class="cls-1" cx="94.1" cy="108.9" r="10.5"/>
  <g id="Rect_37_1_-13" data-name="Rect 37 (1)">
    <text class="cls-7"><tspan x="0" y="0" xml:space="preserve">             </tspan></text>
    <text class="cls-7" transform="translate(88.6 112.6)"><tspan x="0" y="0">14</tspan></text>
    <text class="cls-8" transform="translate(99.5 112.6)"><tspan x="0" y="0" xml:space="preserve">         </tspan></text>
  </g>
  <circle id="Oval_36_1_-14" data-name="Oval 36 (1)" class="cls-1" cx="39.5" cy="80.9" r="10.5"/>
  <g id="Rect_37_1_-14" data-name="Rect 37 (1)">
    <text class="cls-7"><tspan x="0" y="0" xml:space="preserve">             </tspan></text>
    <text class="cls-7" transform="translate(34.1 84.6)"><tspan x="0" y="0">16</tspan></text>
    <text class="cls-8" transform="translate(45 84.6)"><tspan x="0" y="0" xml:space="preserve">         </tspan></text>
  </g>
  <circle id="Oval_36_1_-15" data-name="Oval 36 (1)" class="cls-1" cx="87.7" cy="71.5" r="10.5"/>
  <g id="Rect_37_1_-15" data-name="Rect 37 (1)">
    <text class="cls-7"><tspan x="0" y="0" xml:space="preserve">             </tspan></text>
    <text class="cls-7" transform="translate(82.2 75.1)"><tspan x="0" y="0">15</tspan></text>
    <text class="cls-8" transform="translate(93.1 75.1)"><tspan x="0" y="0" xml:space="preserve">         </tspan></text>
  </g>
  <circle id="Oval_36_1_-16" data-name="Oval 36 (1)" class="cls-1" cx="284.7" cy="164.1" r="10.5"/>
  <g id="Rect_37_1_-16" data-name="Rect 37 (1)">
    <text class="cls-7"><tspan x="0" y="0" xml:space="preserve">             </tspan></text>
    <text class="cls-7" transform="translate(279.6 167.7)"><tspan x="0" y="0">11</tspan></text>
    <text class="cls-8" transform="translate(289.8 167.7)"><tspan x="0" y="0" xml:space="preserve">         </tspan></text>
  </g>
  <circle id="Oval_36_1_-17" data-name="Oval 36 (1)" class="cls-1" cx="59.6" cy="38.2" r="10.5"/>
  <g id="Rect_37_1_-17" data-name="Rect 37 (1)">
    <text class="cls-7"><tspan x="0" y="0" xml:space="preserve">             </tspan></text>
    <text class="cls-7" transform="translate(54.2 41.8)"><tspan x="0" y="0">17</tspan></text>
    <text class="cls-8" transform="translate(65.1 41.8)"><tspan x="0" y="0" xml:space="preserve">         </tspan></text>
  </g>
  <circle id="Oval_39_12_-17" data-name="Oval 39 (12)" class="cls-2" cx="72.1" cy="57.2" r="3.6"/>
</svg>