<?xml version="1.0" encoding="UTF-8"?>
<svg id="Layer_1" data-name="Layer 1" xmlns="http://www.w3.org/2000/svg" xmlns:xlink="http://www.w3.org/1999/xlink" xmlns:rdf="http://www.w3.org/1999/02/22-rdf-syntax-ns#" xmlns:dc="http://purl.org/dc/elements/1.1/" xmlns:cc="http://creativecommons.org/ns#" version="1.1" viewBox="0 0 1300 500">
  <defs>
    <style>
      .cls-1 {
        stroke-width: 1.6px;
      }

      .cls-1, .cls-2, .cls-3, .cls-4, .cls-5 {
        stroke: #000;
      }

      .cls-1, .cls-3, .cls-4, .cls-5 {
        stroke-miterlimit: 15.1;
      }

      .cls-1, .cls-5 {
        fill: #fff;
      }

      .cls-2 {
        fill: url(#pattern4264-8);
        stroke-linejoin: round;
        stroke-width: .7px;
      }

      .cls-2, .cls-6 {
        stroke-linecap: round;
      }

      .cls-7 {
        clip-path: url(#clippath);
      }

      .cls-8, .cls-9 {
        stroke-width: 0px;
      }

      .cls-8, .cls-3, .cls-4 {
        fill: none;
      }

      .cls-10 {
        clip-path: url(#clippath-1);
      }

      .cls-11 {
        clip-path: url(#clippath-3);
      }

      .cls-12 {
        clip-path: url(#clippath-2);
      }

      .cls-9, .cls-6, .cls-13 {
        fill: #000;
      }

      .cls-3 {
        stroke-width: 10px;
      }

      .cls-6 {
        stroke: #fff;
        stroke-width: .9px;
      }

      .cls-14, .cls-13 {
        isolation: isolate;
      }

      .cls-13 {
        font-family: Helvetica, Helvetica;
        font-size: 20.6px;
      }

      .cls-4 {
        stroke-width: 5px;
      }

      .cls-5 {
        stroke-width: 1.1px;
      }
    </style>
    <clipPath id="clippath">
      <rect class="cls-8" x="421.4" y="-358.2" width="919.4" height="1384.8" transform="translate(-48.4 179.4) rotate(-11.3)"/>
    </clipPath>
    <pattern id="pattern4264-8" x="0" y="0" width="1300" height="500" patternTransform="translate(-7551.2 -14955) rotate(-145.3) scale(.7)" patternUnits="userSpaceOnUse" viewBox="0 0 1300 500">
      <rect class="cls-8" width="1300" height="500"/>
    </pattern>
    <clipPath id="clippath-1">
      <rect class="cls-8" x="252.6" y="-698.1" width="1336.6" height="2013.1" transform="translate(-50.3 304.3) rotate(-18.3)"/>
    </clipPath>
    <clipPath id="clippath-2">
      <rect class="cls-8" x="-404.9" y="-360.2" width="1336.5" height="2013.1" transform="translate(-362 336.5) rotate(-41.5)"/>
    </clipPath>
    <clipPath id="clippath-3">
      <rect class="cls-8" x="-34.7" y="-1263.3" width="1336.6" height="2013.1" transform="translate(702.9 423.4) rotate(-73.8)"/>
    </clipPath>
  </defs>
  <circle class="cls-1" cx="73.8" cy="215.1" r="15.8"/>
  <g>
    <path class="cls-9" d="M72.4,221.3h-8.1c0,0,0-1.6,0-1.6h3.1s0-10,0-10h-3.1s0-1.4,0-1.4c.4,0,.9,0,1.4,0,.5,0,.8-.2,1.1-.3.3-.2.6-.4.7-.6.2-.3.3-.6.3-1h1.6s-.1,13.5-.1,13.5h3.1s0,1.6,0,1.6Z"/>
    <path class="cls-9" d="M85.5,221.4h-8.1c0,0,0-1.6,0-1.6h3.1s0-10,0-10h-3.1s0-1.4,0-1.4c.4,0,.9,0,1.4,0,.5,0,.8-.2,1.1-.3.3-.2.6-.4.7-.6.2-.3.3-.6.3-1h1.6s-.1,13.5-.1,13.5h3.1s0,1.6,0,1.6Z"/>
  </g>
  <g>
    <path class="cls-3" d="M774,412.6c-29.2-15.6-87.5-46.9-134.7-72.3s-83.4-44.9-102.4-55.2c-19-10.3-20.9-11.5-22.9-12.9-1.9-1.4-3.9-3.1-5.7-4.9s-3.3-3.8-4.5-5.5-1.9-3.2-2.4-5.4c-.6-2.2-1.1-5.1-1-7.5,0-2.4.5-4.4,1.4-6.4s2.1-3.8,4-5.9c1.9-2,4.3-4.2,7.8-6.9,3.4-2.7,7.8-5.8,12-8.8,4.2-3,8.1-5.8,10.9-8.1s4.4-3.9,5.9-5.8c1.5-1.8,2.9-3.9,4.2-6.2s2.5-5,3.4-8.3c.9-3.3,1.5-7.3,1.6-15.7,0-8.4-.5-21.3-.6-29,0-7.7.3-10.1,1.2-13.3.9-3.2,2.2-7.1,3.8-10.6s3.3-6.6,5.1-9.1c1.7-2.4,3.4-4.2,5.2-6.1,1.9-1.8,3.9-3.7,6.5-5.9,2.6-2.2,5.7-4.7,9.5-7.2s8.2-4.9,12.4-7.1,8.3-4,13.1-6.1c4.9-2.1,10.6-4.4,16.2-6.3,5.7-1.9,11.3-3.4,16.5-4.6,5.2-1.1,9.9-1.8,19.1-2.5s22.7-1.3,31.9-1.4,14,.3,18.4.9,8.4,1.5,13.3,2.9,10.8,3.4,17.4,6c6.6,2.6,13.9,5.8,44.6,21.7,30.6,15.9,84.6,44.5,113.8,59.9,29.3,15.4,33.9,17.6,37.8,19.4,3.9,1.7,6.9,3,10.7,4,3.8,1,8.3,1.8,12,2.3s6.7.8,10,.6,6.8-.6,10.1-1.2c3.3-.5,6.2-1.1,9.9-2.5,3.7-1.3,8.1-3.4,12.7-5.9,4.6-2.5,9.2-5.3,14.2-8.6,5-3.2,10.3-6.8,15.2-10.2,4.8-3.4,9.2-6.5,12.9-8.8,3.7-2.3,6.7-3.6,10.1-4.8s7.3-2.2,12.9-2.7,12.9-.7,18.4-.4,9.1,1,12.8,2.3,7.7,3.3,12.1,6.3c4.4,2.9,9.3,6.8,14.4,11.1s10.6,9.2,15,12.9c4.4,3.7,7.9,6.2,12.2,8.6s9.5,4.9,14.1,6.6c4.7,1.8,8.8,2.8,12.8,3.4,4,.5,7.9.5,12.4.2,4.5-.3,9.6-.9,14.7-2.1,5.1-1.2,10.3-2.8,15.7-5,5.4-2.1,11.1-4.7,16.1-7.3,5-2.5,9.4-5,13.6-7.9,4.2-2.9,8.2-6.3,11.9-9.6s7-6.7,9.8-10.7c2.8-4,5.1-8.5,6.7-12.5,1.7-4,2.7-7.5,3.5-10.3s1.2-4.9,1.2-9.1c0-4.2-.6-10.4-1.2-14.6-.6-4.2-1.2-6.3-2.7-8.8-1.5-2.5-3.8-5.5-6.6-8.1-2.8-2.6-6-4.9-9.2-6.7-3.2-1.8-6.3-2.9-9.6-3.7s-6.8-1-10.4-.9c-3.7,0-7.5.5-11.4,1.4s-7.9,2.2-13.1,3.1-11.6,1.6-18.3,1.6-13.8-.4-20.8-1.2c-7-.8-13.9-1.8-24.5-3.9s-24.8-5.3-35.4-7.6c-10.5-2.2-17.4-3.5-26.8-4.5-9.5-1-21.5-1.7-29.2-2.1-7.7-.4-11-.3-43.8,1.7-32.8,2-95.1,6.1-131.9,8.2-36.8,2.1-48.1,2.2-57.1,1.9-9-.2-15.8-.8-22.1-1.6-6.3-.8-12.2-1.8-18.4-3.2s-12.7-3.3-20-5.9c-7.3-2.6-15.3-6-23.4-9.2s-16.1-6.2-23.7-9c-7.6-2.8-14.9-5.3-21.1-7.3-6.2-2.1-11.4-3.6-18.3-5.3-6.9-1.7-15.4-3.5-22.8-4.8-7.4-1.3-13.6-2-21.2-2.6s-16.5-1.2-29.2-1c-12.6.2-28.9,1.1-40.2,2-11.3.9-17.6,1.6-26.2,3-8.6,1.4-19.5,3.3-31.3,5.9-11.9,2.5-24.7,5.7-36.5,9-11.8,3.3-22.5,6.8-38.8,13-16.4,6.1-38.3,14.9-62.6,24.8-24.2,9.9-50.7,20.8-68.3,28.1-17.7,7.2-26.6,10.7-38.3,16-11.7,5.2-26,12.2-44.3,21.5-18.3,9.3-40.4,20.9-58.9,31.1-18.6,10.2-33.6,18.8-42.4,24.4-8.8,5.6-11.4,8-13.4,10.2-2,2.2-3.4,4.2-4.2,6.2-.8,2-1,4.1-.8,6,.2,1.9.9,3.6,2.7,5.8s4.7,4.8,9.8,8.3c5.1,3.5,12.5,7.8,17.4,10.5,4.9,2.7,7.2,3.7,10,5.3,2.8,1.6,6,3.7,8.9,6.3,2.9,2.6,5.3,5.5,7.2,8.4,1.8,2.8,3,5.5,3.9,8.6.8,3.1,1.3,6.6,1.2,10.2-.1,3.5-.8,7.1-2,10.7-1.1,3.6-2.7,7.2-4.7,10.5s-4.4,6.1-7.4,8.4c-3,2.3-6.7,4.2-17.3,5.4-10.6,1.3-28.2,2-38.2,2.7-10,.8-12.3,1.6-15.2,3s-6.2,3.5-9.3,5.7c-3.1,2.2-5.8,4.6-10.6,11.6-4.8,7-11.6,18.6-15.1,24.9-3.5,6.3-3.8,7.3-3.6,8.5.1,1.2.6,2.5,1.7,3.8,1.1,1.2,2.7,2.3,4.4,3.2s3.4,1.6,4.9,2.4c1.5.8,2.8,1.8,3.8,2.8,1,1,1.7,1.9,2.2,3.5.5,1.6.6,3.9.6,6.5s-.4,5.6-1.6,11.2c-1.2,5.6-3.3,13.7-4.9,20.1s-2.7,10.9-3.4,15.1c-.7,4.2-1,8-1,10.3,0,2.3.2,3.2.8,4.4.6,1.2,1.5,2.8,2.7,4.1,1.2,1.3,2.5,2.2,4.4,2.8,1.8.6,4.1.8,183.9.9,179.8.1,537.1.1,716,0s179.5,0,180.4-.4c.9-.4,2.1-1,3.3-1.7,1.2-.7,2.3-1.5,3.4-3s2.4-3.6,3.1-5.5,1-3.5.9-5.4c0-1.9-.5-4-1.3-6-.8-2-1.9-3.8-3.9-5.8-2-2-4.8-4.3-13.7-10.1-8.9-5.9-23.8-15.4-33.4-20.9-9.5-5.6-13.6-7.3-18.4-8.6-4.7-1.3-10.1-2.3-15.4-2.9-5.3-.6-10.6-.8-16.8-.4-6.2.4-13.2,1.6-20,3.4s-13.5,4.4-18.8,7c-5.3,2.7-9.3,5.5-14,8.7s-10,6.7-16.5,10c-6.5,3.4-14.1,6.6-22.6,9.7-8.5,3.1-17.8,6-25.8,7.9-8,2-14.6,3-22.7,3.6-8.1.6-17.7.8-25.8.6-8.1-.2-14.8-.8-22-2.1-7.2-1.3-15-3.4-22.3-5.8-7.3-2.5-14.3-5.3-19.7-7.8-5.4-2.5-9.4-4.6-11.4-5.7q-2-1.1-31.1-16.7h0Z"/>
    <path class="cls-4" d="M1001.9,411.9c-8.9,2.2-17.9,4.4-27.2,6.4-9.4,2-19.1,3.7-29.5,5.1-10.3,1.4-21.1,2.4-30.3,3-9.2.7-16.8.9-24.9.9-8.1,0-16.7-.5-25.8-1.6-9.1-1.1-18.6-2.9-25.8-4.8-7.2-1.8-12.1-3.7-21.3-7.9-9.3-4.3-22.9-11-51.4-25.8-28.5-14.9-71.8-37.9-109.7-58-37.8-20.1-70.2-37.3-87.4-46.8-17.3-9.5-19.4-11.4-21.7-13.6-2.3-2.2-4.7-4.8-6.5-7.6-1.8-2.8-3.1-5.8-4.1-9.1-.9-3.3-1.5-7-1.2-10.3.3-3.3,1.4-6.1,2.7-8.7,1.2-2.7,2.6-5.2,4.1-8.2,1.6-3,3.4-6.5,4.9-9.6,1.5-3,2.8-5.6,3.5-9s1-7.5,1.3-11.6"/>
    <g class="cls-7">
      <polygon class="cls-2" points="657.4 391.2 667.3 397.9 695.1 357.5 685.3 350.8 657.4 391.2"/>
    </g>
  </g>
  <g>
    <g class="cls-10">
      <path class="cls-6" d="M628.6,366.7l7.7-14.9-42.9-12.8,35.2,27.7Z"/>
    </g>
    <g class="cls-12">
      <path class="cls-6" d="M509,477.6l-1.2,16.7,44.5-5.1-43.2-11.6Z"/>
    </g>
    <g class="cls-11">
      <path class="cls-6" d="M516,17l-7.9-14.8-34.9,28.1,42.8-13.3Z"/>
    </g>
  </g>
  <g>
    <g>
      <path class="cls-5" d="M505.2,245.7c-.1,2.4-2.1,4.2-4.5,4.1-2.4-.1-4.2-2.1-4.1-4.5.1-2.4,2.1-4.2,4.5-4.1,2.4.1,4.2,2.1,4.1,4.5"/>
      <path class="cls-5" d="M553.7,196.6c-.1,2.4-2.1,4.2-4.5,4.1-2.4-.1-4.2-2.1-4.1-4.5.1-2.4,2.1-4.2,4.5-4.1,2.4.1,4.2,2.1,4.1,4.5"/>
      <path class="cls-5" d="M567.6,111.9c-.1,2.4-2.1,4.2-4.5,4.1-2.4-.1-4.2-2.1-4.1-4.5.1-2.4,2.1-4.2,4.5-4.1,2.4.1,4.2,2.1,4.1,4.5"/>
      <path class="cls-5" d="M968.4,185.6c-.1,2.4-2.1,4.2-4.5,4.1-2.4-.1-4.2-2.1-4.1-4.5.1-2.4,2.1-4.2,4.5-4.1,2.4.1,4.2,2.1,4.1,4.5"/>
      <path class="cls-5" d="M1080.9,141c-.1,2.4-2.1,4.2-4.5,4.1-2.4-.1-4.2-2.1-4.1-4.5.1-2.4,2.1-4.2,4.5-4.1,2.4.1,4.2,2.1,4.1,4.5"/>
      <path class="cls-5" d="M1195.9,192.9c-.1,2.4-2.1,4.2-4.5,4.1-2.4-.1-4.2-2.1-4.1-4.5.1-2.4,2.1-4.2,4.5-4.1,2.4.1,4.2,2.1,4.1,4.5"/>
      <path class="cls-5" d="M1286.6,132c-.1,2.4-2.1,4.2-4.5,4.1-2.4-.1-4.2-2.1-4.1-4.5.1-2.4,2.1-4.2,4.5-4.1,2.4.1,4.2,2.1,4.1,4.5"/>
      <path class="cls-5" d="M1249.3,73.9c-.1,2.4-2.1,4.2-4.5,4.1-2.4-.1-4.2-2.1-4.1-4.5.1-2.4,2.1-4.2,4.5-4.1,2.4.1,4.2,2.1,4.1,4.5"/>
      <path class="cls-5" d="M820.4,71.9c-.1,2.4-2.1,4.2-4.5,4.1-2.4-.1-4.2-2.1-4.1-4.5.1-2.4,2.1-4.2,4.5-4.1,2.4.1,4.2,2.1,4.1,4.5"/>
      <path class="cls-5" d="M638.2,24.2c-.1,2.4-2.1,4.2-4.5,4.1-2.4-.1-4.2-2.1-4.1-4.5.1-2.4,2.1-4.2,4.5-4.1,2.4.1,4.2,2.1,4.1,4.5"/>
      <path class="cls-5" d="M110.7,219.7c-.1,2.4-2.1,4.2-4.5,4.1-2.4-.1-4.2-2.1-4.1-4.5.1-2.4,2.1-4.2,4.5-4.1,2.4.1,4.2,2.1,4.1,4.5"/>
      <path class="cls-5" d="M171.5,285.8c-.1,2.4-2.1,4.2-4.5,4.1-2.4-.1-4.2-2.1-4.1-4.5.1-2.4,2.1-4.2,4.5-4.1,2.4.1,4.2,2.1,4.1,4.5"/>
      <path class="cls-5" d="M83.7,329.7c-.1,2.4-2.1,4.2-4.5,4.1-2.4-.1-4.2-2.1-4.1-4.5.1-2.4,2.1-4.2,4.5-4.1,2.4.1,4.2,2.1,4.1,4.5"/>
      <path class="cls-5" d="M48.7,380.6c-.1,2.4-2.1,4.2-4.5,4.1-2.4-.1-4.2-2.1-4.1-4.5.1-2.4,2.1-4.2,4.5-4.1,2.4.1,4.2,2.1,4.1,4.5"/>
      <path class="cls-5" d="M63.3,393.9c-.1,2.4-2.1,4.2-4.5,4.1-2.4-.1-4.2-2.1-4.1-4.5.1-2.4,2.1-4.2,4.5-4.1,2.4.1,4.2,2.1,4.1,4.5"/>
      <path class="cls-5" d="M59.2,467.4c-.1,2.4-2.1,4.2-4.5,4.1-2.4-.1-4.2-2.1-4.1-4.5.1-2.4,2.1-4.2,4.5-4.1,2.4.1,4.2,2.1,4.1,4.5"/>
      <path class="cls-5" d="M1152.1,458.4c-.1,2.4-2.1,4.2-4.5,4.1-2.4-.1-4.2-2.1-4.1-4.5.1-2.4,2.1-4.2,4.5-4.1,2.4.1,4.2,2.1,4.1,4.5"/>
      <path class="cls-5" d="M1060,399.6c-.1,2.4-2.1,4.2-4.5,4.1-2.4-.1-4.2-2.1-4.1-4.5.1-2.4,2.1-4.2,4.5-4.1,2.4.1,4.2,2.1,4.1,4.5"/>
      <path class="cls-5" d="M886.8,451.7c-.1,2.4-2.1,4.2-4.5,4.1-2.4-.1-4.2-2.1-4.1-4.5.1-2.4,2.1-4.2,4.5-4.1,2.4.1,4.2,2.1,4.1,4.5"/>
    </g>
    <circle class="cls-1" cx="467.9" cy="246.5" r="15.8"/>
  </g>
  <path class="cls-9" d="M473.7,256.5h-11.3c0-.1,0-2.2,0-2.2h4.3s.1-13.9.1-13.9h-4.3s0-1.9,0-1.9c.6,0,1.2,0,1.9-.1.7,0,1.2-.2,1.5-.4.4-.2.8-.5,1-.9.3-.4.4-.8.4-1.5h2.2s-.2,18.8-.2,18.8h4.3s0,2.2,0,2.2Z"/>
  <circle class="cls-1" cx="579.3" cy="195.8" r="15.8"/>
  <path class="cls-9" d="M586.2,205.9h-14.1c0-.1,0-3.1,0-3.1,1-.8,2-1.7,3-2.5,1-.8,1.9-1.7,2.8-2.5,1.8-1.7,3.1-3.1,3.7-4.1.7-1,1-2.1,1-3.3s-.3-1.9-1.1-2.5c-.7-.6-1.7-.9-3-1-.8,0-1.8.1-2.8.4-1,.3-2,.7-2.9,1.3h-.1s0-2.9,0-2.9c.7-.3,1.6-.6,2.7-.9,1.1-.3,2.2-.4,3.2-.4,2.1,0,3.8.6,5,1.6,1.2,1,1.8,2.4,1.8,4.2s-.1,1.5-.3,2.2c-.2.7-.5,1.3-.9,1.9-.4.6-.8,1.1-1.3,1.7-.5.6-1.1,1.2-1.8,1.8-1,1-2,1.9-3.1,2.8-1.1.9-2.1,1.7-3,2.5h11.2c0,.1,0,2.5,0,2.5Z"/>
  <circle class="cls-1" cx="537.4" cy="96.5" r="15.8"/>
  <path class="cls-9" d="M542.6,96.5c.4.4.8.9,1.1,1.5.3.6.4,1.4.4,2.4s-.2,1.8-.5,2.6c-.4.8-.8,1.5-1.5,2.1-.7.6-1.5,1.1-2.5,1.4-.9.3-2,.4-3.1.4-1.2,0-2.3-.2-3.4-.5-1.1-.3-2-.6-2.7-.9v-2.9s.2,0,.2,0c.8.5,1.7,1,2.8,1.3,1.1.4,2.1.5,3.1.5.6,0,1.2,0,1.9-.3s1.2-.5,1.6-.9c.4-.4.8-.9,1-1.3.2-.5.3-1.1.3-1.9s-.1-1.4-.3-1.9c-.2-.5-.6-.9-1-1.2-.4-.3-.9-.5-1.5-.6-.6-.1-1.2-.2-1.9-.2h-1.3s0-2.3,0-2.3h1c1.4,0,2.6-.3,3.4-.8.9-.6,1.3-1.5,1.3-2.6s0-.9-.3-1.3c-.2-.4-.5-.7-.9-.9-.4-.2-.8-.4-1.3-.5-.5,0-1-.1-1.6-.2-.9,0-1.8.1-2.8.4s-1.9.7-2.8,1.3h-.1s0-2.9,0-2.9c.7-.3,1.6-.6,2.7-.9,1.1-.3,2.2-.4,3.2-.4s1.9.1,2.7.3c.8.2,1.5.5,2.1.9.7.5,1.2,1,1.5,1.6.3.6.5,1.4.5,2.2s-.4,2.2-1.3,3c-.8.9-1.8,1.4-2.9,1.6v.2c.4,0,1,.2,1.5.5.6.2,1.1.5,1.5.9h0Z"/>
  <circle class="cls-1" cx="963.2" cy="214.5" r="15.8" transform="translate(588.1 1127.2) rotate(-80.2)"/>
  <path class="cls-9" d="M970.7,218.8h-3.1s0,5.8,0,5.8h-2.7s0-5.9,0-5.9h-10c0,0,0-3.3,0-3.3l10.2-11.7h2.6s-.1,12.8-.1,12.8h3.1s0,2.3,0,2.3ZM964.9,216.5v-9.4c0,0-8.1,9.3-8.1,9.3h8.1Z"/>
  <circle class="cls-1" cx="1079.2" cy="111.7" r="15.8" transform="translate(956.8 1189.7) rotate(-89.4)"/>
  <path class="cls-9" d="M1086.1,115.2c0,1-.2,1.9-.6,2.8-.4.9-.9,1.6-1.5,2.2-.7.6-1.5,1.1-2.4,1.5-.9.3-2,.5-3.2.5s-2.2-.1-3.3-.4c-1.1-.2-1.9-.5-2.7-.9v-3s.2,0,.2,0c.8.5,1.7.9,2.7,1.3,1,.3,2,.5,3,.5.7,0,1.3,0,1.9-.3.6-.2,1.2-.5,1.7-1,.4-.4.7-.9.9-1.4.2-.6.3-1.2.3-1.9s-.1-1.3-.4-1.8c-.2-.5-.6-.9-1-1.2-.5-.4-1.1-.6-1.8-.8-.7-.2-1.5-.2-2.3-.2s-1.6,0-2.4.1c-.8.1-1.4.2-2,.3v-10.7c.1,0,12.7.1,12.7.1v2.5s-9.9,0-9.9,0v5.5c.3,0,.8,0,1.2,0,.4,0,.8,0,1.1,0,1.1,0,2.1.1,3,.3.8.2,1.6.5,2.3,1,.7.5,1.3,1.2,1.7,2,.4.8.6,1.8.6,3.1h0Z"/>
  <circle class="cls-1" cx="1194" cy="218.4" r="15.8" transform="translate(963.7 1410.1) rotate(-89.4)"/>
  <path class="cls-9" d="M1201.3,221.7c0,2.1-.7,3.8-2.2,5.2-1.4,1.3-3.1,2-5.1,2s-2-.2-2.8-.5c-.8-.3-1.6-.8-2.2-1.4-.8-.8-1.4-1.8-1.8-3.1-.4-1.3-.6-2.8-.6-4.6s.2-3.5.6-4.9c.4-1.4,1.1-2.7,1.9-3.8.8-1,1.9-1.9,3.2-2.4,1.3-.6,2.8-.9,4.5-.9s1,0,1.4,0c.4,0,.8.1,1.1.3v2.7s-.2,0-.2,0c-.3-.1-.7-.3-1.2-.4-.5-.1-1.1-.2-1.6-.2-2,0-3.6.6-4.8,1.8-1.2,1.2-1.9,2.9-2.1,5.1.8-.5,1.6-.8,2.3-1.1.8-.2,1.7-.4,2.7-.4s1.7.1,2.3.3c.7.2,1.4.5,2.1,1,.8.6,1.4,1.3,1.8,2.2.4.9.6,1.9.6,3.2h0ZM1198.5,221.8c0-.9-.1-1.6-.4-2.2-.2-.6-.7-1.1-1.2-1.5-.4-.3-.9-.5-1.4-.6-.5,0-1.1-.2-1.6-.2s-1.5,0-2.2.3-1.4.5-2.1.8c0,.2,0,.4,0,.6,0,.2,0,.4,0,.7,0,1.5.1,2.6.4,3.5.3.9.7,1.5,1.2,2,.4.4.9.7,1.4.9.5.2,1,.3,1.6.3,1.4,0,2.4-.4,3.2-1.2.8-.8,1.2-2,1.2-3.6h0Z"/>
  <circle class="cls-1" cx="1253.2" cy="124.5" r="15.8" transform="translate(1116.3 1376.3) rotate(-89.4)"/>
  <path class="cls-9" d="M1260.4,116.8l-9.6,17.6h-3s10.2-18.3,10.2-18.3h-11.9c0-.1,0-2.6,0-2.6h14.3c0,.1,0,3.3,0,3.3Z"/>
  <circle class="cls-1" cx="1242.9" cy="47.2" r="15.8" transform="translate(1183.4 1289.6) rotate(-89.4)"/>
  <path class="cls-9" d="M1250.1,51.4c0,1.8-.7,3.3-2.2,4.5-1.4,1.2-3.2,1.8-5.3,1.7s-4.1-.6-5.4-1.8c-1.3-1.2-2-2.7-2-4.5s.4-2.2,1-3.1c.7-.9,1.6-1.7,2.9-2.2h0c-1.1-.7-1.9-1.4-2.5-2.1-.5-.7-.8-1.6-.8-2.7,0-1.6.7-2.9,2-3.9,1.3-1,2.9-1.5,4.9-1.5s3.7.5,5,1.5c1.2,1,1.8,2.3,1.8,3.8s-.3,1.9-.9,2.8c-.6.9-1.5,1.6-2.6,2.1h0c1.3.7,2.3,1.4,3,2.2.7.8,1,1.9,1,3.1h0ZM1246.9,41.2c0-1-.4-1.8-1.1-2.4-.8-.6-1.7-.9-2.9-.9s-2.1.3-2.9.8c-.8.6-1.1,1.3-1.1,2.3s.2,1.3.5,1.8c.4.5.9.9,1.7,1.3.3.2.8.4,1.5.7.7.3,1.3.5,1.9.7.9-.6,1.6-1.2,1.9-1.9.4-.7.5-1.4.6-2.3h0ZM1247.2,51.7c0-.9-.2-1.5-.6-2.1-.4-.5-1.1-1.1-2.2-1.6-.4-.2-.9-.4-1.4-.6-.5-.2-1.2-.4-2.1-.8-.8.4-1.5,1.1-2,1.8-.5.8-.8,1.7-.8,2.7s.4,2.3,1.3,3.1c.9.8,2,1.3,3.3,1.3,1.4,0,2.5-.3,3.3-1,.8-.7,1.2-1.6,1.3-2.9h0Z"/>
  <circle class="cls-1" cx="817.9" cy="42.5" r="15.8"/>
  <path class="cls-9" d="M824.4,40.9c0,1.8-.2,3.5-.7,5-.4,1.5-1.1,2.7-1.9,3.8-.9,1.1-1.9,1.9-3.2,2.4s-2.8.8-4.5.8-.9,0-1.4,0c-.4,0-.8-.1-1.1-.2v-2.7s.2,0,.2,0c.3.1.7.3,1.1.4.5.1,1,.2,1.7.2,2.1,0,3.7-.6,4.9-1.8,1.2-1.2,1.9-2.9,2.1-5.1-.9.5-1.7.9-2.5,1.1-.8.2-1.6.3-2.5.3s-1.6-.1-2.3-.3c-.7-.2-1.4-.5-2.1-1-.8-.6-1.4-1.3-1.8-2.2-.4-.9-.6-1.9-.6-3.2,0-2.1.7-3.9,2.2-5.2,1.4-1.3,3.1-2,5.1-2,1,0,1.9.2,2.8.5.9.3,1.6.8,2.2,1.4.8.8,1.4,1.8,1.8,3,.4,1.2.6,2.8.6,4.7h0ZM821.5,40.2c0-1.4-.1-2.6-.4-3.5-.3-.9-.7-1.6-1.2-2.1-.4-.4-.9-.7-1.4-.9-.5-.2-1-.3-1.6-.3-1.3,0-2.4.4-3.2,1.2-.8.8-1.2,2-1.2,3.5s.1,1.6.4,2.2c.2.6.7,1.1,1.3,1.5.4.3.9.5,1.4.6.5,0,1.1.2,1.7.2.7,0,1.5,0,2.2-.3.7-.2,1.5-.5,2.1-.8,0-.2,0-.4,0-.6,0-.2,0-.4,0-.7h0Z"/>
  <circle class="cls-1" cx="621.8" cy="47.6" r="15.8"/>
  <g>
    <path class="cls-9" d="M620.4,53.8h-8.1c0,0,0-1.6,0-1.6h3.1s0-10,0-10h-3.1s0-1.4,0-1.4c.4,0,.9,0,1.4,0,.5,0,.8-.2,1.1-.3.3-.2.6-.4.7-.6.2-.3.3-.6.3-1h1.6s-.1,13.5-.1,13.5h3.1s0,1.6,0,1.6Z"/>
    <path class="cls-9" d="M634.4,46.4c0,2.7-.5,4.7-1.3,5.9-.8,1.2-2.2,1.9-3.9,1.8s-3.1-.7-3.9-1.9c-.8-1.3-1.2-3.2-1.2-5.9s.5-4.6,1.3-5.9c.8-1.3,2.2-1.9,3.9-1.9s3.1.7,3.9,2c.8,1.3,1.2,3.2,1.2,5.9h0ZM631.7,50.9c.2-.5.4-1.2.5-1.9,0-.7.1-1.6.2-2.7s0-1.9-.1-2.7c0-.8-.2-1.4-.5-1.9-.2-.5-.5-.9-1-1.2-.4-.3-.9-.4-1.6-.4s-1.2.1-1.6.4c-.4.3-.7.6-1,1.2-.2.5-.4,1.1-.5,1.9,0,.8-.1,1.7-.1,2.6s0,1.9,0,2.6c0,.7.2,1.3.5,1.9.2.5.5.9.9,1.2.4.3.9.4,1.6.4.6,0,1.2-.1,1.6-.4.4-.3.7-.6,1-1.2h0Z"/>
  </g>
  <circle class="cls-1" cx="197.6" cy="286.5" r="15.8"/>
  <g>
    <path class="cls-9" d="M196.2,292.6h-8.1c0,0,0-1.6,0-1.6h3.1s0-10,0-10h-3.1s0-1.4,0-1.4c.4,0,.9,0,1.4,0,.5,0,.8-.2,1.1-.3.3-.2.6-.4.7-.6.2-.3.3-.6.3-1h1.6s-.1,13.5-.1,13.5h3.1s0,1.6,0,1.6Z"/>
    <path class="cls-9" d="M210.1,292.7h-10.1c0-.1,0-2.2,0-2.2.7-.6,1.4-1.2,2.1-1.8.7-.6,1.4-1.2,2-1.8,1.3-1.2,2.2-2.2,2.7-2.9.5-.7.7-1.5.7-2.4s-.2-1.4-.8-1.8c-.5-.4-1.2-.7-2.1-.7s-1.3,0-2,.3-1.4.5-2.1,1h-.1s0-2.1,0-2.1c.5-.2,1.1-.4,1.9-.6.8-.2,1.6-.3,2.3-.3,1.5,0,2.7.4,3.6,1.2.9.7,1.3,1.8,1.3,3,0,.6,0,1.1-.2,1.6-.1.5-.4,1-.6,1.4-.3.4-.6.8-.9,1.2-.4.4-.8.8-1.3,1.3-.7.7-1.5,1.4-2.2,2-.8.6-1.5,1.3-2.2,1.8h8c0,0,0,1.8,0,1.8Z"/>
  </g>
  <circle class="cls-1" cx="58.7" cy="309.5" r="15.8"/>
  <g>
    <path class="cls-9" d="M57.3,315.6h-8.1c0,0,0-1.6,0-1.6h3.1s0-10,0-10h-3.1s0-1.4,0-1.4c.4,0,.9,0,1.4,0,.5,0,.8-.2,1.1-.3.3-.2.6-.4.7-.6.2-.3.3-.6.3-1h1.6s-.1,13.5-.1,13.5h3.1s0,1.6,0,1.6Z"/>
    <path class="cls-9" d="M70,308.6c.3.3.6.7.8,1.1s.3,1,.3,1.7-.1,1.3-.4,1.9c-.3.6-.6,1.1-1.1,1.5-.5.5-1.1.8-1.8,1-.7.2-1.4.3-2.2.3s-1.6-.1-2.4-.3c-.8-.2-1.5-.4-2-.7v-2.1s.2,0,.2,0c.6.4,1.2.7,2,1s1.5.4,2.2.4.9,0,1.3-.2c.5-.1.9-.3,1.2-.6.3-.3.5-.6.7-1,.2-.4.2-.8.2-1.3s0-1-.2-1.3c-.2-.4-.4-.6-.7-.8-.3-.2-.7-.4-1.1-.4-.4,0-.9-.1-1.4-.1h-.9s0-1.7,0-1.7h.7c1,0,1.8-.2,2.4-.6.6-.4.9-1,.9-1.9s0-.7-.2-.9c-.2-.3-.4-.5-.6-.7-.3-.2-.6-.3-.9-.4-.3,0-.7-.1-1.1-.1-.6,0-1.3.1-2,.3-.7.2-1.4.5-2,.9h-.1s0-2.1,0-2.1c.5-.2,1.1-.4,1.9-.6.8-.2,1.6-.3,2.3-.3s1.4,0,1.9.2c.6.1,1.1.4,1.5.7.5.3.8.7,1.1,1.2s.4,1,.4,1.6-.3,1.6-.9,2.2c-.6.6-1.3,1-2.1,1.1h0c.3.2.7.3,1.1.5.4.2.8.4,1,.6h0Z"/>
  </g>
  <circle class="cls-1" cx="26.8" cy="355.7" r="15.8"/>
  <g>
    <path class="cls-9" d="M25.4,361.8h-8.1c0,0,0-1.6,0-1.6h3.1s0-10,0-10h-3.1s0-1.4,0-1.4c.4,0,.9,0,1.4,0,.5,0,.8-.2,1.1-.3.3-.2.6-.4.7-.6.2-.3.3-.6.3-1h1.6s-.1,13.5-.1,13.5h3.1s0,1.6,0,1.6Z"/>
    <path class="cls-9" d="M39.7,357.7h-2.2s0,4.2,0,4.2h-1.9s0-4.2,0-4.2h-7.2c0,0,0-2.4,0-2.4l7.3-8.4h1.8s0,9.2,0,9.2h2.2s0,1.6,0,1.6ZM35.5,356.1v-6.8c0,0-5.8,6.7-5.8,6.7h5.8Z"/>
  </g>
  <circle class="cls-1" cx="83.2" cy="383" r="15.8"/>
  <g>
    <path class="cls-9" d="M81.8,389.2h-8.1c0,0,0-1.6,0-1.6h3.1s0-10,0-10h-3.1s0-1.4,0-1.4c.4,0,.9,0,1.4,0,.5,0,.8-.2,1.1-.3.3-.2.6-.4.7-.6.2-.3.3-.6.3-1h1.6s-.1,13.5-.1,13.5h3.1s0,1.6,0,1.6Z"/>
    <path class="cls-9" d="M95.7,384.5c0,.7-.1,1.4-.4,2-.3.6-.6,1.2-1.1,1.6-.5.5-1.1.8-1.7,1.1-.7.2-1.4.4-2.3.3s-1.6-.1-2.4-.3c-.8-.2-1.4-.4-1.9-.6v-2.1s.2,0,.2,0c.5.4,1.2.7,1.9.9.7.2,1.5.4,2.2.4s.9,0,1.4-.2c.5-.1.9-.4,1.2-.7.3-.3.5-.6.7-1,.2-.4.2-.9.2-1.4s0-1-.3-1.3c-.2-.4-.4-.6-.7-.9-.3-.3-.8-.4-1.3-.5-.5-.1-1.1-.2-1.7-.2s-1.2,0-1.7.1c-.5,0-1,.2-1.4.2v-7.7c0,0,9.1,0,9.1,0v1.8s-7.1,0-7.1,0v4c.2,0,.5,0,.8,0,.3,0,.6,0,.8,0,.8,0,1.5,0,2.1.2.6.1,1.2.4,1.7.7.5.4.9.9,1.2,1.4.3.6.4,1.3.4,2.2h0Z"/>
  </g>
  <circle class="cls-1" cx="78.6" cy="444.4" r="15.8"/>
  <g>
    <path class="cls-9" d="M77.3,450.6h-8.1c0,0,0-1.6,0-1.6h3.1s0-10,0-10h-3.1s0-1.4,0-1.4c.4,0,.9,0,1.4,0,.5,0,.8-.2,1.1-.3.3-.2.6-.4.7-.6.2-.3.3-.6.3-1h1.6s-.1,13.5-.1,13.5h3.1s0,1.6,0,1.6Z"/>
    <path class="cls-9" d="M91.5,445.8c0,1.5-.5,2.8-1.5,3.7-1,.9-2.2,1.4-3.7,1.4s-1.4-.1-2-.4c-.6-.2-1.1-.6-1.6-1-.6-.6-1-1.3-1.3-2.2-.3-.9-.4-2-.4-3.3s.2-2.5.5-3.5c.3-1,.8-1.9,1.4-2.7.6-.8,1.4-1.3,2.3-1.7.9-.4,2-.6,3.3-.6s.7,0,1,0c.3,0,.5,0,.8.2v1.9s-.1,0-.1,0c-.2-.1-.5-.2-.9-.3-.4,0-.8-.1-1.2-.2-1.4,0-2.6.4-3.5,1.3-.9.9-1.4,2.1-1.5,3.6.6-.3,1.1-.6,1.7-.8.6-.2,1.2-.3,1.9-.3.6,0,1.2,0,1.7.2.5.1,1,.4,1.5.7.6.4,1,.9,1.3,1.6.3.6.4,1.4.4,2.3h0ZM89.4,445.9c0-.6,0-1.1-.3-1.6-.2-.4-.5-.8-.9-1.1-.3-.2-.6-.4-1-.4-.4,0-.8-.1-1.2-.1s-1.1,0-1.6.2-1,.3-1.5.6c0,.1,0,.3,0,.4,0,.1,0,.3,0,.5,0,1.1,0,1.9.3,2.5.2.6.5,1.1.9,1.5.3.3.6.5,1,.7.4.1.8.2,1.2.2,1,0,1.7-.3,2.3-.9.6-.6.8-1.4.9-2.6h0Z"/>
  </g>
  <circle class="cls-1" cx="1176.5" cy="462.9" r="15.8" transform="translate(701.9 1634.8) rotate(-89.4)"/>
  <g class="cls-14">
    <text class="cls-13" transform="translate(1164.2 469) rotate(.6)"><tspan x="0" y="0">17</tspan></text>
  </g>
  <circle class="cls-1" cx="1058.2" cy="374.9" r="15.8" transform="translate(672.8 1429.3) rotate(-89.4)"/>
  <g class="cls-14">
    <text class="cls-13" transform="translate(1045.9 380.9) rotate(.6)"><tspan x="0" y="0">18</tspan></text>
  </g>
  <circle class="cls-1" cx="882.8" cy="424.4" r="15.8"/>
  <g>
    <path class="cls-9" d="M881.4,430.5h-8.1c0,0,0-1.6,0-1.6h3.1s0-10,0-10h-3.1s0-1.4,0-1.4c.4,0,.9,0,1.4,0,.5,0,.8-.2,1.1-.3.3-.2.6-.4.7-.6.2-.3.3-.6.3-1h1.6s-.1,13.5-.1,13.5h3.1s0,1.6,0,1.6Z"/>
    <path class="cls-9" d="M895.4,422.3c0,1.3-.2,2.5-.5,3.6-.3,1.1-.8,2-1.4,2.7-.6.8-1.4,1.3-2.3,1.7-.9.4-2,.6-3.2.6-.3,0-.7,0-1,0-.3,0-.6,0-.8-.2v-1.9s.1,0,.1,0c.2.1.5.2.8.3.4,0,.7.1,1.2.1,1.5,0,2.6-.4,3.5-1.3.9-.9,1.4-2.1,1.5-3.7-.6.4-1.2.6-1.8.8-.6.2-1.2.2-1.8.2s-1.2,0-1.7-.2c-.5-.1-1-.4-1.5-.7-.6-.4-1-.9-1.3-1.6-.3-.6-.4-1.4-.4-2.3,0-1.5.5-2.8,1.5-3.7,1-.9,2.2-1.4,3.7-1.4.7,0,1.4.1,2,.4.6.2,1.1.6,1.6,1,.6.6,1,1.3,1.3,2.2.3.9.4,2,.4,3.4h0ZM893.3,421.8c0-1,0-1.9-.3-2.5s-.5-1.1-.9-1.5c-.3-.3-.6-.5-1-.7-.4-.1-.8-.2-1.2-.2-1,0-1.7.3-2.3.9-.6.6-.8,1.4-.9,2.5,0,.6,0,1.2.3,1.6.2.4.5.8.9,1.1.3.2.6.4,1,.4.4,0,.8.1,1.2.1s1.1,0,1.6-.2c.5-.1,1-.3,1.5-.6,0-.1,0-.3,0-.4,0-.1,0-.3,0-.5h0Z"/>
  </g>
</svg>