<?xml version="1.0" encoding="UTF-8"?>
<svg id="svg4451" xmlns="http://www.w3.org/2000/svg" xmlns:xlink="http://www.w3.org/1999/xlink" xmlns:svg="http://www.w3.org/2000/svg" xmlns:sodipodi="http://sodipodi.sourceforge.net/DTD/sodipodi-0.dtd" xmlns:rdf="http://www.w3.org/1999/02/22-rdf-syntax-ns#" xmlns:inkscape="http://www.inkscape.org/namespaces/inkscape" xmlns:dc="http://purl.org/dc/elements/1.1/" xmlns:cc="http://creativecommons.org/ns#" version="1.1" viewBox="0 0 1466.1 1024.8">
  <defs>
    <style>
      .cls-1 {
        font-size: 56px;
      }

      .cls-1, .cls-2, .cls-3, .cls-4, .cls-5, .cls-6, .cls-7, .cls-8 {
        fill: #000;
      }

      .cls-1, .cls-9, .cls-4, .cls-10, .cls-6, .cls-11, .cls-12 {
        isolation: isolate;
      }

      .cls-1, .cls-9, .cls-4, .cls-10, .cls-6, .cls-12 {
        font-family: TimesNewRomanPSMT, 'Times New Roman';
      }

      .cls-2, .cls-9, .cls-13, .cls-3, .cls-14, .cls-10, .cls-15, .cls-5, .cls-7, .cls-8, .cls-16, .cls-12 {
        stroke: #fff;
      }

      .cls-2, .cls-3, .cls-7 {
        fill-rule: evenodd;
      }

      .cls-17 {
        stroke: #ff5e93;
      }

      .cls-17, .cls-9, .cls-18, .cls-19, .cls-14, .cls-10, .cls-20, .cls-21, .cls-16, .cls-22, .cls-12 {
        fill: none;
      }

      .cls-17, .cls-9, .cls-21, .cls-22 {
        stroke-width: 5px;
      }

      .cls-17, .cls-23, .cls-5, .cls-21, .cls-24, .cls-8, .cls-25, .cls-22 {
        stroke-linecap: round;
      }

      .cls-17, .cls-21, .cls-22 {
        stroke-dasharray: 0 0 5 10;
      }

      .cls-9, .cls-10, .cls-6 {
        font-size: 32px;
      }

      .cls-13 {
        fill: #c8c8c8;
      }

      .cls-13, .cls-7 {
        stroke-width: 1.5px;
      }

      .cls-18 {
        stroke-width: 8.7px;
      }

      .cls-18, .cls-20, .cls-23 {
        stroke: #000;
      }

      .cls-26 {
        clip-path: url(#clippath);
      }

      .cls-19, .cls-27 {
        stroke-width: 0px;
      }

      .cls-3 {
        stroke-width: 2.7px;
      }

      .cls-14 {
        stroke-width: 7px;
      }

      .cls-27 {
        fill: url(#pattern5622);
      }

      .cls-4, .cls-12 {
        font-size: 125.2px;
      }

      .cls-10, .cls-15 {
        stroke-width: 2px;
      }

      .cls-20 {
        stroke-width: 15.4px;
      }

      .cls-15 {
        fill: #000096;
      }

      .cls-28 {
        clip-path: url(#clippath-1);
      }

      .cls-29 {
        clip-path: url(#clippath-2);
      }

      .cls-23 {
        fill: url(#pattern4264);
        stroke-width: 1px;
      }

      .cls-23, .cls-5, .cls-24, .cls-25 {
        stroke-linejoin: round;
      }

      .cls-5 {
        stroke-width: 1px;
      }

      .cls-21 {
        stroke: #21cee0;
      }

      .cls-24 {
        stroke-width: 2.2px;
      }

      .cls-24, .cls-25 {
        fill: #fff;
        stroke: #181818;
      }

      .cls-8 {
        stroke-width: .9px;
      }

      .cls-16 {
        stroke-width: 17px;
      }

      .cls-25 {
        stroke-width: 1.9px;
      }

      .cls-22 {
        stroke: #d7ff01;
      }

      .cls-12 {
        stroke-miterlimit: 7.8;
        stroke-width: 1px;
      }
    </style>
    <clipPath id="clippath">
      <path class="cls-19" d="M690,1112.4c166.2-763.2,332.4-1526.3,498.5-2289.5-320.5-69.8-641.1-139.6-961.6-209.4C60.7-623.3-105.5,139.9-271.7,903c320.5,69.8,641.1,139.6,961.6,209.4Z"/>
    </clipPath>
    <clipPath id="clippath-1">
      <rect class="cls-19" x="-709.2" y="-241.4" width="1293.4" height="1948.1" transform="translate(-382.3 70.5) rotate(-30.7)"/>
    </clipPath>
    <clipPath id="clippath-2">
      <rect class="cls-19" x="-691.7" y="-276.7" width="1293.4" height="1948.1" transform="translate(-361.8 74.5) rotate(-30.7)"/>
    </clipPath>
    <pattern id="pattern4264" x="0" y="0" width="1466.1" height="1024.8" patternTransform="translate(-14347.6 -16031.6) rotate(-76.6) scale(1 -1)" patternUnits="userSpaceOnUse" viewBox="0 0 1466.1 1024.8">
      <rect class="cls-19" width="1466.1" height="1024.8"/>
    </pattern>
    <pattern id="pattern5622" x="0" y="0" width="1466.1" height="1024.8" patternTransform="translate(-812.2 2686.6) rotate(102.8) scale(1 -1)" patternUnits="userSpaceOnUse" viewBox="0 0 1466.1 1024.8">
      <rect class="cls-19" width="1466.1" height="1024.8"/>
    </pattern>
  </defs>
  <g id="_defs" data-name="&amp;lt;defs">
    <inkscape:perspective id="perspective4459" inkscape:persp3d-origin="372.04724 : 350.78739 : 1" inkscape:vp_x="0 : 526.18109 : 1" inkscape:vp_y="0 : 1000 : 0" inkscape:vp_z="744.09448 : 526.18109 : 1" sodipodi:type="inkscape:persp3d"/>
    <inkscape:perspective id="perspective4469" inkscape:persp3d-origin="0.5 : 0.33333333 : 1" inkscape:vp_x="0 : 0.5 : 1" inkscape:vp_y="0 : 1000 : 0" inkscape:vp_z="1 : 0.5 : 1" sodipodi:type="inkscape:persp3d"/>
    <inkscape:perspective id="perspective5005" inkscape:persp3d-origin="0.5 : 0.33333333 : 1" inkscape:vp_x="0 : 0.5 : 1" inkscape:vp_y="0 : 1000 : 0" inkscape:vp_z="1 : 0.5 : 1" sodipodi:type="inkscape:persp3d"/>
    <inkscape:perspective id="perspective5019" inkscape:persp3d-origin="0.5 : 0.33333333 : 1" inkscape:vp_x="0 : 0.5 : 1" inkscape:vp_y="0 : 1000 : 0" inkscape:vp_z="1 : 0.5 : 1" sodipodi:type="inkscape:persp3d"/>
    <inkscape:perspective id="perspective3033" inkscape:persp3d-origin="0.5 : 0.33333333 : 1" inkscape:vp_x="0 : 0.5 : 1" inkscape:vp_y="0 : 1000 : 0" inkscape:vp_z="1 : 0.5 : 1" sodipodi:type="inkscape:persp3d"/>
    <inkscape:perspective id="perspective3078" inkscape:persp3d-origin="0.5 : 0.33333333 : 1" inkscape:vp_x="0 : 0.5 : 1" inkscape:vp_y="0 : 1000 : 0" inkscape:vp_z="1 : 0.5 : 1" sodipodi:type="inkscape:persp3d"/>
    <inkscape:perspective id="perspective3886" inkscape:persp3d-origin="0.5 : 0.33333333 : 1" inkscape:vp_x="0 : 0.5 : 1" inkscape:vp_y="0 : 1000 : 0" inkscape:vp_z="1 : 0.5 : 1" sodipodi:type="inkscape:persp3d"/>
    <inkscape:perspective id="perspective3886-4" inkscape:persp3d-origin="0.5 : 0.33333333 : 1" inkscape:vp_x="0 : 0.5 : 1" inkscape:vp_y="0 : 1000 : 0" inkscape:vp_z="1 : 0.5 : 1" sodipodi:type="inkscape:persp3d"/>
    <inkscape:perspective id="perspective3886-5" inkscape:persp3d-origin="0.5 : 0.33333333 : 1" inkscape:vp_x="0 : 0.5 : 1" inkscape:vp_y="0 : 1000 : 0" inkscape:vp_z="1 : 0.5 : 1" sodipodi:type="inkscape:persp3d"/>
    <inkscape:perspective id="perspective3886-1" inkscape:persp3d-origin="0.5 : 0.33333333 : 1" inkscape:vp_x="0 : 0.5 : 1" inkscape:vp_y="0 : 1000 : 0" inkscape:vp_z="1 : 0.5 : 1" sodipodi:type="inkscape:persp3d"/>
    <inkscape:perspective id="perspective3886-2" inkscape:persp3d-origin="0.5 : 0.33333333 : 1" inkscape:vp_x="0 : 0.5 : 1" inkscape:vp_y="0 : 1000 : 0" inkscape:vp_z="1 : 0.5 : 1" sodipodi:type="inkscape:persp3d"/>
    <inkscape:perspective id="perspective3886-8" inkscape:persp3d-origin="0.5 : 0.33333333 : 1" inkscape:vp_x="0 : 0.5 : 1" inkscape:vp_y="0 : 1000 : 0" inkscape:vp_z="1 : 0.5 : 1" sodipodi:type="inkscape:persp3d"/>
    <inkscape:perspective id="perspective3886-9" inkscape:persp3d-origin="0.5 : 0.33333333 : 1" inkscape:vp_x="0 : 0.5 : 1" inkscape:vp_y="0 : 1000 : 0" inkscape:vp_z="1 : 0.5 : 1" sodipodi:type="inkscape:persp3d"/>
    <inkscape:perspective id="perspective3886-12" inkscape:persp3d-origin="0.5 : 0.33333333 : 1" inkscape:vp_x="0 : 0.5 : 1" inkscape:vp_y="0 : 1000 : 0" inkscape:vp_z="1 : 0.5 : 1" sodipodi:type="inkscape:persp3d"/>
    <inkscape:perspective id="perspective3886-42" inkscape:persp3d-origin="0.5 : 0.33333333 : 1" inkscape:vp_x="0 : 0.5 : 1" inkscape:vp_y="0 : 1000 : 0" inkscape:vp_z="1 : 0.5 : 1" sodipodi:type="inkscape:persp3d"/>
    <inkscape:perspective id="perspective4037" inkscape:persp3d-origin="0.5 : 0.33333333 : 1" inkscape:vp_x="0 : 0.5 : 1" inkscape:vp_y="0 : 1000 : 0" inkscape:vp_z="1 : 0.5 : 1" sodipodi:type="inkscape:persp3d"/>
    <inkscape:perspective id="perspective4037-2" inkscape:persp3d-origin="0.5 : 0.33333333 : 1" inkscape:vp_x="0 : 0.5 : 1" inkscape:vp_y="0 : 1000 : 0" inkscape:vp_z="1 : 0.5 : 1" sodipodi:type="inkscape:persp3d"/>
    <inkscape:perspective id="perspective4037-8" inkscape:persp3d-origin="0.5 : 0.33333333 : 1" inkscape:vp_x="0 : 0.5 : 1" inkscape:vp_y="0 : 1000 : 0" inkscape:vp_z="1 : 0.5 : 1" sodipodi:type="inkscape:persp3d"/>
    <inkscape:perspective id="perspective4037-0" inkscape:persp3d-origin="0.5 : 0.33333333 : 1" inkscape:vp_x="0 : 0.5 : 1" inkscape:vp_y="0 : 1000 : 0" inkscape:vp_z="1 : 0.5 : 1" sodipodi:type="inkscape:persp3d"/>
    <inkscape:perspective id="perspective4037-9" inkscape:persp3d-origin="0.5 : 0.33333333 : 1" inkscape:vp_x="0 : 0.5 : 1" inkscape:vp_y="0 : 1000 : 0" inkscape:vp_z="1 : 0.5 : 1" sodipodi:type="inkscape:persp3d"/>
    <inkscape:perspective id="perspective4037-06" inkscape:persp3d-origin="0.5 : 0.33333333 : 1" inkscape:vp_x="0 : 0.5 : 1" inkscape:vp_y="0 : 1000 : 0" inkscape:vp_z="1 : 0.5 : 1" sodipodi:type="inkscape:persp3d"/>
    <inkscape:perspective id="perspective4037-7" inkscape:persp3d-origin="0.5 : 0.33333333 : 1" inkscape:vp_x="0 : 0.5 : 1" inkscape:vp_y="0 : 1000 : 0" inkscape:vp_z="1 : 0.5 : 1" sodipodi:type="inkscape:persp3d"/>
    <inkscape:perspective id="perspective4037-3" inkscape:persp3d-origin="0.5 : 0.33333333 : 1" inkscape:vp_x="0 : 0.5 : 1" inkscape:vp_y="0 : 1000 : 0" inkscape:vp_z="1 : 0.5 : 1" sodipodi:type="inkscape:persp3d"/>
    <inkscape:perspective id="perspective4037-76" inkscape:persp3d-origin="0.5 : 0.33333333 : 1" inkscape:vp_x="0 : 0.5 : 1" inkscape:vp_y="0 : 1000 : 0" inkscape:vp_z="1 : 0.5 : 1" sodipodi:type="inkscape:persp3d"/>
    <inkscape:perspective id="perspective4188" inkscape:persp3d-origin="0.5 : 0.33333333 : 1" inkscape:vp_x="0 : 0.5 : 1" inkscape:vp_y="0 : 1000 : 0" inkscape:vp_z="1 : 0.5 : 1" sodipodi:type="inkscape:persp3d"/>
    <inkscape:perspective id="perspective4210" inkscape:persp3d-origin="0.5 : 0.33333333 : 1" inkscape:vp_x="0 : 0.5 : 1" inkscape:vp_y="0 : 1000 : 0" inkscape:vp_z="1 : 0.5 : 1" sodipodi:type="inkscape:persp3d"/>
    <inkscape:perspective id="perspective4210-9" inkscape:persp3d-origin="0.5 : 0.33333333 : 1" inkscape:vp_x="0 : 0.5 : 1" inkscape:vp_y="0 : 1000 : 0" inkscape:vp_z="1 : 0.5 : 1" sodipodi:type="inkscape:persp3d"/>
    <inkscape:perspective id="perspective4210-3" inkscape:persp3d-origin="0.5 : 0.33333333 : 1" inkscape:vp_x="0 : 0.5 : 1" inkscape:vp_y="0 : 1000 : 0" inkscape:vp_z="1 : 0.5 : 1" sodipodi:type="inkscape:persp3d"/>
    <inkscape:perspective id="perspective4210-6" inkscape:persp3d-origin="0.5 : 0.33333333 : 1" inkscape:vp_x="0 : 0.5 : 1" inkscape:vp_y="0 : 1000 : 0" inkscape:vp_z="1 : 0.5 : 1" sodipodi:type="inkscape:persp3d"/>
    <inkscape:perspective id="perspective4210-65" inkscape:persp3d-origin="0.5 : 0.33333333 : 1" inkscape:vp_x="0 : 0.5 : 1" inkscape:vp_y="0 : 1000 : 0" inkscape:vp_z="1 : 0.5 : 1" sodipodi:type="inkscape:persp3d"/>
    <inkscape:perspective id="perspective4210-4" inkscape:persp3d-origin="0.5 : 0.33333333 : 1" inkscape:vp_x="0 : 0.5 : 1" inkscape:vp_y="0 : 1000 : 0" inkscape:vp_z="1 : 0.5 : 1" sodipodi:type="inkscape:persp3d"/>
    <inkscape:perspective id="perspective4210-2" inkscape:persp3d-origin="0.5 : 0.33333333 : 1" inkscape:vp_x="0 : 0.5 : 1" inkscape:vp_y="0 : 1000 : 0" inkscape:vp_z="1 : 0.5 : 1" sodipodi:type="inkscape:persp3d"/>
    <inkscape:perspective id="perspective4210-1" inkscape:persp3d-origin="0.5 : 0.33333333 : 1" inkscape:vp_x="0 : 0.5 : 1" inkscape:vp_y="0 : 1000 : 0" inkscape:vp_z="1 : 0.5 : 1" sodipodi:type="inkscape:persp3d"/>
    <inkscape:perspective id="perspective4210-60" inkscape:persp3d-origin="0.5 : 0.33333333 : 1" inkscape:vp_x="0 : 0.5 : 1" inkscape:vp_y="0 : 1000 : 0" inkscape:vp_z="1 : 0.5 : 1" sodipodi:type="inkscape:persp3d"/>
    <inkscape:perspective id="perspective4210-7" inkscape:persp3d-origin="0.5 : 0.33333333 : 1" inkscape:vp_x="0 : 0.5 : 1" inkscape:vp_y="0 : 1000 : 0" inkscape:vp_z="1 : 0.5 : 1" sodipodi:type="inkscape:persp3d"/>
    <inkscape:perspective id="perspective4313" inkscape:persp3d-origin="0.5 : 0.33333333 : 1" inkscape:vp_x="0 : 0.5 : 1" inkscape:vp_y="0 : 1000 : 0" inkscape:vp_z="1 : 0.5 : 1" sodipodi:type="inkscape:persp3d"/>
    <inkscape:perspective id="perspective5337" inkscape:persp3d-origin="0.5 : 0.33333333 : 1" inkscape:vp_x="0 : 0.5 : 1" inkscape:vp_y="0 : 1000 : 0" inkscape:vp_z="1 : 0.5 : 1" sodipodi:type="inkscape:persp3d"/>
    <inkscape:perspective id="perspective5485" inkscape:persp3d-origin="0.5 : 0.33333333 : 1" inkscape:vp_x="0 : 0.5 : 1" inkscape:vp_y="0 : 1000 : 0" inkscape:vp_z="1 : 0.5 : 1" sodipodi:type="inkscape:persp3d"/>
    <inkscape:perspective id="perspective5538" inkscape:persp3d-origin="0.5 : 0.33333333 : 1" inkscape:vp_x="0 : 0.5 : 1" inkscape:vp_y="0 : 1000 : 0" inkscape:vp_z="1 : 0.5 : 1" sodipodi:type="inkscape:persp3d"/>
    <inkscape:perspective id="perspective5538-3" inkscape:persp3d-origin="0.5 : 0.33333333 : 1" inkscape:vp_x="0 : 0.5 : 1" inkscape:vp_y="0 : 1000 : 0" inkscape:vp_z="1 : 0.5 : 1" sodipodi:type="inkscape:persp3d"/>
    <inkscape:perspective id="perspective5658" inkscape:persp3d-origin="0.5 : 0.33333333 : 1" inkscape:vp_x="0 : 0.5 : 1" inkscape:vp_y="0 : 1000 : 0" inkscape:vp_z="1 : 0.5 : 1" sodipodi:type="inkscape:persp3d"/>
    <inkscape:perspective id="perspective5686" inkscape:persp3d-origin="0.5 : 0.33333333 : 1" inkscape:vp_x="0 : 0.5 : 1" inkscape:vp_y="0 : 1000 : 0" inkscape:vp_z="1 : 0.5 : 1" sodipodi:type="inkscape:persp3d"/>
    <inkscape:perspective id="perspective5706" inkscape:persp3d-origin="0.5 : 0.33333333 : 1" inkscape:vp_x="0 : 0.5 : 1" inkscape:vp_y="0 : 1000 : 0" inkscape:vp_z="1 : 0.5 : 1" sodipodi:type="inkscape:persp3d"/>
    <inkscape:perspective id="perspective5760" inkscape:persp3d-origin="0.5 : 0.33333333 : 1" inkscape:vp_x="0 : 0.5 : 1" inkscape:vp_y="0 : 1000 : 0" inkscape:vp_z="1 : 0.5 : 1" sodipodi:type="inkscape:persp3d"/>
    <inkscape:perspective id="perspective5812" inkscape:persp3d-origin="0.5 : 0.33333333 : 1" inkscape:vp_x="0 : 0.5 : 1" inkscape:vp_y="0 : 1000 : 0" inkscape:vp_z="1 : 0.5 : 1" sodipodi:type="inkscape:persp3d"/>
  </g>
  <sodipodi:namedview id="base" bordercolor="#ffffff" borderopacity="0.0" inkscape:current-layer="layer1" inkscape:cx="293.87639" inkscape:cy="523.82698" inkscape:document-units="px" inkscape:pageopacity="0.0" inkscape:pageshadow="0" inkscape:showpageshadow="false" inkscape:window-height="838" inkscape:window-maximized="1" inkscape:window-width="1440" inkscape:window-x="-8" inkscape:window-y="-8" inkscape:zoom="1.5834462" pagecolor="#ffffff" showborder="false" showgrid="false"/>
  <g id="layer1" inkscape:groupmode="layer" inkscape:label="Layer 1">
    <g id="use5395">
      <g id="text4357" class="cls-11" sodipodi:linespacing="100%">
        <text class="cls-6" transform="translate(1355.1 424)"><tspan x="0" y="0">Portier</tspan></text>
        <text class="cls-9" transform="translate(1355.1 424)"><tspan x="0" y="0">Portier</tspan></text>
      </g>
    </g>
    <g id="use4993">
      <path id="path4477" class="cls-14" d="M302.6,1024.9c-7.4-.2-27.5-4.6-38.9-11.6-9.4-5.8-18.5-15.3-22.9-25.5-9.1-20.8-14.8-44.6-17.8-67.6-3.8-28.5-4.7-58-2.5-86.7,2.9-38,9.8-76.1,17.8-113.4,4.3-20,14.9-38.7,19.1-58.6,3-14,4.3-26.8,7.7-40.8,7.2-29,14.7-54.1,24.5-82.6" sodipodi:nodetypes="cssssssss"/>
    </g>
    <g id="use4991">
      <path id="path4475" class="cls-16" d="M148.3,776.3c2.6-30.2,4.3-60.9,10.2-90.5,3.9-19.3,12.9-37.3,19.1-56.1,7.8-23.7,14.5-47.9,22.9-71.4,14-39,26-79.3,44.6-116,12-23.7,30.5-44.1,47.2-65,10.1-12.7,24.8-22.6,33.1-35.7,3.1-4.8-2-13.8,1.3-17.8,4.4-5.4,15-10.9,21.7-10.2,6.1.6,9.7,12.1,16.6,14,43.7,12.5,89.9,20.7,135.1,29.3,37.2,7.1,75.4,9.4,112.2,17.8,29.9,6.9,57.8,23.3,87.9,28,40.4,6.3,83-.4,123.6,5.1,34.5,4.7,67.6,21.8,102,25.5,25.1,2.7,52.7.5,76.5-6.4,15.7-4.6,32.7-15.4,42.1-28,8.5-11.5,9.4-29.5,11.5-44.6,1.7-12.1,2.6-25.2,0-37-2.9-12.9-13.9-24.1-16.6-37-2.5-12.2-2-26.3,1.3-38.2,3.1-11,9.8-22.3,17.8-30.6,11-11.3,25.4-20.3,39.5-28,59.4-32.6,120.1-65.3,181-93,5.4-2.5,14.3-1.3,17.8,2.5,5.8,6.4,5.6,18.5,6.2,28,.7,10.8-7.4,22-8.4,33.1-1.2,14.3-5.2,29.9,0,43.3,15.3,39.3-.2,40,2,47.8,1.4,5.1,13.1,8,18.2,5.4,4.3-2.1,8.3-8,7.6-13.4-1.9-16.3-10.9-39.6-13.1-56.4-1.2-9.6-.3-22.6,5.1-29.3,5.2-6.5,21.7-11.1,30.8-10.2,23.6,2.5,51.5,9.6,71.4,20.4,6,3.3,8.8,15,6.4,21.7-7.7,21-23.7,41.4-37,61.2-21.6,32.1-44.4,63.4-67.6,94.3-17.2,23-32.9,48-53.5,67.6-19.7,18.7-43.3,34.8-67.6,47.2-28.4,14.4-59.4,26.2-90.5,33.1-36,8-73.8,9.3-110.9,11.5-27.1,1.6-54.6,2.4-81.6,0-35.5-3.1-70.8-9.6-105.8-16.6-22.8-4.5-46.1-17.5-67.6-17.8-8.7-.1-14.6,15.1-22.9,16.6-8.6,1.5-19.8-3.3-28-7.6-5.4-2.9-6.8-12-12.7-14-88.8-30.3-180.7-58.7-271.5-82.8-8.2-2.2-18.4-.4-25.5,3.8-14.2,8.5-27.1,21.5-38.2,34.4-14.8,17.2-28.3,36.3-39.5,56.1-8.3,14.7-14.6,28.5-18.2,44.3-1.1,5,.7,12.4,4.1,15.6,3.4,3.2,11.8,5.1,15,8.3,3.2,3.2,4.6,11.5,3.5,16.6-13.3,59.9-27.6,118.7-46.5,176.5-1.9,5.9-9.6,9.2-15.3,11.5-6.2,2.4-16.2-1.7-20.4,2.5-6.8,6.8-11.4,19.8-12.7,30.6-2.9,23.6-2.6,48.7,0,72.7,2.1,19.8,6.7,40.2,14,58.6,5.4,13.5,11.1,25.7,20.2,37,3.6,4.4,12.1,5.4,14,10.2,2.7,6.7,3.3,18.2,0,24.2-2.7,5-11.5,8.8-17.8,8.9-14.9.3-26.6-4.9-41.9-7.6-13.2-2.4-28.4-2.1-39.5-7.6-5.9-2.9-10.1-11.4-11.5-17.8-1.2-5.9,1.8-13,3.8-19.1,1.8-5.4,4.4-9.9,3.6-15.3-2.6-18.9-12.1-37.7-13.8-57.4-2.5-28.4,2.6-57.8,5.1-86.7h0Z" sodipodi:nodetypes="cssssssssssssssssssssssssssssssssssssssssssssssssssssssssssssssssssssssss"/>
    </g>
    <path id="path3581" class="cls-20" d="M207.7,536.7c8.9-24.5,26.4-70.2,36.2-89.8,9.8-19.6,7-15.8,17-29.9,10-14.1,30.3-37.2,39.7-49.1s11.7-14.4,15.2-20.1c3.4-5.7,7.8-17.2,11.2-21.9s6-7,9.4-8.5c3.4-1.5,5.1-1.3,8.5-.4s6.9,4.2,13.4,7.1,8.1,3.7,16.1,6.3,82.3,18.3,110.7,23.7c28.5,5.3,37.4,5.1,59.8,8.9s44.6,5.2,69.7,11.6c25.1,6.5,59.8,22.6,80.4,26.8,20.6,4.2,21.4,3.4,40.6,4,19.3.6,55.5-1.1,76.4.9,20.9,2,32,6,51.4,10.7s43.2,14.8,63.4,17.4c20.2,2.7,38.8.7,54.5-1.8,15.7-2.5,27.6-6.1,38.4-11.6,10.8-5.5,17.4-12.3,23.7-20.1,6.2-7.8,10-18.4,12.1-27.2s2.5-17.3,1.8-28.1c-.8-10.8-3.9-21.2-7.1-33.9s-10.3-24.8-11.6-37.5.4-27.4,3.6-37.5,9.9-18.6,14.3-23.7,6.1-9,56.3-38,137.6-73.9,151.4-79c13.8-5.2,14.6-5.9,19.6-4.9s9.1,4.1,12.5,7.6,5.4,7.2,7.1,12.5,3.2,12.6,2.2,19.2-6,12.4-8,18.8-3.4,11.2-4,19.2.6,18.8,1.3,28.6c.7,9.8,2.8,22.8,3.1,29.9s-1.1,10.5-.4,14.3c.6,3.8,1.3,5.7,3.6,8,2.3,2.3,6,3.1,8.9,3.1,2.9,0,5.1-.9,7.6-2.7,2.5-1.8,3.9-5.2,4.9-9.4s-.5-8.2-2.7-15.6-9.5-42.4-9.4-54.5c0-12.1,1.1-10.6,3.1-15.2,2-4.6,4.2-9.1,8.5-11.6s8.7-2.1,15.2-2.2c6.5-.1,23.2,2.7,23.2,2.7,0,0,40.4,10.4,50,15.6s8.2,5,10.3,8.5,2.3,6.6,2.2,10.7c0,4.1-.3,6-3.1,13.4s-16.5,29.5-16.5,29.5l-100.9,139.3s-19.2,27.8-29.5,38.9c-10.3,11.1-18.1,18.1-31.3,27.7s-31.6,20.2-48.2,28.6c-16.6,8.4-33.9,15.6-51.4,21.4s-29,9.3-53.1,13.4c-24.1,4.1-62.8,7.1-91.5,8.5-28.8,1.4-55.9,2.2-80.8.4-24.9-1.8-38.7-4.4-68.3-10.3-29.6-5.9-106-28.6-109-27.2-3,1.4-3.7,1.6-5.8,4.5s-2.9,10.4-4.9,13c-2,2.5-1.6,2-4.5,3.1s-24-3.8-30.4-7.1-6.3-5.3-8.9-8-3.7-6.2-6.7-8.5-78.6-25.9-78.6-25.9l-184-54.5s-15.8-3.4-21.4-3.1-6.8.6-11.6,2.7c-4.8,2.1-16.1,11.2-16.1,11.2,0,0-18.1,17.2-27.2,28.1s-18.9,25.5-26.8,37.5-13.9,20-17.8,28.1c-3.9,8.1-6.6,20.3-7.4,23.7s-2.5,7.9-1.9,19.4c.6,11.5,6.3,18.2,8.9,24.3,9.3,18.8,9.5,24,5.1,42.8-1.5,6.9-1.2,7.5-4.7,18.8-3.5,11.3-34,115.4-34,115.4,0,0-2.2,10.7-4.5,13.4-2.3,2.7-2.7,2.2-6.3,3.1s-10.5-.1-14.7.4-7.5.4-10.7,2.7c-3.2,2.2-4.5,4.5-7.1,10.3s-5.2,13.2-6.7,24.6c-1.5,11.4-.5,29.5,0,43.3.5,13.8.6,25.2,3.1,39.3,2.6,14.1,8.1,33.1,13,44.7s8.9,18.8,13.8,25,10.8,9.4,13.8,12.5,3.5,2.7,4.9,5.8,2.1,7.9,2.2,12.5c.1,4.6-.2,11.4-1.8,14.7s-1.9,3.6-5.4,5.4c-3.4,1.7-4.8,2.4-15.2,2.2-10.4-.2-33.3-6.4-46-8.5s-23.3-1.4-29.9-4.5c-6.6-3.1-7.9-4.8-10.3-8.9s-2.9-9.6-2.7-14.7c.2-5.2,2.9-10.6,4-15.6s2.8-9.2,2.7-14.3-1.3-6.2-3.6-15.6-7-23.7-8.4-36.7-2.1-15.3-1-36.6,4.6-71.4,7.6-95.6c3-24.2,4.8-31.7,7.1-43.8s2.6-12.7,6.3-28.6,15.9-46.7,25.5-74.1c9.6-27.5,8.5-28.6,17.4-53.1h0Z" inkscape:connector-curvature="0" sodipodi:nodetypes="zzzzzzzzzzzzzzzzzzzzzzzzzzzzzzzzzzzzzzzzzzzzzzzczzzzcczzzzzzzzzzzzzzzcczzczzzzzcczczzzzzzzzzzzzzzzzzzzzzzzzzzzzzz"/>
    <path id="path4475-2" data-name="path4475" class="cls-19" d="M148.3,776.3c2.6-30.2,4.3-60.9,10.2-90.5,3.9-19.3,12.9-37.3,19.1-56.1,7.8-23.7,14.5-47.9,22.9-71.4,14-39,26-79.3,44.6-116,12-23.7,30.5-44.1,47.2-65,10.1-12.7,24.8-22.6,33.1-35.7,3.1-4.8-2-13.8,1.3-17.8,4.4-5.4,15-10.9,21.7-10.2,6.1.6,9.7,12.1,16.6,14,43.7,12.5,89.9,20.7,135.1,29.3,37.2,7.1,75.4,9.4,112.2,17.8,29.9,6.9,57.8,23.3,87.9,28,40.4,6.3,83-.4,123.6,5.1,34.5,4.7,67.6,21.8,102,25.5,25.1,2.7,52.7.5,76.5-6.4,15.7-4.6,32.7-15.4,42.1-28,8.5-11.5,9.4-29.5,11.5-44.6,1.7-12.1,2.6-25.2,0-37-2.9-12.9-13.9-24.1-16.6-37-2.5-12.2-2-26.3,1.3-38.2,3.1-11,9.8-22.3,17.8-30.6,11-11.3,25.4-20.3,39.5-28,59.4-32.6,120.1-65.3,181-93,5.4-2.5,14.3-1.3,17.8,2.5,5.8,6.4,5.6,18.5,6.2,28,.7,10.8-7.4,22-8.4,33.1-1.2,14.3-5.2,29.9,0,43.3,15.3,39.3-.2,40,2,47.8,1.4,5.1,13.1,8,18.2,5.4,4.3-2.1,8.3-8,7.6-13.4-1.9-16.3-10.9-39.6-13.1-56.4-1.2-9.6-.3-22.6,5.1-29.3,5.2-6.5,21.7-11.1,30.8-10.2,23.6,2.5,51.5,9.6,71.4,20.4,6,3.3,8.8,15,6.4,21.7-7.7,21-23.7,41.4-37,61.2-21.6,32.1-44.4,63.4-67.6,94.3-17.2,23-32.9,48-53.5,67.6-19.7,18.7-43.3,34.8-67.6,47.2-28.4,14.4-59.4,26.2-90.5,33.1-36,8-73.8,9.3-110.9,11.5-27.1,1.6-54.6,2.4-81.6,0-35.5-3.1-70.8-9.6-105.8-16.6-22.8-4.5-46.1-17.5-67.6-17.8-8.7-.1-14.6,15.1-22.9,16.6-8.6,1.5-19.8-3.3-28-7.6-5.4-2.9-6.8-12-12.7-14-88.8-30.3-180.7-58.7-271.5-82.8-8.2-2.2-18.4-.4-25.5,3.8-14.2,8.5-27.1,21.5-38.2,34.4-14.8,17.2-28.3,36.3-39.5,56.1-8.3,14.7-14.6,28.5-18.2,44.3-1.1,5,.7,12.4,4.1,15.6,3.4,3.2,11.8,5.1,15,8.3,3.2,3.2,4.6,11.5,3.5,16.6-13.3,59.9-27.6,118.7-46.5,176.5-1.9,5.9-9.6,9.2-15.3,11.5-6.2,2.4-16.2-1.7-20.4,2.5-6.8,6.8-11.4,19.8-12.7,30.6-2.9,23.6-2.6,48.7,0,72.7,2.1,19.8,6.7,40.2,14,58.6,5.4,13.5,11.1,25.7,20.2,37,3.6,4.4,12.1,5.4,14,10.2,2.7,6.7,3.3,18.2,0,24.2-2.7,5-11.5,8.8-17.8,8.9-14.9.3-26.6-4.9-41.9-7.6-13.2-2.4-28.4-2.1-39.5-7.6-5.9-2.9-10.1-11.4-11.5-17.8-1.2-5.9,1.8-13,3.8-19.1,1.8-5.4,4.4-9.9,3.6-15.3-2.6-18.9-12.1-37.7-13.8-57.4-2.5-28.4,2.6-57.8,5.1-86.7h0Z" sodipodi:nodetypes="cssssssssssssssssssssssssssssssssssssssssssssssssssssssssssssssssssssssss"/>
    <path id="path4477-2" data-name="path4477" class="cls-19" d="M240.7,982.9c-7.4-.2-27.5-4.6-38.9-11.6-9.4-5.8-18.5-15.3-22.9-25.5-9.1-20.8-14.8-44.6-17.8-67.6-3.8-28.5-4.7-58-2.5-86.7,2.9-38,9.8-76.1,17.8-113.4,4.3-20,14.9-38.7,19.1-58.6,3-14,4.3-26.8,7.7-40.8,7.2-29,14.7-54.1,24.5-82.6" sodipodi:nodetypes="cssssssss"/>
    <path id="path4325" class="cls-13" d="M1371.4,235c-21.3,31.7-44,62.7-67,93.6-17.8,23.8-33.1,47.9-51.6,65.3-18.3,17.4-40.6,32.6-63.4,44.2-27.3,13.9-56.9,25.1-86.3,31.7-31,6.9-58.8,8.6-97.3,10.5l1.7,35c38.7-1.9,69-3.7,103.1-11.2,32.9-7.3,65.1-19.6,94.6-34.6,25.7-13.1,50.5-30.1,71.7-50.1,22.8-21.6,38.9-47.6,55.5-69.8,23.2-31.1,46.3-62.6,68.1-95l-29.1-19.5Z"/>
    <g id="g3227">
      <g id="use2445">
        <g id="text2441" class="cls-11" sodipodi:linespacing="125%">
          <text class="cls-6" transform="translate(1012.1 875.5)"><tspan x="0" y="0">887 ft (270 m)</tspan></text>
          <text class="cls-9" transform="translate(1012.1 875.5)"><tspan x="0" y="0">887 ft (270 m)</tspan></text>
        </g>
      </g>
      <g id="text2441-2" data-name="text2441" class="cls-11" sodipodi:linespacing="125%">
        <text class="cls-6" transform="translate(1011.9 875.5)"><tspan x="0" y="0">887 ft (270 m)</tspan></text>
      </g>
      <path id="path2423" class="cls-7" d="M925.1,873.4v21h360v-21h-4v17h-85.3v-7.6h-4v7.6h-84.9v-13.1h-4v13.1h-85.1v-7.6h-4v7.6h-84.7v-17h-4Z"/>
    </g>
    <g id="g3804">
      <g id="text3180" class="cls-11" inkscape:export-xdpi="90.015755" inkscape:export-ydpi="90.015755">
        <text class="cls-4" transform="translate(1144.7 762)"><tspan x="0" y="0">N</tspan></text>
        <text class="cls-12" transform="translate(1144.7 762)"><tspan x="0" y="0">N</tspan></text>
      </g>
      <path id="path2745" class="cls-5" d="M1340.8,674.2l-51.3,94-1.5-1.3-.3-29.4-29,4.8-1.5-1.3,83.7-66.8h0Z" inkscape:export-filename="D:\Images\Race Tracks\text3180.png" inkscape:export-xdpi="90.015755" inkscape:export-ydpi="90.015755" inkscape:transform-center-x="3.4965061" inkscape:transform-center-y="0.81310587"/>
    </g>
    <path id="path4351" class="cls-18" d="M204,977.7s-17.6-13-21.5-22.7c-2.3-5.7-1.4-12.4,0-18.3,1-4.1,3.4-6.1,5.7-11.4,2.3-5.3,8.6-10.2,10.7-19.6,2.1-9.4,2.2-11.3-1.9-36-4.1-24.7-3.4-49.4-2.5-69.5.9-20.1,2.3-26.8,6.3-50.5s13.8-66.2,19.6-91.6c5.7-25.4,12.5-41.7,14.5-60.6s-.8-37.2-1.3-51.8c-.4-14.6-2.3-26.1-1.3-36,1-9.9-.2-14.5,4.4-27.8,4.6-13.3,15.5-38.5,26.5-56.2s28.5-36.6,39.2-49.9c10.6-13.3,17-17.3,24.6-24,7.7-6.7,13.1-9.7,20.2-12s9.7-2.4,21.5-1.9c11.8.5,62.5,8.2,62.5,8.2" inkscape:connector-curvature="0" sodipodi:nodetypes="caazzzzzzzzzzzzzzzc"/>
    <path id="path5133" class="cls-22" d="M204.2,548.5c14-39,22.5-69.5,41-106.2,12-23.7,30.5-44.1,47.2-65,10.1-12.7,13.7-13.5,22.1-26.5,3.1-4.8,9.1-21.2,12.3-25.2,4.4-5.4,9.3-10.4,16-9.8,6.1.6,15.4,9.9,22.3,11.8,43.7,12.5,89.9,20.7,135.1,29.3,37.2,7.1,75.4,9.4,112.2,17.8,29.9,6.9,57.8,23.3,87.9,28,40.4,6.3,83-.4,123.6,5.1,34.5,4.7,67.6,21.8,102,25.5,25.1,2.7,52.7.5,76.5-6.4,15.7-4.6,32.7-15.4,42.1-28,8.5-11.5,9.4-18.2,11.5-33.2,1.7-12.1.7-27.4-1.9-39.2-2.9-12.9-12.1-33.2-14.7-46.1-2.5-12.2-2-26.3,1.3-38.2,3.1-11,9.8-22.3,17.8-30.6,11-11.3,25.4-20.3,39.5-28,48.3-26.5,97.5-53.1,146.9-77" inkscape:connector-curvature="0" sodipodi:nodetypes="csssssssssssssssssssc"/>
    <path id="path5131" class="cls-21" d="M270.6,699.2c-3.2,10.9-5.4,22.2-10.1,32.5-4.6,10-5.4,11.2-15.3,11.5-6.6.2-16.5.5-20.4,2.5-8.6,4.4-11.4,19.8-12.7,30.6-2.9,23.6-2.6,48.7,0,72.7,2.1,19.8,6.7,40.2,14,58.6,5.4,13.5,9.5,20,18.6,31.3,3.6,4.4,14.6,10.8,15.6,15.9,2.3,11.2,1,18.6,0,24.2-1,5.6-11.5,8.8-17.8,8.9-14.9.3-26.6-4.9-41.9-7.6-13.2-2.4-28.4-2.1-39.5-7.6-5.9-2.9-10.1-11.4-11.5-17.8-1.2-5.9,1.8-13,3.8-19.1,1.8-5.4,4.4-9.9,3.6-15.3-2.6-18.9-12.1-33.3-13.8-57.4-2.1-28.4,2-55.3,4.5-84.1,2.6-30.2,4.9-63.4,10.8-93,3.9-19.3,10.6-38.1,26.3-80.2,4-10.9,15.1-42.7,18.5-53.8" inkscape:connector-curvature="0" sodipodi:nodetypes="csssssssssssssssssssc"/>
    <path id="path5127" class="cls-17" d="M1244.8,106.6c11.3-5.5,21.6-15.1,34.1-16,3.2-.2,10.5,1.9,14.1,5.7,5.8,6.4,12,12.5,12.2,25.5.3,21.9-9.7,21.3-10.6,32.5-1.2,14.3-2.6,29.1,0,43.3,5.5,30.5-.5,37.2,3.9,48.4,1.9,4.9,11.2,7.3,16.3,4.8,4.3-2.1,8.3-8,7.6-13.4-1.9-16.3-9-45.3-11.2-62.1-1.2-9.6-.8-16,3.2-23.6,6.8-12.8,21.7-11.1,30.8-10.2,23.6,2.5,51.5,9.6,71.4,20.4,6,3.3,8.8,15,6.4,21.7-7.7,21-23.7,41.4-37,61.2-21.6,32.1-44.4,63.4-67.6,94.3-17.2,23-32.9,48-53.5,67.6-19.7,18.7-43.3,34.8-67.6,47.2-28.4,14.4-59.4,26.2-90.5,33.1-36,8-73.8,9.3-110.9,11.5-27.1,1.6-54.6,2.4-81.6,0-35.5-3.1-70.8-9.6-105.8-16.6-22.8-4.5-47.3-18.2-68.8-18.5-8.7-.1-7.3,17-15.7,18.5-8.6,1.5-25.8-4.5-34-8.9-5.4-2.9-6.8-12-12.7-14-88.8-30.3-180.7-58.7-271.5-82.8-8.2-2.2-18.4-.4-25.5,3.8-14.2,8.5-27.1,21.5-38.2,34.4-14.8,17.2-28.3,36.3-39.5,56.1-8.3,14.7-14.5,30.9-18,46.7-1.1,5,2.7,17.6,4.6,22.3,3.1,7.4,10.2,20.3,11.6,24.6,3.2,9.2.3,23.8-.8,28.9-10.8,48.7-15.3,59-29.4,106.3" inkscape:connector-curvature="0" sodipodi:nodetypes="csssssssssssssssssssssssssssssssssc"/>
    <g class="cls-26">
      <g id="g4801">
        <g class="cls-28">
          <path id="path3463" class="cls-8" d="M165.8,556.5l-15.8-3.8,17.9-39.4-2.2,43.3Z" inkscape:flatsided="true" inkscape:randomized="0" inkscape:rounded="0" sodipodi:arg1="0.52359878" sodipodi:arg2="1.5707963" sodipodi:cx="1683.6964" sodipodi:cy="1391.4535" sodipodi:r1="14.134234" sodipodi:r2="7.0671172" sodipodi:sides="3" sodipodi:type="star"/>
        </g>
        <g class="cls-29">
          <polygon id="rect3457" class="cls-23" points="242.5 546.6 238.6 562.9 171.4 546.9 175.3 530.5 242.5 546.6"/>
        </g>
        <polygon id="rect4262" class="cls-27" points="191.1 325.7 191.1 325.7 191.1 325.7 191.1 325.7"/>
      </g>
    </g>
    <g id="g5407">
      <g id="use5385">
        <g id="text4337" class="cls-11" sodipodi:linespacing="100%">
          <text class="cls-6" transform="translate(349.8 277.3)"><tspan x="0" y="0">Sainte Devote</tspan></text>
          <text class="cls-9" transform="translate(349.8 277.3)"><tspan x="0" y="0">Sainte Devote</tspan></text>
        </g>
      </g>
      <g id="g3247-42-0">
        <path id="path3245-77-0" class="cls-25" d="M339.5,278.9c0,14.8-12,26.8-26.8,26.8s-26.8-12-26.8-26.8,12-26.8,26.8-26.8,26.8,12,26.8,26.8Z" sodipodi:cx="1185.03" sodipodi:cy="1020.305" sodipodi:rx="24.450413" sodipodi:ry="24.450413" sodipodi:type="arc"/>
        <g id="text3219-93-6" class="cls-11">
          <text class="cls-1" transform="translate(298.8 297.5)"><tspan x="0" y="0">1</tspan></text>
        </g>
      </g>
      <g id="text4337-2" data-name="text4337" class="cls-11" sodipodi:linespacing="100%">
        <text class="cls-6" transform="translate(349.8 277.3)"><tspan x="0" y="0">Sainte Devote</tspan></text>
      </g>
    </g>
    <g id="g5416">
      <g id="use5387">
        <g id="text4341" class="cls-11" sodipodi:linespacing="100%">
          <text class="cls-6" transform="translate(664.6 320.5)"><tspan x="0" y="0">Beau Rivage</tspan></text>
          <text class="cls-9" transform="translate(664.6 320.5)"><tspan x="0" y="0">Beau Rivage</tspan></text>
        </g>
      </g>
      <g id="g3247-42-0-7">
        <path id="path3245-77-0-4" class="cls-25" d="M746.6,363.1c0,14.8-12,26.8-26.8,26.8s-26.8-12-26.8-26.8,12-26.8,26.8-26.8,26.8,12,26.8,26.8Z" sodipodi:cx="1185.03" sodipodi:cy="1020.305" sodipodi:rx="24.450413" sodipodi:ry="24.450413" sodipodi:type="arc"/>
        <g id="text3219-93-6-0" class="cls-11">
          <text class="cls-1" transform="translate(705.9 381.7)"><tspan x="0" y="0">2</tspan></text>
        </g>
      </g>
      <g id="text4341-2" data-name="text4341" class="cls-11" sodipodi:linespacing="100%">
        <text class="cls-6" transform="translate(664.6 320.5)"><tspan x="0" y="0">Beau Rivage</tspan></text>
      </g>
    </g>
    <g id="g5425">
      <g id="use5389">
        <g id="text4345" class="cls-11" sodipodi:linespacing="100%">
          <text class="cls-6" transform="translate(893.2 334.6)"><tspan x="0" y="0">Massenet</tspan></text>
          <text class="cls-9" transform="translate(893.2 334.6)"><tspan x="0" y="0">Massenet</tspan></text>
        </g>
      </g>
      <g id="g3247-42-0-8">
        <path id="path3245-77-0-8" class="cls-25" d="M1032.8,376c0,14.8-12,26.8-26.8,26.8s-26.8-12-26.8-26.8,12-26.8,26.8-26.8,26.8,12,26.8,26.8Z" sodipodi:cx="1185.03" sodipodi:cy="1020.305" sodipodi:rx="24.450413" sodipodi:ry="24.450413" sodipodi:type="arc"/>
        <g id="text3219-93-6-2" class="cls-11">
          <text class="cls-1" transform="translate(992.1 394.6)"><tspan x="0" y="0">3</tspan></text>
        </g>
      </g>
      <g id="text4345-2" data-name="text4345" class="cls-11" sodipodi:linespacing="100%">
        <text class="cls-6" transform="translate(893.2 334.6)"><tspan x="0" y="0">Massenet</tspan></text>
      </g>
    </g>
    <g id="g5434">
      <g id="use5391">
        <g id="text4349" class="cls-11" sodipodi:linespacing="100%">
          <text class="cls-6" transform="translate(944.6 222.3)"><tspan x="0" y="0">Casino</tspan></text>
          <text class="cls-9" transform="translate(944.6 222.3)"><tspan x="0" y="0">Casino</tspan></text>
        </g>
      </g>
      <g id="g3247-42-0-5">
        <path id="path3245-77-0-1" class="cls-25" d="M1111.2,256.8c0,14.8-12,26.8-26.8,26.8s-26.8-12-26.8-26.8,12-26.8,26.8-26.8,26.8,12,26.8,26.8Z" sodipodi:cx="1185.03" sodipodi:cy="1020.305" sodipodi:rx="24.450413" sodipodi:ry="24.450413" sodipodi:type="arc"/>
        <g id="text3219-93-6-7" class="cls-11">
          <text class="cls-1" transform="translate(1070.5 275.4)"><tspan x="0" y="0">4</tspan></text>
        </g>
      </g>
      <g id="text4349-2" data-name="text4349" class="cls-11" sodipodi:linespacing="100%">
        <text class="cls-6" transform="translate(944.6 222.3)"><tspan x="0" y="0">Casino</tspan></text>
      </g>
    </g>
    <g id="g5457">
      <g id="g5443">
        <g id="g3247-42-0-52">
          <path id="path3245-77-0-7" class="cls-25" d="M1263.2,174.9c0,14.8-12,26.8-26.8,26.8s-26.8-12-26.8-26.8,12-26.8,26.8-26.8,26.8,12,26.8,26.8Z" sodipodi:cx="1185.03" sodipodi:cy="1020.305" sodipodi:rx="24.450413" sodipodi:ry="24.450413" sodipodi:type="arc"/>
          <g id="text3219-93-6-6" class="cls-11">
            <text class="cls-1" transform="translate(1222.5 193.5)"><tspan x="0" y="0">5</tspan></text>
          </g>
        </g>
        <path id="path4345-4" class="cls-3" d="M1281.6,107.7l-15.4,46.6-15.3-10,30.7-36.6Z" inkscape:flatsided="true" inkscape:randomized="0" inkscape:rounded="-1.9081958e-16" sodipodi:arg1="0.87605805" sodipodi:arg2="1.9232556" sodipodi:cx="-1437.0918" sodipodi:cy="419.79074" sodipodi:r1="49.013302" sodipodi:r2="47.942242" sodipodi:sides="3" sodipodi:type="star"/>
      </g>
      <g id="g5672">
        <g id="use5393">
          <g id="text4353" class="cls-11" sodipodi:linespacing="100%">
            <text class="cls-6" transform="translate(993 100.7)"><tspan x="0" y="0">Mirabeau Haute</tspan></text>
            <text class="cls-9" transform="translate(993 100.7)"><tspan x="0" y="0">Mirabeau Haute</tspan></text>
          </g>
        </g>
        <g id="text4353-2" data-name="text4353" class="cls-11" sodipodi:linespacing="100%">
          <text class="cls-6" transform="translate(993 100.7)"><tspan x="0" y="0">Mirabeau Haute</tspan></text>
        </g>
        <path id="path4345-4-9" class="cls-3" d="M1252.3,87.3l-47.6,12,.3-18.3,47.3,6.3Z" inkscape:flatsided="true" inkscape:randomized="0" inkscape:rounded="-1.9081958e-16" sodipodi:arg1="0.87605805" sodipodi:arg2="1.9232556" sodipodi:cx="-1437.0918" sodipodi:cy="419.79074" sodipodi:r1="49.013302" sodipodi:r2="47.942242" sodipodi:sides="3" sodipodi:type="star"/>
      </g>
    </g>
    <g id="g5641">
      <g id="g3247-42-0-2">
        <path id="path3245-77-0-79" class="cls-25" d="M1412.9,372.8c0,14.8-12,26.8-26.8,26.8s-26.8-12-26.8-26.8,12-26.8,26.8-26.8,26.8,12,26.8,26.8Z" sodipodi:cx="1185.03" sodipodi:cy="1020.305" sodipodi:rx="24.450413" sodipodi:ry="24.450413" sodipodi:type="arc"/>
        <g id="text3219-93-6-5" class="cls-11">
          <text class="cls-1" transform="translate(1372.2 391.4)"><tspan x="0" y="0">8</tspan></text>
        </g>
      </g>
      <path id="path4345-4-72" class="cls-2" d="M1433.3,190l15.1,45.3,5.6-2.6c5.4,11,6.3,20,4.3,28.1-2.1,8.7-7.7,16.5-14.8,24.4-14.4,15.9-35.3,32.3-46.4,58.8l2.8,1.2c10.8-25.6,31.3-41.7,45.9-57.9,7.3-8.1,13.2-16.2,15.6-25.7,2.1-8.8,1.1-18.5-4.5-30.1l8.2-3.8-31.7-37.5h0Z"/>
      <g id="text4357-2" data-name="text4357" class="cls-11" sodipodi:linespacing="100%">
        <text class="cls-6" transform="translate(1355.1 424)"><tspan x="0" y="0">Portier</tspan></text>
      </g>
    </g>
    <g id="g5468">
      <g id="use5397">
        <g id="text4361" class="cls-11" sodipodi:linespacing="100%">
          <text class="cls-6" transform="translate(1163.3 564.9)"><tspan x="0" y="0">Tunnel</tspan></text>
          <text class="cls-9" transform="translate(1163.3 564.9)"><tspan x="0" y="0">Tunnel</tspan></text>
        </g>
      </g>
      <g id="g3247-42-0-33">
        <path id="path3245-77-0-41" class="cls-25" d="M1222.3,508.4c0,14.8-12,26.8-26.8,26.8s-26.8-12-26.8-26.8,12-26.8,26.8-26.8,26.8,12,26.8,26.8Z" sodipodi:cx="1185.03" sodipodi:cy="1020.305" sodipodi:rx="24.450413" sodipodi:ry="24.450413" sodipodi:type="arc"/>
        <g id="text3219-93-6-13" class="cls-11">
          <text class="cls-1" transform="translate(1181.6 527)"><tspan x="0" y="0">9</tspan></text>
        </g>
      </g>
      <g id="text4361-2" data-name="text4361" class="cls-11" sodipodi:linespacing="100%">
        <text class="cls-6" transform="translate(1163.3 564.9)"><tspan x="0" y="0">Tunnel</tspan></text>
      </g>
    </g>
    <g id="g5367">
      <path id="path5852" class="cls-15" d="M698.7,442.6l-.2.9.6.7h.3c0,0,3.2,0,3.2,0h2.8c0,0,.8-.3.8-.3l.2-.9-.6-.7h-.3c0,0-2.8-.2-2.8-.2h-3.2s-.8.4-.8.4ZM690.7,442.3l-3.2.2-.8.4v.9c0,0,.5.6.5.6h.3s3.2-.1,3.2-.1h2.8c0,0,.8-.5.8-.5v-.9c.1,0-.5-.6-.5-.6h-.3c0,0-2.8,0-2.8,0ZM710.8,442.9l-.2.9.6.7h.3c0,0,2.9.3,2.9.3h0l3,.3.8-.3.2-.9-.5-.7h-.3c0,0-3.1-.4-3.1-.4h0l-2.9-.2-.8.3ZM679.3,443h0l-3.7.4h-.1s-.8.5-.8.5v.9s.7.6.7.6h.4l3.6-.4h0l2.2-.2.8-.5v-.9c0,0-.6-.6-.6-.6h-.3s-2.2.2-2.2.2ZM722.8,444.1l-.3.9.5.7h.3c0,.1,2,.4,2,.4h0l3.5.6h.3s.9-.2.9-.2l.3-.8-.5-.8h-.3c0-.1-.3-.2-.3-.2h0l-3.6-.6-2.1-.3-.8.3ZM668.5,444.4h0l-3.4.6-1.5.3-.7.5v.9l.7.5h.4l1.4-.3,3.4-.6,1-.2.7-.5v-.9s-.7-.5-.7-.5h-.4s-1,.1-1,.1ZM734.6,446.2l-.3.8.5.8h.3c0,.1.7.3.7.3h0l3.3.8h0l1.8.5.9-.2.4-.8-.4-.8-.3-.2-1.8-.5h0l-3.3-.8h0l-.7-.2-.9.2ZM657.6,446.4l-2.5.6h0l-3.1.8h-.2c0,0-.7.7-.7.7v.9c0,0,.8.5.8.5h.4s.2,0,.2,0l3.1-.8h0s2.5-.6,2.5-.6l.7-.6v-.9c0,0-.8-.5-.8-.5h-.4ZM746.3,449.2l-.4.8.4.8.3.2,2.1.7,3,1h0l.5.2h.9c0,0,.5-.9.5-.9l-.4-.8-.3-.2-.6-.2h0l-3.1-1h0l-2.1-.7-.9.2ZM646,449.6h0s-2.9,1-2.9,1h0l-2.7,1-.6.6.2.9.8.4h.3c0,0,2.7-1,2.7-1h0l2.9-1h0s0,0,0,0l.7-.6v-.9c-.1,0-.9-.5-.9-.5h-.4ZM757.7,453.2l-.5.8.3.8.3.2,2.7,1.1,2.8,1.2h.9s.5-.8.5-.8l-.3-.9-.3-.2h0s-2.8-1.3-2.8-1.3h0l-2.7-1.1h-.9ZM634.6,453.7h0s0,0,0,0l-2.6,1.1h0s-2.6,1.2-2.6,1.2h0s-.2.2-.2.2l-.6.7.2.9.8.3h.3c0,0,.2-.2.2-.2h0s2.5-1.2,2.5-1.2h0l2.6-1.1h0s.6-.7.6-.7l-.2-.9-.8-.4h-.3ZM768.1,458.9l.2.8.3.2h0s2.6,1.4,2.6,1.4h0l2.5,1.4h0s.9,0,.9,0l.6-.7-.2-.9-.2-.2h0s0,0,0,0l-2.5-1.5h0l-2.6-1.4h0s0,0,0,0h-.9l-.5.7ZM623.7,458.9l-1.7.9h0l-2.3,1.3h0s-1.2.8-1.2.8l-.5.8.3.8.8.2.3-.2,1.2-.7h0l2.2-1.3,1.7-.9.5-.8-.3-.8-.8-.3h-.3ZM778.5,464.8l.2.9.2.2,2.1,1.4h0l2.2,1.6h0l.5.4.9.2.7-.6v-.9c-.1,0-.3-.2-.3-.2l-.6-.4-2.3-1.6-2.1-1.4h-.9c0-.1-.6.5-.6.5ZM613.4,465.3l-.3.2-2,1.5h0s-2,1.5-2,1.5l-.5.4-.4.8.4.8h.9c0,.1.3,0,.3,0l.5-.4h0s1.9-1.5,1.9-1.5h0l2-1.5.3-.2.4-.8-.4-.8-.9-.2h-.3ZM788.2,471.8v.9c0,0,.3.2.3.2l1.2,1h0s2,1.8,2,1.8h0s1.3,1.2,1.3,1.2l.9.2.7-.6v-.9s-.2-.2-.2-.2l-1.3-1.2-2-1.8h0l-1.2-1-.9-.2-.7.6ZM603.9,472.8l-.4.4-1.7,1.6-1.7,1.6h0s-.5.6-.5.6l-.3.8.5.7h.9l.3-.2.5-.6h0s1.6-1.6,1.6-1.6h0l1.7-1.6h0s.4-.4.4-.4l.3-.8-.5-.8h-.9c0,0-.3,0-.3,0ZM797.2,479.8v.9s.2.3.2.3h0c0,0,1.8,1.9,1.8,1.9h0l1.7,1.8.6.6.8.3.8-.5v-.9c0,0-.1-.3-.1-.3l-.5-.6h0l-1.7-1.9-1.8-1.8h0s0,0,0,0l-.8-.3-.7.5ZM595.8,481.3l-.3.2-1.4,1.7h0s-1.3,1.7-1.3,1.7h0l-1,1.3-.2.9.6.7h.9c0,0,.2-.3.2-.3l1-1.3h0l1.3-1.7h0s1.4-1.7,1.4-1.7l.2-.9-.6-.7h-.9ZM805.2,488.6v.9c-.1,0,0,.3,0,.3l.4.4h0s1.4,1.9,1.4,1.9h0s1.4,1.9,1.4,1.9h0s.3.5.3.5l.8.4.8-.4.2-.9-.2-.3-.3-.5h0s-1.4-2-1.4-2h0l-1.5-1.9h0l-.4-.5-.8-.4-.8.4ZM588.6,491.1l-.2.2-.4.7-1.1,1.8h0s-1,1.8-1,1.8h0s-.5,1-.5,1v.9l.7.6.9-.2.2-.3.5-1,1-1.8,1-1.7h0s.4-.7.4-.7v-.9c0,0-.6-.6-.6-.6l-.9.2ZM812.2,498.3l-.2.9v.3c.1,0,.3.3.3.3h0s1.2,1.9,1.2,1.9h0s1.1,1.9,1.1,1.9h0s.5.9.5.9l.8.5.8-.3.3-.8v-.3c0,0-.6-.9-.6-.9h0s-1.1-2-1.1-2h0s-1.2-2-1.2-2l-.2-.4-.8-.5-.8.3ZM583,501.9l-.2.3-.3.7h0l-.7,1.8h0s-.7,1.8-.7,1.8l-.5,1.4v.9c.1,0,.9.4.9.4l.8-.4.2-.3.5-1.4h0s.6-1.7.6-1.7h0s.7-1.7.7-1.7h0s.3-.7.3-.7v-.9c0,0-.8-.5-.8-.5l-.8.3ZM818,508.8l-.3.8v.3c0,0,.8,1.5.8,1.5h0s.8,1.9.8,1.9l.8,1.9h0,0c0,.1.7.7.7.7l.9-.2.4-.8v-.3c0,0-.1-.1-.1-.1h0s-.8-2-.8-2h0s-.8-2-.8-2l-.7-1.5-.7-.6-.8.2ZM579.2,513.4v.3c-.1,0-.8,3.2-.8,3.2h0c0,0-.4,2.7-.4,2.7l.3.9.8.3.8-.5v-.3c.1,0,.5-2.6.5-2.6l.6-3.2-.2-.8-.8-.3-.8.5ZM822.3,519.9l-.5.8v.3c0,0,.6,1.8.6,1.8h0l.5,1.8h0l.4,1.8h0s0,.4,0,.4l.6.7h.9s.5-.7.5-.7v-.7c0,0,0,0,0,0l-.4-1.8h0s-.5-1.9-.5-1.9h0s-.5-1.8-.5-1.8l-.6-.7h-.9ZM577.6,525.5v.3c0,0,0,1.3,0,1.3h0c0,0,0,2.9,0,2.9h0c0,0,.1,1.9.1,1.9l.4.8h.9c0,0,.6-.6.6-.6v-.3s0-1.8,0-1.8h0c0,0,0-2.8,0-2.8h0c0,0,0-1.3,0-1.3l-.4-.8-.9-.2-.7.6ZM824.3,532.2v1.1c0,0,0,0,0,0l.2,1.6h0s0,1.7,0,1.7h0s0,1.8,0,1.8l.4.8h.9c0,.1.7-.5.7-.5v-.3c0,0,0-1.8,0-1.8h0s0-1.7,0-1.7h0s-.2-1.7-.2-1.7h0s0-.8,0-.8l-.5-.8h-.9c0,0-.6.6-.6.6ZM578.4,537.6v1.1c0,0,0,0,0,0l.5,2.8h0s.5,2.4.5,2.4l.6.7h.9s.5-.8.5-.8v-.3l-.5-2.3h0s-.5-2.8-.5-2.8h0v-.7c-.1,0-.6-.8-.6-.8h-.9s-.6.7-.6.7ZM824.7,544.1v.3c0,0-.1,3.5-.1,3.5v2.5c0,0,.3.8.3.8l.9.2.7-.6v-.3c0,0,.2-2.5.2-2.5v-3.5c0,0-.3-.8-.3-.8l-.9-.2-.7.6ZM581.4,548.6l-.5.8v.3s.1.4.1.4h0s.9,2.8.9,2.8h0s.9,2.5.9,2.5l.7.6h.9c0-.1.4-.9.4-.9v-.3c0,0-.9-2.5-.9-2.5h0s-.9-2.8-.9-2.8h0s0-.3,0-.3l-.6-.7h-.9ZM824.3,556v.3c0,0-.5,4.4-.5,4.4h0s-.2,1.6-.2,1.6l.3.8.8.2.7-.5v-.3c.1,0,.3-1.5.3-1.5h0s.4-4.5.4-4.5l-.3-.8-.9-.2-.7.6ZM585.4,560l-.3.8v.3c0,0,.2.4.2.4h0s1.3,2.8,1.3,2.8h0s1.1,2.3,1.1,2.3l.7.5.9-.2.3-.8v-.3c0,0-1.2-2.3-1.2-2.3h0s-1.2-2.7-1.2-2.7h0s-.1-.4-.1-.4l-.7-.6-.9.2ZM823,567.9v.3c-.1,0-.3,1.7-.3,1.7h0s-.7,4.2-.7,4.2l.2.9.8.3.8-.5v-.3c.1,0,.8-4.2.8-4.2h0s.2-1.7.2-1.7l-.3-.8-.8-.3-.7.5ZM590.7,570.8l-.3.8v.3c.1,0,.5.7.5.7h0s1.6,2.7,1.6,2.7h0s1.1,1.7,1.1,1.7l.8.5.8-.3.2-.8v-.3c-.1,0-1.2-1.7-1.2-1.7l-1.6-2.7h0s-.4-.7-.4-.7l-.8-.5-.8.3ZM820.9,579.6v.3c-.1,0-1.1,4.1-1.1,4.1h0s-.5,1.7-.5,1.7l.2.9.8.4.8-.4v-.3c.1,0,.6-1.7.6-1.7h0s1-4.2,1-4.2l-.2-.9-.8-.3-.8.4ZM597.1,581l-.2.9.2.3.9,1.4h0l1.9,2.7h0l.6.8.8.4.8-.4v-.9c.1,0,0-.3,0-.3l-.7-.8-1.9-2.6h0s-.9-1.4-.9-1.4l-.8-.4-.8.4ZM604.4,590.6v.9c0,0,0,.3,0,.3l1.9,2.2h0l2.1,2.3.8.3.8-.5v-.9c0,0-.1-.3-.1-.3l-2-2.3-1.9-2.2-.8-.3-.8.4ZM817.8,591.1l-.2.3-.7,2h0s-.8,2.3-.8,2.3h0s-.5,1.2-.5,1.2v.9c0,0,.8.5.8.5l.8-.3.2-.3.5-1.2h0s.8-2.4.8-2.4h0s.7-2.1.7-2.1v-.9c-.1,0-.9-.4-.9-.4l-.8.4ZM612.4,599.5v.9c0,0,.2.3.2.3l.8.8,2.5,2.4h0s1.1,1,1.1,1l.8.2.7-.5v-.9l-.2-.3-1-1h0s-2.4-2.4-2.4-2.4l-.8-.8-.8-.3-.7.5ZM813.6,602.3l-.2.3v.2c0,0,0,0,0,0l-1,2.2h0s-1.1,2.2-1.1,2.2h0s-.3.7-.3.7v.9l.7.5.8-.2.2-.3.3-.6h0s1.1-2.3,1.1-2.3l1.1-2.3h0s0-.2,0-.2v-.9c0,0-.8-.5-.8-.5l-.8.3ZM621.1,607.8v.9s.2.2.2.2l2.3,2h0l2.3,1.9.9.2.7-.6v-.9c0,0-.3-.2-.3-.2l-2.3-1.9h0l-2.2-2-.9-.2-.7.6ZM808.2,612.9l-.2.2-.4.8-1.3,2.1-1.4,2.1h0s-.2.9-.2.9l.6.6h.9c0-.1.2-.3.2-.3h0s0,0,0,0l1.4-2.1h0l1.3-2.2h0s.4-.8.4-.8v-.9c0,0-.6-.6-.6-.6l-.9.2ZM630.4,615.5v.9c0,0,.3.2.3.2l1.3,1h0l2.9,2.1h0l.6.4h.9c0,.1.6-.5.6-.5v-.9c-.1,0-.4-.2-.4-.2l-.6-.4-2.9-2.1h0s-1.3-1-1.3-1l-.9-.2-.7.6ZM640.2,622.4l.2.9.2.2.4.3,3.1,2h0l1.6,1h.9c0,0,.6-.6.6-.6l-.2-.9-.3-.2-1.6-1h0s-3-2-3-2h0l-.4-.2h-.9c0,0-.6.5-.6.5ZM801.5,622.6l-.3.2-1,1.2h0s-1.7,1.9-1.7,1.9h0s-1.2,1.3-1.2,1.3l-.2.8.5.7h.9l.3-.2,1.2-1.3h0s1.7-2,1.7-2h0s1.1-1.3,1.1-1.3l.2-.9-.6-.7h-.9ZM650.4,628.8l.2.9.2.2,2.7,1.5,2.6,1.4h.9s.6-.7.6-.7l-.2-.8-.3-.2-2.6-1.4h0s-2.7-1.5-2.7-1.5h-.9s-.6.7-.6.7ZM793.1,631.4h0s-1.9,1.7-1.9,1.7h0s-2,1.6-2,1.6h0s-.5.4-.5.4l-.4.8.4.8.9.2.3-.2.5-.4h0s2.1-1.7,2.1-1.7h0s2-1.7,2-1.7h0s.3-.9.3-.9l-.5-.8h-.9c0,0-.3.1-.3.1ZM661.5,633.7l-.5.7.2.8.3.2,1.9.9,3.4,1.5h.2c0,0,.9,0,.9,0l.5-.8-.3-.8-.3-.2h-.1c0,0-3.3-1.6-3.3-1.6h0l-1.9-.9h-.9ZM783.7,638.5l-1.2.8h0s-2.3,1.4-2.3,1.4h0l-1.5.8-.5.8.2.8.8.3h.3c0,0,1.6-.9,1.6-.9h0l2.4-1.4h0s1.2-.8,1.2-.8l.4-.8-.3-.8-.9-.2h-.3ZM672.4,638.6l-.5.8.3.8.3.2,1.2.5h0l3.5,1.3h0l.9.3h.9c0,0,.4-.9.4-.9l-.3-.8-.3-.2-.9-.3-3.5-1.3h0s-1.2-.5-1.2-.5h-.9ZM683.7,642.7l-.4.8.4.8.3.2.5.2,3.6,1.1h0l1.6.5.9-.2.4-.8-.4-.8-.3-.2-1.6-.5h0l-3.6-1.1h0l-.5-.2h-.9ZM773.2,644l-.8.3h0s-2.7,1.1-2.7,1.1h0s-2.1.7-2.1.7l-.6.7v.9c.1,0,.9.4.9.4h.4c0,0,2.1-.8,2.1-.8h0l2.8-1.1h0l.7-.3.6-.7-.2-.9-.8-.3h-.3ZM695.1,646.1l-.3.8.4.8.3.2,3.6.8h0s2.3.5,2.3.5l.9-.2.3-.8-.5-.8h-.3c0-.1-2.3-.6-2.3-.6l-3.6-.8-.9.2ZM761.9,647.8l-.9.2h0l-3.1.7h0l-1.8.3-.7.5v.9l.7.5h.4s1.8-.4,1.8-.4h0l3.1-.7h0l.9-.2.7-.6v-.9c0,0-.8-.5-.8-.5h-.3ZM706.8,648.6l-.3.8.5.8h.3c0,.1,3,.6,3,.6h0l2.9.4.8-.3.3-.8-.5-.8h-.3c0,0-2.8-.5-2.8-.5h0l-3-.5-.9.2ZM748.1,650.3h0l-3.4.3h-.2l-.8.4v.9c0,0,.6.6.6.6h.3s.2,0,.2,0h0l3.5-.3h0s2.2-.3,2.2-.3l.8-.5v-.9s-.6-.6-.6-.6h-.4s-2.2.2-2.2.2ZM718.6,650.4l-.2.8.5.7h.3c0,0,2.6.3,2.6.3h0l3.4.3.8-.3.2-.9-.6-.7h-.3c0,0-3.4-.3-3.4-.3h0l-2.5-.2-.8.3ZM730.5,651.2l-.2.9.6.7h.3c0,0,2.1.1,2.1.1h5s.8-.4.8-.4l.2-.9-.6-.7h-.4c0,0-1.1,0-1.1,0h-6c0,0-.8.3-.8.3Z"/>
      <g id="g5351">
        <g id="g3247-42-0-77">
          <path id="path3245-77-0-9" class="cls-24" d="M814.6,551.1c0,16.7-13.5,30.2-30.2,30.2s-30.2-13.5-30.2-30.2,13.5-30.2,30.2-30.2,30.2,13.5,30.2,30.2Z" sodipodi:cx="1185.03" sodipodi:cy="1020.305" sodipodi:rx="24.450413" sodipodi:ry="24.450413" sodipodi:type="arc"/>
          <g id="text3219-93-6-3" class="cls-11">
            <text class="cls-1" transform="translate(756.5 569.7)"><tspan x="0" y="0">10</tspan></text>
          </g>
        </g>
        <path id="path4345-4-01" class="cls-3" d="M744.8,477.4l31.5,37.7-16.6,7.7-14.9-45.4Z" inkscape:flatsided="true" inkscape:randomized="0" inkscape:rounded="-1.9081958e-16" sodipodi:arg1="0.87605805" sodipodi:arg2="1.9232556" sodipodi:cx="-1437.0918" sodipodi:cy="419.79074" sodipodi:r1="49.013302" sodipodi:r2="47.942242" sodipodi:sides="3" sodipodi:type="star"/>
      </g>
      <g id="g5358">
        <g id="g3247-42-0-77-8">
          <path id="path3245-77-0-9-6" class="cls-24" d="M655,538.8c0,16.7-13.5,30.2-30.2,30.2s-30.2-13.5-30.2-30.2,13.5-30.2,30.2-30.2,30.2,13.5,30.2,30.2Z" sodipodi:cx="1185.03" sodipodi:cy="1020.305" sodipodi:rx="24.450413" sodipodi:ry="24.450413" sodipodi:type="arc"/>
          <g id="text3219-93-6-3-5" class="cls-11">
            <text class="cls-1" transform="translate(598 557.4)"><tspan x="0" y="0">11</tspan></text>
          </g>
        </g>
        <path id="path4345-4-75" class="cls-3" d="M671.7,469.9l-15.4,46.6-15.3-10,30.7-36.6Z" inkscape:flatsided="true" inkscape:randomized="0" inkscape:rounded="-1.9081958e-16" sodipodi:arg1="0.87605805" sodipodi:arg2="1.9232556" sodipodi:cx="-1437.0918" sodipodi:cy="419.79074" sodipodi:r1="49.013302" sodipodi:r2="47.942242" sodipodi:sides="3" sodipodi:type="star"/>
      </g>
      <g id="use5365">
        <g id="text4365" class="cls-11" sodipodi:linespacing="100%">
          <text class="cls-6" transform="translate(672.7 605.3)"><tspan x="0" y="0">Nouvelle</tspan></text>
          <text class="cls-9" transform="translate(672.7 605.3)"><tspan x="0" y="0">Nouvelle</tspan></text>
          <text class="cls-6" transform="translate(672.7 637.3)"><tspan x="0" y="0">Chicane</tspan></text>
          <text class="cls-9" transform="translate(672.7 637.3)"><tspan x="0" y="0">Chicane</tspan></text>
        </g>
      </g>
      <g id="text4365-2" data-name="text4365" class="cls-11" sodipodi:linespacing="100%">
        <text class="cls-6" transform="translate(672.7 605.3)"><tspan x="0" y="0">Nouvelle</tspan></text>
        <text class="cls-6" transform="translate(672.7 637.3)"><tspan x="0" y="0">Chicane</tspan></text>
      </g>
    </g>
    <g id="g5552">
      <path id="path5858" class="cls-15" d="M350.6,454.2h-.1l-.8.4v.9c-.1,0,.5.6.5.6h.3c0,0,0,0,0,0h3.9c0,0,2,0,2,0l.8-.4.2-.9-.6-.6h-.3c0,0-2,0-2,0h-3.9ZM361.7,454.6l-.2.9.6.7h.3c0,0,1,0,1,0h0l4.9.2.8-.4.2-.9-.6-.7h-.3c0,0-5-.2-5-.2h-1.1s-.8.4-.8.4ZM343.2,454.5h0l-3.5.2h-1.2c0,0-.8.6-.8.6v.9c0,0,.6.6.6.6h.3s1.1,0,1.1,0h0l3.5-.2h1.3c0,0,.8-.5.8-.5v-.9c0,0-.5-.6-.5-.6h-.3c0,0-1.3,0-1.3,0ZM373.7,455.1l-.2.8.6.7h.3c0,0,5.2.5,5.2.5h.7c0,0,.8-.2.8-.2l.2-.8-.5-.7h-.3c0,0-.7-.2-.7-.2l-5.3-.4-.8.3ZM329.7,455.7h0l-3.1.4h0s-.8.5-.8.5v.9l.7.6h.4l3.1-.4,2.8-.3.8-.5v-.9c0,0-.6-.6-.6-.6h-.3s-2.8.3-2.8.3ZM385.7,456.2l-.2.8.5.8h.3c0,0,4.9.7,4.9.7l1.1.2.8-.3.3-.9-.5-.7h-.3c0-.1-1-.2-1-.2h0l-4.9-.6-.8.3ZM317.8,457.6l-2.7.6h0s-.6.2-.6.2l-.7.6v.9s.8.5.8.5h.3s.6-.2.6-.2h0l2.6-.6h0l2.6-.5.7-.5v-.9s-.8-.5-.8-.5h-.3l-2.6.5ZM397.6,457.8l-.3.8.5.7h.3c0,.1,5,.9,5,.9l.9.2.9-.2.3-.8-.5-.8h-.3c0-.1-.9-.3-.9-.3h0l-5-.8-.8.3ZM409.5,459.8l-.3.8.5.8h.3c0,.1,5.5,1.2,5.5,1.2h.4c0,0,.9-.2.9-.2l.3-.8-.5-.8h-.3c0-.1-.4-.2-.4-.2l-5.5-1-.9.2ZM308.7,459.8l-1,.3h0l-2.3.8-2.2.8h0s-.2,0-.2,0l-.6.7.2.9.8.4h.3c0,0,.1,0,.1,0h0s2.2-.8,2.2-.8h0s2.2-.7,2.2-.7h0l1-.3.7-.6v-.9c0,0-.8-.5-.8-.5h-.4ZM421.2,462.1l-.3.8.5.8h.3c0,.1,5.8,1.4,5.8,1.4l.9-.2.3-.8-.5-.8h-.3c0-.1-5.9-1.4-5.9-1.4h0s-.9.2-.9.2ZM297.3,463.9l-.4.2h0l-1.9.9h0s-1.8.9-1.8.9h0s-1.3.8-1.3.8l-.5.8.3.8.9.2h.3c0,0,1.2-.8,1.2-.8h0l1.8-.9h0s1.8-.9,1.8-.9h0s.4-.2.4-.2l.6-.7-.2-.9-.8-.3h-.3ZM433,464.8l-.3.8.4.8h.3c0,.1.8.3.8.3l5,1.2.9-.2.4-.8-.4-.8h-.3c0-.1-5-1.4-5-1.4h0l-.8-.2-.9.2ZM444.6,467.7l-.4.8.4.8.3.2,1.7.5h0s4.1,1.1,4.1,1.1l.9-.2.4-.8-.4-.8-.3-.2-4.1-1.2-1.7-.5-.9.2ZM286.7,470h0c0,0,0,0,0,0l-1.4,1.1h0s-1.4,1.1-1.4,1.1h0s-1.3,1.2-1.3,1.2h0s-.4.4-.4.4l-.3.8.5.8h.9c0,0,.3-.1.3-.1l.4-.4h0s1.2-1.2,1.2-1.2h0s1.3-1.1,1.3-1.1h0s1.4-1.1,1.4-1.1h0s0,0,0,0l.4-.8-.4-.8-.9-.2h-.3ZM456.2,471l-.4.8.4.8.3.2,2.5.8h0l3.2,1h.9c0-.1.4-.9.4-.9l-.4-.8-.3-.2-3.2-1h0l-2.5-.8-.9.2ZM467.6,474.6l-.4.8.3.8.3.2,3.1,1h0l2.6.9h.9c0,0,.4-.9.4-.9l-.3-.8-.3-.2-2.6-.9h0l-3.1-1h-.9ZM278.1,478.1l-.3.2h0c0,0,0,0,0,0l-1,1.2h0s-1,1.3-1,1.3l-.9,1.3h0s-.6,1-.6,1v.9c0,0,.5.6.5.6l.9-.2.2-.2.6-.9h0s.9-1.3.9-1.3h0s.9-1.2.9-1.2h0s1-1.2,1-1.2h0s0,0,0,0l.2-.9-.6-.7h-.9ZM479,478.6l-.4.8.3.8.3.2,3.3,1.2h0l2.3.9h.9c0,0,.5-.8.5-.8l-.3-.8-.3-.2-2.3-.9h0s-3.3-1.2-3.3-1.2h-.9ZM490.2,483l-.5.8.3.8.3.2,3.1,1.3h0l2.4,1.1h.9c0,0,.5-.8.5-.8l-.3-.8-.3-.2-2.4-1.1h0s-3.1-1.3-3.1-1.3h-.9ZM501.2,487.9l-.5.7.3.8.3.2,2.3,1.1h0s3,1.6,3,1.6h.9l.5-.7-.2-.8-.3-.2-3-1.6h0l-2.3-1.1h-.9ZM271.3,488.3l-.2.3-.3.6h0s-1.3,2.9-1.3,2.9h0s-.8,2.1-.8,2.1v.9c0,0,.8.5.8.5l.8-.3.2-.3.8-2h0s1.3-2.8,1.3-2.8h0s.3-.6.3-.6v-.9l-.7-.5-.9.2ZM511.3,494.1l.2.9.3.2,1,.5h0s4.2,2.5,4.2,2.5h.9c0,0,.6-.6.6-.6l-.2-.9-.3-.2-4.2-2.5h0l-1-.6h-.9s-.6.7-.6.7ZM266.8,499.5l-.2.3-.4,1.1h0s-.9,3-.9,3h0s-.4,1.6-.4,1.6l.2.9.8.4.8-.4.2-.3.4-1.6.9-3h0s.4-1.2.4-1.2l-.2-.9-.8-.4-.8.4ZM521.5,500.3l.2.9.2.2,1,.7,1.8,1.3h0s1.7,1.3,1.7,1.3h0s.3.2.3.2l.9.2.7-.6v-.9c0,0-.3-.2-.3-.2l-.3-.2h0l-1.8-1.3h0l-1.8-1.3h0l-1-.7h-.9c0-.1-.7.5-.7.5ZM531,507.6v.9s.2.3.2.3l2.9,2.8h0s1.3,1.4,1.3,1.4l.8.3.8-.5v-.9c0,0-.1-.3-.1-.3l-1.3-1.4h0s-2.9-2.8-2.9-2.8l-.8-.3-.7.5ZM263.6,511.1l-.2.3-1.2,4.9-.2.9.2.9.8.3.8-.4v-.3c.1,0,.4-.9.4-.9l1.2-4.9-.2-.9-.8-.3-.8.4ZM539.3,516.2v.9c0,0,0,.3,0,.3h.1c0,.1,0,.1,0,.1l2.3,3h0c0,0,1,1.5,1,1.5l.8.4.8-.4.2-.9-.2-.3-1.1-1.5h0c0,0-2.4-3.2-2.4-3.2h0s-.1-.2-.1-.2l-.8-.3-.8.4ZM260.7,522.8l-.2.3-1.5,5.8.2.9.8.4.8-.4.2-.3,1.5-5.8-.2-.9-.8-.4-.8.4ZM546.3,525.9l-.3.8v.3c.1,0,1.8,3,1.8,3h0s1.1,2.2,1.1,2.2l.7.5.8-.2.3-.8v-.3c0,0-1.2-2.2-1.2-2.2h0s-1.7-3.1-1.7-3.1l-.8-.5-.8.3ZM257.7,534.4v.3c-.1,0-1.6,5.8-1.6,5.8l.2.9.8.4.8-.4v-.3c.1,0,1.6-5.8,1.6-5.8l-.2-.9-.8-.4-.8.4ZM551.6,536.6l-.4.8v.3c0,0,.9,2.3.9,2.3h0c0,0,1,3.3,1,3.3l.6.7h.9c0-.1.4-.9.4-.9v-.3c0,0-1.1-3.3-1.1-3.3h0c0,0-.9-2.4-.9-2.4l-.7-.6-.9.2ZM254.8,546.1v.3c-.1,0-1.6,5.8-1.6,5.8l.2.9.8.3.8-.4v-.3c.1,0,1.6-5.8,1.6-5.8l-.2-.9-.8-.4-.8.4ZM555.1,548l-.5.7v.3l.3,1.2h0s.6,3.5.6,3.5h0l.2,1.1.5.8h.9s.6-.6.6-.6v-1.5c-.1,0-.1,0-.1,0l-.6-3.6h0s-.3-1.3-.3-1.3l-.6-.7h-.9ZM251.9,557.7v.3c-.1,0-1.6,5.8-1.6,5.8l.2.9.8.4.8-.4v-.3c.1,0,1.6-5.8,1.6-5.8l-.2-.9-.8-.3-.8.4ZM556.2,560.5v.4c0,0,0,0,0,0h0s0,3.6,0,3.6h0v2.2l.4.8.9.2.7-.6v-.3c0,0,0-2.2,0-2.2h0s0-3.7,0-3.7h0c0,0,0-.2,0-.2l-.4-.8h-.9c0,0-.6.6-.6.6ZM249,569.3l-.2.3-1.4,5.8.2.9.8.4.8-.4v-.3c.1,0,1.6-5.8,1.6-5.8l-.2-.9-.8-.4-.8.4ZM556.1,572.3v.3c0,0-.3,2.8-.3,2.8h0s-.4,3.2-.4,3.2l.3.8.9.2.7-.5v-.3c0,0,.5-3.2.5-3.2h0s.2-2.8.2-2.8l-.3-.8-.9-.2-.7.5ZM246.2,581l-.2.3-1.4,5.8.2.9.8.4.8-.4.2-.3,1.4-5.8-.2-.9-.8-.4-.8.4ZM554.5,584.1v.3c-.1,0-.5,2-.5,2h0s-.8,3.7-.8,3.7h0c0,0,.2.9.2.9l.8.4.8-.4v-.3c.1,0,.2,0,.2,0h0s.8-3.7.8-3.7h0s.4-2.1.4-2.1l-.2-.8-.8-.3-.8.5ZM243.3,592.6v.3c-.1,0-1.5,5.8-1.5,5.8l.2.9.8.4.8-.4.2-.3,1.4-5.8-.2-.9-.8-.4-.8.4ZM551.8,595.7l-.2.3-.5,1.6h0s-1.2,3.7-1.2,3.7h0s-.1.3-.1.3v.9c.1,0,.9.4.9.4l.8-.4.2-.3v-.3c.1,0,.1,0,.1,0l1.2-3.8h0s.5-1.7.5-1.7l-.2-.9-.8-.4-.8.4ZM240.5,604.3l-.2.3-1.4,5.8.2.9.8.4.8-.4.2-.3,1.4-5.8-.2-.9-.8-.4-.8.4ZM548,607l-.2.3-.6,1.5-1.5,3.7h0s-.1.3-.1.3v.9s.8.5.8.5l.8-.3.2-.3v-.3c.1,0,.1,0,.1,0l1.5-3.7h0s.6-1.5.6-1.5v-.9c0,0-.9-.4-.9-.4l-.8.3ZM237.6,616v.3c-.1,0-1.5,5.8-1.5,5.8l.2.9.8.3.8-.4.2-.3,1.4-5.8-.2-.9-.8-.3-.8.4ZM543.4,618l-.2.3-.8,1.6h0s-1.8,3.7-1.8,3.7h0s0,0,0,0v.9l.7.6.8-.2.2-.3h0c0,0,0,0,0,0l1.8-3.7h0s.8-1.7.8-1.7v-.9s-.8-.5-.8-.5l-.8.3ZM234.8,627.6v.3c-.1,0-1.5,5.8-1.5,5.8l.2.9.8.3.8-.4.2-.3,1.4-5.8-.2-.9-.8-.3-.8.4ZM538.2,628.7l-.2.3-1,1.9h0s-1.8,3.3-1.8,3.3v.9c0,0,.7.6.7.6l.8-.2.2-.3,1.8-3.3,1.1-2v-.9s-.7-.5-.7-.5l-.9.2ZM232,639.3v.3c-.1,0-1.5,5.8-1.5,5.8l.2.9.8.4.8-.4.2-.3,1.4-5.8-.2-.9-.8-.4-.8.4ZM532.3,639.1l-.2.3-1.4,2.4-1.7,2.7v.9c0,0,.6.6.6.6l.9-.2.2-.2,1.7-2.7h0s1.5-2.4,1.5-2.4v-.9c0,0-.6-.6-.6-.6l-.9.2ZM525.9,649.3l-.2.2-2,2.9h0s-1.4,2-1.4,2v.9c-.1,0,.5.6.5.6h.9c0-.1.2-.4.2-.4l1.4-2h0s2-2.9,2-2.9v-.9c.1,0-.5-.6-.5-.6l-.9.2ZM229.2,651v.3c-.1,0-1.5,5.8-1.5,5.8l.2.9.8.3.8-.4.2-.3,1.4-5.8-.2-.9-.8-.3-.8.4ZM519.1,659.1l-.2.2h0s-2.5,3.4-2.5,3.4l-1.1,1.4-.2.9.6.7h.9c0,0,.2-.3.2-.3l1.1-1.4h0s2.5-3.4,2.5-3.4l.2-.9-.6-.6h-.9ZM226.4,662.6v.3c-.1,0-1,3.5-1,3.5l-.6,2.4.2.9.8.3.8-.4v-.3c.1,0,.7-2.4.7-2.4l.8-3.5-.2-.9-.8-.3-.8.4ZM511.9,668.6l-.3.2-.4.5-2.6,3.2h0s-.7.9-.7.9l-.2.9.6.7h.9c0,0,.3-.3.3-.3l.7-.9h0l2.6-3.3.4-.5.2-.9-.6-.7h-.9ZM223.6,674.3l-.2.3-1.4,5.8.2.9.8.4.8-.4v-.3c.1,0,1.5-5.8,1.5-5.8l-.2-.9-.8-.4-.8.4ZM504.3,677.9l-.3.2-.8.9h0s-2.7,3.1-2.7,3.1l-.4.5-.2.9.6.7h.9l.3-.2.4-.5,2.7-3.1.8-.9.2-.9-.6-.7h-.9ZM220.8,686l-.2.3-1.4,5.8.2.9.8.3.8-.4.2-.3,1.4-5.8-.2-.9-.8-.3-.8.4ZM496.4,686.9l-.3.2-1,1.1-3.1,3.2-.2.8.5.7h.9s.3-.2.3-.2l3.1-3.2h0s1-1.1,1-1.1l.2-.9-.6-.7h-.9ZM487.8,695.7l-3.8,3.8h0s-.4.4-.4.4l-.3.8.5.8h.9c0,0,.3-.2.3-.2l.5-.4,3.8-3.8.3-.8-.5-.7h-.9s-.3.2-.3.2ZM218,697.6v.3c-.1,0-1.5,5.8-1.5,5.8l.2.9.8.4.8-.5v-.3c.1,0,1.5-5.8,1.5-5.8l-.2-.8-.8-.4-.8.4ZM479.3,704.1l-.7.7h0l-3.7,3.4-.3.8.5.8h.9c0,0,.3-.1.3-.1l3.7-3.4.7-.7.3-.8-.5-.8h-.9c0,0-.3.2-.3.2ZM215.2,709.3l-.2.3-1.4,5.8.2.9.8.3.8-.4.2-.3,1.4-5.8-.2-.9-.8-.4-.8.5ZM470.4,712.1l-2.6,2.2h0s-1.9,1.6-1.9,1.6l-.4.8.4.8h.9c0,.1.3,0,.3,0l2-1.6h0s2.6-2.3,2.6-2.3l.3-.8-.5-.8h-.9c0,0-.3,0-.3,0ZM461.2,719.7l-.3.2h0s-1.8,1.5-1.8,1.5l-2.4,2.2-.3.8.5.8h.9c0,0,.3,0,.3,0l2.4-2.2h0s1.8-1.5,1.8-1.5h0s.3-.3.3-.3l.4-.8-.4-.8h-.9c0-.1-.3,0-.3,0ZM212.4,721v.3c-.1,0-1.5,5.8-1.5,5.8l.2.9.8.3.8-.4v-.3c.1,0,1.5-5.8,1.5-5.8l-.2-.9-.8-.3-.8.4ZM452.2,727.8l-.9.9h0s-3.3,3.3-3.3,3.3l-.3.9.5.7h.9s.3-.2.3-.2l3.3-3.3h0l.9-.9.3-.8-.5-.7h-.9c0,0-.3.1-.3.1ZM209.7,732.7l-.2.3-.4,2.1h0s-.6,3.2-.6,3.2h0s0,.6,0,.6l.3.8.8.3.8-.5v-.3c.1,0,.2-.6.2-.6l.6-3.2h0s.4-2.1.4-2.1l-.2-.9-.8-.3-.8.5ZM443.7,736.3l-1.2,1.2h0l-2.9,3.1-.2.9.5.7h.9l.3-.2,2.9-3h0l1.2-1.3.3-.8-.5-.7h-.9s-.3.2-.3.2ZM207.7,744.6v.3c0,0-.4,3-.4,3h0l-.2,3,.3.8.9.2.7-.6v-.3c0,0,.3-3,.3-3l.3-3-.3-.8-.8-.2-.7.6ZM435.4,745l-4.1,4.4-.3.9.5.7h.9l.3-.2,4.1-4.4.2-.9-.5-.7h-.9l-.3.2ZM427.2,753.7l-4.1,4.4-.2.8.5.7h.9l.3-.2,4.1-4.4.2-.9-.5-.7h-.9l-.3.2ZM206.8,756.7v.3c0,0,0,.3,0,.3v3s0,0,0,0v2.7s.5.8.5.8h.9c0,.1.6-.5.6-.5v-.3c0,0,0-2.7,0-2.7h0s0-3,0-3h0v-.3l-.4-.8-.9-.2-.7.6ZM419,762.5l-2.2,2.3-1.9,2-.2.9.5.7h.9l.3-.2,1.9-2h0l2.2-2.3.2-.9-.5-.7h-.9l-.3.2ZM207.1,768.7v.3s0,.2,0,.2l.2,2.9h0s.3,2.9.3,2.9l.5.8h.9c0,0,.6-.6.6-.6v-.3l-.3-2.8h0s-.3-2.9-.3-2.9h0v-.2s-.5-.8-.5-.8h-.9c0-.1-.6.5-.6.5ZM410.8,771.3l-4.1,4.4-.2.8.5.7h.9s.3-.2.3-.2l4.1-4.4.3-.9-.6-.7h-.9l-.3.2ZM402.6,780l-3.1,3.2-1.1,1.1-.3.8.5.8h.9l.3-.2,1.1-1.2,3.1-3.2.3-.8-.5-.8h-.9l-.3.2ZM209.1,780.1l-.5.7v.3s.5,2.5.5,2.5l.6,2.8.2.7.6.7h.9s.5-.8.5-.8v-.4s-.2-.6-.2-.6h0s-.6-2.7-.6-2.7l-.5-2.5-.5-.7h-.9ZM394.2,788.6l-.7.8-3.5,3.5-.3.8.5.8h.9l.3-.2,3.5-3.5.8-.8.3-.8-.5-.7h-.9s-.3.2-.3.2ZM211.8,791.8l-.4.8v.4s.5,1.5.5,1.5h0s.8,2.6.8,2.6h0s.6,1.6.6,1.6l.6.6.9-.2.4-.8v-.4c0,0-.6-1.6-.6-1.6l-.8-2.5h0s-.5-1.6-.5-1.6l-.6-.7h-.9ZM385.8,797.1l-4.3,4.2-.3.8.5.8h.9s.3-.2.3-.2l4.3-4.2.3-.8-.5-.8h-.9s-.3.2-.3.2ZM215.7,803.1l-.4.8v.3c0,0,.2.3.2.3h0s1.1,2.4,1.1,2.4h0s1.1,2.4,1.1,2.4h0s.2.4.2.4l.7.5.8-.2.3-.8v-.3c0,0-.3-.4-.3-.4l-1.1-2.3h0s-1-2.4-1-2.4h0s0-.3,0-.3l-.7-.6-.9.2ZM377.2,805.4l-2.3,2.2-2.1,1.9-.3.8.5.8h.9c0,0,.3-.1.3-.1l2.1-1.9h0s2.3-2.2,2.3-2.2l.3-.8-.5-.8h-.9c0,0-.3.1-.3.1ZM368.4,813.6l-4.5,4-.3.8.5.8h.9c0,0,.3,0,.3,0l4.5-4,.3-.8-.5-.8h-.9c0,0-.3.1-.3.1ZM220.9,814l-.3.8v.3c.1,0,.8,1.1.8,1.1h0s1.3,2.2,1.3,2.2h0s1.2,1.8,1.2,1.8l.8.4.8-.3.2-.9v-.3c-.1,0-1.3-1.8-1.3-1.8h0l-1.3-2.2h0s-.6-1.2-.6-1.2l-.8-.5-.8.3ZM359.4,821.5l-.4.3-3.2,2.7-1,.8-.3.8.4.8h.9c0,.1.3,0,.3,0l1-.8h0s3.2-2.7,3.2-2.7h0l.4-.3.3-.8-.5-.8h-.9c0,0-.3,0-.3,0ZM227.3,824.1l-.2.9.2.3,1.1,1.5h0s1.5,2,1.5,2h0s1.1,1.3,1.1,1.3l.8.4.8-.4v-.9c.1,0,0-.3,0-.3l-1-1.2h0s-1.5-1.9-1.5-1.9h0l-1.1-1.5-.8-.4-.8.4ZM350.2,829.1l-.8.6-3.2,2.5h0l-.8.6-.4.8.4.8.9.2.3-.2.8-.6,3.2-2.5h0l.8-.6.4-.8-.4-.8h-.9c0-.1-.3,0-.3,0ZM234.9,833.5v.9c0,0,.1.3.1.3l1.5,1.5h0s1.7,1.7,1.7,1.7h0s1.1,1.1,1.1,1.1l.8.3.7-.6v-.9l-.2-.3-1.1-1h0s-1.7-1.7-1.7-1.7h0s-1.4-1.5-1.4-1.5l-.8-.3-.8.5ZM340.7,836.3l-.8.6h0s-3.2,2.2-3.2,2.2h0s-.9.6-.9.6l-.5.8.4.8.9.2h.3c0-.1.9-.7.9-.7h0s3.2-2.2,3.2-2.2l.8-.6.4-.8-.4-.8-.9-.2-.3.2ZM243.7,841.8v.9c0,0,.3.2.3.2l1.5,1.2h0s1.8,1.4,1.8,1.4h0s1.4,1.1,1.4,1.1h.9c0,.1.6-.5.6-.5v-.9c-.1,0-.4-.2-.4-.2l-1.4-1h0l-1.8-1.4-1.5-1.2-.9-.2-.7.6ZM330.7,843l-.4.3-3.2,1.9h0s-1.5.8-1.5.8l-.5.8.3.8.8.2h.3c0,0,1.5-1,1.5-1h0s3.2-1.9,3.2-1.9h0s.5-.3.5-.3l.4-.8-.3-.8-.8-.2h-.3ZM253.4,848.8l.2.9.2.2,1.2.7h0l2,1.1h0s2,1.1,2,1.1h0s.9,0,.9,0l.5-.7-.3-.9-.3-.2h0s0,0,0,0l-1.9-1h0l-1.9-1.1h0s-1.2-.7-1.2-.7h-.9c0,0-.6.6-.6.6ZM320.4,848.9l-2.6,1.3h0s-2.7,1.3-2.7,1.3l-.6.7.2.8.8.3h.3c0,0,2.8-1.4,2.8-1.4h0l2.7-1.3.5-.7-.2-.9-.8-.3h-.3ZM264.6,853.5l-.5.8.3.8.3.2.5.2h0s2.1.8,2.1.8h0s2.1.7,2.1.7h0l1,.3h.9c0-.1.4-.9.4-.9l-.4-.8-.3-.2-.9-.3h0l-2-.7h0s-2-.8-2-.8h0l-.5-.2h-.9ZM309.6,853.8l-1,.4h0s0,0,0,0l-3,1-1.6.5-.7.6v.9c0,0,.9.4.9.4h.3s1.6-.5,1.6-.5h0s3-1.1,3-1.1h0s1-.4,1-.4l.6-.7-.2-.9-.8-.4h-.3ZM275.9,857.2l-.3.8.4.8h.3c0,.1,1.7.5,1.7.5h0l2.1.4h0l2.1.3h0l2.8.2h1.3s.8-.3.8-.3l.2-.9-.6-.7h-.3c0,0-1.2,0-1.2,0h0l-2.7-.2h0l-2-.3h0l-2.1-.4h0l-1.6-.3-.9.2ZM298.2,857.1l-1.5.3h0l-2.8.4h0s-1.4.1-1.4.1l-.8.5v.9c0,0,.6.6.6.6h.3s1.4,0,1.4,0h0l2.9-.4h0l1.6-.3.7-.5v-.9s-.7-.5-.7-.5h-.4Z"/>
      <g id="use5401">
        <g id="text4373" class="cls-11" sodipodi:linespacing="100%">
          <text class="cls-6" transform="translate(309.6 671.3)"><tspan x="0" y="0">Piscine (Pool)</tspan></text>
          <text class="cls-9" transform="translate(309.6 671.3)"><tspan x="0" y="0">Piscine (Pool)</tspan></text>
        </g>
      </g>
      <g id="g3247-42-0-77-3">
        <path id="path3245-77-0-9-4" class="cls-24" d="M334.6,744.6c0,16.7-13.5,30.2-30.2,30.2s-30.2-13.5-30.2-30.2,13.5-30.2,30.2-30.2,30.2,13.5,30.2,30.2Z" sodipodi:cx="1185.03" sodipodi:cy="1020.305" sodipodi:rx="24.450413" sodipodi:ry="24.450413" sodipodi:type="arc"/>
        <g id="text3219-93-6-3-4" class="cls-11">
          <text class="cls-1" transform="translate(276.5 763.2)"><tspan x="0" y="0">15</tspan></text>
        </g>
      </g>
      <g id="g5516">
        <g id="g3247-42-0-77-0">
          <path id="path3245-77-0-9-61" class="cls-24" d="M418.6,585.4c0,16.7-13.5,30.2-30.2,30.2s-30.2-13.5-30.2-30.2,13.5-30.2,30.2-30.2,30.2,13.5,30.2,30.2Z" sodipodi:cx="1185.03" sodipodi:cy="1020.305" sodipodi:rx="24.450413" sodipodi:ry="24.450413" sodipodi:type="arc"/>
          <g id="text3219-93-6-3-3" class="cls-11">
            <text class="cls-1" transform="translate(360.5 604)"><tspan x="0" y="0">14</tspan></text>
          </g>
        </g>
        <path id="path4345-4-00" class="cls-3" d="M314.9,542.2l47.7,11.8-8.8,16-38.8-27.8Z" inkscape:flatsided="true" inkscape:randomized="0" inkscape:rounded="-1.9081958e-16" sodipodi:arg1="0.87605805" sodipodi:arg2="1.9232556" sodipodi:cx="-1437.0918" sodipodi:cy="419.79074" sodipodi:r1="49.013302" sodipodi:r2="47.942242" sodipodi:sides="3" sodipodi:type="star"/>
      </g>
      <g id="g5523">
        <g id="g3247-42-0-77-61">
          <path id="path3245-77-0-9-8" class="cls-24" d="M325.8,818.3c0,16.7-13.5,30.2-30.2,30.2s-30.2-13.5-30.2-30.2,13.5-30.2,30.2-30.2,30.2,13.5,30.2,30.2Z" sodipodi:cx="1185.03" sodipodi:cy="1020.305" sodipodi:rx="24.450413" sodipodi:ry="24.450413" sodipodi:type="arc"/>
          <g id="text3219-93-6-3-49" class="cls-11">
            <text class="cls-1" transform="translate(267.7 836.9)"><tspan x="0" y="0">16</tspan></text>
          </g>
        </g>
        <path id="path4345-4-4" class="cls-3" d="M232.2,764.4l43.6,22.6-12.3,13.5-31.2-36.1Z" inkscape:flatsided="true" inkscape:randomized="0" inkscape:rounded="-1.9081958e-16" sodipodi:arg1="0.87605805" sodipodi:arg2="1.9232556" sodipodi:cx="-1437.0918" sodipodi:cy="419.79074" sodipodi:r1="49.013302" sodipodi:r2="47.942242" sodipodi:sides="3" sodipodi:type="star"/>
      </g>
      <g id="text4373-2" data-name="text4373" class="cls-11" sodipodi:linespacing="100%">
        <text class="cls-6" transform="translate(309.6 671.3)"><tspan x="0" y="0">Piscine (Pool)</tspan></text>
      </g>
      <g id="use5777">
        <g id="text5746" class="cls-11" sodipodi:linespacing="100%">
          <text class="cls-6" transform="translate(448.3 573.8)"><tspan x="0" y="0">Louis</tspan></text>
          <text class="cls-9" transform="translate(448.3 573.8)"><tspan x="0" y="0">Louis</tspan></text>
          <text class="cls-6" transform="translate(448.3 605.8)"><tspan x="0" y="0">Chiron</tspan></text>
          <text class="cls-9" transform="translate(448.3 605.8)"><tspan x="0" y="0">Chiron</tspan></text>
        </g>
      </g>
      <g id="g5785">
        <g id="g5509">
          <g id="g3247-42-0-77-6">
            <path id="path3245-77-0-9-5" class="cls-24" d="M411.8,500.2c0,16.7-13.5,30.2-30.2,30.2s-30.2-13.5-30.2-30.2,13.5-30.2,30.2-30.2,30.2,13.5,30.2,30.2Z" sodipodi:cx="1185.03" sodipodi:cy="1020.305" sodipodi:rx="24.450413" sodipodi:ry="24.450413" sodipodi:type="arc"/>
            <g id="text3219-93-6-3-0" class="cls-11">
              <text class="cls-1" transform="translate(353.7 518.8)"><tspan x="0" y="0">13</tspan></text>
            </g>
          </g>
          <path id="path4345-4-1" class="cls-3" d="M300,515.8l46-17.3,1.8,18.2-47.7-.9Z" inkscape:flatsided="true" inkscape:randomized="0" inkscape:rounded="-1.9081958e-16" sodipodi:arg1="0.87605805" sodipodi:arg2="1.9232556" sodipodi:cx="-1437.0918" sodipodi:cy="419.79074" sodipodi:r1="49.013302" sodipodi:r2="47.942242" sodipodi:sides="3" sodipodi:type="star"/>
        </g>
        <g id="g5779">
          <path id="path4345-4-1-8" class="cls-3" d="M417.2,510.5l47.2,13.5-9.4,15.7-37.8-29.2Z" inkscape:flatsided="true" inkscape:randomized="0" inkscape:rounded="-1.9081958e-16" sodipodi:arg1="0.87605805" sodipodi:arg2="1.9232556" sodipodi:cx="-1437.0918" sodipodi:cy="419.79074" sodipodi:r1="49.013302" sodipodi:r2="47.942242" sodipodi:sides="3" sodipodi:type="star"/>
          <g id="text5746-2" data-name="text5746" class="cls-11" sodipodi:linespacing="100%">
            <text class="cls-6" transform="translate(448.3 573.8)"><tspan x="0" y="0">Louis</tspan></text>
            <text class="cls-6" transform="translate(448.3 605.8)"><tspan x="0" y="0">Chiron</tspan></text>
          </g>
        </g>
      </g>
    </g>
    <g id="g5918">
      <g id="use5403">
        <g id="text4377" class="cls-11" sodipodi:linespacing="100%">
          <text class="cls-6" transform="translate(356.4 959)"><tspan x="0" y="0">La Rascasse</tspan></text>
          <text class="cls-9" transform="translate(356.4 959)"><tspan x="0" y="0">La Rascasse</tspan></text>
        </g>
      </g>
      <g id="g3247-42-0-77-88">
        <path id="path3245-77-0-9-2" class="cls-24" d="M341.6,948.1c0,16.7-13.5,30.2-30.2,30.2s-30.2-13.5-30.2-30.2,13.5-30.2,30.2-30.2,30.2,13.5,30.2,30.2Z" sodipodi:cx="1185.03" sodipodi:cy="1020.305" sodipodi:rx="24.450413" sodipodi:ry="24.450413" sodipodi:type="arc"/>
        <g id="text3219-93-6-3-9" class="cls-11">
          <text class="cls-1" transform="translate(283.5 966.7)"><tspan x="0" y="0">17</tspan></text>
        </g>
      </g>
      <g id="text4377-2" data-name="text4377" class="cls-11" sodipodi:linespacing="100%">
        <text class="cls-6" transform="translate(356.4 959)"><tspan x="0" y="0">La Rascasse</tspan></text>
      </g>
    </g>
    <g id="g5603">
      <path id="path5864" class="cls-15" d="M70.7,760.1l-.2.9.6.7h.3c0,0,3.4,0,3.4,0h2.6c0,0,.8-.3.8-.3l.2-.9-.6-.7h-.3c0,0-2.6-.1-2.6-.1h-3.4s-.8.4-.8.4ZM61.3,759.8h-1.8c0,0-.8.5-.8.5v.9c-.1,0,.5.6.5.6h.3s1.8,0,1.8,0h4.2c0,0,.8-.5.8-.5l.2-.9-.6-.6h-.3c0,0-4.2,0-4.2,0ZM82.7,760.3l-.2.9.6.7h.3c0,0,1.8.2,1.8.2l2.7.2h0s1.5.1,1.5.1l.8-.3.2-.9-.5-.7h-.3c0,0-1.5-.2-1.5-.2l-2.7-.2h-1.8c0,0-.8.2-.8.2ZM49.4,760.5h0l-1.9.2-.8.5v.9c0,0,.6.6.6.6h.3s1.9-.2,1.9-.2h0l3.7-.3h.3s.8-.5.8-.5v-.9c.1,0-.5-.6-.5-.6h-.3s-.3,0-.3,0l-3.8.3ZM94.7,761.4l-.2.8.5.7h.3c0,.1.2.2.2.2h0l2.4.4h0l2.4.4h0l.8.2.9-.2.3-.8-.5-.8h-.3c0-.1-.8-.3-.8-.3h0l-2.4-.4h0l-2.5-.4h-.2c0,0-.9.3-.9.3ZM39,761.9h0l-3.1.6h-.5c0,.1-.7.7-.7.7v.9c0,0,.8.5.8.5h.8c0,0,0,0,0,0l3-.6h0l2.3-.4.8-.5v-.9l-.7-.5h-.3s-2.4.4-2.4.4ZM106.6,763.7l-.3.8.4.8.3.2h.3c0,0,0,0,0,0l2.2.6,2.2.7,1,.3.9-.2.4-.8-.4-.8-.3-.2-1-.3h0s-2.2-.7-2.2-.7h0l-2.2-.6h-.4c0,0-.9.1-.9.1ZM29.6,764.2l-2,.7h0l-2.5.9h0s-1.1.5-1.1.5l-.6.7.2.9.8.3h.3c0,0,1.1-.6,1.1-.6h0s2.4-.9,2.4-.9h0s2-.7,2-.7l.7-.6-.2-.9-.8-.4h-.3ZM118.1,767.3l-.5.8.3.8.3.2,1.7.7h0s1.9.9,1.9.9h0s1.8.8,1.8.8h.9s.5-.7.5-.7l-.3-.9-.3-.2-1.8-.9h0l-2-.8h0s-1.7-.7-1.7-.7h-.9ZM18.5,769.2h0s0,0,0,0l-1.9,1.3h0s-1.7,1.4-1.7,1.4h0s-1.1,1-1.1,1l-.3.8.5.8h.9c0,0,.3-.1.3-.1l1.1-.9h0s1.6-1.3,1.6-1.3h0c0,0,1.8-1.2,1.8-1.2h0c0,0,.5-.8.5-.8l-.3-.8-.9-.2h-.3ZM128.4,773.1l.2.9.3.2.3.2h0s1.8,1,1.8,1h0s1.7,1,1.7,1h0s1.3.9,1.3.9h.9c0,.1.6-.5.6-.5v-.9c-.1,0-.4-.2-.4-.2l-1.3-.9h0s-1.8-1.1-1.8-1.1l-1.8-1.1-.3-.2h-.9c0,0-.6.7-.6.7ZM9.7,777.4l-.3.2-.7.9h0c0,0-1.2,1.9-1.2,1.9h0c0,0-1,2-1,2h0c0,0-.2.6-.2.6v.9l.8.5.8-.2.2-.3.2-.4h0c0,0,1-1.8,1-1.8h0c0,0,1.1-1.8,1.1-1.8h0c0,0,.6-.9.6-.9l.2-.9-.6-.7h-.9ZM138.5,779.7v.9c0,0,.3.3.3.3l.3.2h0s2.9,2.5,2.9,2.5h0s1.2,1.1,1.2,1.1l.8.2.7-.5v-.9l-.2-.3-1.2-1.1h0s-3-2.5-3-2.5h0s-.3-.3-.3-.3l-.9-.2-.7.6ZM147.4,787.6v.9s.2.3.2.3h0c0,0,2.6,2.8,2.6,2.8h0s1.3,1.6,1.3,1.6l.8.4.8-.5v-.9c.1,0,0-.3,0-.3l-1.3-1.6h0s-2.6-2.9-2.6-2.9h0s0,0,0,0l-.8-.3-.8.5ZM4.2,788.3l-.2.3v.2c0,0,0,0,0,0l-.7,2.3h0s-.6,2.4-.6,2.4h0s-.2.9-.2.9l.2.8.8.3.8-.5v-.3c.1,0,.3-.8.3-.8h0c0,0,.6-2.4.6-2.4h0s.7-2.3.7-2.3v-.2c0,0,0-.9,0-.9l-.8-.4-.8.4ZM155.2,796.6l-.2.9.2.3,1.9,2.8h0s1.4,2.2,1.4,2.2l.8.5.8-.3.2-.9v-.3c-.1,0-1.5-2.2-1.5-2.2h0s-1.9-2.8-1.9-2.8l-.8-.4-.8.4ZM1.7,800.2v.3c0,0-.2,1-.2,1h0s-.2,2.8-.2,2.8h0s-.2,2.2-.2,2.2l.3.8.9.2.7-.6v-.3c0,0,.2-2.1.2-2.1h0s.2-2.8.2-2.8h0s.1-1,.1-1l-.3-.8-.9-.2-.7.5ZM161.7,806.7l-.3.9v.3c0,0,1.5,2.5,1.5,2.5h0s1.4,2.8,1.4,2.8l.7.5.9-.2.3-.8v-.3c-.1,0-1.5-2.8-1.5-2.8h0s-1.4-2.6-1.4-2.6l-.7-.5-.8.3ZM.8,812.2v.3c0,0,0,.9,0,.9h0s0,3.2,0,3.2h0s0,1.9,0,1.9l.4.8.9.2.7-.6v-.3c0,0,0-1.8,0-1.8h0s0-3.2,0-3.2h0s0-.9,0-.9l-.4-.8-.9-.2-.7.6ZM167,817.4l-.4.8v.3c0,0,1,2.2,1,2.2h0s1.2,3.3,1.2,3.3l.7.6.9-.2.4-.8v-.3c0,0-1.3-3.3-1.3-3.3h0s-.9-2.2-.9-2.2l-.7-.6-.9.2ZM.9,824.3v.3s0,2.5,0,2.5h0s.2,3.5.2,3.5l.4.8h.9c0,.1.6-.5.6-.5v-.3c0,0,0-3.5,0-3.5v-2.5c0,0-.5-.8-.5-.8h-.9c0-.1-.7.5-.7.5ZM171.2,828.6l-.4.8v.3c0,0,.7,1.9.7,1.9h0l1.1,3.7h0,0c0,0,.6.7.6.7h.9c0,0,.5-.8.5-.8v-.4s0,0,0,0h0s-1.1-3.7-1.1-3.7h0s-.6-2-.6-2l-.6-.6h-.9ZM1.4,836.3v.3s.3,5.9.3,5.9h0c0,0,.5.8.5.8h.9c0,0,.6-.6.6-.6v-.3s0,0,0,0l-.3-5.9-.5-.8h-.9c0,0-.6.6-.6.6ZM174.6,840.1l-.5.8v.3s.4,1.6.4,1.6h0s.8,3.8.8,3.8h0s0,.4,0,.4l.6.7h.9s.5-.7.5-.7v-.8c0,0,0,0,0,0l-.8-3.8-.4-1.7-.6-.7h-.9ZM2.1,848.3v.3c0,0,0,2.4,0,2.4l.2,3.6.5.8h.9c0,0,.6-.6.6-.6v-.3s-.2-3.6-.2-3.6l-.2-2.4-.4-.8h-.9c0-.1-.6.5-.6.5ZM176.5,852.6v.3l.2,1.3.6,3.8h0s.1.8.1.8l.5.8h.9s.6-.7.6-.7v-1.2c0,0-.7-3.8-.7-3.8h0s-.2-1.3-.2-1.3l-.5-.7h-.9l-.5.7ZM2.8,860.2v.4s.3,6,.3,6l.4.8h.9c0,0,.6-.6.6-.6v-.3c0,0-.3-6-.3-6l-.5-.8h-.9c0,0-.6.5-.6.5ZM178.3,864.4v1.2c0,0,.5,3.8.5,3.8h0v1.3c.1,0,.6.8.6.8h.9c0,0,.6-.6.6-.6v-.3s0-1.3,0-1.3l-.4-3.8h0s-.1-.9-.1-.9l-.5-.8h-.9s-.6.7-.6.7ZM3.6,872.2v.3s.3,6,.3,6l.4.8h.9c0,.1.6-.5.6-.5v-.3c0,0-.3-6-.3-6l-.4-.8h-.9c0,0-.6.6-.6.6ZM179.5,876.3v.3s0,.2,0,.2l.4,5.8.4.8h.9c0,0,.6-.6.6-.6v-.3c0,0-.3-5.8-.3-5.8v-.2s-.5-.8-.5-.8h-.9c0,0-.6.6-.6.6ZM4.2,884.2v.3s.2,4.9.2,4.9h0s0,1.1,0,1.1l.4.8h.9c0,.1.6-.5.6-.5v-.3c0,0,0-1.1,0-1.1h0s-.2-4.9-.2-4.9l-.5-.8h-.9c0-.1-.6.5-.6.5ZM180.2,888.2v.3s0,2.8,0,2.8h0s0,3.2,0,3.2l.4.8.9.2.6-.6v-.3c0,0,0-3.2,0-3.2h0s-.1-2.8-.1-2.8l-.4-.8h-.9c0-.1-.7.5-.7.5ZM4.8,896.2v.3c0,0,0,3.8,0,3.8v2.2c0,0,.5.8.5.8h.9c0,.1.6-.5.6-.5v-.3c0,0,0-2.2,0-2.2l-.2-3.8-.4-.8h-.9c0-.1-.6.5-.6.5ZM180.5,900.1v.4c0,0,0,4.5,0,4.5h0v1.5l.4.8.9.2.7-.6v-.3c0,0,0-1.5,0-1.5h0s0-4.5,0-4.5l-.4-.8-.9-.2-.7.6ZM5.2,908.2v.3s0,3.2,0,3.2h0s0,2.8,0,2.8l.4.8h.9c0,.1.6-.5.6-.5v-.3c0,0,0-2.8,0-2.8v-3.2c0,0-.5-.8-.5-.8l-.9-.2-.7.7ZM180.5,912.1v.3c0,0-.2,6-.2,6l.4.8.9.2.7-.6v-.3c0,0,.2-6,.2-6l-.4-.8-.9-.2-.7.6ZM5.4,920.1v.3c0,0,0,3.1,0,3.1h0v2.9l.4.8.9.2.7-.6v-.4c0,0,0-2.9,0-2.9v-3.1c0,0-.5-.8-.5-.8l-.9-.2-.7.6ZM180.2,924.1v.3c0,0-.2,6-.2,6l.4.8.9.2.7-.6v-.3c0,0,.2-6,.2-6l-.4-.8-.9-.2-.7.6ZM5.5,932.1v.4c0,0,0,3.6,0,3.6v2.4s.4.8.4.8l.9.2.7-.6v-.4c0,0,0-2.4,0-2.4v-3.6l-.4-.8-.9-.2-.7.6ZM180,936.1v.3c0,0,0,.7,0,.7h0s0,3.6,0,3.6h0s0,1.7,0,1.7l.4.8h.9c0,0,.6-.5.6-.5v-.3c0,0,0-1.7,0-1.7h0s0-3.6,0-3.6v-.7l-.4-.8-.9-.2-.7.6ZM5.8,944.2v.3s.2,2.2.2,2.2h0s.3,2.5.3,2.5h0s.2,1.3.2,1.3l.5.7h.9s.5-.7.5-.7v-.3l-.2-1.2h0s-.3-2.4-.3-2.4h0s-.2-2.2-.2-2.2l-.5-.8h-.9c0,0-.6.6-.6.6ZM180.8,948.3v.3l.4,2.3h0c0,0,.7,3.2.7,3.2h0c0,0,0,.4,0,.4l.6.7h.9c0,0,.5-.8.5-.8v-.4s-.1-.3-.1-.3l-.7-3.1h0s-.4-2.3-.4-2.3l-.5-.7h-.9l-.5.7ZM8.2,955.5l-.5.8v.3s.6,2.1.6,2.1h0s.7,2.2.7,2.2h0s.6,1.6.6,1.6l.7.6.9-.2.4-.8v-.3c0,0-.6-1.5-.6-1.5h0s-.7-2.1-.7-2.1h0c0,0-.6-2.1-.6-2.1l-.6-.7h-.9ZM184.1,959.3l-.4.8v.3c0,0,1,2.8,1,2.8h0s1,2.8,1,2.8v.2c0,0,.7.6.7.6l.9-.2.4-.8v-.4c0,0-.1-.1-.1-.1l-.9-2.8-.9-2.8-.6-.6h-.9ZM12.3,966.7l-.3.8v.3c0,0,.5.8.5.8h0c0,0,1,1.8,1,1.8h0c0,0,1.1,1.8,1.1,1.8h0s.6.9.6.9l.8.4.8-.4.2-.9-.2-.3-.6-.8h0s-1.1-1.7-1.1-1.7h0s-1-1.7-1-1.7h0c0,0-.4-.8-.4-.8l-.8-.5-.8.3ZM188,970.6l-.4.8v.4s.7,1.9.7,1.9h0s.8,2.4.8,2.4h0l.4,1.4.6.7h.9c0,0,.5-.8.5-.8v-.3s-.4-1.4-.4-1.4h0s-.8-2.4-.8-2.4h0l-.7-2-.6-.6h-.9ZM19.1,976.7v.9s.2.3.2.3l.7.8h0s1.4,1.4,1.4,1.4h0s1.5,1.4,1.5,1.4h0s.7.6.7.6l.9.2.7-.6v-.9s-.3-.3-.3-.3l-.7-.5h0s-1.4-1.3-1.4-1.3h0s-1.4-1.4-1.4-1.4h0s-.7-.8-.7-.8l-.8-.3-.8.5ZM190.5,982.8v.3s0,.2,0,.2h0c0,0,0,.9,0,.9h0c0,0,0,.9,0,.9h0c0,0,0,.8,0,.8h0c0,0-.2.8-.2.8h0c0,0-.2.8-.2.8h0c0,0-.2.8-.2.8h0v1l.7.5.9-.2.2-.3h0c0,0,0-.2,0-.2l.3-.8h0c0,0,.2-1,.2-1h0c0,0,.2-1,.2-1h0c0,0,0-1,0-1h0c0,0,0-1,0-1h0c0,0,0-1,0-1h0c0,0,0-.4,0-.4l-.4-.8h-.9c0,0-.6.6-.6.6ZM28.2,984.6l.2.9.2.2,1.2.8h0s1.8,1.1,1.8,1.1h0l1.9,1h0s.2.2.2.2h.9l.5-.7-.2-.8-.3-.2h-.2c0-.1,0-.1,0-.1l-1.8-1h0s-1.8-1.1-1.8-1.1h0l-1.2-.8h-.9c0,0-.6.6-.6.6ZM39.3,989.5l-.5.8.3.8.3.2.4.2h0l2.2.9h0l2.2.8.9.3h.9c0-.1.4-.9.4-.9l-.4-.8-.3-.2-.9-.3-2.2-.8-2.1-.8-.4-.2h-.9ZM186.2,992.6l-.7.5h0s-.9.6-.9.6h0s-1.1.6-1.1.6h0s-1.2.5-1.2.5h0s-1,.4-1,.4l-.6.7.2.9.8.4h.3c0,0,1.1-.5,1.1-.5h0s1.3-.6,1.3-.6h0l1.2-.6h0l1-.6h0c0,0,.8-.6.8-.6l.4-.8-.3-.8-.9-.2-.3.2ZM50.6,993.4l-.4.8.4.8.3.2h.4c0,0,2.5.7,2.5.7l2.5.6h.5c0,0,.9-.1.9-.1l.3-.8-.5-.8-.3-.2h-.5c0,0-2.5-.7-2.5-.7h0s-2.4-.6-2.4-.6h-.4c0,0-.9,0-.9,0ZM62.2,996.1l-.3.8.5.8h.3c0,.1,4.2.8,4.2.8h0s1.7.2,1.7.2l.8-.3.3-.8-.5-.8h-.3c0,0-1.7-.3-1.7-.3h0l-4.2-.7-.8.2ZM175.4,996.9l-1.2.3h0l-1.9.4h0l-2.1.4h-.5c0,0-.8.6-.8.6v.9s.7.6.7.6h.8c0,0,0,0,0,0l2.2-.4,2-.4h0s1.2-.3,1.2-.3l.7-.6v-.9c0,0-.8-.5-.8-.5h-.4ZM74,997.9l-.2.8.5.7h.3c0,.1,3.9.6,3.9.6h0l2.1.2.8-.3.2-.8-.6-.7h-.3c0,0-2-.3-2-.3h0l-3.9-.4-.8.3ZM85.9,999.1l-.2.9.6.7h.3c0,0,4.3.4,4.3.4h1.7c0,0,.8-.3.8-.3l.2-.8-.6-.7h-.3c0,0-1.7-.2-1.7-.2h0l-4.3-.3-.8.3ZM160.2,999.1h0l-2.4.2-.8.5v.9c0,0,.6.6.6.6h.3s2.5-.1,2.5-.1h0l3.5-.3.8-.5v-.9c0,0-.6-.6-.6-.6h-.3s-3.5.3-3.5.3ZM97.9,999.8l-.2.9.6.7h.3c0,0,5.5.3,5.5.3h.5s.8-.3.8-.3l.2-.9-.6-.7h-.3c0,0-.4,0-.4,0h0l-5.5-.2-.8.3ZM147.9,999.7h-2c0,0-.8.5-.8.5v.9c-.1,0,.5.7.5.7h.3c0,0,2,0,2,0h0l4-.2.8-.4v-.9c.1,0-.5-.6-.5-.6h-.3c0,0-3.9,0-3.9,0ZM109.9,1000.2l-.2.9.6.7h.3c0,0,.4,0,.4,0h5.6c0,0,.8-.3.8-.3l.2-.9-.6-.7h-.3c0,0-5.5-.2-5.5-.2h-.4l-.8.4ZM134.7,999.9l-.8.4-.2.9.6.7h.3c0,0,6,0,6,0l.8-.4.2-.9-.6-.7h-.3c0,0-6,0-6,0ZM121.9,1000.4l-.2.9.6.7h.3c0,0,2.8,0,2.8,0h3.2l.8-.4.2-.9-.6-.7h-.3c0,0-3.2,0-3.2,0h-2.8l-.8.4Z" inkscape:connector-curvature="0"/>
      <g id="use5405">
        <g id="text4381" class="cls-11" sodipodi:linespacing="100%">
          <text class="cls-6" transform="translate(15 795.8)"><tspan x="0" y="0">Anthony</tspan></text>
          <text class="cls-9" transform="translate(15 795.8)"><tspan x="0" y="0">Anthony</tspan></text>
          <text class="cls-6" transform="translate(29.2 827.8)"><tspan x="0" y="0">Noghes</tspan></text>
          <text class="cls-9" transform="translate(29.2 827.8)"><tspan x="0" y="0">Noghes</tspan></text>
        </g>
      </g>
      <g id="g5587">
        <g id="g3247-42-0-77-5">
          <path id="path3245-77-0-9-9" class="cls-24" d="M86.4,946.2c0,16.7-13.5,30.2-30.2,30.2s-30.2-13.5-30.2-30.2,13.5-30.2,30.2-30.2,30.2,13.5,30.2,30.2Z" sodipodi:cx="1185.03" sodipodi:cy="1020.305" sodipodi:rx="24.450413" sodipodi:ry="24.450413" sodipodi:type="arc"/>
          <g id="text3219-93-6-3-8" class="cls-11">
            <text class="cls-1" transform="translate(28.3 964.8)"><tspan x="0" y="0">18</tspan></text>
          </g>
        </g>
        <path id="path4345-4-71" class="cls-3" d="M135.7,965.2h-49.1s4.7-17.6,4.7-17.6l44.4,17.6Z" inkscape:flatsided="true" inkscape:randomized="0" inkscape:rounded="-1.9081958e-016" sodipodi:arg1="0.87605805" sodipodi:arg2="1.9232556" sodipodi:cx="-1437.0918" sodipodi:cy="419.79074" sodipodi:r1="49.013302" sodipodi:r2="47.942242" sodipodi:sides="3" sodipodi:type="star"/>
      </g>
      <g id="g5580">
        <g id="g3247-42-0-77-36">
          <path id="path3245-77-0-9-1" class="cls-24" d="M106.2,874.9c0,16.7-13.5,30.2-30.2,30.2s-30.2-13.5-30.2-30.2,13.5-30.2,30.2-30.2,30.2,13.5,30.2,30.2Z" sodipodi:cx="1185.03" sodipodi:cy="1020.305" sodipodi:rx="24.450413" sodipodi:ry="24.450413" sodipodi:type="arc"/>
          <g id="text3219-93-6-3-54" class="cls-11">
            <text class="cls-1" transform="translate(48.2 893.5)"><tspan x="0" y="0">19</tspan></text>
          </g>
        </g>
        <path id="path4345-4-77" class="cls-3" d="M143.9,925.8l-44.3-21.2,11.9-13.9,32.4,35.1Z" inkscape:flatsided="true" inkscape:randomized="0" inkscape:rounded="-1.9081958e-016" sodipodi:arg1="0.87605805" sodipodi:arg2="1.9232556" sodipodi:cx="-1437.0918" sodipodi:cy="419.79074" sodipodi:r1="49.013302" sodipodi:r2="47.942242" sodipodi:sides="3" sodipodi:type="star"/>
      </g>
      <g id="text4381-2" data-name="text4381" class="cls-11" sodipodi:linespacing="100%">
        <text class="cls-6" transform="translate(15 795.8)"><tspan x="0" y="0">Anthony</tspan></text>
        <text class="cls-6" transform="translate(29.2 827.8)"><tspan x="0" y="0">Noghes</tspan></text>
      </g>
    </g>
    <g id="g5499">
      <g id="use5399">
        <g id="text4369" class="cls-11" sodipodi:linespacing="100%">
          <text class="cls-6" transform="translate(492.1 473.7)"><tspan x="0" y="0">Tabac</tspan></text>
          <text class="cls-10" transform="translate(492.1 473.7)"><tspan x="0" y="0">Tabac</tspan></text>
        </g>
      </g>
      <g id="g3247-42-0-77-86">
        <path id="path3245-77-0-9-0" class="cls-24" d="M434,423c0,16.7-13.5,30.2-30.2,30.2s-30.2-13.5-30.2-30.2,13.5-30.2,30.2-30.2,30.2,13.5,30.2,30.2Z" sodipodi:cx="1185.03" sodipodi:cy="1020.305" sodipodi:rx="24.450413" sodipodi:ry="24.450413" sodipodi:type="arc"/>
        <g id="text3219-93-6-3-2" class="cls-11">
          <text class="cls-1" transform="translate(375.9 441.6)"><tspan x="0" y="0">12</tspan></text>
        </g>
      </g>
      <g id="text4369-2" data-name="text4369" class="cls-11" sodipodi:linespacing="100%">
        <text class="cls-6" transform="translate(492.1 473.7)"><tspan x="0" y="0">Tabac</tspan></text>
      </g>
      <path id="path4345-4-72-7" class="cls-3" d="M447.4,424.9l45.3,18.9-11.2,14.5-34.2-33.3Z" inkscape:flatsided="true" inkscape:randomized="0" inkscape:rounded="-1.9081958e-16" sodipodi:arg1="0.87605805" sodipodi:arg2="1.9232556" sodipodi:cx="-1437.0918" sodipodi:cy="419.79074" sodipodi:r1="49.013302" sodipodi:r2="47.942242" sodipodi:sides="3" sodipodi:type="star"/>
    </g>
    <g id="g5733">
      <g id="g5450">
        <g id="g3247-42-0-3">
          <path id="path3245-77-0-2" class="cls-25" d="M1237.5,279c0,14.8-12,26.8-26.8,26.8s-26.8-12-26.8-26.8,12-26.8,26.8-26.8,26.8,12,26.8,26.8Z" sodipodi:cx="1185.03" sodipodi:cy="1020.305" sodipodi:rx="24.450413" sodipodi:ry="24.450413" sodipodi:type="arc"/>
          <g id="text3219-93-6-21" class="cls-11">
            <text class="cls-1" transform="translate(1196.8 297.6)"><tspan x="0" y="0">6</tspan></text>
          </g>
        </g>
        <path id="path4345-4-0" class="cls-3" d="M1289.3,258l-43.5,22.8-4-17.8,47.5-4.9Z" inkscape:flatsided="true" inkscape:randomized="0" inkscape:rounded="-1.9081958e-16" sodipodi:arg1="0.87605805" sodipodi:arg2="1.9232556" sodipodi:cx="-1437.0918" sodipodi:cy="419.79074" sodipodi:r1="49.013302" sodipodi:r2="47.942242" sodipodi:sides="3" sodipodi:type="star"/>
      </g>
      <g id="g5727">
        <g id="use5696">
          <g id="text5692" class="cls-11" sodipodi:linespacing="100%">
            <text class="cls-6" transform="translate(941.6 633.8)"><tspan x="0" y="0">Grand Hotel Hairpin</tspan></text>
            <text class="cls-9" transform="translate(941.6 633.8)"><tspan x="0" y="0">Grand Hotel Hairpin</tspan></text>
          </g>
        </g>
        <g id="text5692-2" data-name="text5692" class="cls-11" sodipodi:linespacing="100%">
          <text class="cls-6" transform="translate(941.6 633.8)"><tspan x="0" y="0">Grand Hotel Hairpin</tspan></text>
        </g>
        <path id="path4345-4-75-9" class="cls-2" d="M1292.4,260.5l-30.7,36.6,4.9,3.2c-11.6,18-19.6,39.2-35.5,50.5-21.5,15.3-50,24.5-77.2,34.8-27.2,10.3-53.1,21.7-69.2,42.2-36.3,46.1-37.4,120.4-55.7,179.6l3.8,1.2c18.6-60.1,20-133.8,55-178.3,15.3-19.4,40.5-30.6,67.5-40.9,27-10.2,55.8-19.4,78-35.2,17.2-12.3,25.3-34.1,36.5-51.6l7.1,4.6,15.4-46.6h0Z"/>
      </g>
    </g>
    <g id="g5838">
      <g id="g5831">
        <g id="g3247-42-0-57">
          <path id="path3245-77-0-6" class="cls-25" d="M1438.6,111.8c0,14.8-12,26.8-26.8,26.8s-26.8-12-26.8-26.8,12-26.8,26.8-26.8,26.8,12,26.8,26.8Z" sodipodi:cx="1185.03" sodipodi:cy="1020.305" sodipodi:rx="24.450413" sodipodi:ry="24.450413" sodipodi:type="arc"/>
          <g id="text3219-93-6-1" class="cls-11">
            <text class="cls-1" transform="translate(1397.9 130.3)"><tspan x="0" y="0">7</tspan></text>
          </g>
        </g>
        <path id="path4345-4-7" class="cls-2" d="M1384.8,80.9c-.3,0-.7,0-1,0-1.3.2-2.7.5-4,1-5.1,1.9-10.4,6.1-15.9,11.2l-5.8-6.4-26.5,41.3,38.8-27.8-4.4-4.9c5.4-5,10.6-9,14.9-10.7,2.3-.9,4.4-1.2,6.2-.8s3.4,1.4,4.9,3.4l2.4-1.8c-1.8-2.5-4.1-4-6.7-4.5-.9-.2-1.9-.3-2.9-.2h0Z"/>
      </g>
      <g id="g5826">
        <g id="use5850">
          <g id="text5800" class="cls-11" sodipodi:linespacing="100%">
            <text class="cls-6" transform="translate(1181.7 30.6)"><tspan x="0" y="0">Mirabeau Bas</tspan></text>
            <text class="cls-9" transform="translate(1181.7 30.6)"><tspan x="0" y="0">Mirabeau Bas</tspan></text>
          </g>
        </g>
        <g id="text5800-2" data-name="text5800" class="cls-11" sodipodi:linespacing="100%">
          <text class="cls-6" transform="translate(1181.7 30.6)"><tspan x="0" y="0">Mirabeau Bas</tspan></text>
        </g>
        <path id="path4345-4-7-1" class="cls-2" d="M1376,18.3c.3.1.6.3.9.5,1.2.6,2.3,1.4,3.3,2.4,4,3.7,7.5,9.5,10.7,16.3l7.8-3.8,9.6,48.1-26-40,5.9-2.9c-3.2-6.6-6.6-12.2-10-15.4-1.8-1.7-3.6-2.7-5.4-3s-5.1-.8-7.6-.6l-.7-2.6c3.7-.5,6.2-.1,8.7.3,1,.2,1.9.4,2.8.8h0s0,0,0,0Z" sodipodi:nodetypes="csscccccssccscc"/>
      </g>
    </g>
  </g>
</svg>