<?xml version="1.0" encoding="UTF-8"?>
<svg id="Layer_1" data-name="Layer 1" xmlns="http://www.w3.org/2000/svg" xmlns:xlink="http://www.w3.org/1999/xlink" version="1.1" viewBox="0 0 550 443.7">
  <defs>
    <style>
      .cls-1 {
        stroke-width: 4.8px;
      }

      .cls-1, .cls-2, .cls-3, .cls-4, .cls-5, .cls-6, .cls-7, .cls-8, .cls-9, .cls-10, .cls-11, .cls-12, .cls-13, .cls-14, .cls-15, .cls-16, .cls-17 {
        fill: none;
      }

      .cls-1, .cls-3, .cls-5, .cls-6, .cls-7, .cls-8, .cls-9, .cls-10, .cls-11, .cls-12, .cls-13, .cls-14, .cls-15, .cls-16, .cls-17 {
        stroke-miterlimit: 10;
      }

      .cls-1, .cls-3, .cls-15, .cls-17 {
        stroke: #646464;
      }

      .cls-18 {
        clip-path: url(#clippath);
      }

      .cls-2, .cls-19, .cls-20, .cls-21, .cls-22, .cls-23, .cls-24 {
        stroke-width: 0px;
      }

      .cls-3, .cls-5, .cls-9, .cls-12, .cls-14 {
        stroke-width: 2.8px;
      }

      .cls-4 {
        stroke: #fff;
        stroke-width: 2.1px;
      }

      .cls-5, .cls-6 {
        stroke: #21cee0;
      }

      .cls-6, .cls-7, .cls-10 {
        stroke-width: 5.7px;
      }

      .cls-7, .cls-14 {
        stroke: #d7ff01;
      }

      .cls-19 {
        fill: #646464;
      }

      .cls-8, .cls-11, .cls-13 {
        stroke-width: 2px;
      }

      .cls-8, .cls-12, .cls-16 {
        stroke: #09bc8a;
      }

      .cls-25 {
        clip-path: url(#clippath-1);
      }

      .cls-26 {
        clip-path: url(#clippath-2);
      }

      .cls-9, .cls-10, .cls-13 {
        stroke: #ff5e93;
      }

      .cls-11 {
        stroke: #ff3380;
      }

      .cls-20 {
        fill: #21cee0;
      }

      .cls-21 {
        fill: #09bc8a;
      }

      .cls-22 {
        fill: #d7ff01;
      }

      .cls-15 {
        stroke-width: .7px;
      }

      .cls-16 {
        stroke-width: 2.2px;
      }

      .cls-17 {
        stroke-width: 14.2px;
      }

      .cls-23 {
        fill: #fff;
      }

      .cls-24 {
        fill: #ff5e93;
      }
    </style>
    <clipPath id="clippath">
      <path class="cls-2" d="M167.1,348.4c-20.8,0-39.5-5.3-46.5-7.5-9.7-3.1-37.7-21.8-37.7-51.5s1.1-22.1,8.1-34.1c1.3-2.2,128.7-217.9,133.8-227,4.3-7.6,9.9-10.4,13.9-11.4,4.3-1,11.2-1.1,19.7,4.4,4.8,3.1,7.9,7.8,9.1,13.5,1.6,7.9-.9,15.7-3,18.8-5.9,9-20,32.9-23.6,39.7-3.5,6.6-7.9,18.4-9,28.5-.9,8-1.3,10.7-1.5,12.4-.1.7-.2,1.2-.2,2-.6,4.8-5.2,14.7-18.5,17.6-9.8,2.2-22.1,5.1-27.6,6.6-3.5,1-3,5.7-2.7,7.6.1.7.4,1.7,1.9,2.7,2.6,1.7,7,2.2,11.3,1.2l.7-.2c10.9-2.5,33.6-7.8,59.7-5.9,13.7,1,26.5,6.1,38.9,11,11.4,4.5,22.1,8.8,31.3,8.6,15.3-.2,30.1-8.2,37.3-12,.7-.4,1.3-.7,1.9-1,7.4-3.9,23.1-9.8,44-6.1,18.1,3.2,38.6,7.6,48.5,9.7l1.4.3c11.1,2.4,28.8,14.8,33.2,35,2.5,11.4,1.6,28.9-17.3,47.8l-.9.9c-4.8,4.8-17.7,17.6-23.8,26.9-11.7,17.9-17.5,26.5-19.5,28.9-2.3,2.8-7.8,9.3-18.5,8.3-7.2-.6-31.4-5.3-45-14.9-13.3-9.3-23.1-22.2-25.2-25.9-4.4-7.7-.7-17.6,5.5-22.1l.4-.3c5.3-3.9,12.6-9.2,32.1-9.2s21.7-.6,31.5-3.3c12.1-3.3,12.7-8.1,13-9.9,1.2-8.6-1.2-12.4-9.1-14.2-13.6-3.2-38.6-8.8-52.9-10.1-14.2-1.3-41.5-1-59.4,1.4-18.2,2.5-46.2,8-56.4,11.2-10.7,3.3-19.5,7-20.7,7.6-3.2,1.6-7.1,1.8-10.4.5-3.2-1.3-5.7-4.1-7-7.7l-.2-.7c-2.6-7.7-4.9-10-9.4-9.4-5.1.7-5.7,2.4-5.7,8.9v.6c0,2.4.7,21.7,1.4,40.3.8,22.7,1.6,44.2,1.6,47.8,0,21.2-10.6,33.7-28.5,33.7ZM103.3,262.5c-3.9,6.6-6.2,16.4-6.2,26.8,0,21.5,22.2,36.2,27.9,38,5,1.6,22.8,6.8,42.2,6.8s14.3,0,14.3-19.4-.8-26.7-1.6-47.3c-.8-23.7-1.4-38.3-1.4-40.8v-.5c0-5.1-.1-20.7,18-23,16.5-2.1,22.3,11.9,24.3,17.9,3.8-1.6,11.9-4.8,21-7.6,11-3.4,39.5-9.1,58.7-11.7,19.5-2.6,47.7-2.8,62.6-1.5,15.2,1.4,40.9,7.1,54.9,10.4,15,3.5,22,14.2,19.9,30-1.4,10.6-9.3,17.9-23.3,21.7-11.7,3.2-17.3,3.8-35.2,3.8s-19.6,3.5-23.8,6.5l-.5.3c-1.6,1.2-1.6,3.2-1.5,3.7,1.5,2.5,10,13.5,21,21.2,10.4,7.3,31.5,11.8,38.1,12.4,3,.3,4.3-.9,6.4-3.4,1.1-1.3,5.1-7.1,18.5-27.6,6.9-10.5,20-23.6,25.6-29.2l.9-.9c11.5-11.5,16-23.2,13.5-34.7-3.2-14.4-16.1-22.8-22.4-24.2l-1.4-.3c-9.8-2.1-30.2-6.4-48-9.6-17.5-3.1-30.3,2.3-35,4.7-.5.3-1.1.6-1.7.9-8.1,4.3-24.9,13.3-43.7,13.6-12,.2-24-4.6-36.8-9.6-11.4-4.5-23.1-9.1-34.7-10-24-1.8-45.2,3.2-55.4,5.5l-.7.2c-8.2,1.9-16.5.7-22.3-3.2-4.4-2.9-7.2-7.1-8-12-2-11.5,3.1-21,12.8-23.7,6.1-1.7,19.1-4.8,28.3-6.8,6.3-1.4,7.4-5.2,7.5-5.6.1-.7.2-1.3.3-2.1.2-1.7.6-4.3,1.5-12.2,1.4-12,6.3-25.5,10.6-33.5,3.8-7.2,18-31.4,24.3-40.8,0,0,3.7-8.8-2.1-12.6-3.3-2.2-6.4-3.1-8.5-2.5-1.8.4-3.5,2-4.9,4.5-5.2,9.4-128.8,218.5-134,227.4ZM219,221.9h0ZM216.2,134.4s0,0,0,0c0,0,0,0,0,0Z"/>
    </clipPath>
    <clipPath id="clippath-1">
      <path class="cls-2" d="M167.1,348.4c-20.8,0-39.5-5.3-46.5-7.5-9.7-3.1-37.7-21.8-37.7-51.5s1.1-22.1,8.1-34.1c1.3-2.2,128.7-217.9,133.8-227,4.3-7.6,9.9-10.4,13.9-11.4,4.3-1,11.2-1.1,19.7,4.4,4.8,3.1,7.9,7.8,9.1,13.5,1.6,7.9-.9,15.7-3,18.8-5.9,9-20,32.9-23.6,39.7-3.5,6.6-7.9,18.4-9,28.5-.9,8-1.3,10.7-1.5,12.4-.1.7-.2,1.2-.2,2-.6,4.8-5.2,14.7-18.5,17.6-9.8,2.2-22.1,5.1-27.6,6.6-3.5,1-3,5.7-2.7,7.6.1.7.4,1.7,1.9,2.7,2.6,1.7,7,2.2,11.3,1.2l.7-.2c10.9-2.5,33.6-7.8,59.7-5.9,13.7,1,26.5,6.1,38.9,11,11.4,4.5,22.1,8.8,31.3,8.6,15.3-.2,30.1-8.2,37.3-12,.7-.4,1.3-.7,1.9-1,7.4-3.9,23.1-9.8,44-6.1,18.1,3.2,38.6,7.6,48.5,9.7l1.4.3c11.1,2.4,28.8,14.8,33.2,35,2.5,11.4,1.6,28.9-17.3,47.8l-.9.9c-4.8,4.8-17.7,17.6-23.8,26.9-11.7,17.9-17.5,26.5-19.5,28.9-2.3,2.8-7.8,9.3-18.5,8.3-7.2-.6-31.4-5.3-45-14.9-13.3-9.3-23.1-22.2-25.2-25.9-4.4-7.7-.7-17.6,5.5-22.1l.4-.3c5.3-3.9,12.6-9.2,32.1-9.2s21.7-.6,31.5-3.3c12.1-3.3,12.7-8.1,13-9.9,1.2-8.6-1.2-12.4-9.1-14.2-13.6-3.2-38.6-8.8-52.9-10.1-14.2-1.3-41.5-1-59.4,1.4-18.2,2.5-46.2,8-56.4,11.2-10.7,3.3-19.5,7-20.7,7.6-3.2,1.6-7.1,1.8-10.4.5-3.2-1.3-5.7-4.1-7-7.7l-.2-.7c-2.6-7.7-4.9-10-9.4-9.4-5.1.7-5.7,2.4-5.7,8.9v.6c0,2.4.7,21.7,1.4,40.3.8,22.7,1.6,44.2,1.6,47.8,0,21.2-10.6,33.7-28.5,33.7ZM103.3,262.5c-3.9,6.6-6.2,16.4-6.2,26.8,0,21.5,22.2,36.2,27.9,38,5,1.6,22.8,6.8,42.2,6.8s14.3,0,14.3-19.4-.8-26.7-1.6-47.3c-.8-23.7-1.4-38.3-1.4-40.8v-.5c0-5.1-.1-20.7,18-23,16.5-2.1,22.3,11.9,24.3,17.9,3.8-1.6,11.9-4.8,21-7.6,11-3.4,39.5-9.1,58.7-11.7,19.5-2.6,47.7-2.8,62.6-1.5,15.2,1.4,40.9,7.1,54.9,10.4,15,3.5,22,14.2,19.9,30-1.4,10.6-9.3,17.9-23.3,21.7-11.7,3.2-17.3,3.8-35.2,3.8s-19.6,3.5-23.8,6.5l-.5.3c-1.6,1.2-1.6,3.2-1.5,3.7,1.5,2.5,10,13.5,21,21.2,10.4,7.3,31.5,11.8,38.1,12.4,3,.3,4.3-.9,6.4-3.4,1.1-1.3,5.1-7.1,18.5-27.6,6.9-10.5,20-23.6,25.6-29.2l.9-.9c11.5-11.5,16-23.2,13.5-34.7-3.2-14.4-16.1-22.8-22.4-24.2l-1.4-.3c-9.8-2.1-30.2-6.4-48-9.6-17.5-3.1-30.3,2.3-35,4.7-.5.3-1.1.6-1.7.9-8.1,4.3-24.9,13.3-43.7,13.6-12,.2-24-4.6-36.8-9.6-11.4-4.5-23.1-9.1-34.7-10-24-1.8-45.2,3.2-55.4,5.5l-.7.2c-8.2,1.9-16.5.7-22.3-3.2-4.4-2.9-7.2-7.1-8-12-2-11.5,3.1-21,12.8-23.7,6.1-1.7,19.1-4.8,28.3-6.8,6.3-1.4,7.4-5.2,7.5-5.6.1-.7.2-1.3.3-2.1.2-1.7.6-4.3,1.5-12.2,1.4-12,6.3-25.5,10.6-33.5,3.8-7.2,18-31.4,24.3-40.8,0,0,3.7-8.8-2.1-12.6-3.3-2.2-6.4-3.1-8.5-2.5-1.8.4-3.5,2-4.9,4.5-5.2,9.4-128.8,218.5-134,227.4ZM219,221.9h0ZM216.2,134.4s0,0,0,0c0,0,0,0,0,0Z"/>
    </clipPath>
    <clipPath id="clippath-2">
      <rect class="cls-2" x="161.1" y="76" width="22.3" height="8.5" transform="translate(16.2 188.8) rotate(-59.8)"/>
    </clipPath>
  </defs>
  <g id="_コース" data-name="コース">
    <path class="cls-17" d="M97.2,258.9S225.9,41,231.1,31.7s13.8-10.8,23.5-4.5,6,19.4,4.1,22.4c-6.1,9.2-20.3,33.4-23.9,40.3-3.7,6.9-8.5,19.6-9.8,31-1.3,11.4-1.5,11.9-1.8,14.3-.3,2.5-3.2,9.4-13,11.6s-22.2,5.1-28,6.7-9.2,7.3-7.8,15.7,11.7,11.9,21.8,9.5c10.1-2.3,32.6-7.8,58.2-5.9s49.9,19.9,70.8,19.6c18.6-.3,35.9-10.4,42.3-13.8,6.4-3.4,20.6-8.8,39.5-5.4,18.9,3.4,40.7,8,49.6,10s24,12.4,27.8,29.6c4.7,21-11,36.9-15.4,41.3s-18.7,18.4-25.6,29c-6.9,10.5-16.7,25.5-19,28.2-2.3,2.8-5.7,6.4-12.4,5.9-6.7-.6-29.4-5.1-41.6-13.6-12.1-8.5-21.4-20.5-23.1-23.6-1.8-3.1-1.3-9.4,3.5-12.9s10.7-8.2,28.4-8.2,22.5-.6,33.4-3.5c10.8-2.9,17.1-7.9,18.1-15.8,1.3-9.7-.9-18.9-14.5-22.1-13.6-3.2-39.1-8.9-53.9-10.2s-42.6-1-61,1.5-46.7,8-57.5,11.4-20,7.2-21.8,8c-1.8.9-5.9,1.5-7.5-3.2s-5-16.4-17.3-14.8c-12.3,1.6-11.9,11.1-11.9,16.5s2.9,81.5,2.9,88.1-2.3,26.5-21.4,26.5-36.6-4.7-44.3-7.2c-7.5-2.4-32.5-19.2-32.5-44.7s1.7-21.2,7.2-30.5Z"/>
  </g>
  <g id="_セクター" data-name="セクター">
    <path class="cls-14" d="M250.6,218.4c-2.6.6-4.9,1.3-6.6,1.8-10.8,3.4-20,7.2-21.8,8-1.8.9-5.9,1.5-7.5-3.2s-5-16.4-17.3-14.8c-12.3,1.6-11.9,11.1-11.9,16.5s2.9,81.5,2.9,88.1-2.3,26.5-21.4,26.5-36.6-4.7-44.3-7.2c-7.7-2.4-32.7-19.2-32.7-44.7s1.7-21.2,7.1-30.5c0,0,36.1-61.1,70.9-120"/>
    <path class="cls-5" d="M405.3,173c.6.1,1.2.2,1.8.3,18.9,3.4,40.7,8,49.6,10s24,12.4,27.8,29.6c4.7,21-11,36.9-15.4,41.3s-18.7,18.4-25.6,29c-6.9,10.5-16.7,25.5-19,28.2-2.3,2.8-5.7,6.4-12.4,5.9-6.7-.6-29.4-5.1-41.6-13.6-12.1-8.5-21.4-20.5-23.1-23.6-1.8-3.1-1.3-9.4,3.5-12.9s10.7-8.2,28.4-8.2,22.5-.6,33.4-3.5c10.8-2.9,17.1-7.9,18.1-15.8,1.3-9.7-.9-18.9-14.5-22.1-13.6-3.2-39.1-8.9-53.9-10.2s-42.6-1-61,1.5c-15.4,2.1-37.7,6.3-50.9,9.6"/>
    <path class="cls-9" d="M168,138.9c30.8-52.3,60.6-102.8,63.1-107.1,5.2-9.3,13.8-10.8,23.5-4.5,9.7,6.3,6,19.4,4.1,22.4-6.1,9.2-20.3,33.4-23.9,40.3-3.7,6.9-8.5,19.6-9.8,31-1.3,11.4-1.5,11.9-1.8,14.3-.3,2.5-3.2,9.4-13,11.6s-22.2,5.1-28,6.7-9.2,7.3-7.8,15.7,11.7,11.9,21.8,9.5c10.1-2.3,32.6-7.8,58.2-5.9s49.9,19.9,70.8,19.6c18.6-.3,35.9-10.4,42.3-13.8,6.2-3.3,19.7-8.4,37.7-5.7"/>
  </g>
  <g id="_コーナー番号" data-name="コーナー番号">
    <g>
      <g>
        <circle class="cls-4" cx="272.9" cy="14.3" r="8.5"/>
        <circle class="cls-19" cx="272.9" cy="14.3" r="8.5"/>
      </g>
      <path class="cls-23" d="M271.2,18.2v-1.6h1v-4.5h-.9v-1.6h2.6v6.1h.9v1.6h-3.6Z"/>
    </g>
    <g>
      <g>
        <circle class="cls-4" cx="246.2" cy="141.1" r="8.5"/>
        <circle class="cls-19" cx="246.2" cy="141.1" r="8.5"/>
      </g>
      <path class="cls-23" d="M244.1,145v-2.6c0-.6.1-1,.6-1.2l1.9-.8v-1.6h-.1c0-.1-.5-.1-.5-.1h-.1v1.2h-1.7v-1.3c0-.8.4-1.1.8-1.3h2.5c.5.2.8.5.8,1.3v1.9c0,.6-.1.9-.6,1.2l-1.9.8v.9h2.4v1.6h-4.1Z"/>
    </g>
    <g>
      <g>
        <circle class="cls-4" cx="161.7" cy="188" r="8.5"/>
        <circle class="cls-19" cx="161.7" cy="188" r="8.5"/>
      </g>
      <path class="cls-23" d="M160.5,191.9c-.5-.2-.8-.5-.8-1.3v-1h1.7v.8h.1c0,.1.5.1.5.1h.1v-1.7h-.1c0-.1-1-.1-1-.1v-1.3h1.1v-1.6h-.1c0-.1-.5-.1-.5-.1h-.1v.9h-1.7v-1c0-.8.4-1.1.8-1.3h2.5c.5.2.8.5.8,1.3v1.3c0,.6-.2.9-.6,1.2.4.3.6.6.6,1.2v1.4c0,.8-.4,1.1-.8,1.3h-2.5Z"/>
    </g>
    <g>
      <g>
        <circle class="cls-4" cx="265.9" cy="153.9" r="8.5"/>
        <circle class="cls-19" cx="265.9" cy="153.9" r="8.5"/>
      </g>
      <path class="cls-23" d="M267.6,156.3v1.5h-1.7v-1.5h-2.2v-1.5l1.6-4.7h1.7l-1.6,4.6h.5v-.4l.4-1h1.3v1.4h.5v1.6h-.5Z"/>
    </g>
    <g>
      <g>
        <circle class="cls-4" cx="327.1" cy="171.9" r="8.5"/>
        <circle class="cls-19" cx="327.1" cy="171.9" r="8.5"/>
      </g>
      <path class="cls-23" d="M325.9,175.8c-.5-.2-.8-.5-.8-1.3v-1h1.6v.8h.1c0,.1.6.1.6.1h.1v-2.2h-.1c0-.1-.6-.1-.6-.1h-.1v.5h-1.7v-4.5h4v1.5h-2.4v1.6l.4-.4h1.3c.5.2.8.5.8,1.3v2.4c0,.8-.4,1.1-.8,1.3h-2.4Z"/>
    </g>
    <g>
      <g>
        <circle class="cls-4" cx="387.1" cy="151.1" r="8.5"/>
        <circle class="cls-19" cx="387.1" cy="151.1" r="8.5"/>
      </g>
      <path class="cls-23" d="M388.4,155h-2.5c-.5-.2-.8-.5-.8-1.3v-5.1c0-.8.4-1.1.8-1.3h2.5c.5.2.8.5.8,1.3v1h-1.7v-.8h-.1c0-.1-.5-.1-.5-.1h-.1v1.9l.3-.3h1.3c.5.2.8.5.8,1.3v2.2c0,.7-.4,1-.8,1.2ZM387.4,153.6h.1v-1.9h-.1c0-.1-.5-.1-.5-.1h-.1v1.9h.1c0,.1.5.1.5.1Z"/>
    </g>
    <g>
      <g>
        <circle class="cls-4" cx="504.8" cy="218" r="8.5"/>
        <circle class="cls-19" cx="504.8" cy="218" r="8.5"/>
      </g>
      <path class="cls-23" d="M502.9,221.9l2.1-6.2h-2.4v-1.5h4.1v1.2l-2.1,6.5h-1.7Z"/>
    </g>
    <g>
      <g>
        <circle class="cls-4" cx="422.4" cy="338.8" r="8.5"/>
        <circle class="cls-19" cx="422.4" cy="338.8" r="8.5"/>
      </g>
      <path class="cls-23" d="M421.1,342.7c-.5-.2-.8-.5-.8-1.3v-1.4c0-.6.2-.9.6-1.2-.4-.3-.6-.6-.6-1.2v-1.3c0-.8.4-1.1.8-1.3h2.5c.5.2.8.5.8,1.3v1.3c0,.6-.2.9-.6,1.2.4.3.6.6.6,1.2v1.4c0,.8-.4,1.1-.8,1.3h-2.5ZM422,338.1h.1c0,.1.5.1.5.1h.1v-1.6h-.1c0-.1-.5-.1-.5-.1h-.1v1.6ZM422.7,341.2v-1.6h-.1c0-.1-.5-.1-.5-.1h-.1v1.7h.1c0,.1.5.1.5.1h.1Z"/>
    </g>
    <g>
      <g>
        <circle class="cls-4" cx="331.3" cy="258" r="8.5"/>
        <circle class="cls-19" cx="331.3" cy="258" r="8.5"/>
      </g>
      <path class="cls-23" d="M330.1,261.9c-.5-.2-.8-.5-.8-1.3v-1h1.7v.8h.1c0,.1.5.1.5.1h.1v-1.9l-.3.3h-1.3c-.5-.2-.8-.5-.8-1.3v-2.2c0-.8.4-1.1.8-1.3h2.5c.5.2.8.5.8,1.3v5.1c0,.8-.4,1.1-.8,1.3h-2.5ZM331.7,257.5v-1.8h-.1c0-.1-.5-.1-.5-.1h-.1v1.9h.1c0,.1.5.1.5.1h.1Z"/>
    </g>
    <g>
      <g>
        <circle class="cls-4" cx="448.2" cy="228.6" r="8.5"/>
        <circle class="cls-19" cx="448.2" cy="228.6" r="8.5"/>
      </g>
      <g>
        <path class="cls-23" d="M444.1,232.5v-1.6h1v-4.5h-.9v-1.6h2.6v6.1h.9v1.6h-3.6Z"/>
        <path class="cls-23" d="M451.7,232.5h-2.5c-.5-.2-.8-.5-.8-1.3v-5.1c0-.8.4-1.1.8-1.3h2.5c.5.2.8.5.8,1.3v5.1c.1.8-.3,1.1-.8,1.3ZM450.9,226.3h-.1c0-.1-.5-.1-.5-.1h-.1v4.8h.1c0,.1.5.1.5.1h.1v-4.8Z"/>
      </g>
    </g>
    <g>
      <g>
        <circle class="cls-4" cx="217.9" cy="248.3" r="8.5"/>
        <circle class="cls-19" cx="217.9" cy="248.3" r="8.5"/>
      </g>
      <g>
        <path class="cls-23" d="M213.9,252.2v-1.6h1v-4.5h-.9v-1.6h2.6v6.1h.9v1.6h-3.6Z"/>
        <path class="cls-23" d="M218.6,252.2v-1.6h1v-4.5h-.9v-1.6h2.6v6.1h.9v1.6h-3.6Z"/>
      </g>
    </g>
    <g>
      <g>
        <circle class="cls-4" cx="181.9" cy="196.8" r="8.5"/>
        <circle class="cls-19" cx="181.9" cy="196.8" r="8.5"/>
      </g>
      <g>
        <path class="cls-23" d="M177.9,200.7v-1.6h1v-4.5h-.9v-1.6h2.6v6.1h.9v1.6h-3.6Z"/>
        <path class="cls-23" d="M182.2,200.7v-2.6c0-.6.1-1,.6-1.2l1.9-.8v-1.6h-.1c0-.1-.6-.1-.6-.1h-.1v1.2h-1.7v-1.3c0-.8.4-1.1.8-1.3h2.5c.5.2.8.5.8,1.3v1.9c0,.6-.1.9-.6,1.2l-1.9.8v.9h2.4v1.6h-4Z"/>
      </g>
    </g>
    <g>
      <g>
        <circle class="cls-4" cx="192.3" cy="353.5" r="8.5"/>
        <circle class="cls-19" cx="192.3" cy="353.5" r="8.5"/>
      </g>
      <g>
        <path class="cls-23" d="M188.2,357.4v-1.6h1v-4.5h-.9v-1.6h2.6v6.1h.9v1.6h-3.6Z"/>
        <path class="cls-23" d="M193.4,357.4c-.5-.2-.8-.5-.8-1.3v-1h1.7v.8h.1c0,.1.5.1.5.1h.1v-1.7h-.1c0-.1-1-.1-1-.1v-1.3h1.1v-1.6h-.1c0-.1-.5-.1-.5-.1h-.1v.9h-1.7v-1c0-.8.4-1.1.8-1.3h2.5c.5.2.8.5.8,1.3v1.3c0,.6-.2.9-.6,1.2.4.3.6.6.6,1.2v1.4c0,.8-.4,1.1-.8,1.3h-2.5Z"/>
      </g>
    </g>
    <g>
      <g>
        <circle class="cls-4" cx="59.1" cy="295.7" r="8.5"/>
        <circle class="cls-19" cx="59.1" cy="295.7" r="8.5"/>
      </g>
      <g>
        <path class="cls-23" d="M55,299.6v-1.6h1v-4.5h-.9v-1.5h2.6v6.1h.9v1.6h-3.6Z"/>
        <path class="cls-23" d="M63.1,298.1v1.5h-1.7v-1.5h-2.2v-1.5l1.6-4.7h1.7l-1.6,4.6h.5v-.4l.4-1h1.3v1.4h.5v1.6h-.5Z"/>
      </g>
    </g>
  </g>
  <g id="DRS">
    <g>
      <circle class="cls-3" cx="186.3" cy="245.1" r="4.7"/>
      <circle class="cls-21" cx="186.3" cy="245.1" r="4.7"/>
    </g>
    <g>
      <path class="cls-21" d="M302.7,371.7c0,.8-.6,1.4-1.4,1.4h-67.6c-.8,0-1.4-.6-1.4-1.4v-48.8c0-.8.6-1.4,1.4-1.4h67.6c.8,0,1.4.6,1.4,1.4v48.8Z"/>
      <g>
        <path class="cls-23" d="M263.5,337.1c0,1.3-.6,1.7-1.3,2h-5.2v-12h5.2c.7.3,1.3.7,1.3,2v8ZM259.7,329.3v7.7h1l.2-.2v-7.3l-.2-.2h-1Z"/>
        <path class="cls-23" d="M264.3,339.1v-12h5.2c.7.3,1.3.7,1.3,2v2.5c0,1.1-.5,1.6-1.1,1.9l1.4,3.8v1.7h-2.3l-1.5-4.7h-.3v4.7h-2.7ZM267,329.3v3h1l.2-.2v-2.7l-.2-.2h-1Z"/>
        <path class="cls-23" d="M278,334.4v2.7c0,1.3-.6,1.7-1.3,2h-3.9c-.7-.3-1.3-.7-1.3-2v-2.4h2.7v2l.2.2h.8l.2-.2v-1.9c-.1,0-2.8-1.2-2.8-1.2-.8-.4-.9-.9-.9-1.8v-2.5c0-1.3.6-1.7,1.3-2h3.9c.7.3,1.3.7,1.3,2v2.2h-2.7v-1.9l-.2-.2h-.8l-.2.2v1.7l.2.3,2.7,1.1c.7.2.8.8.8,1.7Z"/>
        <path class="cls-23" d="M244.4,351.3c0,1.3-.6,1.7-1.3,2h-5.2v-12h5.2c.7.3,1.3.7,1.3,2v8ZM240.6,343.5v7.7h1l.2-.2v-7.3l-.2-.2h-1Z"/>
        <path class="cls-23" d="M245.3,341.3h5.5v2.5h-2.8v2.2h2.7v2.5h-2.7v2.3h2.9v2.5h-5.6v-12h0Z"/>
        <path class="cls-23" d="M255.9,343.8v9.5h-2.7v-9.5h-1.9v-2.5h6.5v2.5h-1.9Z"/>
        <path class="cls-23" d="M258.3,341.3h5.5v2.5h-2.8v2.2h2.7v2.5h-2.7v2.3h2.9v2.5h-5.6v-12Z"/>
        <path class="cls-23" d="M271.2,351.3c0,1.3-.6,1.7-1.3,2h-3.9c-.7-.3-1.3-.7-1.3-2v-8c0-1.3.6-1.7,1.3-2h3.9c.7.3,1.3.7,1.3,2v2.9h-2.7v-2.6l-.2-.2h-.8l-.2.2v7.3l.2.2h.8l.2-.2v-2.5h2.7v2.9h0Z"/>
        <path class="cls-23" d="M276.3,343.8v9.5h-2.7v-9.5h-1.9v-2.5h6.5v2.5h-1.9Z"/>
        <path class="cls-23" d="M278.7,353.3v-2.5h.5v-7h-.5v-2.5h3.7v2.5h-.5v7h.5v2.5h-3.7Z"/>
        <path class="cls-23" d="M289.7,351.3c0,1.3-.6,1.7-1.3,2h-3.9c-.7-.3-1.3-.7-1.3-2v-8c0-1.3.6-1.7,1.3-2h3.9c.7.3,1.3.7,1.3,2v8ZM287,343.7l-.2-.2h-.8l-.2.2v7.3l.2.2h.8l.2-.2v-7.3Z"/>
        <path class="cls-23" d="M294.7,341.3h2.3v12h-2.3l-1.7-5.2h-.2v5.2h-2.3v-12h2.3l1.7,5.2h.2v-5.2Z"/>
        <path class="cls-23" d="M252.3,358h-3.5v-2.5h6.5v2.2l-3.5,7.3h3.5v2.5h-6.5v-2.2l3.5-7.3Z"/>
        <path class="cls-23" d="M262.6,365.5c0,1.3-.6,1.7-1.3,2h-3.9c-.7-.3-1.3-.7-1.3-2v-8c0-1.3.6-1.7,1.3-2h3.9c.7.3,1.3.7,1.3,2v8ZM259.9,357.8l-.2-.2h-.7l-.2.2v7.3l.2.2h.8l.2-.2v-7.3h-.1Z"/>
        <path class="cls-23" d="M267.6,355.5h2.3v12h-2.3l-1.7-5.2h-.2v5.2h-2.3v-12h2.3l1.7,5.2h.2v-5.2Z"/>
        <path class="cls-23" d="M270.8,355.5h5.5v2.5h-2.8v2.2h2.7v2.5h-2.7v2.3h2.9v2.5h-5.6v-12Z"/>
        <path class="cls-23" d="M279.7,367.5v-4c0-.9.2-1.5.9-1.8l2.9-1.3v-2.5l-.2-.2h-.8l-.2.2v1.7h-2.7v-2.1c0-1.3.6-1.7,1.3-2h3.9c.7.3,1.3.7,1.3,2v3c0,.9-.1,1.5-.9,1.8l-2.9,1.3v1.3h3.8v2.5h-6.4Z"/>
      </g>
    </g>
    <g>
      <path class="cls-21" d="M531.5,371.7c0,.8-.6,1.4-1.4,1.4h-67.6c-.8,0-1.4-.6-1.4-1.4v-48.8c0-.8.6-1.4,1.4-1.4h67.5c.8,0,1.4.6,1.4,1.4v48.8h0Z"/>
      <g>
        <path class="cls-23" d="M492.3,337.1c0,1.3-.6,1.7-1.3,2h-5.2v-12h5.2c.7.3,1.3.7,1.3,2v8ZM488.4,329.3v7.7h1l.2-.2v-7.3l-.2-.2h-1Z"/>
        <path class="cls-23" d="M493.1,339.1v-12h5.2c.7.3,1.3.7,1.3,2v2.5c0,1.1-.5,1.6-1.1,1.9l1.4,3.8v1.7h-2.3l-1.5-4.7h-.3v4.7h-2.7ZM495.8,329.3v3h1l.2-.2v-2.7l-.2-.2h-1Z"/>
        <path class="cls-23" d="M506.8,334.4v2.7c0,1.3-.6,1.7-1.3,2h-3.9c-.7-.3-1.3-.7-1.3-2v-2.4h2.7v2l.2.2h.8l.2-.2v-1.9c-.1,0-2.8-1.2-2.8-1.2-.8-.4-.9-.9-.9-1.8v-2.5c0-1.3.6-1.7,1.3-2h3.9c.7.3,1.3.7,1.3,2v2.2h-2.7v-1.9l-.2-.2h-.8l-.2.2v1.7l.2.3,2.7,1.1c.7.2.8.8.8,1.7Z"/>
        <path class="cls-23" d="M473.2,351.3c0,1.3-.6,1.7-1.3,2h-5.2v-12h5.2c.7.3,1.3.7,1.3,2v8ZM469.4,343.5v7.7h1l.2-.2v-7.3l-.2-.2h-1Z"/>
        <path class="cls-23" d="M474,341.3h5.5v2.5h-2.8v2.2h2.7v2.5h-2.7v2.3h2.9v2.5h-5.6v-12Z"/>
        <path class="cls-23" d="M484.7,343.8v9.5h-2.7v-9.5h-1.9v-2.5h6.5v2.5h-1.9Z"/>
        <path class="cls-23" d="M487.1,341.3h5.5v2.5h-2.8v2.2h2.7v2.5h-2.7v2.3h2.9v2.5h-5.6v-12Z"/>
        <path class="cls-23" d="M500,351.3c0,1.3-.6,1.7-1.3,2h-3.9c-.7-.3-1.3-.7-1.3-2v-8c0-1.3.6-1.7,1.3-2h3.9c.7.3,1.3.7,1.3,2v2.9h-2.7v-2.6l-.2-.2h-.8l-.2.2v7.3l.2.2h.8l.2-.2v-2.5h2.7v2.9Z"/>
        <path class="cls-23" d="M505.1,343.8v9.5h-2.7v-9.5h-1.9v-2.5h6.5v2.5h-1.9Z"/>
        <path class="cls-23" d="M507.5,353.3v-2.5h.5v-7h-.5v-2.5h3.7v2.5h-.5v7h.5v2.5h-3.7Z"/>
        <path class="cls-23" d="M518.5,351.3c0,1.3-.6,1.7-1.3,2h-3.9c-.7-.3-1.3-.7-1.3-2v-8c0-1.3.6-1.7,1.3-2h3.9c.7.3,1.3.7,1.3,2v8ZM515.8,343.7l-.2-.2h-.8l-.2.2v7.3l.2.2h.8l.2-.2v-7.3Z"/>
        <path class="cls-23" d="M523.5,341.3h2.3v12h-2.3l-1.7-5.2h-.2v5.2h-2.3v-12h2.3l1.7,5.2h.2v-5.2Z"/>
        <path class="cls-23" d="M481.1,358h-3.5v-2.5h6.5v2.2l-3.5,7.3h3.5v2.5h-6.5v-2.2l3.5-7.3Z"/>
        <path class="cls-23" d="M491.4,365.5c0,1.3-.6,1.7-1.3,2h-3.9c-.7-.3-1.3-.7-1.3-2v-8c0-1.3.6-1.7,1.3-2h3.9c.7.3,1.3.7,1.3,2v8ZM488.7,357.8l-.2-.2h-.8l-.2.2v7.3l.2.2h.8l.2-.2v-7.3Z"/>
        <path class="cls-23" d="M496.4,355.5h2.3v12h-2.3l-1.7-5.2h-.2v5.2h-2.3v-12h2.3l1.7,5.2h.2v-5.2Z"/>
        <path class="cls-23" d="M499.5,355.5h5.5v2.5h-2.8v2.2h2.7v2.5h-2.7v2.3h2.9v2.5h-5.6v-12Z"/>
        <path class="cls-23" d="M509,367.5v-2.5h1.5v-7h-1.3v-2.5h4v9.5h1.3v2.5h-5.5Z"/>
      </g>
    </g>
    <g>
      <line class="cls-16" x1="411.9" y1="239.4" x2="414.6" y2="228.1"/>
      <path class="cls-21" d="M407.9,232.5c.1-.6.7-1,1.3-.8s1,.7.8,1.3c-.1.6-.7,1-1.3.8-.5-.2-.9-.8-.8-1.3Z"/>
      <path class="cls-21" d="M403.7,231.5c.1-.6.7-1,1.3-.8.6.1,1,.7.8,1.3s-.7,1-1.3.8c-.6-.1-1-.7-.8-1.3Z"/>
      <path class="cls-21" d="M399.4,230.5c.1-.6.7-1,1.3-.8.6.1,1,.7.8,1.3-.1.6-.7,1-1.3.8s-.9-.7-.8-1.3Z"/>
      <path class="cls-21" d="M395.1,229.6c.1-.6.7-1,1.3-.9.6.1,1,.7.8,1.3-.1.6-.7,1-1.3.9-.5-.1-.9-.7-.8-1.3Z"/>
      <path class="cls-21" d="M390.9,228.8c.1-.6.7-1,1.3-.9.6.1,1,.7.9,1.3s-.7,1-1.3.9c-.7-.2-1.1-.7-.9-1.3Z"/>
      <path class="cls-21" d="M386.6,227.9c.1-.6.7-1,1.3-.9.6.1,1,.7.9,1.3s-.7,1-1.3.9c-.7,0-1.1-.7-.9-1.3Z"/>
      <path class="cls-21" d="M382.3,227.2c.1-.6.7-1,1.3-.9.6.1,1,.7.9,1.3s-.7,1-1.3.9-1.1-.7-.9-1.3Z"/>
      <path class="cls-21" d="M377.9,226.4c.1-.6.7-1,1.3-.9.6.1,1,.7.9,1.3s-.7,1-1.3.9c-.6,0-1-.7-.9-1.3Z"/>
      <path class="cls-21" d="M373.6,225.7c.1-.6.7-1,1.2-.9.6.1,1,.7.9,1.3s-.7,1-1.2.9-1-.7-.9-1.3Z"/>
      <path class="cls-21" d="M369.3,225.1c.1-.6.6-1,1.2-.9s1,.6.9,1.2c-.1.6-.6,1-1.2.9-.6,0-1-.6-.9-1.2Z"/>
      <path class="cls-21" d="M365,224.5c.1-.6.6-1,1.2-1,.6.1,1,.6.9,1.2-.1.6-.6,1-1.2,1s-1-.6-.9-1.2Z"/>
      <path class="cls-21" d="M360.6,224c.1-.6.6-1,1.2-1,.6.1,1,.6,1,1.2-.1.6-.6,1-1.2,1-.6,0-1-.6-1-1.2Z"/>
      <path class="cls-21" d="M356.3,223.5c.1-.6.6-1.1,1.2-1s1,.6,1,1.2c-.1.6-.6,1-1.2,1s-1.1-.6-1-1.2Z"/>
      <path class="cls-21" d="M351.9,223.1c0-.6.6-1.1,1.2-1,.6,0,1,.6,1,1.2-.1.6-.6,1-1.2,1s-1-.5-1-1.2Z"/>
      <path class="cls-21" d="M347.6,222.8c0-.6.6-1.1,1.2-1,.6,0,1.1.6,1,1.2,0,.6-.6,1.1-1.2,1-.6,0-1.1-.6-1-1.2Z"/>
      <path class="cls-21" d="M343.2,222.6c0-.6.5-1.1,1.1-1.1s1.1.5,1,1.2c0,.6-.5,1.1-1.1,1.1-.6-.1-1-.6-1-1.2Z"/>
      <path class="cls-21" d="M338.8,222.4c0-.6.5-1.1,1.1-1.1s1.1.5,1.1,1.1-.5,1.1-1.1,1.1c-.6.1-1.1-.4-1.1-1.1Z"/>
      <path class="cls-21" d="M334.5,222.4c0-.6.5-1.1,1.1-1.1s1.1.5,1.1,1.1-.5,1.1-1.1,1.1-1.1-.5-1.1-1.1Z"/>
      <path class="cls-21" d="M330.1,222.5c0-.6.5-1.1,1.1-1.1s1.1.5,1.1,1.1-.5,1.1-1.1,1.1-1.1-.5-1.1-1.1Z"/>
      <path class="cls-21" d="M325.7,222.7c0-.6.4-1.1,1-1.2.6,0,1.1.5,1.1,1.1s-.4,1.1-1,1.1c-.5,0-1-.4-1.1-1Z"/>
      <path class="cls-21" d="M321.4,223c-.1-.6.4-1.1,1-1.2.6,0,1.1.4,1.2,1,0,.6-.4,1.1-1,1.2-.6,0-1.2-.4-1.2-1Z"/>
      <path class="cls-21" d="M317,223.4c-.1-.6.4-1.2,1-1.2s1.1.4,1.2,1-.4,1.2-1,1.2c-.6.1-1.1-.4-1.2-1Z"/>
      <path class="cls-21" d="M312.7,223.9c-.1-.6.4-1.2,1-1.2.6-.1,1.1.4,1.2,1s-.4,1.2-1,1.2c-.6.1-1.2-.4-1.2-1Z"/>
      <path class="cls-21" d="M308.3,224.5c-.1-.6.3-1.2.9-1.2.6-.1,1.1.4,1.2,1s-.3,1.2-.9,1.2-1.1-.4-1.2-1Z"/>
      <path class="cls-21" d="M304,225.1c-.1-.6.3-1.2.9-1.2s1.2.3,1.2.9c.1.6-.3,1.2-.9,1.2-.6.1-1.1-.3-1.2-.9Z"/>
      <path class="cls-21" d="M299.7,225.7c-.1-.6.3-1.2.9-1.3s1.2.3,1.2.9c.1.6-.3,1.2-.9,1.3-.6.1-1.1-.3-1.2-.9Z"/>
      <path class="cls-21" d="M295.4,226.4c-.1-.6.3-1.2.9-1.3s1.2.3,1.3.9-.3,1.2-.9,1.3c-.7.1-1.2-.3-1.3-.9Z"/>
      <path class="cls-21" d="M291,227.1c-.1-.6.3-1.2.9-1.3s1.2.3,1.3.9-.3,1.2-.9,1.3c-.6.1-1.2-.3-1.3-.9Z"/>
      <path class="cls-21" d="M286.7,227.8c-.1-.6.3-1.2.9-1.3s1.2.3,1.3.9c.1.6-.3,1.2-.9,1.3s-1.2-.3-1.3-.9Z"/>
      <path class="cls-21" d="M282.4,228.6c-.1-.6.3-1.2.9-1.3s1.2.3,1.3.9c.1.6-.3,1.2-.9,1.3-.6.1-1.2-.3-1.3-.9Z"/>
      <path class="cls-21" d="M278.1,229.5c-.1-.6.3-1.2.9-1.3s1.2.3,1.3.9c.1.6-.3,1.2-.9,1.3-.6,0-1.1-.4-1.3-.9Z"/>
      <path class="cls-21" d="M273.9,230.3c-.1-.6.3-1.2.9-1.3s1.2.3,1.3.9-.3,1.2-.9,1.3c-.6.1-1.2-.3-1.3-.9Z"/>
      <path class="cls-21" d="M269.6,231.2c-.1-.6.2-1.2.8-1.3.6-.1,1.2.3,1.3.9.1.6-.3,1.2-.8,1.3-.6.1-1.2-.3-1.3-.9Z"/>
      <path class="cls-21" d="M265.3,232.1c-.1-.6.2-1.2.8-1.3.6-.1,1.2.2,1.3.8s-.2,1.2-.8,1.3-1.2-.2-1.3-.8Z"/>
      <path class="cls-21" d="M261,233.1c-.1-.6.2-1.2.8-1.3s1.2.2,1.3.8-.2,1.2-.8,1.3c-.5.2-1.1-.2-1.3-.8Z"/>
      <path class="cls-21" d="M256.8,234.1c-.1-.6.2-1.2.8-1.3s1.2.2,1.3.8-.2,1.2-.8,1.3c-.6.2-1.2-.2-1.3-.8Z"/>
      <path class="cls-21" d="M252.6,235.2c-.2-.6.2-1.2.8-1.4.6-.1,1.2.2,1.3.8s-.2,1.2-.8,1.3c-.6.3-1.2-.1-1.3-.7Z"/>
      <path class="cls-21" d="M248.3,236.3c-.2-.6.2-1.2.8-1.4s1.2.2,1.3.8-.2,1.2-.8,1.3c-.5.3-1.1-.1-1.3-.7Z"/>
      <path class="cls-21" d="M244.1,237.5c-.2-.6.2-1.2.7-1.4.6-.2,1.2.2,1.4.8s-.2,1.2-.7,1.4c-.6.2-1.2-.2-1.4-.8Z"/>
      <path class="cls-21" d="M239.9,238.8c-.2-.6.1-1.2.7-1.4s1.2.2,1.4.7c.2.6-.1,1.2-.7,1.4s-1.2-.1-1.4-.7Z"/>
      <path class="cls-21" d="M235.8,240.2c-.2-.6.1-1.2.7-1.4.6-.2,1.2.1,1.4.7.2.6-.1,1.2-.7,1.4-.6.2-1.2,0-1.4-.7Z"/>
      <line class="cls-16" x1="234.8" y1="246.7" x2="230.7" y2="235.9"/>
    </g>
    <g>
      <line class="cls-16" x1="140.2" y1="362" x2="142.1" y2="350.5"/>
      <path class="cls-21" d="M135.7,355.2c.1-.6.7-1,1.3-.9s1,.7.9,1.3c-.1.6-.7,1-1.3.9-.6-.1-1-.7-.9-1.3Z"/>
      <path class="cls-21" d="M131.4,354.3c.1-.6.7-1,1.3-.8.6.1,1,.7.8,1.3s-.7,1-1.3.8c-.6,0-.9-.7-.8-1.3Z"/>
      <path class="cls-21" d="M127.1,353.3c.2-.6.8-.9,1.3-.8.6.1.9.8.8,1.3s-.7.9-1.3.8c-.6,0-1-.7-.8-1.3Z"/>
      <path class="cls-21" d="M122.8,352c.2-.6.8-.9,1.4-.7.6.2.9.8.7,1.4-.2.6-.8.9-1.4.7-.5-.2-.9-.8-.7-1.4Z"/>
      <path class="cls-21" d="M118.6,350.6c.2-.6.8-.9,1.4-.7.6.2.9.8.7,1.4-.2.6-.8.9-1.4.7-.6-.2-.9-.8-.7-1.4Z"/>
      <path class="cls-21" d="M114.5,349.1c.2-.6.9-.8,1.4-.6.6.2.8.9.6,1.4-.2.6-.9.9-1.4.6-.6-.2-.8-.9-.6-1.4Z"/>
      <path class="cls-21" d="M110.4,347.3c.3-.6.9-.8,1.5-.5.5.3.8.9.5,1.5-.2.6-.9.8-1.5.5-.5-.3-.7-1-.5-1.5Z"/>
      <path class="cls-21" d="M106.5,345.2c.3-.5,1-.7,1.5-.4.5.3.7.9.5,1.5-.3.5-1,.8-1.5.5-.6-.4-.8-1-.5-1.6Z"/>
      <path class="cls-21" d="M102.7,343c.3-.5,1-.7,1.5-.4.5.3.7,1,.4,1.5-.3.5-1,.7-1.5.4-.6-.3-.7-1-.4-1.5Z"/>
      <path class="cls-21" d="M99,340.5c.4-.5,1.1-.6,1.5-.3.5.3.6,1,.3,1.5s-1,.6-1.5.3c-.5-.3-.7-1-.3-1.5Z"/>
      <path class="cls-21" d="M95.5,337.8c.4-.5,1.1-.5,1.5-.1.5.4.6,1.1.2,1.5-.4.5-1.1.6-1.6.2-.4-.5-.5-1.2,0-1.6Z"/>
      <path class="cls-21" d="M92.2,334.8c.4-.4,1.1-.4,1.6,0,.4.4.5,1.1,0,1.6s-1.1.5-1.6.1c-.5-.6-.5-1.3,0-1.7Z"/>
      <path class="cls-21" d="M89.2,331.6c.5-.4,1.2-.4,1.6.1s.4,1.1,0,1.6c-.4.4-1.2.4-1.6-.1s-.4-1.2,0-1.6Z"/>
      <path class="cls-21" d="M86.4,328.1c.5-.4,1.2-.3,1.5.2.4.5.3,1.2-.2,1.5-.5.4-1.2.3-1.6-.2-.3-.4-.2-1.1.3-1.5Z"/>
      <path class="cls-21" d="M83.9,324.5c.5-.3,1.2-.2,1.5.3s.2,1.2-.3,1.5c-.5.4-1.2.2-1.5-.3-.4-.5-.2-1.2.3-1.5Z"/>
      <path class="cls-21" d="M81.6,320.7c.5-.3,1.2-.1,1.5.4s0,1.2-.4,1.5-1.2.1-1.5-.4c-.3-.5,0-1.2.4-1.5Z"/>
      <path class="cls-21" d="M79.7,316.7c.6-.2,1.2,0,1.4.5.3.5,0,1.2-.5,1.5s-1.2,0-1.5-.5c-.2-.6,0-1.2.6-1.5Z"/>
      <path class="cls-21" d="M78,312.6c.6-.2,1.2.1,1.4.6.2.6,0,1.2-.6,1.4-.6.2-1.2,0-1.4-.6-.3-.5,0-1.2.6-1.4Z"/>
      <path class="cls-21" d="M76.6,308.4c.6-.2,1.2.1,1.4.7.2.6,0,1.2-.7,1.4-.6.2-1.2-.1-1.4-.7-.2-.6,0-1.2.7-1.4Z"/>
      <path class="cls-21" d="M75.4,304.1c.6-.1,1.2.2,1.4.8.2.6-.2,1.2-.8,1.3s-1.2-.2-1.4-.8c0-.5.2-1.1.8-1.3Z"/>
      <path class="cls-21" d="M74.5,299.8c.6-.1,1.2.3,1.3.9,0,.6-.3,1.2-.9,1.3-.6.1-1.2-.3-1.3-.9,0-.6.3-1.2.9-1.3Z"/>
      <path class="cls-21" d="M73.9,295.4c.6-.1,1.2.4,1.2,1,0,.6-.3,1.1-1,1.2-.6.1-1.2-.3-1.2-1s.4-1.1,1-1.2Z"/>
      <path class="cls-21" d="M73.6,291c.6,0,1.1.4,1.2,1,0,.6-.4,1.1-1,1.2s-1.1-.4-1.2-1c0-.7.4-1.2,1-1.2Z"/>
      <path class="cls-21" d="M73.5,286.6c.6,0,1.1.5,1.1,1.1s-.5,1.1-1.1,1.1-1.1-.5-1.1-1.1.5-1.1,1.1-1.1Z"/>
      <path class="cls-21" d="M73.6,282.1c.6,0,1.1.6,1.1,1.2s-.5,1.1-1.2,1.1-1.1-.5-1.1-1.2c0-.6.6-1.1,1.2-1.1Z"/>
      <path class="cls-21" d="M74,277.7c.6.1,1,.6,1,1.2,0,.6-.6,1-1.2,1-.6-.1-1.1-.6-1-1.2s.6-1.1,1.2-1Z"/>
      <path class="cls-21" d="M74.7,273.3c.6.1,1,.7.9,1.3,0,.6-.7,1-1.3.9-.6-.1-1-.7-.9-1.3.1-.6.7-1,1.3-.9Z"/>
      <path class="cls-21" d="M75.6,269c.6.1.9.7.8,1.3,0,.6-.7,1-1.3.9-.6-.1-1-.7-.9-1.3.2-.7.8-1,1.4-.9Z"/>
      <path class="cls-21" d="M76.7,264.7c.6.2.9.8.7,1.4-.2.6-.7.9-1.3.8-.6-.2-1-.8-.8-1.4.2-.6.8-1,1.4-.8Z"/>
      <path class="cls-21" d="M78,260.5c.6.2.9.8.7,1.4-.2.6-.8.9-1.4.7-.6-.2-.9-.8-.7-1.4s.9-.9,1.4-.7Z"/>
      <path class="cls-21" d="M79.6,256.3c.6.2.8.9.6,1.4-.2.6-.9.8-1.4.6-.6-.2-.9-.9-.6-1.4.2-.5.8-.8,1.4-.6Z"/>
      <path class="cls-21" d="M81.4,252.3c.5.3.8.9.5,1.5-.3.5-.9.8-1.5.5-.6-.2-.8-.9-.5-1.5.3-.5,1-.8,1.5-.5Z"/>
      <path class="cls-21" d="M83.5,248.4c.5.3.7,1,.4,1.5-.3.5-1,.7-1.5.4s-.7-1-.4-1.5c.3-.5.9-.7,1.5-.4Z"/>
      <path class="cls-21" d="M85.7,244.6c.5.3.7,1,.4,1.5s-1,.7-1.5.4-.7-1-.4-1.5c.3-.6,1-.7,1.5-.4Z"/>
      <path class="cls-21" d="M88,240.7c.5.3.7,1,.4,1.5-.3.5-1,.7-1.5.4s-.7-1-.4-1.5c.2-.5.9-.7,1.5-.4Z"/>
      <path class="cls-21" d="M90.2,236.9c.5.3.7,1,.4,1.5-.3.5-1,.7-1.5.4s-.7-1-.4-1.5c.3-.5,1-.7,1.5-.4Z"/>
      <path class="cls-21" d="M92.4,233.1c.5.3.7,1,.4,1.5-.3.5-1,.7-1.5.4s-.7-1-.4-1.5,1-.7,1.5-.4Z"/>
      <path class="cls-21" d="M94.7,229.3c.5.3.7,1,.4,1.5s-1,.7-1.5.4-.7-1-.4-1.5c.3-.6.9-.7,1.5-.4Z"/>
      <path class="cls-21" d="M96.9,225.4c.5.3.7,1,.4,1.5-.3.5-1,.7-1.5.4s-.7-1-.4-1.5c.3-.5,1-.7,1.5-.4Z"/>
      <path class="cls-21" d="M99.2,221.6c.5.3.7,1,.4,1.5-.3.5-1,.7-1.5.4s-.7-1-.4-1.5c.2-.5.9-.7,1.5-.4Z"/>
      <path class="cls-21" d="M101.4,217.8c.5.3.7,1,.4,1.5s-1,.7-1.5.4-.7-1-.4-1.5,1-.7,1.5-.4Z"/>
      <path class="cls-21" d="M103.6,214c.5.3.7,1,.4,1.5-.3.5-1,.7-1.5.4s-.7-1-.4-1.5c.3-.6,1-.7,1.5-.4Z"/>
      <path class="cls-21" d="M105.9,210.1c.5.3.7,1,.4,1.5-.3.5-1,.7-1.5.4s-.7-1-.4-1.5.9-.7,1.5-.4Z"/>
      <path class="cls-21" d="M108.1,206.3c.5.3.7,1,.4,1.5-.3.5-1,.7-1.5.4s-.7-1-.4-1.5,1-.7,1.5-.4Z"/>
      <path class="cls-21" d="M110.3,202.5c.5.3.7,1,.4,1.5-.3.5-1,.7-1.5.4s-.7-1-.4-1.5,1-.7,1.5-.4Z"/>
      <path class="cls-21" d="M112.6,198.7c.5.3.7,1,.4,1.5-.3.5-1,.7-1.5.4s-.7-1-.4-1.5c.3-.6,1-.7,1.5-.4Z"/>
      <path class="cls-21" d="M114.8,194.8c.5.3.7,1,.4,1.5s-1,.7-1.5.4-.7-1-.4-1.5,1-.7,1.5-.4Z"/>
      <path class="cls-21" d="M117.1,191c.5.3.7,1,.4,1.5s-1,.7-1.5.4-.7-1-.4-1.5c.3-.5.9-.7,1.5-.4Z"/>
      <path class="cls-21" d="M119.3,187.2c.5.3.7,1,.4,1.5-.3.5-1,.7-1.5.4s-.7-1-.4-1.5c.3-.5,1-.7,1.5-.4Z"/>
      <path class="cls-21" d="M121.5,183.4c.5.3.7,1,.4,1.5-.3.5-1,.7-1.5.4s-.7-1-.4-1.5c.3-.6,1-.7,1.5-.4Z"/>
      <path class="cls-21" d="M123.8,179.5c.5.3.7,1,.4,1.5-.3.5-1,.7-1.5.4s-.7-1-.4-1.5,1-.7,1.5-.4Z"/>
      <path class="cls-21" d="M126,175.7c.5.3.7,1,.4,1.5-.3.5-1,.7-1.5.4s-.7-1-.4-1.5c.3-.5,1-.7,1.5-.4Z"/>
      <path class="cls-21" d="M128.3,171.9c.5.3.7,1,.4,1.5s-1,.7-1.5.4-.7-1-.4-1.5c.3-.5.9-.7,1.5-.4Z"/>
      <path class="cls-21" d="M130.5,168.1c.5.3.7,1,.4,1.5s-1,.7-1.5.4-.7-1-.4-1.5,1-.7,1.5-.4Z"/>
      <path class="cls-21" d="M132.7,164.3c.5.3.7,1,.4,1.5s-1,.7-1.5.4-.7-1-.4-1.5,1-.8,1.5-.4Z"/>
      <path class="cls-21" d="M135,160.4c.5.3.7,1,.4,1.5s-1,.7-1.5.4-.7-1-.4-1.5,1-.7,1.5-.4Z"/>
      <path class="cls-21" d="M137.2,156.6c.5.3.7,1,.4,1.5s-1,.7-1.5.4-.7-1-.4-1.5,1-.7,1.5-.4Z"/>
      <path class="cls-21" d="M139.5,152.8c.5.3.7,1,.4,1.5s-1,.7-1.5.4-.7-1-.4-1.5c.2-.5.9-.7,1.5-.4Z"/>
      <path class="cls-21" d="M141.7,149c.5.3.7,1,.4,1.5s-1,.7-1.5.4-.7-1-.4-1.5c.3-.6,1-.8,1.5-.4Z"/>
      <path class="cls-21" d="M143.9,145.1c.5.3.7,1,.4,1.5s-1,.7-1.5.4-.7-1-.4-1.5,1-.7,1.5-.4Z"/>
      <path class="cls-21" d="M146.2,141.3c.5.3.7,1,.4,1.5s-1,.7-1.5.4-.7-1-.4-1.5.9-.7,1.5-.4Z"/>
      <path class="cls-21" d="M148.4,137.5c.5.3.7,1,.4,1.5s-1,.7-1.5.4-.7-1-.4-1.5,1-.7,1.5-.4Z"/>
      <path class="cls-21" d="M150.7,133.7c.5.3.7,1,.4,1.5s-1,.7-1.5.4-.7-1-.4-1.5c.2-.6.9-.7,1.5-.4Z"/>
      <path class="cls-21" d="M152.9,129.8c.5.3.7,1,.4,1.5s-1,.7-1.5.4-.7-1-.4-1.5,1-.7,1.5-.4Z"/>
      <path class="cls-21" d="M155.1,126c.5.3.7,1,.4,1.5s-1,.7-1.5.4c-.5-.3-.7-1-.4-1.5.3-.5,1-.7,1.5-.4Z"/>
      <path class="cls-21" d="M157.4,122.2c.5.3.7,1,.4,1.5s-1,.7-1.5.4c-.5-.3-.7-1-.4-1.5s.9-.7,1.5-.4Z"/>
      <path class="cls-21" d="M159.6,118.4c.5.3.7,1,.4,1.5s-1,.7-1.5.4c-.5-.3-.7-1-.4-1.5.3-.6,1-.7,1.5-.4Z"/>
      <path class="cls-21" d="M161.8,114.5c.5.3.7,1,.4,1.5s-1,.7-1.5.4c-.5-.3-.7-1-.4-1.5s1-.7,1.5-.4Z"/>
      <path class="cls-21" d="M164.1,110.7c.5.3.7,1,.4,1.5s-1,.7-1.5.4c-.5-.3-.7-1-.4-1.5.3-.5,1-.7,1.5-.4Z"/>
      <path class="cls-21" d="M166.3,106.9c.5.3.7,1,.4,1.5s-1,.7-1.5.4-.7-1-.4-1.5,1-.7,1.5-.4Z"/>
      <path class="cls-21" d="M168.6,103.1c.5.3.7,1,.4,1.5s-1,.7-1.5.4c-.5-.3-.7-1-.4-1.5.3-.6.9-.7,1.5-.4Z"/>
      <path class="cls-21" d="M170.8,99.2c.5.3.7,1,.4,1.5s-1,.7-1.5.4c-.5-.3-.7-1-.4-1.5s1-.7,1.5-.4Z"/>
      <path class="cls-21" d="M173,95.4c.5.3.7,1,.4,1.5s-1,.7-1.5.4c-.5-.3-.7-1-.4-1.5s1-.7,1.5-.4Z"/>
      <path class="cls-21" d="M175.3,91.6c.5.3.7,1,.4,1.5s-1,.7-1.5.4c-.5-.3-.7-1-.4-1.5s1-.7,1.5-.4Z"/>
      <path class="cls-21" d="M177.5,87.8c.5.3.7,1,.4,1.5s-1,.7-1.5.4c-.5-.3-.7-1-.4-1.5.3-.6,1-.7,1.5-.4Z"/>
      <path class="cls-21" d="M179.8,83.9c.5.3.7,1,.4,1.5s-1,.7-1.5.4-.7-1-.4-1.5.9-.7,1.5-.4Z"/>
      <path class="cls-21" d="M182,80.1c.5.3.7,1,.4,1.5s-1,.7-1.5.4-.7-1-.4-1.5,1-.7,1.5-.4Z"/>
      <path class="cls-21" d="M184.2,76.3c.5.3.7,1,.4,1.5s-1,.7-1.5.4-.7-1-.4-1.5c.3-.5,1-.7,1.5-.4Z"/>
      <path class="cls-21" d="M186.5,72.5c.5.3.7,1,.4,1.5s-1,.7-1.5.4c-.5-.3-.7-1-.4-1.5.3-.6.9-.7,1.5-.4Z"/>
      <path class="cls-21" d="M188.7,68.6c.5.3.7,1,.4,1.5s-1,.7-1.5.4c-.5-.3-.7-1-.4-1.5s1-.7,1.5-.4Z"/>
      <path class="cls-21" d="M191,64.8c.5.3.7,1,.4,1.5s-1,.7-1.5.4c-.5-.3-.7-1-.4-1.5.2-.5.9-.7,1.5-.4Z"/>
      <path class="cls-21" d="M193.2,61c.5.3.7,1,.4,1.5s-1,.7-1.5.4-.7-1-.4-1.5,1-.7,1.5-.4Z"/>
      <path class="cls-21" d="M195.4,57.2c.5.3.7,1,.4,1.5s-1,.7-1.5.4-.7-1-.4-1.5c.3-.6,1-.7,1.5-.4Z"/>
      <path class="cls-21" d="M197.7,53.3c.5.3.7,1,.4,1.5s-1,.7-1.5.4-.7-1-.4-1.5.9-.7,1.5-.4Z"/>
      <path class="cls-21" d="M199.9,49.5c.5.3.7,1,.4,1.5s-1,.7-1.5.4-.7-1-.4-1.5,1-.7,1.5-.4Z"/>
      <path class="cls-21" d="M202.1,45.7c.5.3.7,1,.4,1.5s-1,.7-1.5.4-.7-1-.4-1.5c.3-.5,1-.7,1.5-.4Z"/>
      <path class="cls-21" d="M204.4,41.9c.5.3.7,1,.4,1.5s-1,.7-1.5.4-.7-1-.4-1.5c.3-.6,1-.7,1.5-.4Z"/>
      <path class="cls-21" d="M206.6,38.1c.5.3.7,1,.4,1.5s-1,.7-1.5.4-.7-1-.4-1.5c.3-.6,1-.8,1.5-.4Z"/>
      <path class="cls-21" d="M208.9,34.2c.5.3.7,1,.4,1.5s-1,.7-1.5.4-.7-1-.4-1.5c.3-.5.9-.7,1.5-.4Z"/>
      <path class="cls-21" d="M211.1,30.4c.5.3.7,1,.4,1.5-.3.5-1,.7-1.5.4s-.7-1-.4-1.5c.3-.5,1-.7,1.5-.4Z"/>
      <path class="cls-21" d="M213.3,26.6c.5.3.7,1,.4,1.5s-1,.7-1.5.4-.7-1-.4-1.5c.3-.6,1-.7,1.5-.4Z"/>
      <line class="cls-16" x1="210" y1="20.8" x2="220" y2="26.6"/>
    </g>
    <path class="cls-8" d="M186.3,245.1h10.7c4.7,0,8.5,3.8,8.5,8.5v85.2c0,4.7,3.8,8.5,8.5,8.5h18.2"/>
    <g class="cls-18">
      <g>
        <path class="cls-1" d="M420.2,253.1l-.5,17.8c-.1,4.7,3.6,8.5,8.3,8.5h59.7c4.7,0,8.5,3.8,8.5,8.5v33.6"/>
        <path class="cls-8" d="M420.2,253.1l-.5,17.8c-.1,4.7,3.6,8.5,8.3,8.5h59.7c4.7,0,8.5,3.8,8.5,8.5v33.6"/>
      </g>
    </g>
    <g>
      <circle class="cls-3" cx="420.2" cy="253.1" r="4.7"/>
      <circle class="cls-21" cx="420.2" cy="253.1" r="4.7"/>
    </g>
    <path class="cls-8" d="M420.2,253.1l-.5,17.8c-.1,4.7,3.6,8.5,8.3,8.5h59.7c4.7,0,8.5,3.8,8.5,8.5v33.6"/>
  </g>
  <g id="SPEED_TRAP">
    <g>
      <path class="cls-24" d="M329.7,79.2c0,.8-.6,1.4-1.4,1.4h-42.2c-.8,0-1.4-.6-1.4-1.4v-34.6c0-.8.6-1.4,1.4-1.4h42.2c.8,0,1.4.6,1.4,1.4v34.6Z"/>
      <g>
        <path class="cls-23" d="M296.8,56.1v2.7c0,1.3-.6,1.7-1.3,2h-3.9c-.7-.3-1.3-.7-1.3-2v-2.4h2.7v2l.2.2h.8l.2-.2v-2c-.1,0-2.8-1.2-2.8-1.2-.8-.4-.9-.9-.9-1.8v-2.5c0-1.3.6-1.7,1.3-2h3.9c.7.3,1.3.7,1.3,2v2.2h-2.7v-1.9l-.3-.2h-.8l-.2.2v1.7l.2.3,2.7,1.1c.8.3.9.9.9,1.8Z"/>
        <path class="cls-23" d="M300.3,56.6v4.2h-2.7v-12h5.2c.7.3,1.3.7,1.3,2v3.8c0,1.3-.6,1.7-1.3,2h-2.5ZM300.3,51v3.5h1l.2-.2v-3.2l-.2-.2h-1Z"/>
        <path class="cls-23" d="M304.8,48.8h5.5v2.5h-2.8v2.2h2.7v2.5h-2.7v2.3h2.9v2.5h-5.6v-12Z"/>
        <path class="cls-23" d="M311.2,48.8h5.5v2.5h-2.8v2.2h2.7v2.5h-2.7v2.3h2.9v2.5h-5.6v-12Z"/>
        <path class="cls-23" d="M324,58.8c0,1.3-.6,1.7-1.3,2h-5.2v-12h5.2c.7.3,1.3.7,1.3,2v8ZM320.2,51v7.7h1l.2-.2v-7.3l-.2-.2h-1Z"/>
        <path class="cls-23" d="M297.8,65.5v9.5h-2.7v-9.5h-1.9v-2.5h6.5v2.5h-1.9Z"/>
        <path class="cls-23" d="M300.2,75v-12h5.2c.7.3,1.3.7,1.3,2v2.5c0,1.1-.5,1.6-1.1,1.9l1.4,3.8v1.8h-2.3l-1.5-4.7h-.3v4.7h-2.7ZM302.9,65.2v3h1v-.2c.1,0,.1-2.7.1-2.7l-.2-.2h-.9Z"/>
        <path class="cls-23" d="M311.3,72.6h-1.3l-.2,2.3h-2.5v-2l1.5-10h3.6l1.5,10v2h-2.5v-2.3ZM310.2,70.2h.8l-.3-3.8h-.2l-.3,3.8Z"/>
        <path class="cls-23" d="M317.3,70.8v4.2h-2.7v-12h5.2c.7.3,1.3.7,1.3,2v3.8c0,1.3-.6,1.7-1.3,2h-2.5ZM317.3,65.2v3.5h1l.2-.2v-3.2l-.2-.2h-1Z"/>
      </g>
    </g>
    <g class="cls-25">
      <g>
        <line class="cls-1" x1="213.7" y1="61.9" x2="284.7" y2="61.9"/>
        <line class="cls-11" x1="213.7" y1="61.9" x2="284.7" y2="61.9"/>
      </g>
    </g>
    <g>
      <circle class="cls-3" cx="213.7" cy="61.9" r="4.7"/>
      <circle class="cls-24" cx="213.7" cy="61.9" r="4.7"/>
    </g>
    <line class="cls-13" x1="213.7" y1="61.9" x2="284.7" y2="61.9"/>
  </g>
  <g id="_アイコン" data-name="アイコン">
    <g>
      <rect class="cls-19" x="143.1" y="130.3" width="2.8" height="2.8" transform="translate(-42.3 189.2) rotate(-59.5)"/>
      <rect class="cls-19" x="138.2" y="127.4" width="2.8" height="2.8" transform="translate(-42.3 183.6) rotate(-59.5)"/>
      <rect class="cls-19" x="142.1" y="126.4" width="2.8" height="2.8" transform="translate(-39.5 186.4) rotate(-59.5)"/>
      <rect class="cls-19" x="137.2" y="123.5" width="2.8" height="2.8" transform="translate(-39.4 180.8) rotate(-59.5)"/>
      <rect class="cls-19" x="144.9" y="121.5" width="2.8" height="2.8" transform="translate(-33.9 186.5) rotate(-59.5)"/>
      <rect class="cls-19" x="140.1" y="118.6" width="2.8" height="2.8" transform="translate(-33.7 180.9) rotate(-59.5)"/>
      <rect class="cls-19" x="133.3" y="124.5" width="2.8" height="2.8" transform="translate(-42.2 178) rotate(-59.5)"/>
      <rect class="cls-23" x="135.7" y="125.9" width="2.8" height="2.8" transform="translate(-42.2 180.7) rotate(-59.5)"/>
      <rect class="cls-23" x="140.7" y="128.8" width="2.8" height="2.8" transform="translate(-42.2 186.5) rotate(-59.5)"/>
      <rect class="cls-23" x="144.6" y="127.8" width="2.8" height="2.8" transform="translate(-39.5 189.3) rotate(-59.5)"/>
      <rect class="cls-23" x="139.7" y="124.9" width="2.8" height="2.8" transform="translate(-39.4 183.7) rotate(-59.5)"/>
      <rect class="cls-23" x="134.7" y="122" width="2.8" height="2.8" transform="translate(-39.4 178) rotate(-59.5)"/>
      <rect class="cls-23" x="138.7" y="121.1" width="2.8" height="2.8" transform="translate(-36.6 180.9) rotate(-59.5)"/>
      <rect class="cls-23" x="143.6" y="123.9" width="2.8" height="2.8" transform="translate(-36.6 186.5) rotate(-59.5)"/>
      <rect class="cls-23" x="141.5" y="116.2" width="2.8" height="2.8" transform="translate(-31 181) rotate(-59.5)"/>
      <rect class="cls-23" x="146.4" y="119.1" width="2.8" height="2.8" transform="translate(-31 186.6) rotate(-59.5)"/>
      <rect class="cls-23" x="147.4" y="122.9" width="2.8" height="2.8" transform="translate(-33.9 189.3) rotate(-59.5)"/>
      <rect class="cls-23" x="142.6" y="120.1" width="2.8" height="2.8" transform="translate(-33.8 183.7) rotate(-59.5)"/>
      <rect class="cls-23" x="137.7" y="117.2" width="2.8" height="2.8" transform="translate(-33.7 178.1) rotate(-59.5)"/>
      <rect class="cls-19" x="145.9" y="125.4" width="2.8" height="2.8" transform="translate(-36.7 189.3) rotate(-59.5)"/>
      <rect class="cls-19" x="141.1" y="122.5" width="2.8" height="2.8" transform="translate(-36.7 183.7) rotate(-59.5)"/>
      <rect class="cls-19" x="144" y="117.6" width="2.8" height="2.8" transform="translate(-31 183.7) rotate(-59.5)"/>
      <rect class="cls-19" x="136.2" y="119.6" width="2.8" height="2.8" transform="translate(-36.5 178.1) rotate(-59.5)"/>
      <rect class="cls-19" x="148.9" y="120.6" width="2.8" height="2.8" transform="translate(-31.1 189.4) rotate(-59.5)"/>
      <rect class="cls-19" x="139.1" y="114.7" width="2.8" height="2.8" transform="translate(-30.9 178.1) rotate(-59.5)"/>
    </g>
    <g>
      <g>
        <path class="cls-23" d="M462.8,426.3c0,1.6-1.3,2.8-2.8,2.8H91.1c-1.6,0-2.8-1.3-2.8-2.8v-24.9c0-1.6,1.3-2.8,2.8-2.8h368.8c1.6,0,2.8,1.3,2.8,2.8v24.9h.1Z"/>
        <path class="cls-15" d="M462.8,426.3c0,1.6-1.3,2.8-2.8,2.8H91.1c-1.6,0-2.8-1.3-2.8-2.8v-24.9c0-1.6,1.3-2.8,2.8-2.8h368.8c1.6,0,2.8,1.3,2.8,2.8v24.9h.1Z"/>
      </g>
      <g>
        <path class="cls-19" d="M133.8,415.3v2.6c0,1.3-.6,1.7-1.3,2h-3.3c-.7-.3-1.3-.7-1.3-2v-2h1.8v2.1l.4.4h1.6l.4-.4v-2.8l-.3-.4-2.8-.8c-.8-.3-1.1-.8-1.1-1.9v-2.2c0-1.3.6-1.7,1.3-2h3.3c.7.3,1.3.7,1.3,2v1.9h-1.8v-2.1l-.4-.4h-1.6l-.4.4v2.4l.4.4,2.6.7c.8.4,1.2.9,1.2,2.1Z"/>
        <path class="cls-19" d="M135.1,407.9h5.1v1.6h-3.3v3.4h3.1v1.6h-3.1v3.7h3.4v1.6h-5.2v-11.9Z"/>
        <path class="cls-19" d="M147.5,417.9c0,1.3-.6,1.7-1.3,2h-3.3c-.7-.3-1.3-.7-1.3-2v-8c0-1.3.6-1.7,1.3-2h3.3c.7.3,1.3.7,1.3,2v2.7h-1.8v-2.8l-.4-.4h-1.6l-.4.4v8.3l.4.4h1.6l.4-.4v-2.7h1.8v2.5Z"/>
        <path class="cls-19" d="M152.2,409.5v10.3h-1.8v-10.3h-2.1v-1.6h6.1v1.6h-2.2Z"/>
        <path class="cls-19" d="M161.1,417.9c0,1.3-.6,1.7-1.3,2h-3.3c-.7-.3-1.3-.7-1.3-2v-8c0-1.3.6-1.7,1.3-2h3.3c.7.3,1.3.7,1.3,2v8ZM159.3,409.7l-.4-.4h-1.6l-.4.4v8.3l.4.4h1.6l.4-.4v-8.3Z"/>
        <path class="cls-19" d="M162.5,419.8v-12h4.6c.7.3,1.3.7,1.3,2v2.6c0,1.3-.6,1.6-1.3,1.9h-.3c0,.1,2.1,4.4,2.1,4.4v1.1h-1.6l-2.2-5.1h-.8v5.1h-1.8ZM164.3,409.4v3.9h2l.4-.4v-3.1l-.4-.4h-2Z"/>
        <path class="cls-19" d="M172.6,419.8v-1.6h1.8v-8.7h-1.7v-1.6h3.5v10.4h1.7v1.6h-5.3Z"/>
      </g>
      <line class="cls-10" x1="102.5" y1="413.9" x2="123.7" y2="413.9"/>
      <g>
        <path class="cls-19" d="M223.9,415.3v2.6c0,1.3-.6,1.7-1.3,2h-3.3c-.7-.3-1.3-.7-1.3-2v-2h1.8v2.1l.4.4h1.6l.4-.4v-2.8l-.3-.4-2.6-.8c-.8-.3-1.1-.8-1.1-1.9v-2.2c0-1.3.6-1.7,1.3-2h3.3c.7.3,1.3.7,1.3,2v1.9h-1.8v-2.1l-.4-.4h-1.6l-.4.4v2.4l.4.4,2.6.7c.6.4,1,.9,1,2.1Z"/>
        <path class="cls-19" d="M225.2,407.9h5.1v1.6h-3.3v3.4h3.1v1.6h-3.1v3.7h3.4v1.6h-5.2v-11.9Z"/>
        <path class="cls-19" d="M237.6,417.9c0,1.3-.6,1.7-1.3,2h-3.3c-.7-.3-1.3-.7-1.3-2v-8c0-1.3.6-1.7,1.3-2h3.3c.7.3,1.3.7,1.3,2v2.7h-1.8v-2.8l-.4-.4h-1.6l-.4.4v8.3l.4.4h1.6l.4-.4v-2.7h1.8v2.5Z"/>
        <path class="cls-19" d="M242.3,409.5v10.3h-1.8v-10.3h-2.1v-1.6h6.1v1.6h-2.2Z"/>
        <path class="cls-19" d="M251.2,417.9c0,1.3-.6,1.7-1.3,2h-3.3c-.7-.3-1.3-.7-1.3-2v-8c0-1.3.6-1.7,1.3-2h3.3c.7.3,1.3.7,1.3,2v8ZM249.4,409.7l-.4-.4h-1.6l-.4.4v8.3l.4.4h1.6l.4-.4v-8.3Z"/>
        <path class="cls-19" d="M252.6,419.8v-12h4.6c.7.3,1.3.7,1.3,2v2.6c0,1.3-.6,1.6-1.3,1.9h-.3c0,.1,2.1,4.4,2.1,4.4v1.1h-1.6l-2.2-5.1h-.8v5.1h-1.8ZM254.4,409.4v3.9h2l.4-.4v-3.1l-.4-.4h-2Z"/>
        <path class="cls-19" d="M262.3,419.8v-3.6c0-1.1.4-1.7,1.2-2.1l3-1.2v-3.2l-.4-.4h-1.7l-.4.4v2h-1.8v-1.9c0-1.3.6-1.7,1.3-2h3.3c.7.3,1.3.7,1.3,2v2.5c0,1.1-.3,1.7-1.1,2.1l-3,1.2v2.5h4.1v1.6h-5.8Z"/>
      </g>
      <line class="cls-6" x1="192.6" y1="413.9" x2="213.8" y2="413.9"/>
      <g>
        <path class="cls-19" d="M313.7,415.3v2.6c0,1.3-.6,1.7-1.3,2h-3.3c-.7-.3-1.3-.7-1.3-2v-2h1.8v2.1l.4.4h1.6l.4-.4v-2.8l-.3-.4-2.7-.8c-.8-.3-1.1-.8-1.1-1.9v-2.2c0-1.3.6-1.7,1.3-2h3.3c.7.3,1.3.7,1.3,2v1.9h-1.8v-2.1l-.4-.4h-1.6l-.4.4v2.4l.4.4,2.6.7c.8.4,1.1.9,1.1,2.1Z"/>
        <path class="cls-19" d="M315.1,407.9h5.1v1.6h-3.3v3.4h3.1v1.6h-3.1v3.7h3.4v1.6h-5.2v-11.9Z"/>
        <path class="cls-19" d="M327.4,417.9c0,1.3-.6,1.7-1.3,2h-3.3c-.7-.3-1.3-.7-1.3-2v-8c0-1.3.6-1.7,1.3-2h3.3c.7.3,1.3.7,1.3,2v2.7h-1.8v-2.8l-.4-.4h-1.6l-.4.4v8.3l.4.4h1.6l.4-.4v-2.7h1.8v2.5Z"/>
        <path class="cls-19" d="M332.1,409.5v10.3h-1.8v-10.3h-2.1v-1.6h6.1v1.6h-2.2Z"/>
        <path class="cls-19" d="M341,417.9c0,1.3-.6,1.7-1.3,2h-3.3c-.7-.3-1.3-.7-1.3-2v-8c0-1.3.6-1.7,1.3-2h3.3c.7.3,1.3.7,1.3,2v8ZM339.2,409.7l-.4-.4h-1.6l-.4.4v8.3l.4.4h1.6l.4-.4v-8.3Z"/>
        <path class="cls-19" d="M342.4,419.8v-12h4.6c.7.3,1.3.7,1.3,2v2.6c0,1.3-.6,1.6-1.3,1.9h-.3c0,.1,2.1,4.4,2.1,4.4v1.1h-1.6l-2.2-5.1h-.8v5.1h-1.8ZM344.2,409.4v3.9h2l.4-.4v-3.1l-.4-.4h-2Z"/>
        <path class="cls-19" d="M353.4,419.8c-.7-.3-1.3-.7-1.3-2v-1.7h1.8v1.8l.4.4h1.7l.4-.4v-3.2l-.4-.3h-1.8v-1.4h1.8l.4-.4v-3l-.4-.4h-1.7l-.4.4v1.8h-1.8v-1.7c0-1.3.6-1.7,1.3-2h3.3c.7.3,1.3.7,1.3,2v1.9c0,1-.2,1.5-.9,1.9.6.4.9.9.9,1.9v2.2c0,1.3-.6,1.7-1.3,2h-3.3v.2Z"/>
      </g>
      <line class="cls-7" x1="282.4" y1="413.9" x2="303.7" y2="413.9"/>
      <g>
        <path class="cls-19" d="M403.6,417.9c0,1.3-.6,1.7-1.3,2h-4.6v-12h4.6c.7.3,1.3.7,1.3,2v8ZM399.5,409.4v9h2l.4-.4v-8.3l-.4-.4h-2Z"/>
        <path class="cls-19" d="M405,419.8v-12h4.6c.7.3,1.3.7,1.3,2v2.6c0,1.3-.6,1.6-1.3,1.9h-.3c0,.1,2.1,4.4,2.1,4.4v1.1h-1.6l-2.2-5.1h-.8v5.1h-1.8ZM406.8,409.4v3.9h2l.4-.4v-3.1l-.4-.4h-2Z"/>
        <path class="cls-19" d="M418.1,415.3v2.6c0,1.3-.6,1.7-1.3,2h-3.3c-.7-.3-1.3-.7-1.3-2v-2h1.8v2.1l.4.4h1.6l.4-.4v-2.8l-.3-.4-2.6-.8c-.8-.3-1.1-.8-1.1-1.9v-2.2c0-1.3.6-1.7,1.3-2h3.3c.7.3,1.3.7,1.3,2v1.9h-1.8v-2.1l-.4-.4h-1.6l-.4.4v2.4l.4.4,2.6.7c.6.4,1,.9,1,2.1Z"/>
        <path class="cls-19" d="M425.6,409.5h-3.9v-1.6h5.8v1.5l-4,8.9h4v1.6h-5.9v-1.5l4-8.9Z"/>
        <path class="cls-19" d="M434.8,417.9c0,1.3-.6,1.7-1.3,2h-3.3c-.7-.3-1.3-.7-1.3-2v-8c0-1.3.6-1.7,1.3-2h3.3c.7.3,1.3.7,1.3,2v8ZM433,409.7l-.4-.4h-1.6l-.4.4v8.3l.4.4h1.6l.4-.4v-8.3Z"/>
        <path class="cls-19" d="M440.5,407.9h1.6v12h-1.6l-2.6-7.1h-.2v7.1h-1.6v-12h1.6l2.6,7.1h.2v-7.1Z"/>
        <path class="cls-19" d="M443.5,407.9h5.1v1.6h-3.3v3.4h3.1v1.6h-3.1v3.7h3.4v1.6h-5.2v-11.9Z"/>
      </g>
      <g>
        <line class="cls-12" x1="373.7" y1="406.5" x2="373.7" y2="421.4"/>
        <path class="cls-21" d="M381.3,413.9c0,.8-.7,1.4-1.5,1.4s-1.5-.6-1.5-1.4.7-1.4,1.5-1.4,1.5.7,1.5,1.4Z"/>
        <ellipse class="cls-21" cx="385.9" cy="413.9" rx="1.5" ry="1.4"/>
        <line class="cls-12" x1="392" y1="406.5" x2="392" y2="421.4"/>
      </g>
    </g>
    <g class="cls-26">
      <g>
        <polygon class="cls-24" points="161.2 85.2 162.6 82.8 171.6 81.5 174.9 89.9 173.4 92.4 170.2 83.9 161.2 85.2"/>
        <polygon class="cls-20" points="164 80.3 165.5 77.9 174.5 76.6 177.7 85 176.3 87.5 173 79 164 80.3"/>
        <polygon class="cls-22" points="166.9 75.4 168.3 73 177.3 71.7 180.6 80.1 179.1 82.6 175.9 74.1 166.9 75.4"/>
      </g>
    </g>
  </g>
</svg>