<?xml version="1.0" encoding="UTF-8"?>
<svg id="svg2383" xmlns="http://www.w3.org/2000/svg" xmlns:xlink="http://www.w3.org/1999/xlink" xmlns:svg="http://www.w3.org/2000/svg" xmlns:sodipodi="http://sodipodi.sourceforge.net/DTD/sodipodi-0.dtd" xmlns:rdf="http://www.w3.org/1999/02/22-rdf-syntax-ns#" xmlns:inkscape="http://www.inkscape.org/namespaces/inkscape" xmlns:dc="http://purl.org/dc/elements/1.1/" xmlns:cc="http://creativecommons.org/ns#" version="1.1" viewBox="0 0 1201.3 892.9">
  <defs>
    <style>
      .cls-1, .cls-2, .cls-3, .cls-4, .cls-5, .cls-6, .cls-7, .cls-8, .cls-9, .cls-10 {
        fill: none;
      }

      .cls-1, .cls-4, .cls-5, .cls-11, .cls-12, .cls-7, .cls-10 {
        stroke: #fff;
      }

      .cls-1, .cls-13, .cls-14, .cls-15 {
        isolation: isolate;
      }

      .cls-1, .cls-13, .cls-15 {
        font-family: TimesNewRomanPSMT, 'Times New Roman';
      }

      .cls-1, .cls-15 {
        font-size: 64px;
      }

      .cls-16 {
        clip-path: url(#clippath);
      }

      .cls-2, .cls-17, .cls-18 {
        stroke-width: 0px;
      }

      .cls-3, .cls-8 {
        stroke: #ccc;
      }

      .cls-3, .cls-9 {
        stroke-width: 10px;
      }

      .cls-4, .cls-5 {
        stroke-width: 7px;
      }

      .cls-13 {
        font-size: 40px;
      }

      .cls-13, .cls-17, .cls-11, .cls-12, .cls-15 {
        fill: #000;
      }

      .cls-19 {
        clip-path: url(#clippath-1);
      }

      .cls-20 {
        clip-path: url(#clippath-4);
      }

      .cls-21 {
        clip-path: url(#clippath-3);
      }

      .cls-22 {
        clip-path: url(#clippath-2);
      }

      .cls-5, .cls-12, .cls-6, .cls-7, .cls-9, .cls-23, .cls-24 {
        stroke-linejoin: round;
      }

      .cls-11 {
        stroke-width: .8px;
      }

      .cls-11, .cls-12, .cls-23, .cls-24 {
        stroke-linecap: round;
      }

      .cls-6, .cls-8 {
        stroke-width: 5px;
      }

      .cls-6, .cls-9, .cls-23 {
        stroke: #000;
      }

      .cls-7, .cls-10 {
        stroke-width: 12px;
      }

      .cls-18, .cls-24 {
        fill: #fff;
      }

      .cls-23 {
        fill: url(#pattern4166);
        stroke-width: .7px;
      }

      .cls-24 {
        stroke: #181818;
        stroke-width: 1px;
      }
    </style>
    <clipPath id="clippath">
      <path class="cls-2" d="M1155.2,391.1c-606,9.9-1212.1,19.9-1818.1,29.8,4.2,254.6,8.3,509.1,12.5,763.7,606-9.9,1212.1-19.9,1818.1-29.8-4.2-254.6-8.3-509.1-12.5-763.7Z"/>
    </clipPath>
    <clipPath id="clippath-1">
      <rect class="cls-2" x="277.4" y="513.3" width="1511.8" height="1003.7" transform="translate(-415.2 999.6) rotate(-43.9)"/>
    </clipPath>
    <clipPath id="clippath-2">
      <rect class="cls-2" x="216.2" y="518.1" width="1511.8" height="1003.7" transform="translate(-435.6 958.5) rotate(-43.9)"/>
    </clipPath>
    <pattern id="pattern4166" x="0" y="0" width="18.2" height="18.1" patternTransform="translate(-3461.8 -11500.5) rotate(.2) scale(.5 -.5)" patternUnits="userSpaceOnUse" viewBox="0 0 18.2 18.1">
      <g>
        <rect class="cls-2" width="18.2" height="18.1"/>
        <g id="g4907">
          <rect id="rect4899" class="cls-17" y="0" width="18.2" height="18.1"/>
          <rect id="rect4903" class="cls-18" y="9.1" width="9.1" height="9.1"/>
          <rect id="rect4905" class="cls-18" x="9.1" y="0" width="9.1" height="9.1"/>
        </g>
      </g>
    </pattern>
    <clipPath id="clippath-3">
      <path class="cls-2" d="M-738.5,453.7h1818.4v763.8H-738.5V453.7Z"/>
    </clipPath>
    <clipPath id="clippath-4">
      <rect class="cls-2" x="-128.7" y="-660.1" width="1003.7" height="1511.8" transform="translate(73.8 338.2) rotate(-53.4)"/>
    </clipPath>
  </defs>
  <sodipodi:namedview id="base" bordercolor="#ffffff" borderopacity="0.0" inkscape:current-layer="layer1" inkscape:cx="756.53857" inkscape:cy="691.59964" inkscape:document-units="px" inkscape:pagecheckerboard="0" inkscape:pageopacity="0.0" inkscape:pageshadow="0" inkscape:window-height="705" inkscape:window-maximized="1" inkscape:window-width="1366" inkscape:window-x="-8" inkscape:window-y="-8" inkscape:zoom="0.46197248" pagecolor="#ffffff" showgrid="false"/>
  <g id="layer1" inkscape:groupmode="layer" inkscape:label="Layer 1">
    <path id="path22643" class="cls-4" d="M204.7,503.6l-26-18.8-41.7-24.9s-17-10.9-24.5-17.6c-3.5-3.1-7.2-6.3-9.6-10.3-1.9-3.2-2.4-7-3.6-10.4-16.7-48.7-50-146.1-50-146.1,0,0-16.7-51.2-24.9-76.9-2.2-6.9-6.1-13.5-6.5-20.7-.3-5.4,1.1-11,3.1-16.1,2-5.4,4.7-10.9,8.8-14.9,4.5-4.5,10.7-6.9,16.5-9.6,9.5-4.4,20.7-4.7,29.5-10.3,7.5-4.8,12-13.3,18.8-19.1,1.7-1.4,5.4-3.8,5.4-3.8" sodipodi:nodetypes="cccssscsssssssc"/>
    <path id="path28934" class="cls-5" d="M1142.3,857.4c-4.3-.3-74.6-3.3-80.7-3.6-3.4-.2-32-5.3-43.8-7.5-3.1-.6-4.6-.5-4.6-.5-1.8,0-4-.3-5.7-.3-39,.9-60.9.2-101.5.5-127.3.7-252-.5-379.2,1-32.4.4-117.8-1.2-150.2-.6-52,.9-63.8,14-107.3,13.9" inkscape:export-filename="D:\Losail.jpg.png" inkscape:export-xdpi="90.015755" inkscape:export-ydpi="90.015755" sodipodi:nodetypes="cssssssss"/>
    <path id="path22375" class="cls-10" d="M91,436.7s5.1,6.1,8,8.7c4.8,4.3,10.2,8,15.7,11.4,16.4,10,50.6,27.3,50.6,27.3,0,0,48.3,29,74.4,39.2,6.2,2.4,12.9,3.8,19.5,4.9,8,1.3,16.2,1.9,24.4,1.6,29.1-1.1,55.5-7.5,84.4-11.4,5.9-.8,14.7-2.7,20.3-4.9,5.3-2,10-3.9,13.8-8.1,4-4.4,6.6-10.1,8.7-15.7,2-5.5,3.9-11.5,3.2-17.3-.6-5.5-3.5-10.5-6.5-15.2-3.3-5.1-8.2-9.1-12.4-13.5-3.4-3.5-7.6-6.3-10.3-10.3-3.6-5.4-6.6-11.5-7.6-17.9-.9-5.7.7-11.6,1.6-17.3l9.2-42.8s2.5-12.3,5.7-17.6c2.5-4.2,4.3-6.8,8-9.9,3-2.5,8.3-5.5,11.9-6.9,5.5-2.2,11.7-2.8,17.6-2.7,3.6,0,7.3.8,10.7,1.9,4.5,1.5,8.7,3.8,12.6,6.5,3.8,2.6,7.4,5.6,10.3,9.2,2.2,2.6,4,5.7,5.4,8.8,2.4,5.6,2.7,12,5,17.6,1.4,3.5,3,7,5.4,9.9,2.4,3.1,5.3,6.1,8.8,8,4.5,2.5,9.8,4.2,14.9,4.2,4.8,0,9.5-1.8,13.8-3.8,4.5-2.1,8.8-4.9,12.2-8.4,3-3,6.2-10.6,6.2-10.6" sodipodi:nodetypes="csssssssssssscssccssssssssssssssc"/>
    <path id="path13072" class="cls-8" d="M204.7,503.6l-26-18.8-41.7-24.9s-17-10.9-24.5-17.6c-3.5-3.1-7.2-6.3-9.6-10.3-1.9-3.2-2.4-7-3.6-10.4-16.7-48.7-50-146.1-50-146.1,0,0-16.7-51.2-24.9-76.9-2.2-6.9-6.1-13.5-6.5-20.7-.3-5.4,1.1-11,3.1-16.1,2-5.4,4.7-10.9,8.8-14.9,4.5-4.5,10.7-6.9,16.5-9.6,9.5-4.4,20.7-4.7,29.5-10.3,7.5-4.8,12-13.3,18.8-19.1,1.7-1.4,5.4-3.8,5.4-3.8" sodipodi:nodetypes="cccssscsssssssc"/>
    <path id="path5465" class="cls-3" d="M91,436.7s5.1,6.1,8,8.7c4.8,4.3,10.2,8,15.7,11.4,16.4,10,50.6,27.3,50.6,27.3,0,0,48.3,29,74.4,39.2,6.2,2.4,12.9,3.8,19.5,4.9,8,1.3,16.2,1.9,24.4,1.6,29.1-1.1,55.5-7.5,84.4-11.4,5.9-.8,14.7-2.7,20.3-4.9,5.3-2,10-3.9,13.8-8.1,4-4.4,6.6-10.1,8.7-15.7,2-5.5,3.9-11.5,3.2-17.3-.6-5.5-3.5-10.5-6.5-15.2-3.3-5.1-8.2-9.1-12.4-13.5-3.4-3.5-7.6-6.3-10.3-10.3-3.6-5.4-6.6-11.5-7.6-17.9-.9-5.7.7-11.6,1.6-17.3l9.2-42.8s2.5-12.3,5.7-17.6c2.5-4.2,4.3-6.8,8-9.9,3-2.5,8.3-5.5,11.9-6.9,5.5-2.2,11.7-2.8,17.6-2.7,3.6,0,7.3.8,10.7,1.9,4.5,1.5,8.7,3.8,12.6,6.5,3.8,2.6,7.4,5.6,10.3,9.2,2.2,2.6,4,5.7,5.4,8.8,2.4,5.6,2.7,12,5,17.6,1.4,3.5,3,7,5.4,9.9,2.4,3.1,5.3,6.1,8.8,8,4.5,2.5,9.8,4.2,14.9,4.2,4.8,0,9.5-1.8,13.8-3.8,4.5-2.1,8.8-4.9,12.2-8.4,3-3,6.2-10.6,6.2-10.6" sodipodi:nodetypes="csssssssssssscssccssssssssssssssc"/>
    <path id="path14806" class="cls-10" d="M171.4,726.9l7.7-1.7s15.8-2.7,23.7-3.6c7.5-.9,15.1-.8,22.6-2.1,4.2-.7,10.9-2.5,15.3-3.8,2.6-.7,2.8-.4,4.3-1.3,1.4-.8,3.1-1.6,4.6-2.5,45.2-25.7,127.8-72.5,127.8-72.5,0,0,23.4-12.2,34.4-19.5,4-2.7,8.3-5.1,11.5-8.8,3.3-3.9,5-8.9,7.3-13.4,3.1-6,4.9-12.8,8.8-18.4,2.1-3,4.4-6.3,7.7-8,4.5-2.4,9.9-2.3,14.9-2.7,10.2-.8,20.5,2.1,30.6.8,14.2-1.9,27.8-7.4,41.3-12.2,16.4-5.9,32.8-12.4,48.2-20.7,20.8-11.2,40.4-24.8,59.3-39,10.7-8,21.4-16.3,30.6-26,7.7-8,13.8-17.4,20.3-26.4,23.9-33.1,68.5-101.4,68.5-101.4l9.4-14.1" sodipodi:nodetypes="ccssssssssssscsssssccc"/>
    <path id="path387" class="cls-3" d="M760.7,343.6s-44.6,68.3-68.5,101.4c-6.5,9-12.6,18.4-20.3,26.4-9.2,9.7-19.9,18-30.6,26-18.9,14.2-38.5,27.8-59.3,39-15.4,8.3-31.8,14.7-48.2,20.7-13.5,4.9-27.1,10.4-41.3,12.2-10.1,1.3-20.4-1.5-30.6-.8-5,.4-10.5.3-14.9,2.7-3.3,1.8-5.6,5-7.7,8-3.9,5.6-5.7,12.3-8.8,18.4-2.3,4.5-4,9.5-7.3,13.4-3.1,3.7-7.5,6.1-11.5,8.8-11,7.3-34.4,19.5-34.4,19.5,0,0-82.5,46.8-127.8,72.5-1.5.9-3.2,1.7-4.6,2.5-1.5.8-1.6.5-4.3,1.3-4.4,1.2-11.1,3-15.3,3.8-7.4,1.3-15.1,1.2-22.6,2.1-7.9,1-23.7,3.6-23.7,3.6l-7.7,1.7" sodipodi:nodetypes="ccssssssssssscssssscc"/>
    <path id="path3182" class="cls-7" d="M562.3,864.3c-136.8.3-268.3-2.9-398.1-3.3-76.6-.2-85.7-85-43.4-108,47.6-25.8,92.3-47.7,138.8-74.8,34.9-20.3,37.6-75.9-5.4-97.8-45.5-23.1-73.6-38.2-117.5-63.1-10.7-6.1-24.8-22.1-29-33.8C72.2,384.3,42.8,293.2,9.2,192.6c-10.2-30.7,4.2-58.9,38.3-70.6,26.2-9,37.9-13.3,66.1-22.4,25.3-8.1,57.3,13.1,67.9,40.4,22.1,57.1,37.9,113.8,56.2,170.2,4.2,12.9,21.9,28.9,32.6,28.7,8.5-.2,24.8-7.8,26.3-18.2,13.4-91,26.5-181.9,38-272.8,2.3-18.5,21.6-33.1,35-38.9,12.5-5.4,31.1-2.8,43.1,3,12,5.8,23.6,18.4,28.7,31.7,7.3,19,6.7,40.7,14.4,59.8,9.9,24.8,21.9,50.3,40.4,70,12.7,13.5,34.9,27.8,49,44.1,8.6,10,25.9,28.5,19.2,51.6-7.9,27.3-26.6,80.9-38.6,137.6-3,14.1,5.2,32.2,16.2,39.5,13,8.7,37.8,8.1,54.4,3.3,31.2-9.1,63.3-21.3,91.5-39.8,24-15.8,44-35.6,63.4-56.8,14.9-16.4,28.2-35.3,37.7-55.6,27.6-59.4,49.6-120.4,74.2-181.8,7.3-18.4,20-41.7,35.9-51.1,9.7-5.7,28.6-14.3,39.5-14.4,44.2-.2,68.9-.5,113.7.3,11.5.2,32.6,13.2,38,23.3,23.6,45,44.4,80.8,69.4,123.8,6.7,11.6,7.4,38.1-3.3,50.5-53.1,62-92.2,110.7-147.2,172-15.7,17.5-25.6,48.6-13.2,67.6,63.9,97.8,116.7,189.3,189.6,288.6,24.5,33.3-.1,83.2-41,83.4-197.4,1.1-382.5,4.3-582.3,4.8h0Z" inkscape:export-filename="D:\Losail.jpg.png" inkscape:export-xdpi="90.015755" inkscape:export-ydpi="90.015755" sodipodi:nodetypes="csssssssssssssssssssssssssssssssssssssss"/>
    <path id="path2406" class="cls-9" d="M562.3,864.3c-136.8.3-268.3-2.9-398.1-3.3-76.6-.2-85.7-85-43.4-108,47.6-25.8,92.3-47.7,138.8-74.8,34.9-20.3,37.6-75.9-5.4-97.8-45.5-23.1-73.6-38.2-117.5-63.1-10.7-6.1-24.8-22.1-29-33.8C72.2,384.3,42.8,293.2,9.2,192.6c-10.2-30.7,4.2-58.9,38.3-70.6,26.2-9,37.9-13.3,66.1-22.4,25.3-8.1,57.3,13.1,67.9,40.4,22.1,57.1,37.9,113.8,56.2,170.2,4.2,12.9,21.9,28.9,32.6,28.7,8.5-.2,24.8-7.8,26.3-18.2,13.4-91,26.5-181.9,38-272.8,2.3-18.5,21.6-33.1,35-38.9,12.5-5.4,31.1-2.8,43.1,3,12,5.8,23.6,18.4,28.7,31.7,7.3,19,6.7,40.7,14.4,59.8,9.9,24.8,21.9,50.3,40.4,70,12.7,13.5,34.9,27.8,49,44.1,8.6,10,25.9,28.5,19.2,51.6-7.9,27.3-26.6,80.9-38.6,137.6-3,14.1,5.2,32.2,16.2,39.5,13,8.7,37.8,8.1,54.4,3.3,31.2-9.1,63.3-21.3,91.5-39.8,24-15.8,44-35.6,63.4-56.8,14.9-16.4,28.2-35.3,37.7-55.6,27.6-59.4,49.6-120.4,74.2-181.8,7.3-18.4,20-41.7,35.9-51.1,9.7-5.7,28.6-14.3,39.5-14.4,44.2-.2,68.9-.5,113.7.3,11.5.2,32.6,13.2,38,23.3,23.6,45,44.4,80.8,69.4,123.8,6.7,11.6,7.4,38.1-3.3,50.5-53.1,62-92.2,110.7-147.2,172-15.7,17.5-25.6,48.6-13.2,67.6,63.9,97.8,116.7,189.3,189.6,288.6,24.5,33.3-.1,83.2-41,83.4-197.4,1.1-382.5,4.3-582.3,4.8h0Z" inkscape:export-filename="D:\Losail.jpg.png" inkscape:export-xdpi="90.015755" inkscape:export-ydpi="90.015755" sodipodi:nodetypes="csssssssssssssssssssssssssssssssssssssss"/>
    <path id="path3178" class="cls-6" d="M1142.3,857.4c-4.3-.3-74.6-3.3-80.7-3.6-3.4-.2-32-5.3-43.8-7.5-3.1-.6-4.6-.5-4.6-.5-1.8,0-4-.3-5.7-.3-39,.9-60.9.2-101.5.5-127.3.7-252-.5-379.2,1-32.4.4-117.8-1.2-150.2-.6-52,.9-63.8,14-107.3,13.9" inkscape:export-filename="D:\Losail.jpg.png" inkscape:export-xdpi="90.015755" inkscape:export-ydpi="90.015755" sodipodi:nodetypes="cssssssss"/>
    <g id="g3363" inkscape:export-filename="D:\Losail.jpg.png" inkscape:export-xdpi="90.015755" inkscape:export-ydpi="90.015755">
      <circle id="path3361" class="cls-24" cx="127.9" cy="802.5" r="20.9"/>
      <g id="text3184" class="cls-14">
        <text class="cls-13" transform="translate(118 816)"><tspan x="0" y="0">1</tspan></text>
      </g>
    </g>
    <g id="g3356" inkscape:export-filename="D:\Losail.jpg.png" inkscape:export-xdpi="90.015755" inkscape:export-ydpi="90.015755">
      <circle id="path3354" class="cls-24" cx="252.9" cy="629.5" r="20.9"/>
      <g id="text3188" class="cls-14">
        <text class="cls-13" transform="translate(243.3 643)"><tspan x="0" y="0">2</tspan></text>
      </g>
    </g>
    <g id="g3349" inkscape:export-filename="D:\Losail.jpg.png" inkscape:export-xdpi="90.015755" inkscape:export-ydpi="90.015755">
      <circle id="path3347" class="cls-24" cx="90.6" cy="527.4" r="20.9"/>
      <g id="text3192" class="cls-14">
        <text class="cls-13" transform="translate(81.5 540.6)"><tspan x="0" y="0">3</tspan></text>
      </g>
    </g>
    <g id="g3342" inkscape:export-filename="D:\Losail.jpg.png" inkscape:export-xdpi="90.015755" inkscape:export-ydpi="90.015755">
      <circle id="path3340" class="cls-24" cx="48.9" cy="171.1" r="20.9"/>
      <g id="text3196" class="cls-14">
        <text class="cls-13" transform="translate(39.3 184.6)"><tspan x="0" y="0">4</tspan></text>
      </g>
    </g>
    <g id="g3335" inkscape:export-filename="D:\Losail.jpg.png" inkscape:export-xdpi="90.015755" inkscape:export-ydpi="90.015755">
      <circle id="path3333" class="cls-24" cx="135.3" cy="135.2" r="20.9"/>
      <g id="text3200" class="cls-14">
        <text class="cls-13" transform="translate(125.7 148.2)"><tspan x="0" y="0">5</tspan></text>
      </g>
    </g>
    <g id="g3321" inkscape:export-filename="D:\Losail.jpg.png" inkscape:export-xdpi="90.015755" inkscape:export-ydpi="90.015755">
      <circle id="path3319" class="cls-24" cx="385.5" cy="46.2" r="20.9"/>
      <g id="text3208" class="cls-14">
        <text class="cls-13" transform="translate(375.6 59.2)"><tspan x="0" y="0">7</tspan></text>
      </g>
    </g>
    <g id="g3314" inkscape:export-filename="D:\Losail.jpg.png" inkscape:export-xdpi="90.015755" inkscape:export-ydpi="90.015755">
      <circle id="path3312" class="cls-24" cx="516.1" cy="136.8" r="20.9"/>
      <g id="text3212" class="cls-14">
        <text class="cls-13" transform="translate(506 150.1)"><tspan x="0" y="0">8</tspan></text>
      </g>
    </g>
    <g id="g3307" inkscape:export-filename="D:\Losail.jpg.png" inkscape:export-xdpi="90.015755" inkscape:export-ydpi="90.015755">
      <circle id="path3297" class="cls-24" cx="527.9" cy="256.5" r="20.9"/>
      <g id="text3216" class="cls-14">
        <text class="cls-13" transform="translate(518 269.8)"><tspan x="0" y="0">9</tspan></text>
      </g>
    </g>
    <g id="g3292" inkscape:export-filename="D:\Losail.jpg.png" inkscape:export-xdpi="90.015755" inkscape:export-ydpi="90.015755">
      <circle id="path3290" class="cls-24" cx="562.9" cy="418.4" r="20.9"/>
      <g id="text3220" class="cls-14">
        <text class="cls-13" transform="translate(541.3 431.7)"><tspan x="0" y="0">10</tspan></text>
      </g>
    </g>
    <g id="g3285" inkscape:export-filename="D:\Losail.jpg.png" inkscape:export-xdpi="90.015755" inkscape:export-ydpi="90.015755">
      <circle id="path3283" class="cls-24" cx="722.1" cy="332.8" r="20.9"/>
      <g id="text3224" class="cls-14">
        <text class="cls-13" transform="translate(702.2 346.3)"><tspan x="0" y="0">11</tspan></text>
      </g>
    </g>
    <g id="g3278" inkscape:export-filename="D:\Losail.jpg.png" inkscape:export-xdpi="90.015755" inkscape:export-ydpi="90.015755">
      <circle id="path3276" class="cls-24" cx="920.3" cy="87.2" r="20.9"/>
      <g id="text3228" class="cls-14">
        <text class="cls-13" transform="translate(898.8 100.7)"><tspan x="0" y="0">12</tspan></text>
      </g>
    </g>
    <g id="g3271" inkscape:export-filename="D:\Losail.jpg.png" inkscape:export-xdpi="90.015755" inkscape:export-ydpi="90.015755">
      <circle id="path3269" class="cls-24" cx="1055.3" cy="84.7" r="20.9"/>
      <g id="text3232" class="cls-14">
        <text class="cls-13" transform="translate(1034.6 97.9)"><tspan x="0" y="0">13</tspan></text>
      </g>
    </g>
    <g id="g3264" inkscape:export-filename="D:\Losail.jpg.png" inkscape:export-xdpi="90.015755" inkscape:export-ydpi="90.015755">
      <circle id="path3262" class="cls-24" cx="1131" cy="225.1" r="20.9"/>
      <g id="text3236" class="cls-14">
        <text class="cls-13" transform="translate(1109.4 238.7)"><tspan x="0" y="0">14</tspan></text>
      </g>
    </g>
    <g id="g3257" inkscape:export-filename="D:\Losail.jpg.png" inkscape:export-xdpi="90.015755" inkscape:export-ydpi="90.015755">
      <circle id="path3255" class="cls-24" cx="1023.3" cy="464.3" r="20.9"/>
      <g id="text3240" class="cls-14">
        <text class="cls-13" transform="translate(1002.2 477.6)"><tspan x="0" y="0">15</tspan></text>
      </g>
    </g>
    <g id="g3250" inkscape:export-filename="D:\Losail.jpg.png" inkscape:export-xdpi="90.015755" inkscape:export-ydpi="90.015755">
      <circle id="path3248" class="cls-24" cx="1158.9" cy="817" r="20.9"/>
      <g id="text3244" class="cls-14">
        <text class="cls-13" transform="translate(1137.4 830.3)"><tspan x="0" y="0">16</tspan></text>
      </g>
    </g>
    <g class="cls-16">
      <g id="g4801" inkscape:export-filename="D:\Losail.jpg.png" inkscape:export-xdpi="90.015755" inkscape:export-ydpi="90.015755">
        <g class="cls-19">
          <path id="path3463" class="cls-11" d="M859.7,874v12.6c0,0-33.1-6.5-33.1-6.5l33.1-6.1Z" inkscape:flatsided="true" inkscape:randomized="0" inkscape:rounded="0" sodipodi:arg1="0.52359878" sodipodi:arg2="1.5707963" sodipodi:cx="1683.6964" sodipodi:cy="1391.4535" sodipodi:r1="14.134234" sodipodi:r2="7.0671172" sodipodi:sides="3" sodipodi:type="star"/>
        </g>
        <g class="cls-22">
          <polygon id="rect3457" class="cls-23" points="807.2 829.6 820.2 829.6 820 883.2 807 883.2 807.2 829.6"/>
        </g>
      </g>
    </g>
    <g class="cls-21">
      <g id="g3804" inkscape:export-filename="D:\Losail.jpg.png" inkscape:export-xdpi="90.015755" inkscape:export-ydpi="90.015755">
        <g id="text3180" class="cls-14">
          <text class="cls-15" transform="translate(607.7 697.5)"><tspan x="0" y="0">N</tspan></text>
          <text class="cls-1" transform="translate(607.7 697.5)"><tspan x="0" y="0">N</tspan></text>
        </g>
        <path id="path2745" class="cls-12" d="M662.8,658.2l40.5,36.9.5-.9-4.7-14.3,14.8-2.5.5-.9-51.6-18.4Z"/>
      </g>
    </g>
    <g id="g3503" inkscape:export-filename="D:\Losail.jpg.png" inkscape:export-xdpi="90.015755" inkscape:export-ydpi="90.015755">
      <g id="g3328">
        <circle id="path3326" class="cls-24" cx="265.7" cy="263.7" r="20.9"/>
        <g id="text3204" class="cls-14">
          <text class="cls-13" transform="translate(255.6 276.9)"><tspan x="0" y="0">6</tspan></text>
        </g>
      </g>
      <g class="cls-20">
        <path id="path3501" class="cls-11" d="M262.6,290.3l12.4-2-1,33.6-11.4-31.6Z" inkscape:flatsided="true" inkscape:randomized="0" inkscape:rounded="0" sodipodi:arg1="0.52359878" sodipodi:arg2="1.5707963" sodipodi:cx="1683.6964" sodipodi:cy="1391.4535" sodipodi:r1="14.134234" sodipodi:r2="7.0671172" sodipodi:sides="3" sodipodi:type="star"/>
      </g>
    </g>
  </g>
</svg>