<?xml version="1.0" encoding="UTF-8"?>
<svg id="Layer_1" data-name="Layer 1" xmlns="http://www.w3.org/2000/svg" xmlns:xlink="http://www.w3.org/1999/xlink" xmlns:rdf="http://www.w3.org/1999/02/22-rdf-syntax-ns#" xmlns:dc="http://purl.org/dc/elements/1.1/" xmlns:cc="http://creativecommons.org/ns#" version="1.1" viewBox="0 0 2000 1250">
  <defs>
    <style>
      .cls-1, .cls-2, .cls-3 {
        fill: none;
      }

      .cls-1, .cls-4 {
        stroke-width: 0px;
      }

      .cls-5 {
        fill: url(#pattern4599);
        stroke-miterlimit: 15.1;
        stroke-width: 1.2px;
      }

      .cls-5, .cls-6, .cls-2, .cls-7, .cls-8, .cls-9, .cls-3, .cls-10, .cls-11, .cls-12, .cls-13, .cls-14, .cls-15, .cls-16 {
        stroke: #000;
      }

      .cls-6 {
        stroke-width: 2.4px;
      }

      .cls-6, .cls-7, .cls-8, .cls-9, .cls-17, .cls-10, .cls-11, .cls-12, .cls-13, .cls-14, .cls-15, .cls-16 {
        fill-rule: evenodd;
      }

      .cls-6, .cls-7, .cls-8, .cls-9, .cls-10, .cls-11, .cls-12, .cls-13, .cls-14, .cls-15, .cls-16, .cls-18, .cls-19 {
        fill: #000;
      }

      .cls-6, .cls-7, .cls-8, .cls-15, .cls-16 {
        stroke-linejoin: round;
      }

      .cls-2 {
        stroke-width: 15px;
      }

      .cls-2, .cls-20, .cls-9, .cls-3, .cls-17 {
        stroke-miterlimit: 15.1;
      }

      .cls-7 {
        stroke-width: 2px;
      }

      .cls-8 {
        stroke-width: 1.6px;
      }

      .cls-20 {
        fill: #0c0028;
        stroke: #ff000f;
        stroke-width: 1px;
      }

      .cls-9, .cls-17 {
        stroke-width: 3.8px;
      }

      .cls-3 {
        stroke-width: 2px;
      }

      .cls-17 {
        fill: #cf000f;
        stroke: #cf000f;
      }

      .cls-10 {
        stroke-miterlimit: 9.6;
        stroke-width: 2.4px;
      }

      .cls-11 {
        stroke-miterlimit: 9.6;
        stroke-width: 2.4px;
      }

      .cls-12 {
        stroke-miterlimit: 9.6;
        stroke-width: 2.4px;
      }

      .cls-13 {
        stroke-miterlimit: 9.6;
        stroke-width: 2.4px;
      }

      .cls-14 {
        stroke-miterlimit: 8;
        stroke-width: 2px;
      }

      .cls-21, .cls-18, .cls-19 {
        isolation: isolate;
      }

      .cls-15 {
        stroke-width: 1.4px;
      }

      .cls-16 {
        stroke-width: 1.5px;
      }

      .cls-4 {
        fill: #fff;
      }

      .cls-18 {
        font-size: 36.4px;
      }

      .cls-18, .cls-19 {
        font-family: Helvetica, Helvetica;
      }

      .cls-19 {
        font-size: 28.8px;
      }
    </style>
    <pattern id="pattern4599" x="0" y="0" width="2000" height="1250" patternTransform="translate(-18927.5 -4683.3) rotate(46.8) scale(9.4 -9.4)" patternUnits="userSpaceOnUse" viewBox="0 0 2000 1250">
      <rect class="cls-1" width="2000" height="1250"/>
    </pattern>
  </defs>
  <path class="cls-2" d="M1844.1,121.4c-34.5,22.4-103.6,67.1-144.8,93.8-41.2,26.7-54.5,35.2-70,46.4-15.5,11.2-33.1,25-94,75.5-61,50.5-165.2,137.6-218.8,182.6-53.6,45-56.5,47.8-58.6,50.2s-3.5,4.5-4.3,6.5c-.8,2-1.1,3.9-1,5.6,0,1.8.4,3.4,1.2,5.1s2,3.3,4,5.3,4.6,4.4,6.7,6.6,3.8,4.2,4.9,5.8c1.1,1.7,1.7,3,2,4.3.3,1.3.4,2.6,0,4.4s-.8,3.9-1.7,5.8c-.9,2-2,3.8-3.3,5.3-1.3,1.5-2.6,2.7-4.6,3.8-2,1.2-4.5,2.4-7.8,3.5-3.3,1.1-7.3,2-11.5,2.7-4.2.7-8.6,1.3-12.3,1.7s-6.9.7-11.5.8c-4.6.1-10.5,0-16.9.2s-13.3.4-18.3.9-8,1.2-11.1,2.1c-3.1.8-6.2,1.8-10.2,3.3-4,1.5-9,3.5-14.1,5.9-5.1,2.4-10.5,5-16,8s-11.3,6.2-17.5,10.1-13,8.2-19.6,12.3-12.8,7.6-18.9,11.3c-6.1,3.6-12.1,7.2-17.6,10.5s-10.7,6.4-15.7,9.3c-4.9,2.9-9.6,5.5-14.3,8.2s-9.6,5.5-14.4,8.3c-4.8,2.8-9.5,5.7-14.3,8.3s-9.6,5.1-14.2,7.4-9.2,4.5-12.8,6.1-6.2,2.6-8.1,3.5-3.3,1.8-4.5,2.7c-1.3.9-2.5,1.7-3.6,2.7-1.1,1-2.1,2.2-2.7,3.3-.6,1.1-.7,2.2-.6,4.4,0,2.2.2,5.6.3,9.1,0,3.5,0,7-.1,10.8-.1,3.8-.4,7.8-.8,11.3-.4,3.6-1,6.7-1.6,9.2s-1.4,4.4-2.4,6.6c-1,2.2-2.2,4.7-3.8,7.4s-3.6,5.5-5.1,7.6-2.4,3.3-3.9,5c-1.5,1.7-3.7,3.9-6,6.1-2.4,2.2-5,4.5-7.8,6.6-2.8,2.1-5.7,4.2-8.7,6s-5.9,3.5-9.1,5c-3.2,1.5-6.7,2.8-10.6,3.9-3.9,1.1-8.1,2-12.3,2.4-4.2.5-8.5.5-12.3.4-3.8,0-7.1-.3-10.4-.9-3.2-.5-6.3-1.4-9.5-2.3s-6.5-1.8-9.6-2.7c-3.2-.8-6.3-1.5-9.6-2.1-3.3-.6-6.8-1-10.1-1.1-3.3-.1-6.3,0-9.5.4-3.2.4-6.5,1.1-9.6,2-3.1.9-5.9,1.9-8.8,3.1-2.9,1.2-5.9,2.6-8.7,4.1-2.9,1.5-5.6,3.2-8.5,5.2-2.9,2-5.9,4.2-9.3,6.6-3.4,2.4-7.1,4.9-10.3,7.4-3.2,2.4-6,4.8-8.6,7.4-2.6,2.6-4.9,5.5-7.1,8.6-2.1,3.1-4.1,6.5-5.5,9.6-1.4,3.1-2.4,5.9-3.2,8.9-.8,3-1.5,6.3-2.1,9.7-.6,3.4-1.2,6.9-1.8,9.8s-1.2,5.2-1.8,7.2-1.3,3.8-2.2,5.3c-.9,1.6-2,2.9-3.4,4.5-1.4,1.6-3.2,3.6-5.4,5.4-2.2,1.8-4.9,3.5-8.2,5.2s-7.2,3.4-11.2,5.1c-4,1.7-8.2,3.4-16.7,6.6s-21.3,8-29,10.8c-7.8,2.9-10.5,3.8-13,4.4s-4.9.8-7.8.9c-2.9,0-6.5,0-9.8,0-3.3-.1-6.2-.3-8.5-.6-2.2-.3-3.7-.7-5.4-1.3s-3.7-1.5-5.7-2.4c-2-1-3.9-2-6.2-3.5-2.3-1.5-4.8-3.3-7.1-5.3-2.2-2-4.2-4.2-6.1-6.4s-3.9-4.6-5.8-6.9c-1.9-2.3-3.8-4.4-5.6-6.4-1.9-1.9-3.7-3.6-5.4-5.1-1.7-1.5-3.3-2.7-5.2-4-1.9-1.3-4-2.6-6.1-3.7-2.1-1.1-4.1-1.9-6-2.6-1.9-.7-3.9-1.2-6.1-1.6-2.2-.4-4.7-.6-7-.7-2.3,0-4.4,0-6.8.3s-5.3,1-8.4,1.8c-3.1.8-6.3,1.7-9.3,2.5-2.9.8-5.5,1.6-8.3,2.3s-5.8,1.5-9.8,2.3-8.7,1.6-13.6,2.2c-4.8.6-9.6,1-15.7,1.1s-13.5,0-21.1,0c-7.6,0-15.5,0-20.7.2s-7.7.5-11.1.9-7.6,1.1-12.2,2-9.6,2.1-14.7,3.4c-5.1,1.3-10.4,2.9-16.3,4.7-5.9,1.9-12.4,4-18.8,6.4s-12.8,4.8-19.4,7.2c-6.5,2.5-13.2,5-20,7.7-6.8,2.7-13.8,5.7-38.2,16.4-24.4,10.7-66.2,29.1-100.2,44.1s-60.2,26.4-73.8,32.4c-13.6,6-14.5,6.6-15.8,7.5-1.3.9-2.9,2.2-4.6,3.7-1.7,1.5-3.4,3.3-5.1,5.2s-3.4,3.9-4.9,6c-1.5,2.1-2.9,4.3-4,6.8-1.2,2.4-2.1,5.1-2.7,7.2-.6,2.1-.8,3.7-1,6.7-.1,3-.1,7.6.5,11.6s1.8,7.7,3,10.8,2.6,5.6,4.2,8c1.6,2.4,3.5,4.7,5.7,6.9,2.1,2.2,4.5,4.2,7.2,6,2.7,1.8,5.7,3.5,8.1,4.7s4.3,2,7.5,2.5c3.2.5,7.6.7,11.7.7s8-.2,11.9-.7c3.9-.5,7.7-1.3,11.4-2.2s7.2-2,10.8-3.5c3.6-1.5,7.4-3.3,11.2-5.5,3.8-2.2,7.6-4.7,10.7-7,3.1-2.3,5.5-4.5,8-6.9,2.5-2.4,5-5,7.7-8.1s5.7-6.7,8.3-10.3c2.7-3.5,5-7,7.1-10.1,2.1-3.1,4-5.9,5.9-8.7,2-2.8,4.1-5.7,6.5-8.5,2.4-2.8,5.1-5.6,7.5-8.1,2.4-2.5,4.4-4.8,7.1-7.5s5.9-5.8,9.6-8.9c3.6-3.2,7.6-6.4,11.8-9.5,4.2-3.1,8.5-6.2,13.4-9.1,4.9-3,10.3-5.9,16.5-8.9s13.2-6,19.8-8.4c6.5-2.4,12.6-4.1,18.5-5.5s11.4-2.5,16.6-3.3c5.2-.9,10-1.5,14-1.9,4-.4,7.1-.4,11.6-.4,4.6,0,10.7,0,15,0,4.4,0,7.1.3,10.1.6,3,.4,6.3.9,10.1,1.5,3.8.6,8,1.2,11.7,1.7,3.7.5,6.9.9,10.5,1.1,3.6.2,7.5.2,11.5.1,4,0,8.1-.3,12.8-.7,4.7-.4,9.9-1,14.4-1.7s8.2-1.5,11.7-2.6c3.5-1,6.8-2.3,11.1-3.8,4.2-1.5,9.3-3.3,13.5-4.6,4.2-1.3,7.4-2.1,10.1-2.5,2.7-.4,4.8-.5,7.3-.3,2.5.2,5.3.7,7.4,1.3,2.1.6,3.5,1.3,5.5,2.6s4.8,3.1,7.2,5.4c2.4,2.2,4.6,4.8,6.6,7.4,2,2.5,3.8,5,5.5,7.3,1.7,2.3,3.4,4.3,5.2,6.3,1.8,2,3.8,3.9,6,5.7,2.2,1.8,4.7,3.5,7.4,5.1s5.5,3.1,7.9,4.2c2.4,1.2,4.4,2.1,6.5,2.7,2.1.6,4.3.9,7.3,1.1,3,.3,6.8.5,10.3.6,3.5.1,6.8.1,10.5-.2,3.7-.3,7.7-.9,12.2-1.9s9.6-2.3,15.2-4c5.6-1.7,11.6-3.7,17.5-5.9,5.9-2.2,11.6-4.5,17-6.9,5.4-2.4,10.6-4.7,15.4-7.2,4.9-2.4,9.5-5,14.1-7.7,4.6-2.7,9.3-5.7,13.4-8.5,4.1-2.9,7.7-5.6,11.4-8.7s7.3-6.4,11.8-10.7c4.5-4.3,9.9-9.5,14.8-14.5s9.5-9.6,14.6-14.9c5.2-5.3,11-11.2,16.8-16.8s11.7-10.8,17.1-15.7,10.4-9.2,14.8-12.7c4.3-3.5,8-6.1,12.4-9.1,4.4-3,9.5-6.3,13.6-8.7s7.2-3.8,10.7-5.4c3.5-1.5,7.3-3.2,11.6-5s9.2-3.7,14.9-5.7,12.1-4.2,18.6-6.2c6.5-2,13-3.9,19.5-6.2s12.7-5.1,18.7-8c6-3,11.7-6.2,16.9-9.2,5.2-3,9.8-5.9,15-9.5s10.8-7.9,16-12,10-8.2,14.4-12.2,8.5-8,12.8-12.8,9-10.4,12.9-15.6,7-9.9,10.1-14.5,6.2-9.1,9.5-13.5,6.7-8.5,10.8-13.3,8.9-10.1,13.6-14.9,9.3-9.1,13.5-12.7c4.2-3.6,7.9-6.4,12.3-9.7s9.5-7,15.1-10.7c5.5-3.7,11.5-7.4,18.7-11.4,7.2-4,15.7-8.5,24-12.4,8.3-4,16.5-7.6,24.2-10.6s14.8-5.5,22.2-7.7c7.4-2.2,15.1-4.3,23.5-6.2,8.5-1.9,17.7-3.8,26.1-5.2,8.3-1.4,15.7-2.4,21.6-3.1,5.9-.6,10.1-.9,13.5-1.2,3.4-.3,5.8-.6,8.2-1.3s4.6-1.8,6.7-2.8c2-1,3.8-1.9,5.6-3.4,1.8-1.4,3.7-3.4,5.7-5.8s4.3-5.4,6.2-8.2,3.3-5.5,4.3-8c1.1-2.4,1.7-4.6,2.4-7.2s1.2-5.4,1.9-8.2c.7-2.8,1.6-5.6,2.7-8.8,1.1-3.2,2.4-6.9,4-10.4s3.5-6.7,5.6-9.8c2.2-3.1,4.7-6.1,7.2-8.7s4.8-4.7,7.8-6.9,6.7-4.7,14.1-9.6,18.3-12.2,24.9-16.6,9-5.9,12.2-7.5c3.2-1.6,7.4-3.2,10.7-4.5,3.4-1.3,6-2.3,9.7-2.9,3.7-.6,8.6-.8,14.1-.6,5.4.1,11.4.5,20.5,1.6,9.1,1.1,21.3,2.8,32.9,4.3,11.6,1.5,22.7,2.8,33.9,4.1s22.7,2.6,32.9,3.3c10.2.7,19.3.8,27,.8,7.7,0,14.2-.3,21.2-1.1,7-.8,14.6-2.3,21.9-4,7.3-1.7,14.2-3.7,20.9-6,6.7-2.2,13.2-4.7,19.6-7.4s12.9-5.6,19.6-9.1c6.7-3.5,13.7-7.7,21.6-12.8s16.5-11.2,25.4-17.4c8.8-6.3,17.8-12.7,25.9-18.6s15.2-11.3,22-16.6,13.2-10.7,19.2-16c6-5.2,11.6-10.4,17.1-15.7s11-10.8,17-17.4c6-6.6,12.6-14.3,18.6-22s11.7-15.1,17.3-23.3c5.7-8.2,11.4-17,16-24.4s8.1-13.5,12-20.8,8.1-15.9,11.9-24.6,7.4-17.4,10.4-25.4c3-8,5.6-15.2,8.3-24.2s5.8-19.8,8.8-30.7,6.1-22.1,8.7-31.6c2.6-9.6,4.8-17.7,6.9-25.7,2.2-8,4.3-16,5.7-21.8s2.1-9.5,2.3-13.1-.2-7-1.5-10.8c-1.4-3.8-3.7-8-6.1-11.2s-4.6-5.5-7.1-7.3-5.4-3.3-9-4.1c-3.6-.8-7.9-1.1-11.7-.6-3.9.5-7.3,1.7-12.5,4.9-5.2,3.2-12.1,8.5-15.5,11.1q-3.5,2.6-38,25h0Z"/>
  <circle class="cls-3" cx="1226.4" cy="508.6" r="24.9"/>
  <g class="cls-21">
    <text class="cls-18" transform="translate(1215.5 521.7)"><tspan x="0" y="0">1</tspan></text>
  </g>
  <g>
    <g>
      <circle class="cls-3" cx="1170.4" cy="564.4" r="24.9"/>
      <circle class="cls-3" cx="1107.7" cy="597.7" r="24.9"/>
      <circle class="cls-3" cx="925.9" cy="728.1" r="24.9" transform="translate(-208.1 409.8) rotate(-22.5)"/>
      <circle class="cls-3" cx="894.6" cy="815.9" r="24.9" transform="translate(-244.1 404.5) rotate(-22.5)"/>
      <circle class="cls-3" cx="806.7" cy="812.9" r="24.9"/>
      <circle class="cls-3" cx="706.7" cy="846.2" r="24.9"/>
      <circle class="cls-3" cx="651.2" cy="858.3" r="24.9"/>
      <circle class="cls-3" cx="597.6" cy="875.5" r="24.9"/>
      <circle class="cls-3" cx="529" cy="880.6" r="24.9"/>
      <circle class="cls-3" cx="469.4" cy="909.8" r="24.9"/>
      <circle class="cls-3" cx="397.6" cy="915.9" r="24.9"/>
    </g>
    <g>
      <path class="cls-1" d=""/>
      <path class="cls-8" d="M1246,534.5l.2,29.4-19.1-22.3c7.1,2,14.8-.9,19-7.1Z"/>
      <path class="cls-6" d="M4622.8,1740.8" marker-start="url(#Arrow2Lstart)"/>
      <path class="cls-1" d=""/>
      <path class="cls-7" d="M1145.2,603l26.3,26.3-37.1-3c8.2-4.5,12.6-14,10.8-23.3Z"/>
      <path class="cls-6" d="M4255.5,1450.1" marker-start="url(#Arrow2Lstart-0)"/>
      <g>
        <path class="cls-1" d=""/>
        <path class="cls-12" d="M1218.8,596.7l-16.5,3.8,42,12.1-29.2-32.5,3.8,16.5Z"/>
        <path class="cls-9" d="M4482.3,1563.7" marker-start="url(#marker1512)"/>
        <path class="cls-1" d=""/>
        <path class="cls-11" d="M683.5,910l-16.8-2.6,34.5,26.8-15.1-41-2.6,16.8Z"/>
        <path class="cls-9" d="M2463.1,429.4" marker-start="url(#marker1562)"/>
        <path class="cls-1" d=""/>
        <path class="cls-10" d="M612,934.3l-13.7-10,18.3,39.7,5.4-43.3-10,13.7Z"/>
        <path class="cls-9" d="M2244.9,359.1" marker-start="url(#marker1562-7)"/>
      </g>
      <path class="cls-1" d=""/>
      <path class="cls-15" d="M720.7,871.2l4.6,26.1-20.4-16.9c6.7.7,13-3,15.8-9.2Z"/>
      <path class="cls-6" d="M2643.2,464.1" marker-start="url(#Arrow2Lstart-7)"/>
      <path class="cls-1" d=""/>
      <path class="cls-16" d="M549.5,905.3l.2,27.9-18.2-21.2c6.8,1.9,14.1-.8,18.1-6.8Z"/>
      <path class="cls-6" d="M1992.1,340.1" marker-start="url(#Arrow2Lstart-9)"/>
    </g>
  </g>
  <g class="cls-21">
    <text class="cls-18" transform="translate(1157.3 577.7)"><tspan x="0" y="0">2</tspan></text>
  </g>
  <g class="cls-21">
    <text class="cls-18" transform="translate(1096.7 612)"><tspan x="0" y="0">3</tspan></text>
  </g>
  <g class="cls-21">
    <text class="cls-18" transform="translate(914.8 741.3)"><tspan x="0" y="0">4</tspan></text>
  </g>
  <g class="cls-21">
    <text class="cls-18" transform="translate(884.5 828.2)"><tspan x="0" y="0">5</tspan></text>
  </g>
  <g class="cls-21">
    <text class="cls-18" transform="translate(795.6 826.2)"><tspan x="0" y="0">6</tspan></text>
  </g>
  <g class="cls-21">
    <text class="cls-18" transform="translate(695.6 858.5)"><tspan x="0" y="0">7</tspan></text>
  </g>
  <g class="cls-21">
    <text class="cls-18" transform="translate(639.1 874.6)"><tspan x="0" y="0">8</tspan></text>
  </g>
  <g class="cls-21">
    <text class="cls-18" transform="translate(587.5 890.8)"><tspan x="0" y="0">9</tspan></text>
  </g>
  <g class="cls-21">
    <text class="cls-19" transform="translate(510.8 890.3)"><tspan x="0" y="0">10</tspan></text>
  </g>
  <g class="cls-21">
    <text class="cls-19" transform="translate(450 918.3)"><tspan x="0" y="0">11</tspan></text>
  </g>
  <g class="cls-21">
    <text class="cls-19" transform="translate(379.3 928.4)"><tspan x="0" y="0">12</tspan></text>
  </g>
  <g>
    <circle class="cls-3" cx="100.6" cy="1130.1" r="24.9"/>
    <circle class="cls-3" cx="289.5" cy="1090.7" r="24.9"/>
    <circle class="cls-3" cx="424.9" cy="1084.6" r="24.9" transform="translate(-104.8 47.1) rotate(-5.7)"/>
    <circle class="cls-3" cx="486.5" cy="1116.9" r="24.9"/>
    <circle class="cls-3" cx="562.3" cy="1108.9" r="24.9"/>
    <circle class="cls-3" cx="671.4" cy="1089.7" r="24.9"/>
    <circle class="cls-3" cx="833" cy="962.4" r="24.9"/>
    <circle class="cls-3" cx="979.5" cy="891.7" r="24.9"/>
    <circle class="cls-3" cx="1128" cy="748.2" r="24.9"/>
    <circle class="cls-3" cx="1317.9" cy="680.5" r="24.9"/>
    <circle class="cls-3" cx="1354.2" cy="613.9" r="24.9"/>
    <circle class="cls-3" cx="1411.8" cy="574.5" r="24.9"/>
    <circle class="cls-3" cx="1629" cy="575.5" r="24.9"/>
    <circle class="cls-3" cx="1911.8" cy="349.2" r="24.9"/>
    <circle class="cls-3" cx="1899.7" cy="132.1" r="24.9" transform="translate(1050.7 1836.6) rotate(-67.5)"/>
  </g>
  <g>
    <g class="cls-21">
      <text class="cls-19" transform="translate(81.3 1141.8)"><tspan x="0" y="0">13</tspan></text>
    </g>
    <g class="cls-21">
      <text class="cls-19" transform="translate(271.2 1101.4)"><tspan x="0" y="0">14</tspan></text>
    </g>
    <g class="cls-21">
      <text class="cls-19" transform="translate(405.6 1096.3)"><tspan x="0" y="0">15</tspan></text>
    </g>
    <g class="cls-21">
      <text class="cls-19" transform="translate(467.2 1126.6)"><tspan x="0" y="0">16</tspan></text>
    </g>
    <g class="cls-21">
      <text class="cls-19" transform="translate(542.9 1119.6)"><tspan x="0" y="0">17</tspan></text>
    </g>
    <g class="cls-21">
      <text class="cls-19" transform="translate(653 1101.4)"><tspan x="0" y="0">18</tspan></text>
    </g>
    <g class="cls-21">
      <text class="cls-19" transform="translate(813.7 973.1)"><tspan x="0" y="0">19</tspan></text>
    </g>
    <g class="cls-21">
      <text class="cls-19" transform="translate(959.1 903.4)"><tspan x="0" y="0">20</tspan></text>
    </g>
  </g>
  <path class="cls-1" d=""/>
  <path class="cls-14" d="M496.2,1063.4l7.2,12.1-1.1-36.2-18.2,31.3,12.1-7.2Z"/>
  <path class="cls-9" d="M1801-342.5" marker-start="url(#marker1562-7-8)"/>
  <g>
    <g class="cls-21">
      <text class="cls-19" transform="translate(1109.5 757.7)"><tspan x="0" y="0">21</tspan></text>
    </g>
    <g class="cls-21">
      <text class="cls-19" transform="translate(1300.4 691)"><tspan x="0" y="0">22</tspan></text>
    </g>
    <g class="cls-21">
      <text class="cls-19" transform="translate(1334.7 623.4)"><tspan x="0" y="0">23</tspan></text>
    </g>
    <g class="cls-21">
      <text class="cls-19" transform="translate(1394.3 586)"><tspan x="0" y="0">24</tspan></text>
    </g>
    <g class="cls-21">
      <text class="cls-19" transform="translate(1609.5 585)"><tspan x="0" y="0">25</tspan></text>
    </g>
    <g class="cls-21">
      <text class="cls-19" transform="translate(1894.3 358.7)"><tspan x="0" y="0">26</tspan></text>
    </g>
    <g class="cls-21">
      <text class="cls-19" transform="translate(1882.2 143.5)"><tspan x="0" y="0">27</tspan></text>
    </g>
  </g>
  <rect class="cls-20" x="1317.9" y="288.6"/>
  <g>
    <path class="cls-1" d=""/>
    <path class="cls-17" d="M5183,2204.9" marker-start="url(#marker5029)"/>
    <path class="cls-1" d=""/>
    <path class="cls-13" d="M251.7,970.5l5.2-16.2-31.9,29.9,42.8-8.5-16.2-5.2Z"/>
    <path class="cls-17" d="M834.6,70.2" marker-start="url(#marker5029-5)"/>
    <path class="cls-1" d=""/>
    <path class="cls-17" d="M2923-17.8" marker-start="url(#marker5029-6)"/>
    <path class="cls-1" d=""/>
    <path class="cls-17" d="M6432.1,1753.4" marker-start="url(#marker5029-0)"/>
  </g>
  <rect class="cls-4" x="1575" y="247.4" width="35.4" height="93.6" transform="translate(229.9 1169.4) rotate(-43.2)"/>
  <polygon class="cls-5" points="1573.7 247.9 1637.7 316.2 1611.9 340.4 1547.8 272.2 1573.7 247.9"/>
</svg>