<?xml version="1.0" encoding="UTF-8"?>
<svg id="svg4099" xmlns="http://www.w3.org/2000/svg" xmlns:svg="http://www.w3.org/2000/svg" xmlns:sodipodi="http://sodipodi.sourceforge.net/DTD/sodipodi-0.dtd" xmlns:rdf="http://www.w3.org/1999/02/22-rdf-syntax-ns#" xmlns:inkscape="http://www.inkscape.org/namespaces/inkscape" xmlns:dc="http://purl.org/dc/elements/1.1/" xmlns:cc="http://creativecommons.org/ns#" version="1.1" viewBox="0 0 948.1 620.1">
  <defs>
    <style>
      .cls-1 {
        fill: #18c448;
      }

      .cls-1, .cls-2, .cls-3, .cls-4, .cls-5 {
        stroke-width: 0px;
      }

      .cls-6 {
        stroke-width: 3.5px;
      }

      .cls-6, .cls-7, .cls-8, .cls-9, .cls-10, .cls-11, .cls-12 {
        fill: none;
      }

      .cls-6, .cls-13, .cls-11 {
        stroke: #000;
      }

      .cls-7 {
        stroke: #d7ff01;
      }

      .cls-7, .cls-10 {
        stroke-width: 3px;
      }

      .cls-7, .cls-10, .cls-12 {
        stroke-dasharray: 0 0 0 0 0 0 0 0 0 0 0 0;
        stroke-miterlimit: 11.3;
      }

      .cls-2 {
        fill: #e3e3e3;
      }

      .cls-8 {
        stroke: silver;
      }

      .cls-8, .cls-11 {
        stroke-width: 9px;
      }

      .cls-9 {
        stroke: #18c448;
        stroke-dasharray: 0 0 0 0 0 0 6 3 6 3 6 3;
        stroke-width: 6px;
      }

      .cls-3, .cls-13 {
        fill: #000;
      }

      .cls-10 {
        stroke: #21cee0;
      }

      .cls-4 {
        fill: #262626;
        fill-opacity: .4;
      }

      .cls-14 {
        isolation: isolate;
      }

      .cls-5 {
        fill: #fff;
      }

      .cls-12 {
        stroke: #ff5e93;
        stroke-width: 2px;
      }
    </style>
  </defs>
  <sodipodi:namedview id="base" bordercolor="#666666" borderopacity="1.0" fit-margin-bottom="0" fit-margin-left="0" fit-margin-right="0" fit-margin-top="0" inkscape:current-layer="layer1" inkscape:cx="900.03842" inkscape:cy="255.69629" inkscape:document-rotation="0" inkscape:document-units="px" inkscape:pageopacity="0.0" inkscape:pageshadow="2" inkscape:snap-bbox="false" inkscape:snap-grids="true" inkscape:snap-page="false" inkscape:snap-to-guides="true" inkscape:window-height="1017" inkscape:window-maximized="1" inkscape:window-width="1920" inkscape:window-x="-8" inkscape:window-y="-8" inkscape:zoom="0.50774506" pagecolor="#ffffff" showgrid="false"/>
  <g id="layer1" inkscape:groupmode="layer" inkscape:label="Layer 1">
    <path id="pre-2023" class="cls-8" d="M438.5,386.2s2.1.5,2.8,1.9.7,6.2.7,6.2l.4,26.9s1.3,7.6,3.2,11,4.4,6.4,7.8,8.5,16.8,4.6,16.8,4.6l112.8,4.6s3.5-.4,4.9-1.9,2.3-6.9,2.3-6.9l7.1-36.8s1.9-4.1,3.9-6,6-4,8.1-4.6" inkscape:connector-curvature="0" sodipodi:nodetypes="czcczzcczcczc"/>
    <path id="path4955" class="cls-3" d="M425.5,200h-.1l6.2-13-33.1-8.5c7.7,6.1,21.4,17,27,21.5" inkscape:connector-curvature="0" sodipodi:nodetypes="cccc"/>
    <path id="path4959" class="cls-3" d="M324.5,321.4l8.5-10.4,19.7,26-28.2-15.6Z" inkscape:connector-curvature="0" sodipodi:nodetypes="cccc"/>
    <ellipse id="path3090" class="cls-3" cx="530.9" cy="238.3" rx="13.8" ry="13"/>
    <ellipse id="path3090-7" class="cls-3" cx="866.9" cy="37" rx="13.8" ry="13"/>
    <ellipse id="path3090-3" class="cls-3" cx="813.6" cy="63.9" rx="13.8" ry="13"/>
    <ellipse id="path3090-9" class="cls-3" cx="759.2" cy="13.6" rx="13.8" ry="13"/>
    <ellipse id="path3090-5" class="cls-3" cx="759.7" cy="109.3" rx="13.8" ry="13"/>
    <ellipse id="path3090-97" class="cls-3" cx="823.2" cy="282.3" rx="13.8" ry="13"/>
    <ellipse id="path3090-2" class="cls-3" cx="323.2" cy="130.3" rx="13.8" ry="13"/>
    <ellipse id="path3090-0" class="cls-3" cx="272.2" cy="255.6" rx="13.8" ry="13"/>
    <ellipse id="path3090-28" class="cls-3" cx="134.5" cy="168.4" rx="13.8" ry="13"/>
    <ellipse id="path3090-6" class="cls-3" cx="34.6" cy="421" rx="16.4" ry="15.9"/>
    <ellipse id="path3090-6-7" class="cls-3" cx="86.4" cy="473.4" rx="16.4" ry="15.9"/>
    <ellipse id="path3090-6-0" class="cls-3" cx="39" cy="518.3" rx="16.4" ry="15.9"/>
    <ellipse id="path3090-6-8" class="cls-3" cx="192.7" cy="603.6" rx="16.4" ry="15.9"/>
    <ellipse id="path3090-6-1" class="cls-3" cx="263" cy="315.4" rx="16.4" ry="15.9"/>
    <ellipse id="path3090-6-83" class="cls-3" cx="388.2" cy="356.8" rx="16.4" ry="15.9"/>
    <ellipse id="path3090-6-03" class="cls-3" cx="713.2" cy="374.8" rx="16.4" ry="15.9"/>
    <ellipse id="path3090-6-6" class="cls-3" cx="728.2" cy="420.8" rx="16.4" ry="15.9"/>
    <ellipse id="path3090-6-2" class="cls-3" cx="885.2" cy="387.8" rx="16.4" ry="15.9"/>
    <ellipse id="path3090-6-02" class="cls-3" cx="860.2" cy="424.3" rx="16.4" ry="15.9"/>
    <path id="path4158" class="cls-11" d="M909.2,324.2l-37.7-258.9s-.3-4.8-1.4-6.4-1.5-1.9-3.9-2.5-8.5,0-12.6-.3-10.9-1.5-16.2-3.2-7.9-3.5-12.6-6.7c-4.6-3.2-7.6-7.3-10.6-11-3-3.6-4.9-8.1-7.4-10.6s-4.3-3.7-7.1-4.6-6.9-1.7-10.2-.9-5.3,1.8-7.4,4.4c-2.1,2.6-2.6,1.8-4.3,9.9s-3.6,30.8-3.5,40.7c0,9.8.5,11.6,1.8,18s1.9,8.1,6,20.5,14.6,38.3,19.4,53.4c4.8,15.1,8,26.8,10.3,36.8s3.3,15.6,3.9,23c.6,7.3-.8,14.2-2.2,20.4s-3,9.9-6.5,14.2-9.1,8.7-13.2,11-16.5,3.9-16.5,3.9l-189.2-8.5s-55.5-3.6-66.1-5.7c-10.6-2.1-13.1-3.5-13.1-3.5l-91.5-50.6" inkscape:connector-curvature="0" sodipodi:nodetypes="ccczzzzzzzzczcczzzzzzzzzzzzzzzzzzzzcczcczzzzczcczzzccczcccszcszzczzzcczzczczcczcc"/>
    <path id="path4158-2" data-name="path4158" class="cls-12" d="M909.2,324.2l-37.7-258.9s-.3-4.8-1.4-6.4-1.5-1.9-3.9-2.5-8.5,0-12.6-.3-10.9-1.5-16.2-3.2-7.9-3.5-12.6-6.7c-4.6-3.2-7.6-7.3-10.6-11-3-3.6-4.9-8.1-7.4-10.6s-4.3-3.7-7.1-4.6-6.9-1.7-10.2-.9-5.3,1.8-7.4,4.4c-2.1,2.6-2.6,1.8-4.3,9.9s-3.6,30.8-3.5,40.7c0,9.8.5,11.6,1.8,18s1.9,8.1,6,20.5,14.6,38.3,19.4,53.4c4.8,15.1,8,26.8,10.3,36.8s3.3,15.6,3.9,23c.6,7.3-.8,14.2-2.2,20.4s-3,9.9-6.5,14.2-9.1,8.7-13.2,11-16.5,3.9-16.5,3.9l-189.2-8.5s-55.5-3.6-66.1-5.7c-10.6-2.1-13.1-3.5-13.1-3.5l-91.5-50.6" inkscape:connector-curvature="0" sodipodi:nodetypes="ccczzzzzzzzczcczzzzzzzzzzzzzzzzzzzzcczcczzzzczcczzzccczcccszcszzczzzcczzczczcczcc"/>
    <path id="path4158-3" data-name="path4158" class="cls-12" d="M777.3,275.3l-189.2-8.5s-55.5-3.6-66.1-5.7c-10.6-2.1-13.1-3.5-13.1-3.5l-91.5-50.6" inkscape:connector-curvature="0" sodipodi:nodetypes="ccczzzzzzzzczcczzzzzzzzzzzzzzzzzzzzcczcczzzzczcczzzccczcccszcszzczzzcczzczczcczcc"/>
    <path id="path4158-4" data-name="path4158" class="cls-11" d="M225.2,340.9c8.9-22.2,21.9-53.8,21.9-53.8,0,0,2.1-3.6,3.9-4.2s5.7,1.1,5.7,1.1c0,0,11.3,5.8,23.3,14.5s47,39.2,47,39.2l48.8,38.5s9.9,4.6,17.7,6.4,21.1,2.7,28.6,3.2l187.4,7.8h-.3c2.2-.6,61.7,2.5,61.7,2.5l17.1,1.4s2.9.2,6,3.7,2.7,4.4,3.5,8.7-.6,11.2.4,15.9c.9,4.7,1.7,8.6,4.6,12s7.2,5.5,12,7.4,10.2,2.5,16.6,3.2c6.4.7,141,7.2,145.3,6.7s6-.5,8.2-4.3,29.6-46.9,29.6-46.9c0,0,2.2-4,3.2-8.1,1-4.2,1.1-8.1,1.1-8.1l-9.3-63.5" inkscape:connector-curvature="0" sodipodi:nodetypes="ccczzzzzzzzczcczzzzzzzzzzzzzzzzzzzzcczcczzzzczcczzzccczcccszcszzczzzcczzczczcczcc"/>
    <path id="path4158-5" data-name="path4158" class="cls-11" d="M417.4,207l-89.5-49.5s-7.1-4.6-11.3-4.6-5.6,1.5-9.5,4.9-6.9,9.3-11.3,15.9-22.6,33.8-30.8,48.8c-8.1,14.9-18.7,40.3-18.7,40.3,0,0-2.4,3.4-4.1,3.9s-4.8-1.1-4.8-1.1l-52.7-56.2s-13.9-13-20.5-15.9-11.8-3.2-17-3.2-8.8.4-13.4,2.8c-4.6,2.5-12.7,12.4-12.7,12.4l-64.7,124.5-32.1,60.9s-7,11.9-9.7,15.8-10,12.9-10,15.3c1,4.2,2.4,10.1,7,16.8,4,5.4,6.4,9.3,11.9,14.4,1.5,1.2,12.1,11.2,18.3,16.3,6.1,5.1,4.8,4,8.5,5.8,3.6,1.9,9.3.3,10.9,2.5,1.6,3.2-.9,12.2,1,23s4.7,13.3,7.2,17.3,6.8,8.6,11.9,13.2c5.1,4.6,47.6,38.3,47.6,38.3,0,0,20.6,35.6,24.1,38.2s5.5,2.4,8,2.4,5.3-1.8,6.9-3.5c1.6-1.7,2.8-7.4,2.8-7.4l25.8-149.9s2.7-21.9,5.7-35.4c2.9-13.4,5.2-23.6,12.4-44.9s6.2-17,10.6-28.2" inkscape:connector-curvature="0" sodipodi:nodetypes="ccczzzzzzzzczcczzzzzzzzzzzzzzzzzzzzcczcczzzzczcczzzccczcccszcszzczzzcczzczczcczcc"/>
    <path id="path4928" class="cls-6" d="M834.5,451.4l39.8-3s2.1-.4,3.5-1.4,3.4-4.4,3.4-4.4l27-43.7s1.8-3.4,2.3-5.1.9-5.3.9-5.3l-5.1-24.9-31.6-210-.6-18-8.5-63.5s-.2-3.4-1.1-4.9c-.9-1.6-.8-1.7-2.3-2.8s-6.2-3-6.2-3l-21.8-7" inkscape:connector-curvature="0" sodipodi:nodetypes="cczcczccccczzcc"/>
    <path id="path4930" class="cls-13" d="M912.1,322.7l9.1-1.4-1.2-8.9-4.2.4,3.1-20,8.4,18.9-4.1.5,1.6,11.7-11.3,1.6-1.2-2.8h-.2Z" inkscape:connector-curvature="0" sodipodi:nodetypes="cccccccccc"/>
    <path id="path4932" class="cls-2" d="M165.2,570l20.7-122.4-28.7,2.2,2,6.2-11.2,11.5-47.8,71.8,27.5,22.5,31-26.2,3,2-9.8,21.8,13.2,10.8v-.2Z" inkscape:connector-curvature="0" sodipodi:nodetypes="ccccccccccc"/>
    <path id="path4934" class="cls-2" d="M193.7,586.8l23.2-139.2,86,.2s3.4,5.6,6,7.8,5.6,3.5,9.2,4.5,8,1,11.3.8,6.5-1.8,9.4-3.4c2.8-1.7,7.1-7.3,7.1-7.3l144.5,6.2,9.7,8.3-3.6-.2-1.9,54.2,76.5,3.2,3-53.8-4.2-.5,8.5-6.5s49.3.6,53.5,1.5,10.3,7.6,11.9,13,18.2,47.6.7,150.1h24.9s0-144.6,3.3-150.7,9.6-9.5,15.7-10.2c6.1-.7,57.8,1.8,57.8,1.8l117.5,2.7s19.1.2,27.2-2.2c23.2-6.8,42.5-33.8,53.9-58.9,12.4-27.3-1.8-98.5,2.1-103.1,3.2-3.8-43-311.9-43-311.9l45.3,4.6-.2,624.4-372.9-1.7-343.7.8s-6.1-18.2-7.6-20.2-2.7-17.2-2.7-17.2l6.8-2.5,10.5,8.5,4.8-4.7-12.3-11.1-38.2,12.8h0Z" inkscape:connector-curvature="0" sodipodi:nodetypes="ccczzzzccccccccczzcczzccsssccccczcccccc"/>
    <path id="path4936" class="cls-2" d="M503.7,457.3l28.1.9v8l-19.6-.9-8.5-8Z" inkscape:connector-curvature="0"/>
    <path id="path4938" class="cls-2" d="M538.2,458.7l29.5,1.1-9.2,7.6-20.3-1.2v-7.4h0Z" inkscape:connector-curvature="0"/>
    <path id="path4978" class="cls-2" d="M117.4,576.3l-31,46-54.8,1.4,58-70.1,27.8,22.8h0Z" inkscape:connector-curvature="0" sodipodi:nodetypes="ccccc"/>
    <g id="text2998" class="cls-14">
      <g class="cls-14">
        <g class="cls-14">
          <path class="cls-5" d="M866.3,46.8h-2.5v-15l-2.5,1.6v-2.6l2.5-1.7h2.5v17.7Z"/>
        </g>
      </g>
    </g>
    <g id="text3002" class="cls-14">
      <g class="cls-14">
        <g class="cls-14">
          <path class="cls-5" d="M808.9,70.9l6.2-8.3c.4-.5.6-1,.8-1.5.2-.5.3-1,.3-1.4h0c0-.7-.2-1.3-.6-1.7s-1-.6-1.8-.6-1.3.2-1.8.6c-.4.4-.7,1-.8,1.8h0s-2.6,0-2.6,0h0c.1-1,.4-1.9.9-2.6.5-.7,1-1.3,1.8-1.6.7-.4,1.5-.6,2.5-.6s2,.2,2.7.5,1.3.9,1.7,1.6c.4.7.6,1.5.6,2.5h0c0,.6-.1,1.3-.4,2s-.6,1.3-1.1,2l-5.1,7h6.7v2.4h-10v-2.2Z"/>
        </g>
      </g>
    </g>
    <g id="text3006" class="cls-14">
      <g class="cls-14">
        <g class="cls-14">
          <path class="cls-5" d="M756.6,21.8c-.8-.4-1.4-.9-1.8-1.6s-.8-1.5-.9-2.5h2.5c0,.5.2.9.5,1.2s.6.6.9.7c.4.2.8.2,1.4.2.8,0,1.5-.2,1.9-.7.5-.4.7-1.1.7-1.9v-.5c0-.9-.2-1.6-.6-2.1-.4-.5-1-.7-1.8-.7h-1.3v-2.4h1.3c.7,0,1.2-.2,1.6-.6s.6-1,.6-1.8v-.5c0-.7-.2-1.2-.6-1.6-.4-.4-1-.6-1.7-.6s-.8,0-1.1.2c-.3.2-.6.4-.8.7-.2.3-.4.7-.5,1.2h-2.5c.2-1,.5-1.8.9-2.5.5-.7,1-1.2,1.7-1.6.7-.4,1.5-.5,2.4-.5,1.5,0,2.7.4,3.6,1.2s1.3,1.9,1.3,3.4v.3c0,.9-.2,1.7-.7,2.3-.5.7-1.2,1.1-2,1.4,1,.2,1.7.7,2.3,1.4s.8,1.7.8,2.8v.3c0,1-.2,1.9-.6,2.6s-1,1.3-1.7,1.7-1.7.6-2.8.6-1.9-.2-2.6-.5Z"/>
        </g>
      </g>
    </g>
    <g id="text3010" class="cls-14">
      <g class="cls-14">
        <g class="cls-14">
          <path class="cls-5" d="M753.8,113.4l6-12.9h2.6l-5.8,12.7h8.7v2.3h-11.4v-2.2ZM761.4,107.9h2.4v10.4h-2.4v-10.4Z"/>
        </g>
      </g>
    </g>
    <g id="text3014" class="cls-14">
      <g class="cls-14">
        <g class="cls-14">
          <path class="cls-5" d="M820.6,291c-.7-.3-1.3-.9-1.7-1.5-.4-.7-.7-1.5-.9-2.4h0s2.5,0,2.5,0h0c0,.7.3,1.2.8,1.5.4.4,1,.5,1.7.5s1.4-.3,1.8-.8c.4-.5.7-1.3.7-2.3v-1.5c0-1-.2-1.7-.7-2.2-.4-.5-1.1-.8-1.8-.8s-.8.1-1.2.4c-.4.2-.7.6-1,1h-2.3v-9.4h9v2.4h-6.6v4c.3-.3.7-.4,1-.6.4-.1.8-.2,1.2-.2,1,0,1.9.2,2.6.6s1.3,1,1.7,1.9c.4.8.6,1.8.6,2.9v1.5c0,1.1-.2,2.1-.6,2.9s-1,1.4-1.7,1.9c-.7.4-1.6.6-2.7.6s-1.7-.2-2.4-.5Z"/>
        </g>
      </g>
    </g>
    <g id="text3018" class="cls-14">
      <g class="cls-14">
        <g class="cls-14">
          <path class="cls-5" d="M526.4,246.4c-.7-.4-1.3-1-1.7-1.8-.4-.8-.6-1.8-.6-2.9h0c0-.7,0-1.4.2-2.1.2-.7.4-1.4.7-2.1,0-.1.1-.2.2-.4,0-.1.1-.2.2-.3l3.9-7.6h2.7l-4.5,8.9v-.4c.2-.4.5-.7.9-.9s.8-.3,1.4-.3c.9,0,1.7.2,2.4.6.7.4,1.2,1,1.5,1.8.3.8.5,1.7.5,2.9h0c0,1.2-.2,2.1-.6,2.9-.4.8-1,1.4-1.7,1.9-.7.4-1.6.6-2.7.6s-1.9-.2-2.7-.6ZM530.9,243.9c.4-.5.6-1.2.6-2.1h0c0-1-.2-1.8-.7-2.3-.4-.5-1.1-.8-1.9-.8s-1.3.3-1.7.8c-.4.5-.6,1.3-.6,2.3h0c0,.9.2,1.6.6,2.1.4.5,1,.7,1.8.7s1.4-.2,1.8-.7Z"/>
        </g>
      </g>
    </g>
    <g id="text3022" class="cls-14">
      <g class="cls-14">
        <g class="cls-14">
          <path class="cls-5" d="M326.7,123.8l-4.6,15.5h-2.6l4.6-15.4h-4.5v2.6h-2.5v-4.9h9.7v2.2Z"/>
        </g>
      </g>
    </g>
    <g id="text3026" class="cls-14">
      <g class="cls-14">
        <g class="cls-14">
          <path class="cls-5" d="M269.3,264.2c-.8-.4-1.4-1-1.9-1.7-.4-.7-.7-1.6-.7-2.6v-.3c0-.9.2-1.7.7-2.5.4-.8,1-1.4,1.8-1.8-.6-.3-1.1-.8-1.5-1.5-.4-.6-.6-1.3-.6-2v-.4c0-.9.2-1.7.6-2.4.4-.7,1-1.2,1.8-1.6.8-.4,1.6-.6,2.6-.6s1.9.2,2.6.6c.8.4,1.3.9,1.8,1.6.4.7.6,1.5.6,2.4v.4c0,.7-.2,1.4-.6,2.1-.4.6-.9,1.1-1.5,1.5.7.4,1.3,1,1.8,1.8.5.8.7,1.6.7,2.5v.3c0,1-.2,1.8-.7,2.6-.4.7-1.1,1.3-1.9,1.7-.8.4-1.8.6-2.8.6s-2-.2-2.8-.6ZM273.7,262c.4-.2.8-.5,1-1,.2-.4.4-.9.4-1.4v-.2c0-.5-.1-1-.4-1.4-.2-.4-.6-.7-1-1s-.9-.3-1.5-.3-1.1.1-1.5.3-.8.5-1,1c-.2.4-.4.9-.4,1.4v.2c0,.5.1,1,.4,1.4.2.4.6.7,1,.9s.9.3,1.5.3,1.1-.1,1.5-.3ZM273.4,254c.4-.2.7-.5.9-.9.2-.4.3-.9.3-1.4v-.2c0-.5-.1-.9-.3-1.3-.2-.4-.5-.7-.9-.9-.4-.2-.8-.3-1.3-.3s-.9.1-1.3.3c-.4.2-.7.5-.9.9-.2.4-.3.8-.3,1.3v.2c0,.5.1,1,.3,1.4.2.4.5.7.9.9.4.2.8.3,1.3.3s.9-.1,1.3-.3Z"/>
        </g>
      </g>
    </g>
    <g id="text3030" class="cls-14">
      <g class="cls-14">
        <g class="cls-14">
          <path class="cls-5" d="M136.6,169.1v.4c-.2.4-.5.6-.9.8-.4.2-.9.3-1.5.3-.8,0-1.6-.2-2.2-.6-.6-.4-1.1-1-1.5-1.8-.4-.8-.5-1.7-.5-2.7h0c0-1.2.2-2.1.6-3,.4-.8,1-1.4,1.7-1.9.7-.4,1.6-.6,2.7-.6s1.9.2,2.7.6c.7.4,1.3,1.1,1.7,1.9.4.8.6,1.8.6,3h0c0,.6,0,1.3-.2,2-.2.7-.4,1.4-.7,2.1,0,.1,0,.2-.1.3,0,.1-.1.2-.2.3l-3.8,7.6h-2.7l4.5-8.8ZM136.7,167.5c.4-.5.6-1.3.6-2.2h0c0-.9-.2-1.7-.6-2.2-.4-.5-1-.8-1.8-.8s-1.4.3-1.8.8c-.4.5-.6,1.2-.6,2.2h0c0,1,.2,1.7.6,2.2.4.5,1,.8,1.8.8s1.4-.3,1.8-.8Z"/>
        </g>
      </g>
    </g>
    <g id="text3034" class="cls-14">
      <g class="cls-14">
        <g class="cls-14">
          <path class="cls-5" d="M30,429.9h-2.5v-15l-2.5,1.6v-2.6l2.5-1.7h2.5v17.7Z"/>
          <path class="cls-5" d="M35.3,428.8c-.9-.9-1.3-2.1-1.3-3.7v-8.1c0-1.6.4-2.8,1.3-3.7.9-.9,2.1-1.3,3.8-1.3s2.9.4,3.8,1.3c.9.9,1.3,2.1,1.3,3.7v8.1c0,1.6-.4,2.8-1.3,3.7-.9.9-2.1,1.3-3.8,1.3s-2.9-.4-3.8-1.3ZM41.1,427c.4-.5.6-1.1.6-2v-8.1c0-.9-.2-1.5-.6-2-.4-.5-1.1-.7-2-.7s-1.5.2-2,.7c-.4.5-.6,1.1-.6,2v8.1c0,.9.2,1.5.6,2,.4.5,1.1.7,1.9.7s1.5-.2,1.9-.7Z"/>
        </g>
      </g>
    </g>
    <g id="text3038" class="cls-14">
      <g class="cls-14">
        <g class="cls-14">
          <path class="cls-5" d="M83,482.8h-2.5v-15l-2.5,1.6v-2.6l2.5-1.7h2.5v17.7Z"/>
          <path class="cls-5" d="M91.3,482.8h-2.5v-15l-2.5,1.6v-2.6l2.5-1.7h2.5v17.7Z"/>
        </g>
      </g>
    </g>
    <g id="text3042" class="cls-14">
      <g class="cls-14">
        <g class="cls-14">
          <path class="cls-5" d="M35.1,526.8h-2.5v-15l-2.5,1.6v-2.6l2.5-1.7h2.5v17.7Z"/>
          <path class="cls-5" d="M38.9,524.6l6.2-8.3c.4-.5.6-1,.8-1.5.2-.5.3-1,.3-1.4h0c0-.7-.2-1.3-.6-1.7s-1-.6-1.8-.6-1.3.2-1.8.6c-.4.4-.7,1-.8,1.8h0s-2.6,0-2.6,0h0c.1-1,.4-1.9.9-2.6.5-.7,1-1.3,1.8-1.6.7-.4,1.5-.6,2.5-.6s2,.2,2.7.5c.7.4,1.3.9,1.7,1.6.4.7.6,1.5.6,2.5h0c0,.6-.1,1.3-.4,2-.3.7-.6,1.3-1.1,2l-5.1,7h6.7v2.4h-10v-2.2Z"/>
        </g>
      </g>
    </g>
    <g id="text3046" class="cls-14">
      <g class="cls-14">
        <g class="cls-14">
          <path class="cls-5" d="M184.8,612.9h-2.5v-15l-2.5,1.6v-2.6l2.5-1.7h2.5v17.7Z"/>
          <path class="cls-5" d="M190.8,612.5c-.8-.4-1.4-.9-1.8-1.6-.5-.7-.8-1.5-.9-2.5h2.5c0,.5.2.9.5,1.2s.6.6.9.7c.4.2.8.2,1.4.2.8,0,1.5-.2,1.9-.7.5-.4.7-1.1.7-1.9v-.5c0-.9-.2-1.6-.6-2.1-.4-.5-1-.7-1.8-.7h-1.3v-2.4h1.3c.7,0,1.2-.2,1.6-.6.4-.4.6-1,.6-1.8v-.5c0-.7-.2-1.2-.6-1.6-.4-.4-1-.6-1.7-.6s-.8,0-1.1.2c-.3.2-.6.4-.8.7-.2.3-.4.7-.5,1.2h-2.5c.2-1,.5-1.8.9-2.5.5-.7,1-1.2,1.7-1.6.7-.4,1.5-.5,2.4-.5,1.5,0,2.7.4,3.6,1.2.8.8,1.3,1.9,1.3,3.4v.3c0,.9-.2,1.7-.7,2.3-.5.7-1.2,1.1-2,1.4,1,.2,1.7.7,2.3,1.4.5.7.8,1.7.8,2.8v.3c0,1-.2,1.9-.6,2.6-.4.7-1,1.3-1.7,1.7-.8.4-1.7.6-2.8.6s-1.9-.2-2.6-.5Z"/>
        </g>
      </g>
    </g>
    <g id="text3050" class="cls-14">
      <g class="cls-14">
        <g class="cls-14">
          <path class="cls-5" d="M258.1,324.4h-2.5v-15l-2.5,1.6v-2.6l2.5-1.7h2.5v17.7Z"/>
          <path class="cls-5" d="M261.9,319.5l6-12.9h2.6l-5.8,12.7h8.7v2.3h-11.4v-2.2ZM269.6,314h2.4v10.4h-2.4v-10.4Z"/>
        </g>
      </g>
    </g>
    <g id="text3054" class="cls-14">
      <g class="cls-14">
        <g class="cls-14">
          <path class="cls-5" d="M382.8,366.8h-2.5v-15l-2.5,1.6v-2.6l2.5-1.7h2.5v17.7Z"/>
          <path class="cls-5" d="M389.4,366.5c-.7-.3-1.3-.9-1.7-1.5-.4-.7-.7-1.5-.9-2.4h0s2.5,0,2.5,0h0c0,.7.3,1.2.8,1.5.4.4,1,.5,1.7.5s1.4-.3,1.8-.8c.4-.5.7-1.3.7-2.3v-1.5c0-1-.2-1.7-.7-2.2-.4-.5-1.1-.8-1.8-.8s-.8.1-1.2.4c-.4.2-.7.6-1,1h-2.3v-9.4h9v2.4h-6.6v4c.3-.3.7-.4,1-.6.4-.1.8-.2,1.2-.2,1,0,1.9.2,2.6.6.7.4,1.3,1,1.7,1.9.4.8.6,1.8.6,2.9v1.5c0,1.1-.2,2.1-.6,2.9s-1,1.4-1.7,1.9c-.7.4-1.6.6-2.7.6s-1.7-.2-2.4-.5Z"/>
        </g>
      </g>
    </g>
    <g id="text3058" class="cls-14">
      <g class="cls-14">
        <g class="cls-14">
          <path class="cls-5" d="M707.8,383.8h-2.5v-15l-2.5,1.6v-2.6l2.5-1.7h2.5v17.7Z"/>
          <path class="cls-5" d="M713.7,383.4c-.7-.4-1.3-1-1.7-1.8s-.6-1.8-.6-2.9h0c0-.7,0-1.4.2-2.1.2-.7.4-1.4.7-2.1,0-.1.1-.2.2-.4,0-.1.1-.2.2-.3l3.9-7.6h2.7l-4.5,8.9v-.4c.2-.4.5-.7.9-.9s.8-.3,1.4-.3c.9,0,1.7.2,2.4.6.7.4,1.2,1,1.5,1.8.3.8.5,1.7.5,2.9h0c0,1.2-.2,2.1-.6,2.9-.4.8-1,1.4-1.7,1.9-.7.4-1.6.6-2.7.6s-1.9-.2-2.7-.6ZM718.2,380.9c.4-.5.6-1.2.6-2.1h0c0-1-.2-1.8-.7-2.3-.4-.5-1.1-.8-1.9-.8s-1.3.3-1.7.8c-.4.5-.6,1.3-.6,2.3h0c0,.9.2,1.6.6,2.1.4.5,1,.7,1.8.7s1.4-.2,1.8-.7Z"/>
        </g>
      </g>
    </g>
    <g id="text3062" class="cls-14">
      <g class="cls-14">
        <g class="cls-14">
          <path class="cls-5" d="M722.8,430.3h-2.5v-15l-2.5,1.6v-2.6l2.5-1.7h2.5v17.7Z"/>
          <path class="cls-5" d="M736,414.8l-4.6,15.5h-2.6l4.6-15.4h-4.5v2.6h-2.5v-4.9h9.7v2.2Z"/>
        </g>
      </g>
    </g>
    <g id="text3066" class="cls-14">
      <g class="cls-14">
        <g class="cls-14">
          <path class="cls-5" d="M855.8,432.8h-2.5v-15l-2.5,1.6v-2.6l2.5-1.7h2.5v17.7Z"/>
          <path class="cls-5" d="M862.2,432.4c-.8-.4-1.4-1-1.9-1.7-.4-.7-.7-1.6-.7-2.6v-.3c0-.9.2-1.7.7-2.5s1-1.4,1.8-1.8c-.6-.3-1.1-.8-1.5-1.5-.4-.6-.6-1.3-.6-2v-.4c0-.9.2-1.7.6-2.4.4-.7,1-1.2,1.8-1.6.8-.4,1.6-.6,2.6-.6s1.9.2,2.6.6c.8.4,1.3.9,1.8,1.6.4.7.6,1.5.6,2.4v.4c0,.7-.2,1.4-.6,2.1-.4.6-.9,1.1-1.5,1.5.7.4,1.3,1,1.8,1.8.5.8.7,1.6.7,2.5v.3c0,1-.2,1.8-.7,2.6-.4.7-1.1,1.3-1.9,1.7-.8.4-1.8.6-2.8.6s-2-.2-2.8-.6ZM866.6,430.2c.4-.2.8-.5,1-1,.2-.4.4-.9.4-1.4v-.2c0-.5-.1-1-.4-1.4-.2-.4-.6-.7-1-1s-.9-.3-1.5-.3-1.1.1-1.5.3-.8.5-1,1c-.2.4-.4.9-.4,1.4v.2c0,.5.1,1,.4,1.4s.6.7,1,.9.9.3,1.5.3,1.1-.1,1.5-.3ZM866.4,422.2c.4-.2.7-.5.9-.9.2-.4.3-.9.3-1.4v-.2c0-.5-.1-.9-.3-1.3-.2-.4-.5-.7-.9-.9-.4-.2-.8-.3-1.3-.3s-.9.1-1.3.3c-.4.2-.7.5-.9.9-.2.4-.3.8-.3,1.3v.2c0,.5.1,1,.3,1.4.2.4.5.7.9.9s.8.3,1.3.3.9-.1,1.3-.3Z"/>
        </g>
      </g>
    </g>
    <g id="text3070" class="cls-14">
      <g class="cls-14">
        <g class="cls-14">
          <path class="cls-5" d="M881.3,396.8h-2.5v-15l-2.5,1.6v-2.6l2.5-1.7h2.5v17.7Z"/>
          <path class="cls-5" d="M891.6,388v.4c-.2.4-.5.6-.9.8-.4.2-.9.3-1.5.3-.8,0-1.6-.2-2.2-.6s-1.1-1-1.5-1.8c-.4-.8-.5-1.7-.5-2.7h0c0-1.2.2-2.1.6-3,.4-.8,1-1.4,1.7-1.9.7-.4,1.6-.6,2.7-.6s1.9.2,2.7.6c.7.4,1.3,1.1,1.7,1.9s.6,1.8.6,3h0c0,.6,0,1.3-.2,2-.2.7-.4,1.4-.7,2.1,0,.1,0,.2-.1.3,0,.1-.1.2-.2.3l-3.8,7.6h-2.7l4.5-8.8ZM891.7,386.4c.4-.5.6-1.3.6-2.2h0c0-.9-.2-1.7-.6-2.2-.4-.5-1-.8-1.8-.8s-1.4.3-1.8.8c-.4.5-.6,1.2-.6,2.2h0c0,1,.2,1.7.6,2.2.4.5,1,.8,1.8.8s1.4-.3,1.8-.8Z"/>
        </g>
      </g>
    </g>
    <g id="text3079" class="cls-14">
      <g class="cls-14">
        <g class="cls-14">
          <path class="cls-3" d="M353.6,121.5h1.9v14.2h-1.9v-10.6.6c0,0-3.4,8-3.4,8h-1.4l-3.5-7.8v-.8c0,0,0,10.6,0,10.6h-1.9v-14.2h1.9l4.2,9.4,4.2-9.4Z"/>
          <path class="cls-3" d="M360.5,135.3c-.7-.4-1.2-.9-1.5-1.5s-.5-1.5-.5-2.5v-1.1c0-1,.2-1.9.5-2.6s.8-1.2,1.5-1.6,1.4-.6,2.3-.6,1.6.2,2.2.6,1.1,1,1.4,1.8.5,1.8.5,2.9v.7h-6.8v-1.6h4.9c0-.8-.3-1.5-.6-1.9s-.9-.7-1.5-.7-1.3.2-1.8.7-.6,1.2-.6,2.1v1.3c0,.8.2,1.5.7,1.9s1.1.7,1.9.7.8,0,1.2-.2.8-.4,1.1-.7l1.3,1.3c-.5.5-1.1.9-1.7,1.1s-1.3.4-1.9.4c-.9,0-1.7-.2-2.4-.5Z"/>
          <path class="cls-3" d="M369.5,125.6h2v10.1h-2v-10.1ZM375.5,129.6c0-.7-.2-1.3-.5-1.7s-.8-.6-1.5-.6-1.2.2-1.5.5-.5.8-.5,1.5l-.2-2c.3-.6.7-1.1,1.2-1.4s1.1-.5,1.7-.5,1.3.2,1.8.5.9.8,1.1,1.4.4,1.4.4,2.2v6.2h-2v-6.1ZM381.6,129.6c0-.7-.2-1.3-.6-1.7s-.9-.6-1.6-.6-1.1.2-1.4.6-.5.9-.5,1.6l-.4-2c.3-.7.7-1.2,1.3-1.6s1.1-.6,1.7-.6,1.4.2,1.9.5.9.8,1.2,1.4.4,1.4.4,2.2v6.2h-2v-6.1Z"/>
          <path class="cls-3" d="M388.2,135.3c-.6-.3-1.1-.8-1.4-1.5s-.5-1.5-.5-2.4v-1.7c0-.9.2-1.7.5-2.4s.8-1.2,1.4-1.5,1.4-.5,2.3-.5,1.6.2,2.3.5,1.1.8,1.4,1.5.5,1.4.5,2.4v1.7c0,.9-.2,1.7-.5,2.4s-.8,1.2-1.4,1.5-1.4.5-2.3.5-1.6-.2-2.3-.5ZM392.1,133.3c.4-.4.6-1,.6-1.8v-1.7c0-.8-.2-1.4-.6-1.8s-.9-.6-1.6-.6-1.2.2-1.6.6-.6,1-.6,1.8v1.7c0,.8.2,1.4.6,1.8s.9.7,1.6.7,1.2-.2,1.6-.7Z"/>
          <path class="cls-3" d="M397.5,125.6h2v10.1h-2v-10.1ZM402.4,127.5c-.3-.1-.6-.2-.9-.2-.6,0-1.1.2-1.5.5s-.5.8-.5,1.5l-.2-2c.3-.6.7-1.1,1.2-1.4s1-.5,1.6-.5.9,0,1.3.2.7.3,1,.6l-1.3,1.8c-.2-.2-.4-.4-.7-.5Z"/>
          <path class="cls-3" d="M406,121.5h2v2h-2v-2ZM406,125.6h2v10.1h-2v-10.1Z"/>
          <path class="cls-3" d="M411.5,135.1c-.6-.5-.9-1.3-.9-2.4s.3-1.8.8-2.3,1.4-.8,2.6-.8h2.9v1.6c.1,0-2.9,0-2.9,0-.5,0-.9.1-1.2.3s-.4.6-.4,1.1.2.9.5,1.1.9.4,1.6.4,1.3,0,1.7-.2.6-.4.6-.8l.2,1.4c-.2.3-.4.5-.6.7s-.6.3-.9.4-.7.1-1.1.1c-1.2,0-2.2-.3-2.8-.8ZM416.8,129.3c0-.7-.2-1.2-.5-1.5s-.9-.6-1.5-.6-.8,0-1.2.2-.7.3-1,.5l-1.5-1c.4-.5.9-.8,1.5-1.1s1.3-.4,2.1-.4,1.6.1,2.2.4,1.1.7,1.4,1.3.5,1.2.5,2v6.5h-1.9v-6.4Z"/>
          <path class="cls-3" d="M423.7,133.1c0,.2,0,.4.2.6s.3.2.5.2h.9v1.9h-1.2c-.8,0-1.3-.2-1.8-.7s-.6-1.1-.6-2v-11.6h2v11.6Z"/>
          <path class="cls-3" d="M435.1,135.2c-.7-.4-1.3-1.1-1.7-1.9s-.6-1.7-.6-2.8v-3.9c0-1.1.2-2,.6-2.8s1-1.4,1.7-1.9,1.6-.7,2.6-.7,1.6.2,2.2.5,1.3.8,1.7,1.5.8,1.4.9,2.2h-2c-.1-.4-.3-.8-.6-1.2s-.6-.6-1-.8-.8-.3-1.2-.3-1.1.1-1.5.4-.8.7-1,1.2-.4,1.1-.4,1.8v3.9c0,.7.1,1.2.4,1.8s.6.9,1,1.2.9.4,1.5.4.8,0,1.2-.3.7-.4,1-.8.5-.8.6-1.2h2c-.2.8-.5,1.6-.9,2.2s-1,1.1-1.7,1.5-1.4.5-2.2.5-1.8-.2-2.6-.7Z"/>
          <path class="cls-3" d="M446.9,135.3c-.6-.3-1.1-.8-1.4-1.5s-.5-1.5-.5-2.4v-1.7c0-.9.2-1.7.5-2.4s.8-1.2,1.4-1.5,1.4-.5,2.3-.5,1.6.2,2.3.5,1.1.8,1.4,1.5.5,1.4.5,2.4v1.7c0,.9-.2,1.7-.5,2.4s-.8,1.2-1.4,1.5-1.4.5-2.3.5-1.6-.2-2.3-.5ZM450.7,133.3c.4-.4.6-1,.6-1.8v-1.7c0-.8-.2-1.4-.6-1.8s-.9-.6-1.6-.6-1.2.2-1.6.6-.6,1-.6,1.8v1.7c0,.8.2,1.4.6,1.8s.9.7,1.6.7,1.2-.2,1.6-.7Z"/>
          <path class="cls-3" d="M456.1,125.6h2v10.1h-2v-10.1ZM461,127.5c-.3-.1-.6-.2-.9-.2-.6,0-1.1.2-1.5.5s-.5.8-.5,1.5l-.2-2c.3-.6.7-1.1,1.2-1.4s1-.5,1.6-.5.9,0,1.3.2.7.3,1,.6l-1.3,1.8c-.2-.2-.4-.4-.7-.5Z"/>
          <path class="cls-3" d="M464.7,125.6h2v10.1h-2v-10.1ZM470.8,129.6c0-.7-.2-1.3-.6-1.7s-.9-.6-1.6-.6-1.2.2-1.5.5-.5.8-.5,1.5l-.2-2c.3-.6.7-1.1,1.2-1.4s1.1-.5,1.7-.5c1.1,0,2,.4,2.6,1.1s.9,1.7.9,3.1v6.2h-2v-6.1Z"/>
          <path class="cls-3" d="M477.6,135.3c-.7-.4-1.2-.9-1.5-1.5-.3-.7-.5-1.5-.5-2.5v-1.1c0-1,.2-1.9.5-2.6.3-.7.8-1.2,1.5-1.6.6-.4,1.4-.6,2.3-.6s1.6.2,2.2.6c.6.4,1.1,1,1.4,1.8.3.8.5,1.8.5,2.9v.7h-6.8v-1.6h4.9c0-.8-.3-1.5-.6-1.9-.4-.5-.9-.7-1.5-.7s-1.3.2-1.8.7c-.4.5-.6,1.2-.6,2.1v1.3c0,.8.2,1.5.7,1.9.4.4,1.1.7,1.9.7s.8,0,1.2-.2c.4-.2.8-.4,1.1-.7l1.3,1.3c-.5.5-1.1.9-1.7,1.1s-1.3.4-1.9.4c-.9,0-1.7-.2-2.4-.5Z"/>
          <path class="cls-3" d="M486.6,125.6h2v10.1h-2v-10.1ZM491.5,127.5c-.3-.1-.6-.2-.9-.2-.6,0-1.1.2-1.5.5-.3.3-.5.8-.5,1.5l-.2-2c.3-.6.7-1.1,1.2-1.4.5-.3,1-.5,1.6-.5s.9,0,1.3.2c.4.1.7.3,1,.6l-1.3,1.8c-.2-.2-.4-.4-.7-.5Z"/>
        </g>
      </g>
    </g>
    <g id="text3083" class="cls-14">
      <g class="cls-14">
        <g class="cls-14">
          <path class="cls-3" d="M294.6,262.2c-.6-.1-1.2-.3-1.7-.6s-1-.6-1.5-1l1.2-1.5c.5.5,1.1.8,1.8,1.1s1.4.4,2.1.4,1.8-.2,2.4-.6.8-.9.8-1.6h0c0-.5-.1-.9-.4-1.2s-.6-.5-1-.6-.9-.3-1.6-.4c0,0,0,0,0,0s0,0,0,0h-.1c-1-.2-1.7-.4-2.3-.6s-1.1-.6-1.5-1.1-.6-1.3-.6-2.3h0c0-.9.2-1.6.6-2.3s1-1.1,1.7-1.4,1.7-.5,2.7-.5,1,0,1.5.2,1,.3,1.5.5.9.5,1.4.8l-1.1,1.6c-.5-.4-1.1-.7-1.6-.9s-1.1-.3-1.6-.3c-1,0-1.7.2-2.3.6s-.8.9-.8,1.6h0c0,.5.1.9.4,1.2s.6.5,1,.6,1,.3,1.7.4c0,0,0,0,0,0s0,0,0,0c0,0,0,0,.1,0s0,0,.1,0c.9.2,1.6.4,2.2.6s1.1.6,1.4,1.2.6,1.3.6,2.2h0c0,.9-.2,1.6-.6,2.2s-1,1.1-1.8,1.4-1.7.5-2.8.5-1.3,0-1.9-.2Z"/>
          <path class="cls-3" d="M303.6,252.1h4.6v1.8h-4.6v-1.8ZM305.2,261.6c-.4-.5-.6-1.1-.6-2v-10.4h2v10.5c0,.2,0,.4.1.6s.2.2.4.2h1v1.9h-1.2c-.8,0-1.4-.2-1.8-.7Z"/>
          <path class="cls-3" d="M311.3,261.6c-.6-.5-.9-1.3-.9-2.4s.3-1.8.8-2.3,1.4-.8,2.6-.8h2.9v1.6c.1,0-2.9,0-2.9,0-.5,0-.9.1-1.2.3s-.4.6-.4,1.1.2.9.5,1.1.9.4,1.6.4,1.3,0,1.7-.2.6-.4.6-.8l.2,1.4c-.2.3-.4.5-.6.7s-.6.3-.9.4-.7.1-1.1.1c-1.2,0-2.2-.3-2.8-.8ZM316.6,255.8c0-.7-.2-1.2-.5-1.5s-.9-.6-1.5-.6-.8,0-1.2.2-.7.3-1,.5l-1.5-1c.4-.5.9-.8,1.5-1.1s1.3-.4,2.1-.4,1.6.1,2.2.4,1.1.7,1.4,1.3.5,1.2.5,2v6.5h-1.9v-6.4Z"/>
          <path class="cls-3" d="M321.5,252.1h2v10.1h-2v-10.1ZM327.6,256.1c0-.7-.2-1.3-.5-1.7s-.8-.6-1.5-.6-1.2.2-1.5.5-.5.8-.5,1.5l-.2-2c.3-.6.7-1.1,1.2-1.4s1.1-.5,1.7-.5,1.3.2,1.8.5.9.8,1.1,1.4.4,1.4.4,2.2v6.2h-2v-6.1ZM333.7,256.1c0-.7-.2-1.3-.6-1.7s-.9-.6-1.6-.6-1.1.2-1.4.6-.5.9-.5,1.6l-.4-2c.3-.7.7-1.2,1.3-1.6s1.1-.6,1.7-.6,1.4.2,1.9.5.9.8,1.2,1.4.4,1.4.4,2.2v6.2h-2v-6.1Z"/>
          <path class="cls-3" d="M337.9,252.1h5.1v1.7h-5.1v-1.7ZM339,250.7c0-.9.2-1.6.6-2s1-.7,1.9-.7h1.5v1.9h-1.4c-.2,0-.3,0-.4.2s-.1.3-.1.6v11.5h-2v-11.5Z"/>
          <path class="cls-3" d="M346.3,261.8c-.6-.3-1.1-.8-1.4-1.5s-.5-1.5-.5-2.4v-1.7c0-.9.2-1.7.5-2.4s.8-1.2,1.4-1.5,1.4-.5,2.3-.5,1.6.2,2.3.5,1.1.8,1.4,1.5.5,1.4.5,2.4v1.7c0,.9-.2,1.7-.5,2.4s-.8,1.2-1.4,1.5-1.4.5-2.3.5-1.6-.2-2.3-.5ZM350.2,259.8c.4-.4.6-1,.6-1.8v-1.7c0-.8-.2-1.4-.6-1.8s-.9-.6-1.6-.6-1.2.2-1.6.6-.6,1-.6,1.8v1.7c0,.8.2,1.4.6,1.8s.9.7,1.6.7,1.2-.2,1.6-.7Z"/>
          <path class="cls-3" d="M355.6,252.1h2v10.1h-2v-10.1ZM360.5,254c-.3-.1-.6-.2-.9-.2-.6,0-1.1.2-1.5.5s-.5.8-.5,1.5l-.2-2c.3-.6.7-1.1,1.2-1.4s1-.5,1.6-.5.9,0,1.3.2.7.3,1,.6l-1.3,1.8c-.2-.2-.4-.4-.7-.5Z"/>
          <path class="cls-3" d="M365.3,261.9c-.5-.3-.9-.8-1.2-1.4s-.4-1.4-.4-2.2v-2.2c0-.9.1-1.6.4-2.2s.7-1.1,1.2-1.4,1.1-.5,1.8-.5,1.1.2,1.6.5.9.8,1.2,1.3l-.2,2.1c0-.4,0-.8-.2-1.1s-.4-.5-.7-.7-.7-.2-1.1-.2c-.7,0-1.2.2-1.5.6s-.5,1-.5,1.7v2.2c0,.7.2,1.3.5,1.7s.9.6,1.5.6.8,0,1.1-.2.5-.4.7-.7.2-.7.2-1.1v2.1c0,.5-.4.9-.9,1.3s-1,.5-1.7.5-1.4-.2-1.9-.5ZM369.7,248h2v14.2h-2v-14.2Z"/>
        </g>
      </g>
    </g>
    <g id="text3087" class="cls-14">
      <g class="cls-14">
        <g class="cls-14">
          <path class="cls-3" d="M155.5,158.4h2v14.2h-2v-14.2ZM156.5,165.2h4.5c.4,0,.8-.1,1.1-.3s.6-.5.8-.9.3-.8.3-1.3,0-.9-.3-1.3-.4-.7-.8-.9-.7-.3-1.1-.3h-4.5v-1.9h4.5c.8,0,1.6.2,2.2.5s1.1.9,1.5,1.5.5,1.4.5,2.3-.2,1.6-.5,2.3-.9,1.2-1.5,1.5-1.4.5-2.2.5h-4.5v-1.9Z"/>
          <path class="cls-3" d="M167.7,172c-.6-.5-.9-1.3-.9-2.4s.3-1.8.8-2.3,1.4-.8,2.6-.8h2.9v1.6c.1,0-2.9,0-2.9,0-.5,0-.9.1-1.2.3s-.4.6-.4,1.1.2.9.5,1.1.9.4,1.6.4,1.3,0,1.7-.2.6-.4.6-.8l.2,1.4c-.2.3-.4.5-.6.7s-.6.3-.9.4-.7.1-1.1.1c-1.2,0-2.2-.3-2.8-.8ZM172.9,166.2c0-.7-.2-1.2-.5-1.5s-.9-.6-1.5-.6-.8,0-1.2.2-.7.3-1,.5l-1.5-1c.4-.5.9-.8,1.5-1.1s1.3-.4,2.1-.4,1.6.1,2.2.4,1.1.7,1.4,1.3.5,1.2.5,2v6.5h-1.9v-6.4Z"/>
          <path class="cls-3" d="M179.2,172.3c-.5-.3-.9-.8-1.2-1.4s-.4-1.4-.4-2.2v-2.2c0-.9.1-1.6.4-2.2s.7-1.1,1.2-1.4,1.1-.5,1.8-.5,1.1.2,1.6.5.9.8,1.2,1.3l-.2,2.1c0-.4,0-.8-.2-1.1s-.4-.5-.7-.7-.7-.2-1.1-.2c-.7,0-1.2.2-1.5.6s-.5,1-.5,1.7v2.2c0,.7.2,1.3.5,1.7s.9.6,1.5.6.8,0,1.1-.2.5-.4.7-.7.2-.7.2-1.1v2.1c0,.5-.4.9-.9,1.3s-1,.5-1.7.5-1.4-.2-1.9-.5ZM183.6,158.4h2v14.2h-2v-14.2Z"/>
          <path class="cls-3" d="M189.1,172c-.6-.5-.9-1.3-.9-2.4s.3-1.8.8-2.3,1.4-.8,2.6-.8h2.9v1.6c.1,0-2.9,0-2.9,0-.5,0-.9.1-1.2.3s-.4.6-.4,1.1.2.9.5,1.1.9.4,1.6.4,1.3,0,1.7-.2.6-.4.6-.8l.2,1.4c-.2.3-.4.5-.6.7s-.6.3-.9.4-.7.1-1.1.1c-1.2,0-2.2-.3-2.8-.8ZM194.4,166.2c0-.7-.2-1.2-.5-1.5s-.9-.6-1.5-.6-.8,0-1.2.2-.7.3-1,.5l-1.5-1c.4-.5.9-.8,1.5-1.1s1.3-.4,2.1-.4,1.6.1,2.2.4,1.1.7,1.4,1.3.5,1.2.5,2v6.5h-1.9v-6.4Z"/>
          <path class="cls-3" d="M199.3,162.5h2v10.1h-2v-10.1ZM205.4,166.5c0-.7-.2-1.3-.6-1.7s-.9-.6-1.6-.6-1.2.2-1.5.5-.5.8-.5,1.5l-.2-2c.3-.6.7-1.1,1.2-1.4s1.1-.5,1.7-.5c1.1,0,2,.4,2.6,1.1s.9,1.7.9,3.1v6.2h-2v-6.1Z"/>
          <path class="cls-3" d="M211.8,172.3c-.5-.3-.9-.8-1.2-1.4s-.4-1.4-.4-2.2v-2.2c0-.9.1-1.6.4-2.2s.7-1.1,1.2-1.4,1.1-.5,1.8-.5,1.1.2,1.6.5.9.8,1.2,1.3l-.2,2.1c0-.4,0-.8-.2-1.1s-.4-.5-.7-.7-.7-.2-1.1-.2c-.7,0-1.2.2-1.5.6s-.5,1-.5,1.7v2.2c0,.7.2,1.3.5,1.7s.9.6,1.5.6.8,0,1.1-.2.5-.4.7-.7.2-.7.2-1.1v2.1c0,.5-.4.9-.9,1.3s-1,.5-1.7.5-1.4-.2-1.9-.5ZM211.8,176.3c-.6-.3-1.1-.7-1.4-1.2l1.3-1.2c.3.4.6.6.9.8s.7.3,1.1.3c.8,0,1.4-.2,1.8-.6s.6-1,.6-1.8v-10.1h2v9.8c0,.9-.2,1.7-.5,2.4s-.8,1.2-1.5,1.5-1.4.5-2.4.5-1.4-.1-2-.4Z"/>
        </g>
      </g>
    </g>
    <g id="text3093" class="cls-14">
      <g class="cls-14">
        <g class="cls-14">
          <path class="cls-3" d="M45,399.5c-.6-.1-1.2-.3-1.7-.6s-1-.6-1.5-1l1.2-1.5c.5.5,1.1.8,1.8,1.1s1.4.4,2.1.4,1.8-.2,2.4-.6.8-.9.8-1.6h0c0-.5-.1-.9-.4-1.2s-.6-.5-1-.6-.9-.3-1.6-.4c0,0,0,0,0,0s0,0,0,0h-.1c-1-.2-1.7-.4-2.3-.6s-1.1-.6-1.5-1.1-.6-1.3-.6-2.3h0c0-.9.2-1.6.6-2.3s1-1.1,1.7-1.4,1.7-.5,2.7-.5,1,0,1.5.2,1,.3,1.5.5.9.5,1.4.8l-1.1,1.6c-.5-.4-1.1-.7-1.6-.9s-1.1-.3-1.6-.3c-1,0-1.7.2-2.3.6s-.8.9-.8,1.6h0c0,.5.1.9.4,1.2s.6.5,1,.6,1,.3,1.7.4c0,0,0,0,0,0s0,0,0,0c0,0,0,0,.1,0s0,0,.1,0c.9.2,1.6.4,2.2.6s1.1.6,1.4,1.2.6,1.3.6,2.2h0c0,.9-.2,1.6-.6,2.2s-1,1.1-1.8,1.4-1.7.5-2.8.5-1.3,0-1.9-.2Z"/>
          <path class="cls-3" d="M54.8,385.3h2v2h-2v-2ZM54.8,389.4h2v10.1h-2v-10.1Z"/>
          <path class="cls-3" d="M59.8,389.4h2v10.1h-2v-10.1ZM65.9,393.4c0-.7-.2-1.3-.6-1.7s-.9-.6-1.6-.6-1.2.2-1.5.5-.5.8-.5,1.5l-.2-2c.3-.6.7-1.1,1.2-1.4s1.1-.5,1.7-.5c1.1,0,2,.4,2.6,1.1s.9,1.7.9,3.1v6.2h-2v-6.1Z"/>
          <path class="cls-3" d="M72.3,399.2c-.5-.3-.9-.8-1.2-1.4s-.4-1.4-.4-2.2v-2.2c0-.9.1-1.6.4-2.2s.7-1.1,1.2-1.4,1.1-.5,1.8-.5,1.1.2,1.6.5.9.8,1.2,1.3l-.2,2.1c0-.4,0-.8-.2-1.1s-.4-.5-.7-.7-.7-.2-1.1-.2c-.7,0-1.2.2-1.5.6s-.5,1-.5,1.7v2.2c0,.7.2,1.3.5,1.7s.9.6,1.5.6.8,0,1.1-.2.5-.4.7-.7.2-.7.2-1.1v2.1c0,.5-.4.9-.9,1.3s-1,.5-1.7.5-1.4-.2-1.9-.5ZM72.3,403.2c-.6-.3-1.1-.7-1.4-1.2l1.3-1.2c.3.4.6.6.9.8s.7.3,1.1.3c.8,0,1.4-.2,1.8-.6s.6-1,.6-1.8v-10.1h2v9.8c0,.9-.2,1.7-.5,2.4s-.8,1.2-1.5,1.5-1.4.5-2.4.5-1.4-.1-2-.4Z"/>
          <path class="cls-3" d="M82.2,398.9c-.6-.5-.9-1.3-.9-2.4s.3-1.8.8-2.3,1.4-.8,2.6-.8h2.9v1.6c.1,0-2.9,0-2.9,0-.5,0-.9.1-1.2.3s-.4.6-.4,1.1.2.9.5,1.1.9.4,1.6.4,1.3,0,1.7-.2.6-.4.6-.8l.2,1.4c-.2.3-.4.5-.6.7s-.6.3-.9.4-.7.1-1.1.1c-1.2,0-2.2-.3-2.8-.8ZM87.5,393.1c0-.7-.2-1.2-.5-1.5s-.9-.6-1.5-.6-.8,0-1.2.2-.7.3-1,.5l-1.5-1c.4-.5.9-.8,1.5-1.1s1.3-.4,2.1-.4,1.6.1,2.2.4,1.1.7,1.4,1.3.5,1.2.5,2v6.5h-1.9v-6.4Z"/>
          <path class="cls-3" d="M92.4,389.4h2v14.3h-2v-14.3ZM95.3,399.2c-.5-.3-.8-.7-1-1.3v-2.1c.1.4.2.8.4,1.1s.4.5.7.7.7.2,1.1.2c.7,0,1.2-.2,1.5-.6s.5-1,.5-1.7v-2.2c0-.7-.2-1.3-.5-1.7s-.9-.6-1.5-.6-.8,0-1.1.2-.5.4-.7.7-.2.7-.2,1.1l-.2-2c.3-.6.7-1,1.2-1.4s1-.5,1.7-.5,1.3.2,1.8.5.9.8,1.2,1.4.4,1.4.4,2.2v2.2c0,.9-.1,1.6-.4,2.2s-.7,1.1-1.2,1.4-1.2.5-1.9.5-1.2-.2-1.7-.5Z"/>
          <path class="cls-3" d="M104.9,399.1c-.6-.3-1.1-.8-1.4-1.5s-.5-1.5-.5-2.4v-1.7c0-.9.2-1.7.5-2.4s.8-1.2,1.4-1.5,1.4-.5,2.3-.5,1.6.2,2.3.5,1.1.8,1.4,1.5.5,1.4.5,2.4v1.7c0,.9-.2,1.7-.5,2.4s-.8,1.2-1.4,1.5-1.4.5-2.3.5-1.6-.2-2.3-.5ZM108.8,397.1c.4-.4.6-1,.6-1.8v-1.7c0-.8-.2-1.4-.6-1.8s-.9-.6-1.6-.6-1.2.2-1.6.6-.6,1-.6,1.8v1.7c0,.8.2,1.4.6,1.8s.9.7,1.6.7,1.2-.2,1.6-.7Z"/>
          <path class="cls-3" d="M114.2,389.4h2v10.1h-2v-10.1ZM119.1,391.3c-.3-.1-.6-.2-.9-.2-.6,0-1.1.2-1.5.5s-.5.8-.5,1.5l-.2-2c.3-.6.7-1.1,1.2-1.4s1-.5,1.6-.5.9,0,1.3.2.7.3,1,.6l-1.3,1.8c-.2-.2-.4-.4-.7-.5Z"/>
          <path class="cls-3" d="M124.3,399.1c-.7-.4-1.2-.9-1.5-1.5s-.5-1.5-.5-2.5v-1.1c0-1,.2-1.9.5-2.6s.8-1.2,1.5-1.6,1.4-.6,2.3-.6,1.6.2,2.2.6,1.1,1,1.4,1.8.5,1.8.5,2.9v.7h-6.8v-1.6h4.9c0-.8-.3-1.5-.6-1.9s-.9-.7-1.5-.7-1.3.2-1.8.7-.6,1.2-.6,2.1v1.3c0,.8.2,1.5.7,1.9s1.1.7,1.9.7.8,0,1.2-.2.8-.4,1.1-.7l1.3,1.3c-.5.5-1.1.9-1.7,1.1s-1.3.4-1.9.4c-.9,0-1.7-.2-2.4-.5Z"/>
        </g>
      </g>
      <g class="cls-14">
        <g class="cls-14">
          <path class="cls-3" d="M64.5,424.5c-.6-.1-1.2-.3-1.7-.6s-1-.6-1.5-1l1.2-1.5c.5.5,1.1.8,1.8,1.1s1.4.4,2.1.4,1.8-.2,2.4-.6.8-.9.8-1.6h0c0-.5-.1-.9-.4-1.2s-.6-.5-1-.6-.9-.3-1.6-.4c0,0,0,0,0,0s0,0,0,0h-.1c-1-.2-1.7-.4-2.3-.6s-1.1-.6-1.5-1.1-.6-1.3-.6-2.3h0c0-.9.2-1.6.6-2.3s1-1.1,1.7-1.4,1.7-.5,2.7-.5,1,0,1.5.2,1,.3,1.5.5.9.5,1.4.8l-1.1,1.6c-.5-.4-1.1-.7-1.6-.9s-1.1-.3-1.6-.3c-1,0-1.7.2-2.3.6s-.8.9-.8,1.6h0c0,.5.1.9.4,1.2s.6.5,1,.6,1,.3,1.7.4c0,0,0,0,0,0s0,0,0,0c0,0,0,0,.1,0s0,0,.1,0c.9.2,1.6.4,2.2.6s1.1.6,1.4,1.2.6,1.3.6,2.2h0c0,.9-.2,1.6-.6,2.2s-1,1.1-1.8,1.4-1.7.5-2.8.5-1.3,0-1.9-.2Z"/>
          <path class="cls-3" d="M76.3,421.9c0,.2,0,.4.2.6s.3.2.5.2h.9v1.9h-1.2c-.8,0-1.3-.2-1.8-.7s-.6-1.1-.6-2v-11.6h2v11.6Z"/>
          <path class="cls-3" d="M80.1,410.3h2v2h-2v-2ZM80.1,414.4h2v10.1h-2v-10.1Z"/>
          <path class="cls-3" d="M85.1,414.4h2v10.1h-2v-10.1ZM91.2,418.4c0-.7-.2-1.3-.6-1.7s-.9-.6-1.6-.6-1.2.2-1.5.5-.5.8-.5,1.5l-.2-2c.3-.6.7-1.1,1.2-1.4s1.1-.5,1.7-.5c1.1,0,2,.4,2.6,1.1s.9,1.7.9,3.1v6.2h-2v-6.1Z"/>
          <path class="cls-3" d="M97.6,424.2c-.5-.3-.9-.8-1.2-1.4s-.4-1.4-.4-2.2v-2.2c0-.9.1-1.6.4-2.2s.7-1.1,1.2-1.4,1.1-.5,1.8-.5,1.1.2,1.6.5.9.8,1.2,1.3l-.2,2.1c0-.4,0-.8-.2-1.1s-.4-.5-.7-.7-.7-.2-1.1-.2c-.7,0-1.2.2-1.5.6s-.5,1-.5,1.7v2.2c0,.7.2,1.3.5,1.7s.9.6,1.5.6.8,0,1.1-.2.5-.4.7-.7.2-.7.2-1.1v2.1c0,.5-.4.9-.9,1.3s-1,.5-1.7.5-1.4-.2-1.9-.5ZM97.6,428.2c-.6-.3-1.1-.7-1.4-1.2l1.3-1.2c.3.4.6.6.9.8s.7.3,1.1.3c.8,0,1.4-.2,1.8-.6s.6-1,.6-1.8v-10.1h2v9.8c0,.9-.2,1.7-.5,2.4s-.8,1.2-1.5,1.5-1.4.5-2.4.5-1.4-.1-2-.4Z"/>
        </g>
      </g>
    </g>
    <g id="text3107" class="cls-14">
      <g class="cls-14">
        <g class="cls-14">
          <path class="cls-3" d="M237.4,351c-.7-.4-1.3-1.1-1.7-1.9s-.6-1.7-.6-2.8v-3.9c0-1.1.2-2,.6-2.8s1-1.4,1.7-1.9,1.6-.7,2.6-.7,1.6.2,2.2.5,1.3.8,1.7,1.5.8,1.4.9,2.2h-2c-.1-.4-.3-.8-.6-1.2s-.6-.6-1-.8-.8-.3-1.2-.3-1.1.1-1.5.4-.8.7-1,1.2-.4,1.1-.4,1.8v3.9c0,.7.1,1.2.4,1.8s.6.9,1,1.2.9.4,1.5.4.8,0,1.2-.3.7-.4,1-.8.5-.8.6-1.2h2c-.2.8-.5,1.6-.9,2.2s-1,1.1-1.7,1.5-1.4.5-2.2.5-1.8-.2-2.6-.7Z"/>
          <path class="cls-3" d="M249.2,351.1c-.6-.3-1.1-.8-1.4-1.5s-.5-1.5-.5-2.4v-1.7c0-.9.2-1.7.5-2.4s.8-1.2,1.4-1.5,1.4-.5,2.3-.5,1.6.2,2.3.5,1.1.8,1.4,1.5.5,1.4.5,2.4v1.7c0,.9-.2,1.7-.5,2.4s-.8,1.2-1.4,1.5-1.4.5-2.3.5-1.6-.2-2.3-.5ZM253,349.1c.4-.4.6-1,.6-1.8v-1.7c0-.8-.2-1.4-.6-1.8s-.9-.6-1.6-.6-1.2.2-1.6.6-.6,1-.6,1.8v1.7c0,.8.2,1.4.6,1.8s.9.7,1.6.7,1.2-.2,1.6-.7Z"/>
          <path class="cls-3" d="M258.4,341.4h2v10.1h-2v-10.1ZM264.6,345.4c0-.7-.2-1.3-.6-1.7s-.9-.6-1.6-.6-1.2.2-1.5.5-.5.8-.5,1.5l-.2-2c.3-.6.7-1.1,1.2-1.4s1.1-.5,1.7-.5c1.1,0,2,.4,2.6,1.1s.9,1.7.9,3.1v6.2h-2v-6.1Z"/>
          <path class="cls-3" d="M269.6,341.4h2v10.1h-2v-10.1ZM275.8,345.4c0-.7-.2-1.3-.6-1.7s-.9-.6-1.6-.6-1.2.2-1.5.5-.5.8-.5,1.5l-.2-2c.3-.6.7-1.1,1.2-1.4s1.1-.5,1.7-.5c1.1,0,2,.4,2.6,1.1s.9,1.7.9,3.1v6.2h-2v-6.1Z"/>
          <path class="cls-3" d="M281.2,350.9c-.6-.5-.9-1.3-.9-2.4s.3-1.8.8-2.3,1.4-.8,2.6-.8h2.9v1.6c.1,0-2.9,0-2.9,0-.5,0-.9.1-1.2.3s-.4.6-.4,1.1.2.9.5,1.1.9.4,1.6.4,1.3,0,1.7-.2.6-.4.6-.8l.2,1.4c-.2.3-.4.5-.6.7s-.6.3-.9.4-.7.1-1.1.1c-1.2,0-2.2-.3-2.8-.8ZM286.5,345.1c0-.7-.2-1.2-.5-1.5s-.9-.6-1.5-.6-.8,0-1.2.2-.7.3-1,.5l-1.5-1c.4-.5.9-.8,1.5-1.1s1.3-.4,2.1-.4,1.6.1,2.2.4,1.1.7,1.4,1.3.5,1.2.5,2v6.5h-1.9v-6.4Z"/>
          <path class="cls-3" d="M293.4,347.5c0,.7.2,1.3.5,1.6s.9.6,1.5.6,1.2-.2,1.5-.5.5-.8.5-1.5v2.1c0,.5-.4.9-.9,1.3s-1,.5-1.7.5c-1.1,0-2-.4-2.6-1.1s-.9-1.7-.9-3v-6.2h2v6.2ZM297.5,341.4h2v10.1h-2v-10.1Z"/>
          <path class="cls-3" d="M303.9,351.2c-.5-.3-.9-.8-1.2-1.4s-.4-1.4-.4-2.2v-2.2c0-.9.1-1.6.4-2.2s.7-1.1,1.2-1.4,1.1-.5,1.8-.5,1.1.2,1.6.5.9.8,1.2,1.3l-.2,2.1c0-.4,0-.8-.2-1.1s-.4-.5-.7-.7-.7-.2-1.1-.2c-.7,0-1.2.2-1.5.6s-.5,1-.5,1.7v2.2c0,.7.2,1.3.5,1.7s.9.6,1.5.6.8,0,1.1-.2.5-.4.7-.7.2-.7.2-1.1v2.1c0,.5-.4.9-.9,1.3s-1,.5-1.7.5-1.4-.2-1.9-.5ZM303.9,355.2c-.6-.3-1.1-.7-1.4-1.2l1.3-1.2c.3.4.6.6.9.8s.7.3,1.1.3c.8,0,1.4-.2,1.8-.6s.6-1,.6-1.8v-10.1h2v9.8c0,.9-.2,1.7-.5,2.4s-.8,1.2-1.5,1.5-1.4.5-2.4.5-1.4-.1-2-.4Z"/>
          <path class="cls-3" d="M313.3,337.3h2v14.2h-2v-14.2ZM319.5,345.4c0-.7-.2-1.3-.6-1.7s-.9-.6-1.6-.6-1.2.2-1.5.5-.5.8-.5,1.4l-.2-2c.3-.6.7-1.1,1.2-1.4s1.1-.5,1.7-.5c1.1,0,2,.4,2.6,1.1s.9,1.7.9,3.1v6.2h-2v-6.1Z"/>
          <path class="cls-3" d="M323.7,341.4h4.6v1.8h-4.6v-1.8ZM325.3,350.9c-.4-.5-.6-1.1-.6-2v-10.4h2v10.5c0,.2,0,.4.1.6s.2.2.4.2h1v1.9h-1.2c-.8,0-1.4-.2-1.8-.7Z"/>
        </g>
      </g>
    </g>
    <g id="text3095" class="cls-14">
      <g class="cls-14">
        <g class="cls-14">
          <path class="cls-3" d="M840,19.2c-.6-.1-1.2-.3-1.7-.6-.5-.3-1-.6-1.5-1l1.2-1.5c.5.5,1.1.8,1.8,1.1.7.2,1.4.4,2.1.4s1.8-.2,2.4-.6.8-.9.8-1.6h0c0-.5-.1-.9-.4-1.2-.3-.3-.6-.5-1-.6-.4-.1-.9-.3-1.6-.4,0,0,0,0,0,0s0,0,0,0h-.1c-1-.2-1.7-.4-2.3-.6s-1.1-.6-1.5-1.1c-.4-.5-.6-1.3-.6-2.3h0c0-.9.2-1.6.6-2.3.4-.6,1-1.1,1.7-1.4.8-.3,1.7-.5,2.7-.5s1,0,1.5.2c.5.1,1,.3,1.5.5s.9.5,1.4.8l-1.1,1.6c-.5-.4-1.1-.7-1.6-.9s-1.1-.3-1.6-.3c-1,0-1.7.2-2.3.6s-.8.9-.8,1.6h0c0,.5.1.9.4,1.2.3.3.6.5,1,.6.4.1,1,.3,1.7.4,0,0,0,0,0,0,0,0,0,0,0,0,0,0,0,0,.1,0s0,0,.1,0c.9.2,1.6.4,2.2.6s1.1.6,1.4,1.2c.4.5.6,1.3.6,2.2h0c0,.9-.2,1.6-.6,2.2s-1,1.1-1.8,1.4c-.8.3-1.7.5-2.8.5s-1.3,0-1.9-.2Z"/>
          <path class="cls-3" d="M849.8,5h2v14.2h-2V5ZM855.9,13.1c0-.7-.2-1.3-.6-1.7s-.9-.6-1.6-.6-1.2.2-1.5.5c-.4.3-.5.8-.5,1.4l-.2-2c.3-.6.7-1.1,1.2-1.4.5-.3,1.1-.5,1.7-.5,1.1,0,2,.4,2.6,1.1.6.7.9,1.7.9,3.1v6.2h-2v-6.1Z"/>
          <path class="cls-3" d="M862.7,18.8c-.7-.4-1.2-.9-1.5-1.5-.3-.7-.5-1.5-.5-2.5v-1.1c0-1,.2-1.9.5-2.6.3-.7.8-1.2,1.5-1.6.6-.4,1.4-.6,2.3-.6s1.6.2,2.2.6c.6.4,1.1,1,1.4,1.8.3.8.5,1.8.5,2.9v.7h-6.8v-1.6h4.9c0-.8-.3-1.5-.6-1.9-.4-.5-.9-.7-1.5-.7s-1.3.2-1.8.7c-.4.5-.6,1.2-.6,2.1v1.3c0,.8.2,1.5.7,1.9.4.4,1.1.7,1.9.7s.8,0,1.2-.2c.4-.2.8-.4,1.1-.7l1.3,1.3c-.5.5-1.1.9-1.7,1.1s-1.3.4-1.9.4c-.9,0-1.7-.2-2.4-.5Z"/>
          <path class="cls-3" d="M872.1,18.6c-.6-.5-.9-1.3-.9-2.4s.3-1.8.8-2.3,1.4-.8,2.6-.8h2.9v1.6c.1,0-2.9,0-2.9,0-.5,0-.9.1-1.2.3-.3.2-.4.6-.4,1.1s.2.9.5,1.1.9.4,1.6.4,1.3,0,1.7-.2c.4-.2.6-.4.6-.8l.2,1.4c-.2.3-.4.5-.6.7-.3.2-.6.3-.9.4-.3,0-.7.1-1.1.1-1.2,0-2.2-.3-2.8-.8ZM877.4,12.8c0-.7-.2-1.2-.5-1.5-.4-.4-.9-.6-1.5-.6s-.8,0-1.2.2c-.4.1-.7.3-1,.5l-1.5-1c.4-.5.9-.8,1.5-1.1.6-.3,1.3-.4,2.1-.4s1.6.1,2.2.4c.6.3,1.1.7,1.4,1.3s.5,1.2.5,2v6.5h-1.9v-6.4Z"/>
          <path class="cls-3" d="M882.3,9.1h2v10.1h-2v-10.1ZM887.2,11c-.3-.1-.6-.2-.9-.2-.6,0-1.1.2-1.5.5-.3.3-.5.8-.5,1.5l-.2-2c.3-.6.7-1.1,1.2-1.4.5-.3,1-.5,1.6-.5s.9,0,1.3.2c.4.1.7.3,1,.6l-1.3,1.8c-.2-.2-.4-.4-.7-.5Z"/>
          <path class="cls-3" d="M892.4,18.8c-.7-.4-1.2-.9-1.5-1.5-.3-.7-.5-1.5-.5-2.5v-1.1c0-1,.2-1.9.5-2.6.3-.7.8-1.2,1.5-1.6.6-.4,1.4-.6,2.3-.6s1.6.2,2.2.6c.6.4,1.1,1,1.4,1.8.3.8.5,1.8.5,2.9v.7h-6.8v-1.6h4.9c0-.8-.3-1.5-.6-1.9-.4-.5-.9-.7-1.5-.7s-1.3.2-1.8.7c-.4.5-.6,1.2-.6,2.1v1.3c0,.8.2,1.5.7,1.9.4.4,1.1.7,1.9.7s.8,0,1.2-.2c.4-.2.8-.4,1.1-.7l1.3,1.3c-.5.5-1.1.9-1.7,1.1s-1.3.4-1.9.4c-.9,0-1.7-.2-2.4-.5Z"/>
          <path class="cls-3" d="M903.3,19.2c-.5-.1-1-.3-1.5-.5-.5-.2-.9-.5-1.3-.9l1.2-1.5c.5.4,1.1.7,1.6.9.5.2,1.1.3,1.6.3.8,0,1.4-.1,1.8-.4.4-.2.6-.6.6-1.1s-.1-.6-.3-.7-.5-.3-.8-.3c-.3,0-.8-.1-1.3-.2,0,0-.1,0-.2,0s-.1,0-.2,0c0,0,0,0,0,0,0,0,0,0,0,0-.7,0-1.2-.1-1.7-.3-.5-.1-.8-.4-1.1-.8s-.5-.9-.5-1.7.1-1.3.4-1.8.7-.8,1.3-1.1c.6-.2,1.3-.4,2.2-.4s1,0,1.5.1.9.2,1.4.4c.4.2.9.4,1.3.7l-1.2,1.5c-.5-.3-1-.6-1.5-.7-.5-.2-1-.2-1.4-.2-.7,0-1.2.1-1.5.3-.3.2-.5.6-.5,1s0,.5.3.6c.2.1.4.2.7.3s.7,0,1.2.1c0,0,0,0,.1,0s0,0,.1,0h0s0,0,0,0c.7,0,1.3.1,1.8.3s.9.4,1.3.8c.3.4.5,1,.5,1.8s-.2,1.3-.5,1.8-.8.8-1.4,1.1c-.6.2-1.4.4-2.4.4s-1.2,0-1.7-.2Z"/>
        </g>
      </g>
    </g>
    <g id="text3107-2" data-name="text3107" class="cls-14">
      <g class="cls-14">
        <g class="cls-14">
          <path class="cls-3" d="M237.4,351c-.7-.4-1.3-1.1-1.7-1.9s-.6-1.7-.6-2.8v-3.9c0-1.1.2-2,.6-2.8s1-1.4,1.7-1.9,1.6-.7,2.6-.7,1.6.2,2.2.5,1.3.8,1.7,1.5.8,1.4.9,2.2h-2c-.1-.4-.3-.8-.6-1.2s-.6-.6-1-.8-.8-.3-1.2-.3-1.1.1-1.5.4-.8.7-1,1.2-.4,1.1-.4,1.8v3.9c0,.7.1,1.2.4,1.8s.6.9,1,1.2.9.4,1.5.4.8,0,1.2-.3.7-.4,1-.8.5-.8.6-1.2h2c-.2.8-.5,1.6-.9,2.2s-1,1.1-1.7,1.5-1.4.5-2.2.5-1.8-.2-2.6-.7Z"/>
          <path class="cls-3" d="M249.2,351.1c-.6-.3-1.1-.8-1.4-1.5s-.5-1.5-.5-2.4v-1.7c0-.9.2-1.7.5-2.4s.8-1.2,1.4-1.5,1.4-.5,2.3-.5,1.6.2,2.3.5,1.1.8,1.4,1.5.5,1.4.5,2.4v1.7c0,.9-.2,1.7-.5,2.4s-.8,1.2-1.4,1.5-1.4.5-2.3.5-1.6-.2-2.3-.5ZM253,349.1c.4-.4.6-1,.6-1.8v-1.7c0-.8-.2-1.4-.6-1.8s-.9-.6-1.6-.6-1.2.2-1.6.6-.6,1-.6,1.8v1.7c0,.8.2,1.4.6,1.8s.9.7,1.6.7,1.2-.2,1.6-.7Z"/>
          <path class="cls-3" d="M258.4,341.4h2v10.1h-2v-10.1ZM264.6,345.4c0-.7-.2-1.3-.6-1.7s-.9-.6-1.6-.6-1.2.2-1.5.5-.5.8-.5,1.5l-.2-2c.3-.6.7-1.1,1.2-1.4s1.1-.5,1.7-.5c1.1,0,2,.4,2.6,1.1s.9,1.7.9,3.1v6.2h-2v-6.1Z"/>
          <path class="cls-3" d="M269.6,341.4h2v10.1h-2v-10.1ZM275.8,345.4c0-.7-.2-1.3-.6-1.7s-.9-.6-1.6-.6-1.2.2-1.5.5-.5.8-.5,1.5l-.2-2c.3-.6.7-1.1,1.2-1.4s1.1-.5,1.7-.5c1.1,0,2,.4,2.6,1.1s.9,1.7.9,3.1v6.2h-2v-6.1Z"/>
          <path class="cls-3" d="M281.2,350.9c-.6-.5-.9-1.3-.9-2.4s.3-1.8.8-2.3,1.4-.8,2.6-.8h2.9v1.6c.1,0-2.9,0-2.9,0-.5,0-.9.1-1.2.3s-.4.6-.4,1.1.2.9.5,1.1.9.4,1.6.4,1.3,0,1.7-.2.6-.4.6-.8l.2,1.4c-.2.3-.4.5-.6.7s-.6.3-.9.4-.7.1-1.1.1c-1.2,0-2.2-.3-2.8-.8ZM286.5,345.1c0-.7-.2-1.2-.5-1.5s-.9-.6-1.5-.6-.8,0-1.2.2-.7.3-1,.5l-1.5-1c.4-.5.9-.8,1.5-1.1s1.3-.4,2.1-.4,1.6.1,2.2.4,1.1.7,1.4,1.3.5,1.2.5,2v6.5h-1.9v-6.4Z"/>
          <path class="cls-3" d="M293.4,347.5c0,.7.2,1.3.5,1.6s.9.6,1.5.6,1.2-.2,1.5-.5.5-.8.5-1.5v2.1c0,.5-.4.9-.9,1.3s-1,.5-1.7.5c-1.1,0-2-.4-2.6-1.1s-.9-1.7-.9-3v-6.2h2v6.2ZM297.5,341.4h2v10.1h-2v-10.1Z"/>
          <path class="cls-3" d="M303.9,351.2c-.5-.3-.9-.8-1.2-1.4s-.4-1.4-.4-2.2v-2.2c0-.9.1-1.6.4-2.2s.7-1.1,1.2-1.4,1.1-.5,1.8-.5,1.1.2,1.6.5.9.8,1.2,1.3l-.2,2.1c0-.4,0-.8-.2-1.1s-.4-.5-.7-.7-.7-.2-1.1-.2c-.7,0-1.2.2-1.5.6s-.5,1-.5,1.7v2.2c0,.7.2,1.3.5,1.7s.9.6,1.5.6.8,0,1.1-.2.5-.4.7-.7.2-.7.2-1.1v2.1c0,.5-.4.9-.9,1.3s-1,.5-1.7.5-1.4-.2-1.9-.5ZM303.9,355.2c-.6-.3-1.1-.7-1.4-1.2l1.3-1.2c.3.4.6.6.9.8s.7.3,1.1.3c.8,0,1.4-.2,1.8-.6s.6-1,.6-1.8v-10.1h2v9.8c0,.9-.2,1.7-.5,2.4s-.8,1.2-1.5,1.5-1.4.5-2.4.5-1.4-.1-2-.4Z"/>
          <path class="cls-3" d="M313.3,337.3h2v14.2h-2v-14.2ZM319.5,345.4c0-.7-.2-1.3-.6-1.7s-.9-.6-1.6-.6-1.2.2-1.5.5-.5.8-.5,1.4l-.2-2c.3-.6.7-1.1,1.2-1.4s1.1-.5,1.7-.5c1.1,0,2,.4,2.6,1.1s.9,1.7.9,3.1v6.2h-2v-6.1Z"/>
          <path class="cls-3" d="M323.7,341.4h4.6v1.8h-4.6v-1.8ZM325.3,350.9c-.4-.5-.6-1.1-.6-2v-10.4h2v10.5c0,.2,0,.4.1.6s.2.2.4.2h1v1.9h-1.2c-.8,0-1.4-.2-1.8-.7Z"/>
        </g>
      </g>
    </g>
  </g>
  <path id="path4158-6" data-name="path4158" class="cls-9" d="M773,291.3l-189.2-8.5s-55.5-3.6-66.1-5.7c-10.6-2.1-13.1-3.5-13.1-3.5l-158.2-91" inkscape:connector-curvature="0" sodipodi:nodetypes="ccczzzzzzzzczcczzzzzzzzzzzzzzzzzzzzcczcczzzzczcczzzccczcccszcszzczzzcczzczczcczcc"/>
  <circle class="cls-1" cx="777.5" cy="96.9" r="9.9"/>
  <path id="path4158-7" data-name="path4158" class="cls-10" d="M417.4,207l-89.5-49.5s-7.1-4.6-11.3-4.6-5.6,1.5-9.5,4.9-6.9,9.3-11.3,15.9-22.6,33.8-30.8,48.8c-8.1,14.9-18.7,40.3-18.7,40.3,0,0-2.4,3.4-4.1,3.9s-4.8-1.1-4.8-1.1l-52.7-56.2s-13.9-13-20.5-15.9-11.8-3.2-17-3.2-8.8.4-13.4,2.8c-4.6,2.5-12.7,12.4-12.7,12.4l-64.7,124.5-32.1,60.9s-7,11.9-9.7,15.8-10,12.9-10,15.3c1,4.2,2.4,10.1,7,16.8,4,5.4,6.4,9.3,11.9,14.4,1.5,1.2,12.1,11.2,18.3,16.3,6.1,5.1,4.8,4,8.5,5.8,3.6,1.9,9.3.3,10.9,2.5,1.6,3.2-.9,12.2,1,23s4.7,13.3,7.2,17.3,6.8,8.6,11.9,13.2c5.1,4.6,47.6,38.3,47.6,38.3,0,0,20.6,35.6,24.1,38.2s5.5,2.4,8,2.4,5.3-1.8,6.9-3.5c1.6-1.7,2.8-7.4,2.8-7.4l5.6-32.5,20.2-117.4s2.7-21.9,5.7-35.4c2.9-13.4,5.2-23.6,12.4-44.9s6.2-17,10.6-28.2" inkscape:connector-curvature="0" sodipodi:nodetypes="ccczzzzzzzzczcczzzzzzzzzzzzzzzzzzzzcczcczzzzczcczzzccczcccszcszzczzzcczzczczcczcc"/>
  <path id="path4158-8" data-name="path4158" class="cls-7" d="M225.2,340.9c8.9-22.2,21.9-53.8,21.9-53.8,0,0,2.1-3.6,3.9-4.2s5.7,1.1,5.7,1.1c0,0,11.3,5.8,23.3,14.5s47,39.2,47,39.2l48.8,38.5s9.9,4.6,17.7,6.4,21.1,2.7,28.6,3.2l187.4,7.8h-.3c2.2-.6,61.7,2.5,61.7,2.5l17.1,1.4s2.9.2,6,3.7,2.7,4.4,3.5,8.7-.6,11.2.4,15.9c.9,4.7,1.7,8.6,4.6,12s7.2,5.5,12,7.4,10.2,2.5,16.6,3.2c6.4.7,141,7.2,145.3,6.7s6-.5,8.2-4.3,29.6-46.9,29.6-46.9c0,0,2.2-4,3.2-8.1,1-4.2,1.1-8.1,1.1-8.1l-9.3-63.5" inkscape:connector-curvature="0" sodipodi:nodetypes="ccczzzzzzzzczcczzzzzzzzzzzzzzzzzzzzcczcczzzzczcczzzccczcccszcszzczzzcczzczczcczcc"/>
  <circle id="path3094" class="cls-5" cx="146.5" cy="190.3" r="3.9"/>
  <circle id="path3094-1" class="cls-5" cx="868.9" cy="57.4" r="3.9"/>
  <circle id="path3094-7" class="cls-5" cx="825.8" cy="46.7" r="3.9"/>
  <circle id="path3094-4" class="cls-5" cx="791.3" cy="18.7" r="3.9"/>
  <circle id="path3094-9" class="cls-5" cx="805.8" cy="261.2" r="3.9"/>
  <circle id="path3094-48" class="cls-5" cx="510" cy="258.2" r="3.9" transform="translate(173.4 720.3) rotate(-80.8)"/>
  <circle id="path3094-8" class="cls-5" cx="314.7" cy="152.9" r="3.9"/>
  <circle id="path3094-2" class="cls-5" cx="241.9" cy="266.4" r="3.9"/>
  <circle id="path3094-45" class="cls-5" cx="4.5" cy="421.6" r="3.9"/>
  <circle id="path3094-5" class="cls-5" cx="60.9" cy="477.9" r="3.9"/>
  <circle id="path3094-17" class="cls-5" cx="62.9" cy="505.2" r="3.9"/>
  <circle id="path3094-11" class="cls-5" cx="161.7" cy="610.1" r="3.9"/>
  <circle id="path3094-52" class="cls-5" cx="250.6" cy="283.2" r="3.9"/>
  <circle id="path3094-76" class="cls-5" cx="379.5" cy="378" r="3.9"/>
  <circle id="path3094-85" class="cls-5" cx="694.6" cy="402.3" r="3.9"/>
  <circle id="path3094-761" class="cls-5" cx="704.5" cy="439.9" r="3.9"/>
  <circle id="path3094-89" class="cls-5" cx="881.5" cy="454.1" r="3.9"/>
  <circle id="path3094-89-1" class="cls-5" cx="917.8" cy="392.5" r="3.9"/>
  <circle class="cls-1" cx="745.6" cy="449.9" r="9.9"/>
  <circle class="cls-1" cx="92.4" cy="540.3" r="9.9"/>
  <g id="layer2" inkscape:groupmode="layer" inkscape:label="coses">
    <path id="path4943" class="cls-4" d="M465.9,439.2l-15.6-33.6,28.1-5.7,37.1-.5.2-5.7,10.8.4.2-2.5,19,.5-.2,2.2,11.6.6-.2,5.5,23.2,1.9,10.1,1.6,21.7,5.3,9.7,3.4-17.7,33.9-22.5-3.4-51.4-2.1-37.8-.9-19.4.5-6.9-1.6v.2Z" inkscape:connector-curvature="0" sodipodi:nodetypes="ccccccccccccccccccccc"/>
  </g>
  <path id="path4158-9" data-name="path4158" class="cls-9" d="M187.3,573.8l20.2-117.4s2.7-21.9,5.7-35.4c2.9-13.4,5.2-23.6,12.4-44.9s6.2-17,10.6-28.2" inkscape:connector-curvature="0" sodipodi:nodetypes="ccczzzzzzzzczcczzzzzzzzzzzzzzzzzzzzcczcczzzzczcczzzccczcccszcszzczzzcczzczczcczcc"/>
  <path id="path4158-10" data-name="path4158" class="cls-9" d="M603.3,411.3h-.3c2.2-.6,60.9,2.5,60.9,2.5" inkscape:connector-curvature="0" sodipodi:nodetypes="ccczzzzzzzzczcczzzzzzzzzzzzzzzzzzzzcczcczzzzczcczzzccczcccszcszzczzzcczzczczcczcc"/>
  <path id="path4158-11" data-name="path4158" class="cls-9" d="M288.4,325.5c14.9,12.1,36.2,30.7,36.2,30.7l48.2,38s9.8,4.5,17.5,6.3c7.7,1.8,20.8,2.7,28.2,3.2l184.9,7.7" inkscape:connector-curvature="0" sodipodi:nodetypes="ccczzzzzzzzczcczzzzzzzzzzzzzzzzzzzzcczcczzzzczcczzzccczcccszcszzczzzcczzczczcczcc"/>
  <g id="text3107-3" data-name="text3107" class="cls-14">
    <g class="cls-14">
      <g class="cls-14">
        <path class="cls-3" d="M237.4,351c-.7-.4-1.3-1.1-1.7-1.9s-.6-1.7-.6-2.8v-3.9c0-1.1.2-2,.6-2.8s1-1.4,1.7-1.9,1.6-.7,2.6-.7,1.6.2,2.2.5,1.3.8,1.7,1.5.8,1.4.9,2.2h-2c-.1-.4-.3-.8-.6-1.2s-.6-.6-1-.8-.8-.3-1.2-.3-1.1.1-1.5.4-.8.7-1,1.2-.4,1.1-.4,1.8v3.9c0,.7.1,1.2.4,1.8s.6.9,1,1.2.9.4,1.5.4.8,0,1.2-.3.7-.4,1-.8.5-.8.6-1.2h2c-.2.8-.5,1.6-.9,2.2s-1,1.1-1.7,1.5-1.4.5-2.2.5-1.8-.2-2.6-.7Z"/>
        <path class="cls-3" d="M249.2,351.1c-.6-.3-1.1-.8-1.4-1.5s-.5-1.5-.5-2.4v-1.7c0-.9.2-1.7.5-2.4s.8-1.2,1.4-1.5,1.4-.5,2.3-.5,1.6.2,2.3.5,1.1.8,1.4,1.5.5,1.4.5,2.4v1.7c0,.9-.2,1.7-.5,2.4s-.8,1.2-1.4,1.5-1.4.5-2.3.5-1.6-.2-2.3-.5ZM253,349.1c.4-.4.6-1,.6-1.8v-1.7c0-.8-.2-1.4-.6-1.8s-.9-.6-1.6-.6-1.2.2-1.6.6-.6,1-.6,1.8v1.7c0,.8.2,1.4.6,1.8s.9.7,1.6.7,1.2-.2,1.6-.7Z"/>
        <path class="cls-3" d="M258.4,341.4h2v10.1h-2v-10.1ZM264.6,345.4c0-.7-.2-1.3-.6-1.7s-.9-.6-1.6-.6-1.2.2-1.5.5-.5.8-.5,1.5l-.2-2c.3-.6.7-1.1,1.2-1.4s1.1-.5,1.7-.5c1.1,0,2,.4,2.6,1.1s.9,1.7.9,3.1v6.2h-2v-6.1Z"/>
        <path class="cls-3" d="M269.6,341.4h2v10.1h-2v-10.1ZM275.8,345.4c0-.7-.2-1.3-.6-1.7s-.9-.6-1.6-.6-1.2.2-1.5.5-.5.8-.5,1.5l-.2-2c.3-.6.7-1.1,1.2-1.4s1.1-.5,1.7-.5c1.1,0,2,.4,2.6,1.1s.9,1.7.9,3.1v6.2h-2v-6.1Z"/>
        <path class="cls-3" d="M281.2,350.9c-.6-.5-.9-1.3-.9-2.4s.3-1.8.8-2.3,1.4-.8,2.6-.8h2.9v1.6c.1,0-2.9,0-2.9,0-.5,0-.9.1-1.2.3s-.4.6-.4,1.1.2.9.5,1.1.9.4,1.6.4,1.3,0,1.7-.2.6-.4.6-.8l.2,1.4c-.2.3-.4.5-.6.7s-.6.3-.9.4-.7.1-1.1.1c-1.2,0-2.2-.3-2.8-.8ZM286.5,345.1c0-.7-.2-1.2-.5-1.5s-.9-.6-1.5-.6-.8,0-1.2.2-.7.3-1,.5l-1.5-1c.4-.5.9-.8,1.5-1.1s1.3-.4,2.1-.4,1.6.1,2.2.4,1.1.7,1.4,1.3.5,1.2.5,2v6.5h-1.9v-6.4Z"/>
        <path class="cls-3" d="M293.4,347.5c0,.7.2,1.3.5,1.6s.9.6,1.5.6,1.2-.2,1.5-.5.5-.8.5-1.5v2.1c0,.5-.4.9-.9,1.3s-1,.5-1.7.5c-1.1,0-2-.4-2.6-1.1s-.9-1.7-.9-3v-6.2h2v6.2ZM297.5,341.4h2v10.1h-2v-10.1Z"/>
        <path class="cls-3" d="M303.9,351.2c-.5-.3-.9-.8-1.2-1.4s-.4-1.4-.4-2.2v-2.2c0-.9.1-1.6.4-2.2s.7-1.1,1.2-1.4,1.1-.5,1.8-.5,1.1.2,1.6.5.9.8,1.2,1.3l-.2,2.1c0-.4,0-.8-.2-1.1s-.4-.5-.7-.7-.7-.2-1.1-.2c-.7,0-1.2.2-1.5.6s-.5,1-.5,1.7v2.2c0,.7.2,1.3.5,1.7s.9.6,1.5.6.8,0,1.1-.2.5-.4.7-.7.2-.7.2-1.1v2.1c0,.5-.4.9-.9,1.3s-1,.5-1.7.5-1.4-.2-1.9-.5ZM303.9,355.2c-.6-.3-1.1-.7-1.4-1.2l1.3-1.2c.3.4.6.6.9.8s.7.3,1.1.3c.8,0,1.4-.2,1.8-.6s.6-1,.6-1.8v-10.1h2v9.8c0,.9-.2,1.7-.5,2.4s-.8,1.2-1.5,1.5-1.4.5-2.4.5-1.4-.1-2-.4Z"/>
        <path class="cls-3" d="M313.3,337.3h2v14.2h-2v-14.2ZM319.5,345.4c0-.7-.2-1.3-.6-1.7s-.9-.6-1.6-.6-1.2.2-1.5.5-.5.8-.5,1.4l-.2-2c.3-.6.7-1.1,1.2-1.4s1.1-.5,1.7-.5c1.1,0,2,.4,2.6,1.1s.9,1.7.9,3.1v6.2h-2v-6.1Z"/>
        <path class="cls-3" d="M323.7,341.4h4.6v1.8h-4.6v-1.8ZM325.3,350.9c-.4-.5-.6-1.1-.6-2v-10.4h2v10.5c0,.2,0,.4.1.6s.2.2.4.2h1v1.9h-1.2c-.8,0-1.4-.2-1.8-.7Z"/>
      </g>
    </g>
  </g>
  <line class="cls-9" x1="853.6" y1="76.1" x2="894.9" y2="358.9"/>
</svg>