<?xml version="1.0" encoding="UTF-8"?>
<svg id="svg4099" xmlns="http://www.w3.org/2000/svg" xmlns:svg="http://www.w3.org/2000/svg" xmlns:sodipodi="http://sodipodi.sourceforge.net/DTD/sodipodi-0.dtd" xmlns:rdf="http://www.w3.org/1999/02/22-rdf-syntax-ns#" xmlns:inkscape="http://www.inkscape.org/namespaces/inkscape" xmlns:dc="http://purl.org/dc/elements/1.1/" xmlns:cc="http://creativecommons.org/ns#" version="1.1" viewBox="0 0 948.1 620.1">
  <defs>
    <style>
      .cls-1 {
        stroke-width: 3.5px;
      }

      .cls-1, .cls-2, .cls-3, .cls-4, .cls-5 {
        fill: none;
      }

      .cls-1, .cls-6, .cls-3, .cls-4, .cls-5 {
        stroke: #000;
      }

      .cls-7 {
        fill: #ff7d00;
        fill-opacity: .4;
        stroke: #ff3d00;
        stroke-opacity: .4;
      }

      .cls-2 {
        stroke: silver;
      }

      .cls-2, .cls-4 {
        stroke-width: 9px;
      }

      .cls-8, .cls-9, .cls-6, .cls-10 {
        fill: #000;
      }

      .cls-8, .cls-11, .cls-12 {
        stroke-width: 0px;
      }

      .cls-9 {
        font-size: 20px;
      }

      .cls-9, .cls-13, .cls-10 {
        isolation: isolate;
      }

      .cls-9, .cls-10 {
        font-family: TimesNewRomanPSMT, 'Times New Roman';
      }

      .cls-3 {
        stroke-width: 1.1px;
      }

      .cls-3, .cls-5 {
        stroke-linecap: round;
      }

      .cls-10 {
        font-size: 28px;
      }

      .cls-11 {
        fill: #fff;
      }

      .cls-5 {
        stroke-width: 1.3px;
      }

      .cls-12 {
        fill: #a6ffff;
      }
    </style>
  </defs>
  <sodipodi:namedview id="base" bordercolor="#666666" borderopacity="1.0" fit-margin-bottom="0" fit-margin-left="0" fit-margin-right="0" fit-margin-top="0" inkscape:current-layer="layer1" inkscape:cx="900.03842" inkscape:cy="255.69629" inkscape:document-rotation="0" inkscape:document-units="px" inkscape:pageopacity="0.0" inkscape:pageshadow="2" inkscape:snap-bbox="false" inkscape:snap-grids="true" inkscape:snap-page="false" inkscape:snap-to-guides="true" inkscape:window-height="1017" inkscape:window-maximized="1" inkscape:window-width="1920" inkscape:window-x="-8" inkscape:window-y="-8" inkscape:zoom="0.50774506" pagecolor="#ffffff" showgrid="false"/>
  <g id="layer1" inkscape:groupmode="layer" inkscape:label="Layer 1">
    <path id="pre-2023" class="cls-2" d="M438.5,386.2s2.1.5,2.8,1.9.7,6.2.7,6.2l.4,26.9s1.3,7.6,3.2,11,4.4,6.4,7.8,8.5c3.4,2.1,16.8,4.6,16.8,4.6l112.8,4.6s3.5-.4,4.9-1.9c1.4-1.5,2.3-6.9,2.3-6.9l7.1-36.8s1.9-4.1,3.9-6,6-4,8.1-4.6" inkscape:connector-curvature="0" sodipodi:nodetypes="czcczzcczcczc"/>
    <path id="path4158" class="cls-4" d="M609.2,393.6c2.2-.6,61.7,2.5,61.7,2.5l17.1,1.4s2.9.2,6,3.7c3.1,3.5,2.7,4.4,3.5,8.7s-.6,11.2.4,15.9c.9,4.7,1.7,8.6,4.6,12s7.2,5.5,12,7.4c4.8,1.9,10.2,2.5,16.6,3.2,6.4.7,141,7.2,145.3,6.7,4.3-.5,6-.5,8.2-4.3s29.6-46.9,29.6-46.9c0,0,2.2-4,3.2-8.1,1-4.2,1.1-8.1,1.1-8.1l-47-322.4s-.3-4.8-1.4-6.4-1.5-1.9-3.9-2.5-8.5,0-12.6-.3c-4.1-.3-10.9-1.5-16.2-3.2s-7.9-3.5-12.6-6.7c-4.6-3.2-7.6-7.3-10.6-11-3-3.6-4.9-8.1-7.4-10.6s-4.3-3.7-7.1-4.6c-2.8-.9-6.9-1.7-10.2-.9s-5.3,1.8-7.4,4.4c-2.1,2.6-2.6,1.8-4.3,9.9s-3.6,30.8-3.5,40.7c0,9.8.5,11.6,1.8,18s1.9,8.1,6,20.5c4.1,12.4,14.6,38.3,19.4,53.4,4.8,15.1,8,26.8,10.3,36.8s3.3,15.6,3.9,23c.6,7.3-.8,14.2-2.2,20.4s-3,9.9-6.5,14.2-9.1,8.7-13.2,11-16.5,3.9-16.5,3.9l-189.2-8.5s-55.5-3.6-66.1-5.7c-10.6-2.1-13.1-3.5-13.1-3.5l-181-100.1s-7.1-4.6-11.3-4.6c-4.2,0-5.6,1.5-9.5,4.9s-6.9,9.3-11.3,15.9-22.6,33.8-30.8,48.8c-8.1,14.9-18.7,40.3-18.7,40.3,0,0-2.4,3.4-4.1,3.9s-4.8-1.1-4.8-1.1l-52.7-56.2s-13.9-13-20.5-15.9-11.8-3.2-17-3.2c-5.2,0-8.8.4-13.4,2.8-4.6,2.5-12.7,12.4-12.7,12.4l-64.7,124.5-32.1,60.9s-7,11.9-9.7,15.8-10,12.9-10,15.3c1,4.2,2.4,10.1,7,16.8,4,5.4,6.4,9.3,11.9,14.4,1.5,1.2,12.1,11.2,18.3,16.3,6.1,5.1,4.8,4,8.5,5.8,3.6,1.9,9.3.3,10.9,2.5,1.6,3.2-.9,12.2,1,23,1.9,10.8,4.7,13.3,7.2,17.3s6.8,8.6,11.9,13.2c5.1,4.6,47.6,38.3,47.6,38.3,0,0,20.6,35.6,24.1,38.2s5.5,2.4,8,2.4c2.5,0,5.3-1.8,6.9-3.5,1.6-1.7,2.8-7.4,2.8-7.4l25.8-149.9s2.7-21.9,5.7-35.4c2.9-13.4,5.2-23.6,12.4-44.9s32.5-82,32.5-82c0,0,2.1-3.6,3.9-4.2s5.7,1.1,5.7,1.1c0,0,11.3,5.8,23.3,14.5s47,39.2,47,39.2l48.8,38.5s9.9,4.6,17.7,6.4,21.1,2.7,28.6,3.2l187.4,7.8Z" inkscape:connector-curvature="0" sodipodi:nodetypes="ccczzzzzzzzczcczzzzzzzzzzzzzzzzzzzzcczcczzzzczcczzzccczcccszcszzczzzcczzczczcczcc"/>
    <path id="path4928" class="cls-1" d="M834.5,451.4l39.8-3s2.1-.4,3.5-1.4,3.4-4.4,3.4-4.4l27-43.7s1.8-3.4,2.3-5.1.9-5.3.9-5.3l-5.1-24.9-31.6-210-.6-18-8.5-63.5s-.2-3.4-1.1-4.9c-.9-1.6-.8-1.7-2.3-2.8s-6.2-3-6.2-3l-21.8-7" inkscape:connector-curvature="0" sodipodi:nodetypes="cczcczccccczzcc"/>
    <path id="path4930" class="cls-6" d="M912.1,322.7l9.1-1.4-1.2-8.9-4.2.4,3.1-20,8.4,18.9-4.1.5,1.6,11.7-11.3,1.6-1.2-2.8Z" inkscape:connector-curvature="0" sodipodi:nodetypes="cccccccccc"/>
    <path id="path4932" class="cls-12" d="M165.2,570l20.7-122.4-28.7,2.2,2,6.2-11.2,11.5-47.8,71.8,27.5,22.5,31-26.2,3,2-9.8,21.8,13.2,10.8Z" inkscape:connector-curvature="0" sodipodi:nodetypes="ccccccccccc"/>
    <path id="path4934" class="cls-12" d="M193.7,586.8l23.2-139.2,86,.2s3.4,5.6,6,7.8,5.6,3.5,9.2,4.5,8,1,11.3.8c3.3-.2,6.5-1.8,9.4-3.4,2.8-1.7,7.1-7.3,7.1-7.3l144.5,6.2,9.7,8.3-3.6-.2-1.9,54.2,76.5,3.2,3-53.8-4.2-.5,8.5-6.5s49.3.6,53.5,1.5,10.3,7.6,11.9,13,18.2,47.6.7,150.1h24.9s-.1-144.6,3.3-150.7,9.6-9.5,15.7-10.2c6.1-.7,57.8,1.8,57.8,1.8l117.5,2.7s19.1.2,27.2-2.2c23.2-6.8,42.5-33.8,53.9-58.9,12.4-27.3-1.8-98.5,2.1-103.1,3.2-3.8-43-311.9-43-311.9l45.3,4.6-.2,624.4-372.9-1.7-343.7.8s-6.1-18.2-7.6-20.2c-1.5-2-2.7-17.2-2.7-17.2l6.8-2.5,10.5,8.5,4.8-4.7-12.3-11.1-38.2,12.8Z" inkscape:connector-curvature="0" sodipodi:nodetypes="ccczzzzccccccccczzcczzccsssccccczcccccc"/>
    <path id="path4936" class="cls-12" d="M503.7,457.3l28.1.9v8l-19.6-.9-8.5-8Z" inkscape:connector-curvature="0"/>
    <path id="path4938" class="cls-12" d="M538.2,458.7l29.5,1.1-9.2,7.6-20.3-1.2v-7.4Z" inkscape:connector-curvature="0"/>
    <path id="path4955" class="cls-8" d="M425.4,200l6.2-13-33.1-8.5c7.7,6.1,21.4,17,27,21.5Z" inkscape:connector-curvature="0" sodipodi:nodetypes="cccc"/>
    <path id="path4959" class="cls-8" d="M324.5,321.4l8.5-10.4,19.7,26-28.2-15.6Z" inkscape:connector-curvature="0" sodipodi:nodetypes="cccc"/>
    <path id="path4978" class="cls-12" d="M117.4,576.3l-31,46-54.8,1.4,58-70.1,27.8,22.8Z" inkscape:connector-curvature="0" sodipodi:nodetypes="ccccc"/>
    <g id="text2998" class="cls-13">
      <text class="cls-10" transform="translate(860.2 46.8)"><tspan x="0" y="0">1</tspan></text>
    </g>
    <g id="text3002" class="cls-13">
      <text class="cls-10" transform="translate(807.3 73.1)"><tspan x="0" y="0">2</tspan></text>
    </g>
    <g id="text3006" class="cls-13">
      <text class="cls-10" transform="translate(752.8 22.2)"><tspan x="0" y="0">3</tspan></text>
    </g>
    <g id="text3010" class="cls-13">
      <text class="cls-10" transform="translate(752.2 118.3)"><tspan x="0" y="0">4</tspan></text>
    </g>
    <g id="text3014" class="cls-13">
      <text class="cls-10" transform="translate(816.2 291.3)"><tspan x="0" y="0">5</tspan></text>
    </g>
    <g id="text3018" class="cls-13">
      <text class="cls-10" transform="translate(522.7 246.8)"><tspan x="0" y="0">6</tspan></text>
    </g>
    <g id="text3022" class="cls-13">
      <text class="cls-10" transform="translate(315.7 139.3)"><tspan x="0" y="0">7</tspan></text>
    </g>
    <g id="text3026" class="cls-13">
      <text class="cls-10" transform="translate(265.1 264.6)"><tspan x="0" y="0">8</tspan></text>
    </g>
    <g id="text3030" class="cls-13">
      <text class="cls-10" transform="translate(128.5 177.9)"><tspan x="0" y="0">9</tspan></text>
    </g>
    <g id="text3034" class="cls-13">
      <text class="cls-10" transform="translate(18.9 429.9)"><tspan x="0" y="0">10</tspan></text>
    </g>
    <g id="text3038" class="cls-13">
      <text class="cls-10" transform="translate(72.9 482.8)"><tspan x="0" y="0">11</tspan></text>
    </g>
    <g id="text3042" class="cls-13">
      <text class="cls-10" transform="translate(24 526.8)"><tspan x="0" y="0">12</tspan></text>
    </g>
    <g id="text3046" class="cls-13">
      <text class="cls-10" transform="translate(178.7 612.9)"><tspan x="0" y="0">13</tspan></text>
    </g>
    <g id="text3050" class="cls-13">
      <text class="cls-10" transform="translate(248 324.4)"><tspan x="0" y="0">14</tspan></text>
    </g>
    <g id="text3054" class="cls-13">
      <text class="cls-10" transform="translate(372.7 366.8)"><tspan x="0" y="0">15</tspan></text>
    </g>
    <g id="text3058" class="cls-13">
      <text class="cls-10" transform="translate(697.7 383.8)"><tspan x="0" y="0">16</tspan></text>
    </g>
    <g id="text3062" class="cls-13">
      <text class="cls-10" transform="translate(712.7 430.3)"><tspan x="0" y="0">17</tspan></text>
    </g>
    <g id="text3066" class="cls-13">
      <text class="cls-10" transform="translate(845.7 432.8)"><tspan x="0" y="0">18</tspan></text>
    </g>
    <g id="text3070" class="cls-13">
      <text class="cls-10" transform="translate(871.2 396.8)"><tspan x="0" y="0">19</tspan></text>
    </g>
    <ellipse id="path3090" class="cls-3" cx="530.9" cy="238.3" rx="13.8" ry="13"/>
    <ellipse id="path3090-7" class="cls-3" cx="866.9" cy="37" rx="13.8" ry="13"/>
    <ellipse id="path3090-3" class="cls-3" cx="813.6" cy="63.9" rx="13.8" ry="13"/>
    <ellipse id="path3090-9" class="cls-3" cx="759.2" cy="13.6" rx="13.8" ry="13"/>
    <ellipse id="path3090-5" class="cls-3" cx="759.7" cy="109.3" rx="13.8" ry="13"/>
    <ellipse id="path3090-97" class="cls-3" cx="823.2" cy="282.3" rx="13.8" ry="13"/>
    <ellipse id="path3090-2" class="cls-3" cx="323.2" cy="130.3" rx="13.8" ry="13"/>
    <ellipse id="path3090-0" class="cls-3" cx="272.2" cy="255.6" rx="13.8" ry="13"/>
    <ellipse id="path3090-28" class="cls-3" cx="134.5" cy="168.4" rx="13.8" ry="13"/>
    <ellipse id="path3090-6" class="cls-3" cx="34.6" cy="421" rx="16.4" ry="15.9"/>
    <ellipse id="path3090-6-7" class="cls-5" cx="86.4" cy="473.4" rx="16.4" ry="15.9"/>
    <ellipse id="path3090-6-0" class="cls-5" cx="39" cy="518.3" rx="16.4" ry="15.9"/>
    <ellipse id="path3090-6-8" class="cls-3" cx="192.7" cy="603.6" rx="16.4" ry="15.9"/>
    <ellipse id="path3090-6-1" class="cls-3" cx="263" cy="315.4" rx="16.4" ry="15.9"/>
    <ellipse id="path3090-6-83" class="cls-3" cx="388.2" cy="356.8" rx="16.4" ry="15.9"/>
    <ellipse id="path3090-6-03" class="cls-5" cx="713.2" cy="374.8" rx="16.4" ry="15.9"/>
    <ellipse id="path3090-6-6" class="cls-5" cx="728.2" cy="420.8" rx="16.4" ry="15.9"/>
    <ellipse id="path3090-6-2" class="cls-5" cx="885.2" cy="387.8" rx="16.4" ry="15.9"/>
    <ellipse id="path3090-6-02" class="cls-5" cx="860.2" cy="424.3" rx="16.4" ry="15.9"/>
    <g id="text3079" class="cls-13">
      <text class="cls-9" transform="translate(341.6 135.7)"><tspan x="0" y="0">Memorial Corner</tspan></text>
    </g>
    <g id="text3083" class="cls-13">
      <text class="cls-9" transform="translate(290.5 262.2)"><tspan x="0" y="0">Stamford</tspan></text>
    </g>
    <g id="text3087" class="cls-13">
      <text class="cls-9" transform="translate(153.7 172.6)"><tspan x="0" y="0">Padang</tspan></text>
    </g>
    <g id="text3093" class="cls-13">
      <text class="cls-9" transform="translate(40.9 399.5)"><tspan x="0" y="0">Singapore</tspan></text>
      <text class="cls-9" transform="translate(60.4 424.5)"><tspan x="0" y="0">Sling</tspan></text>
    </g>
    <g id="text3107" class="cls-13">
      <text class="cls-9" transform="translate(233.6 351.5)"><tspan x="0" y="0">Connaught</tspan></text>
    </g>
    <g id="text3095" class="cls-13">
      <text class="cls-9" transform="translate(835.9 19.2)"><tspan x="0" y="0">Sheares</tspan></text>
    </g>
    <ellipse id="path3094" class="cls-11" cx="146.5" cy="190.3" rx="3.9" ry="3.9"/>
    <ellipse id="path3094-1" class="cls-11" cx="868.9" cy="57.4" rx="3.9" ry="3.9"/>
    <ellipse id="path3094-7" class="cls-11" cx="825.8" cy="46.7" rx="3.9" ry="3.9"/>
    <ellipse id="path3094-4" class="cls-11" cx="791.3" cy="18.7" rx="3.9" ry="3.9"/>
    <ellipse id="path3094-0" class="cls-11" cx="777.5" cy="96.9" rx="3.9" ry="3.9"/>
    <ellipse id="path3094-9" class="cls-11" cx="805.8" cy="261.2" rx="3.9" ry="3.9"/>
    <ellipse id="path3094-48" class="cls-11" cx="510" cy="258.2" rx="3.9" ry="3.9"/>
    <ellipse id="path3094-8" class="cls-11" cx="314.7" cy="152.9" rx="3.9" ry="3.9"/>
    <ellipse id="path3094-2" class="cls-11" cx="241.9" cy="266.4" rx="3.9" ry="3.9"/>
    <ellipse id="path3094-45" class="cls-11" cx="4.5" cy="421.6" rx="3.9" ry="3.9"/>
    <ellipse id="path3094-5" class="cls-11" cx="60.9" cy="477.9" rx="3.9" ry="3.9"/>
    <ellipse id="path3094-17" class="cls-11" cx="62.9" cy="505.2" rx="3.9" ry="3.9"/>
    <ellipse id="path3094-11" class="cls-11" cx="161.7" cy="610.1" rx="3.9" ry="3.9"/>
    <ellipse id="path3094-52" class="cls-11" cx="250.6" cy="283.2" rx="3.9" ry="3.9"/>
    <ellipse id="path3094-76" class="cls-11" cx="379.5" cy="378" rx="3.9" ry="3.9"/>
    <ellipse id="path3094-85" class="cls-11" cx="694.6" cy="402.3" rx="3.9" ry="3.9"/>
    <ellipse id="path3094-761" class="cls-11" cx="704.5" cy="439.9" rx="3.9" ry="3.9"/>
    <ellipse id="path3094-89" class="cls-11" cx="881.5" cy="454.1" rx="3.9" ry="3.9"/>
    <ellipse id="path3094-89-1" class="cls-11" cx="917.8" cy="392.5" rx="3.9" ry="3.9"/>
  </g>
  <g id="layer2" inkscape:groupmode="layer" inkscape:label="coses">
    <path id="path4943" class="cls-7" d="M465.9,439.2l-15.6-33.6,28.1-5.7,37.1-.5.2-5.7,10.8.4.2-2.5,19,.5-.2,2.2,11.6.6-.2,5.5,23.2,1.9,10.1,1.6,21.7,5.3,9.7,3.4-17.7,33.9-22.5-3.4-51.4-2.1-37.8-.9-19.4.5-6.9-1.6Z" inkscape:connector-curvature="0" sodipodi:nodetypes="ccccccccccccccccccccc"/>
  </g>
</svg>