<?xml version="1.0" encoding="UTF-8"?>
<svg id="Layer_1" data-name="Layer 1" xmlns="http://www.w3.org/2000/svg" xmlns:svg="http://www.w3.org/2000/svg" xmlns:sodipodi="http://sodipodi.sourceforge.net/DTD/sodipodi-0.dtd" xmlns:rdf="http://www.w3.org/1999/02/22-rdf-syntax-ns#" xmlns:inkscape="http://www.inkscape.org/namespaces/inkscape" xmlns:dc="http://purl.org/dc/elements/1.1/" xmlns:cc="http://creativecommons.org/ns#" version="1.1" viewBox="0 0 423 395">
  <defs>
    <style>
      .cls-1, .cls-2, .cls-3, .cls-4, .cls-5, .cls-6, .cls-7 {
        stroke-linecap: round;
      }

      .cls-1, .cls-2, .cls-8, .cls-4, .cls-9, .cls-5, .cls-10, .cls-6, .cls-7 {
        fill: none;
      }

      .cls-1, .cls-3, .cls-8, .cls-4, .cls-9, .cls-6 {
        stroke: #aaa;
      }

      .cls-1, .cls-3, .cls-4, .cls-9 {
        stroke-width: 7px;
      }

      .cls-11 {
        stroke-width: 1px;
      }

      .cls-11, .cls-2, .cls-5, .cls-7 {
        stroke: #000;
      }

      .cls-11, .cls-12 {
        fill: #fff;
      }

      .cls-2 {
        stroke-width: 2.7px;
      }

      .cls-2, .cls-8, .cls-4, .cls-9, .cls-5, .cls-10, .cls-7 {
        stroke-linejoin: round;
      }

      .cls-3 {
        fill: #4d4d4d;
      }

      .cls-13 {
        fill: #000;
      }

      .cls-13, .cls-12 {
        stroke-width: 0px;
      }

      .cls-8, .cls-6 {
        stroke-width: 6px;
      }

      .cls-5 {
        stroke-width: 3px;
      }

      .cls-10 {
        stroke: #8c8c8c;
        stroke-width: 2.5px;
      }

      .cls-7 {
        stroke-width: 7.3px;
      }
    </style>
  </defs>
  <sodipodi:namedview id="namedview469" bordercolor="#666666" borderopacity="1" gridtolerance="10" guidetolerance="10" inkscape:current-layer="Layer_1" inkscape:cx="250" inkscape:cy="260" inkscape:pageopacity="0" inkscape:pageshadow="2" inkscape:window-height="1949" inkscape:window-maximized="1" inkscape:window-width="3840" inkscape:window-x="-8" inkscape:window-y="-8" inkscape:zoom="2.75" objecttolerance="10" pagecolor="#ffffff" showgrid="false"/>
  <path id="path4232" class="cls-10" d="M52,159.4l-18.7,51,1.8,21.7-.7,32.7s-1,26.1.5,43.1c1.5,17,9.2,50.2,9.2,50.2,0,0,1.1,3.7,4.1,6.4s8.5,1.2,8.5,1.2" inkscape:connector-curvature="0" sodipodi:nodetypes="cccczczc"/>
  <path id="path4230" class="cls-4" d="M81.2,156.5l-3.7-16.3-18.5,10.8" inkscape:connector-curvature="0" sodipodi:nodetypes="ccc"/>
  <path id="path4228" class="cls-1" d="M82.5,116.5l28.1-7" inkscape:connector-curvature="0" sodipodi:nodetypes="cc"/>
  <path id="path4226" class="cls-9" d="M301.6,44.9l27.2-7.2-2.2-8.4" inkscape:connector-curvature="0" sodipodi:nodetypes="ccc"/>
  <path id="path4222" class="cls-6" d="M297,94.2s3.8-5.1,5.2-8.3c1.3-3.2,1.6-6.9,3-10.1s3.9-6.9,6.7-8.8c2.8-1.9,5.6-2.2,8.9-2.5s6.7,1.1,10.5,1,12-2,12-2" inkscape:connector-curvature="0" sodipodi:nodetypes="czzzzzc"/>
  <path id="path4224" class="cls-8" d="M317.6,64.5l-2.2-9.2-20.4,5.3-2.9-12.8,9.5-2.6-2.6-9.2h-.4" inkscape:connector-curvature="0" sodipodi:nodetypes="ccccccc"/>
  <path id="path4220" class="cls-4" d="M275.9,101.4s6.5-7.5,7.2-10.6c.7-3.1-1-6.1-1-6.1l-7.6-15.7s7.4-15.5,6.2-18.5c-1.2-3-23.5-4.4-23.5-4.4" inkscape:connector-curvature="0" sodipodi:nodetypes="czcczc"/>
  <path id="path4234" class="cls-6" d="M250.9,47.5s-5.5,4.3-7.4,7.5-4.4,9.4-6.8,12.1c-2.4,2.7-4.3,5-8.6,6.1s-8,.8-12.1-.4-8.1-4.5-12.9-5.8c-4.8-1.3-14.3-2.2-14.3-2.2" inkscape:connector-curvature="0" sodipodi:nodetypes="czzzzzc"/>
  <path id="path4218" class="cls-3" d="M361.6,46.5l28.8-24.2" inkscape:connector-curvature="0" sodipodi:nodetypes="cc"/>
  <path id="path3" class="cls-2" d="M98.6,126.7s11.5-15.8,22.2-3.5l73.9,81.9,7.9,11.4s8.2,7.4,13.2-3.3" inkscape:connector-curvature="0" sodipodi:nodetypes="ccccc"/>
  <path id="path5" class="cls-5" d="M255,126.2s-3.1,17.1-2.5,28c.6,10.9,2.3,18.8-13.5,33.9-22.8,20.1-22.9,23.8-22.9,23.8" inkscape:connector-curvature="0" sodipodi:nodetypes="cccc"/>
  <path id="path25" class="cls-7" d="M67.2,359.8c3.8-1.6,8.2,2.8,10.9,6.1,1.5,1.8,4.1,2.2,6.6.5,6.6-4.5,18.7-13,20.7-14.9,2.7-2.7,8-6.2,3-11.6-5.5-5.9-42.6-48.2-44.4-50.5s-4.7-6.4-4.9-8.8c-.2-2.4-.4-21.4-.5-27.4,0-5.9.4-7.9,2.4-9.7,2-1.8,15.4-14.6,19.1-17.1,3.7-2.5,6.9,2.8,14.5,11.5,7.6,8.7,9.3,8,12,6.7,2.7-1.3,16.5-11.3,21.2-14.1,4.7-2.8,4.8-6.4,3.9-8.4-.9-2-7.5-15.4-7.5-15.4,0,0-33.6-37.1-37.7-41.5-4.1-4.4-5.4-8.1-3.7-11.1,1.8-3.1,15.5-30.8,15.5-30.8,0,0,1.5-4.3,6-8.7,7.3-6.8,11.1-6.9,14.8-2.9,3.6,4,81.6,91.5,88.3,98.4,6.6,6.9,11.2,6.4,14.6,2.9,3.4-3.5,25.8-24.1,33.7-31.1,7.9-6.9,8.9-12.6,8-16.7-.9-4.1-4.7-18.8-6.2-24-1.5-5.2-.9-18.7,2.8-24.4,8.3-14.3,13.5-14.2,34-20.6,11.1-3.5,26-11.3,32.1-17,6.1-5.7,38.1-35.1,38.1-35.1,0,0-2.5-4.9-3.6-9.4-1.1-4.5,2.5-5.8,2.5-5.8l24.5-6.1s7.9-1.6,6.3-7.7c-1.5-6.1-8.7-3.1-8.7-3.1l-223.6,58.4-31.9,11.6-54.4,14.9c-3.8,1.4-8.1,3.2-5.5,6.3s5.8,6.7,7.3,8.9c1.5,2.2,5.1,4.1,1.2,8.3-3.9,4.2-12.5,14.8-18.2,25.6-7.6,13.4-17.3,42.2-19.2,92.6-1.1,15.7-.9,45.5-.8,60.8.1,15.3,7.7,51.8,11,61.1,2.1,6,10.9,1.2,16.1-1Z" inkscape:connector-curvature="0" sodipodi:nodetypes="cccccscccccccccccccscscccccccccccccccscccczcc"/>
  <polygon id="polygon27" class="cls-13" points="149.4 123.2 142.6 129.3 158 139.7 149.4 123.2"/>
  <polygon id="polygon29" class="cls-13" points="233.7 33.4 218.7 44.4 237.2 41.8 233.7 33.4"/>
  <polygon id="polygon31" class="cls-13" points="110.2 317.1 94 307.9 103.8 323.7 110.2 317.1"/>
  <path id="path33" class="cls-12" d="M358.2,29.8c-.4,1.6.5,3.2,2,3.6,1.6.4,3.2-.5,3.6-2,.4-1.6-.5-3.2-2-3.6-1.6-.4-3.2.5-3.6,2h0Z" inkscape:connector-curvature="0"/>
  <circle id="circle35" class="cls-12" cx="362" cy="46.3" r="2.9"/>
  <circle id="circle37" class="cls-12" cx="260.2" cy="116.5" r="2.9"/>
  <circle id="circle39" class="cls-12" cx="300" cy="94.1" r="2.9"/>
  <circle id="circle41" class="cls-12" cx="114.9" cy="109" r="2.9"/>
  <circle id="circle43" class="cls-12" cx="81.9" cy="157.7" r="2.9"/>
  <circle id="circle45" class="cls-12" cx="79.7" cy="117.3" r="2.9"/>
  <circle id="circle47" class="cls-12" cx="59.3" cy="146.7" r="2.9"/>
  <circle id="circle51" class="cls-12" cx="2.9" cy="304.7" r="2.9"/>
  <circle id="circle55" class="cls-12" cx="53.5" cy="363.5" r="2.9"/>
  <circle id="circle57" class="cls-12" cx="69.2" cy="359.3" r="2.9"/>
  <circle id="circle59" class="cls-12" cx="110.1" cy="344.6" r="2.9"/>
  <circle id="circle61" class="cls-12" cx="81.2" cy="367.4" r="2.9"/>
  <circle id="circle63" class="cls-12" cx="69.1" cy="101.1" r="2.9"/>
  <circle id="circle65" class="cls-12" cx="131.7" cy="225.9" r="2.9"/>
  <circle id="circle67" class="cls-12" cx="103" cy="245.6" r="2.9"/>
  <circle id="circle69" class="cls-12" cx="81.9" cy="225.8" r="2.9"/>
  <circle id="circle71" class="cls-12" cx="59.1" cy="245.9" r="2.9"/>
  <circle id="circle73" class="cls-12" cx="59.1" cy="281.8" r="2.9"/>
  <rect id="rect75" class="cls-12" x="159.4" y="142.6" width="2.9" height="2.8" transform="translate(-55 142.2) rotate(-41.4)"/>
  <rect id="rect77" class="cls-13" x="157.3" y="144.5" width="2.9" height="2.9" transform="translate(-56.8 141.1) rotate(-41.3)"/>
  <rect id="rect79" class="cls-12" x="155.1" y="146.4" width="2.8" height="2.9" transform="translate(-58.6 140.3) rotate(-41.4)"/>
  <polygon id="polygon81" class="cls-13" points="152.4 149.6 154.3 151.7 156.4 149.8 154.5 147.7 152.4 149.6"/>
  <polygon id="polygon83" class="cls-12" points="150.2 151.5 152.1 153.6 154.3 151.7 152.4 149.6 150.2 151.5"/>
  <rect id="rect85" class="cls-13" x="148.7" y="152.1" width="2.9" height="2.9" transform="translate(-64 137.3) rotate(-41.3)"/>
  <rect id="rect87" class="cls-12" x="146.5" y="154" width="2.9" height="2.9" transform="translate(-65.8 136.6) rotate(-41.4)"/>
  <polygon id="polygon89" class="cls-13" points="143.8 157.2 145.6 159.3 147.8 157.4 145.9 155.3 143.8 157.2"/>
  <rect id="rect91" class="cls-13" x="161.3" y="144.7" width="2.9" height="2.8" transform="translate(-56 144.1) rotate(-41.4)"/>
  <polygon id="polygon93" class="cls-12" points="158.6 147.9 160.5 150.1 162.6 148.2 160.7 146 158.6 147.9"/>
  <rect id="rect95" class="cls-13" x="157" y="148.5" width="2.8" height="2.8" transform="translate(-59.5 141.9) rotate(-41.3)"/>
  <rect id="rect97" class="cls-12" x="154.9" y="150.4" width="2.9" height="2.9" transform="translate(-61.3 141.1) rotate(-41.4)"/>
  <rect id="rect99" class="cls-13" x="152.7" y="152.3" width="2.9" height="2.9" transform="translate(-63.1 140.1) rotate(-41.3)"/>
  <polygon id="polygon101" class="cls-12" points="150 155.5 151.9 157.6 154 155.8 152.1 153.6 150 155.5"/>
  <rect id="rect103" class="cls-13" x="148.4" y="156.1" width="2.9" height="2.9" transform="translate(-66.8 138.5) rotate(-41.4)"/>
  <rect id="rect105" class="cls-12" x="146.2" y="158" width="2.9" height="2.8" transform="translate(-68.6 137.6) rotate(-41.4)"/>
  <polygon id="polygon107" class="cls-12" points="162.7 148.2 164.5 150.3 166.7 148.4 164.8 146.3 162.7 148.2"/>
  <rect id="rect109" class="cls-13" x="161.6" y="140.7" width="2.9" height="2.9" transform="translate(-53.2 143.3) rotate(-41.4)"/>
  <rect id="rect111" class="cls-12" x="163.5" y="142.8" width="2.8" height="2.8" transform="translate(-54.2 145.1) rotate(-41.4)"/>
  <rect id="rect113" class="cls-13" x="165.4" y="145" width="2.9" height="2.9" transform="translate(-55.1 146.5) rotate(-41.3)"/>
  <rect id="rect115" class="cls-13" x="161.1" y="148.8" width="2.8" height="2.9" transform="translate(-58.7 144.8) rotate(-41.3)"/>
  <rect id="rect117" class="cls-12" x="158.9" y="150.7" width="2.9" height="2.8" transform="translate(-60.5 144.1) rotate(-41.4)"/>
  <rect id="rect119" class="cls-13" x="156.8" y="152.6" width="2.9" height="2.8" transform="translate(-62.3 142.9) rotate(-41.4)"/>
  <rect id="rect121" class="cls-12" x="154.6" y="154.5" width="2.8" height="2.8" transform="translate(-64.1 142.1) rotate(-41.4)"/>
  <rect id="rect123" class="cls-13" x="152.4" y="156.4" width="2.9" height="2.8" transform="translate(-65.9 141.2) rotate(-41.4)"/>
  <polygon id="polygon125" class="cls-12" points="149.7 159.6 151.6 161.7 153.7 159.8 151.9 157.7 149.7 159.6"/>
  <rect id="rect127" class="cls-13" x="148.1" y="160.2" width="2.9" height="2.9" transform="translate(-69.4 138.9) rotate(-41.3)"/>
  <circle id="circle131" class="cls-12" cx="214.4" cy="215.3" r="2.9"/>
  <circle id="circle135" class="cls-11" cx="214.5" cy="234.9" r="10.2"/>
  <path id="path137" class="cls-13" d="M212,238h1.5v-6.8c-.6,0-1.2,0-1.7.1v-1.2c.9-.2,1.7-.4,2.3-.8h1.1v8.6h1.5v1.4h-4.8v-1.4Z" inkscape:connector-curvature="0"/>
  <circle id="circle207" class="cls-11" cx="281.9" cy="170.5" r="10.2"/>
  <path id="path209" class="cls-13" d="M278.4,173.1c.6-1,1.6-1.8,2.6-2.6,1.3-1,2.2-1.7,2.2-2.8s-.5-1.3-1.4-1.3-1.6.6-1.7,1.5l-1.7-.3c.3-1.7,1.6-2.7,3.4-2.7s3.1,1.2,3.1,2.9-.9,2.4-2.4,3.5c-1.2.9-2.1,1.4-2.4,2h4.8v1.6h-6.6v-1.8h0Z" inkscape:connector-curvature="0"/>
  <circle id="circle211" class="cls-11" cx="242.9" cy="109.3" r="10.2"/>
  <path id="path213" class="cls-13" d="M240.3,111c.6.9,1.2,1.3,2,1.3s1.7-.7,1.7-1.5-.9-1.6-2.6-1.6h-.3v-1.5c.1,0,.3,0,.4,0,1.5,0,2.2-.5,2.2-1.4s-.5-1.2-1.4-1.2-1.4.3-1.8,1l-1.2-1c.7-.9,1.8-1.5,3.1-1.5s3.1,1,3.1,2.5-.5,1.8-1.4,2.2c1.1.3,1.8,1.2,1.8,2.5,0,1.8-1.3,3-3.4,3s-2.8-.7-3.5-1.9l1.4-.9Z" inkscape:connector-curvature="0"/>
  <circle id="circle215" class="cls-11" cx="307.1" cy="110.6" r="10.2"/>
  <path id="path217" class="cls-13" d="M307.5,112.8h-4.4v-1.8l4.2-5.9h1.8v6.2h1.4v1.4h-1.4v2.3h-1.6v-2.3ZM307.5,111.4v-4.3l-3.1,4.3h3.1Z" inkscape:connector-curvature="0"/>
  <circle id="circle219" class="cls-11" cx="346" cy="37.9" r="10.2"/>
  <circle id="circle221" class="cls-11" cx="374.7" cy="57.1" r="10.2"/>
  <path id="path223" class="cls-13" d="M346.3,36.6c1.7,0,3,1.3,3,3.1s-1.3,3.4-3.4,3.4-3.5-1.6-3.5-4.6,1.6-5.6,4.1-5.6,1.8.2,2.5.7l-.7,1.3c-.6-.4-1.2-.6-1.8-.6-1.2,0-2.2,1.1-2.3,3,.6-.5,1.3-.8,2.1-.8h0ZM346,41.6c1,0,1.6-.7,1.6-1.7s-.7-1.8-1.7-1.8-1.6.5-1.8,1.2c0,1.5.7,2.3,1.8,2.3Z" inkscape:connector-curvature="0"/>
  <circle id="circle225" class="cls-11" cx="56.7" cy="83.5" r="10.2"/>
  <path id="path227" class="cls-13" d="M53.3,80.3c0-1.5,1.2-2.5,3.2-2.5s3.2,1,3.2,2.5-.5,1.7-1.5,2.2c1.3.7,1.9,1.5,1.9,2.7,0,1.7-1.3,2.8-3.7,2.8s-3.5-1.1-3.5-2.7.6-2,1.9-2.7c-1.1-.6-1.5-1.3-1.5-2.3ZM54.7,85.3c0,.8.7,1.3,1.7,1.3s1.9-.5,1.9-1.4-.6-1.3-1.9-1.8c-1.1.4-1.7,1-1.7,1.8ZM58.1,80.4c0-.7-.5-1.1-1.5-1.1s-1.5.4-1.5,1.1.5,1.3,1.6,1.5c1-.3,1.5-.8,1.5-1.5Z" inkscape:connector-curvature="0"/>
  <circle id="circle229" class="cls-11" cx="57.5" cy="117.6" r="10.2"/>
  <path id="path231" class="cls-13" d="M56.7,118.5c-1.7,0-3-1.3-3-3.1s1.3-3.4,3.4-3.4,3.5,1.6,3.5,4.6-1.6,5.6-4.1,5.6-1.9-.3-2.5-.7l.7-1.3c.6.4,1.2.6,1.8.6,1.2,0,2.2-1.1,2.3-3-.6.5-1.3.8-2.1.8ZM57.1,113.5c-1,0-1.6.7-1.6,1.7s.7,1.8,1.7,1.8,1.6-.5,1.8-1.2c0-1.5-.7-2.3-1.8-2.3Z" inkscape:connector-curvature="0"/>
  <circle id="circle233" class="cls-11" cx="41" cy="145.9" r="10.2"/>
  <path id="path235" class="cls-13" d="M34.7,149h1.5v-6.8c-.6,0-1.2,0-1.7.1v-1.2c.9-.2,1.7-.4,2.3-.8h1.1v8.6h1.5v1.4h-4.8v-1.4Z" inkscape:connector-curvature="0"/>
  <path id="path237" class="cls-13" d="M44.6,140.3c2.3,0,3.6,1.7,3.6,5.1s-1.2,5.1-3.6,5.1-3.6-1.7-3.6-5.1,1.2-5.1,3.6-5.1ZM44.6,149c1.2,0,1.8-1.2,1.8-3.6s-.6-3.6-1.8-3.6-1.8,1.2-1.8,3.6.6,3.6,1.8,3.6Z" inkscape:connector-curvature="0"/>
  <circle id="circle239" class="cls-11" cx="39" cy="375.4" r="10.2"/>
  <path id="path241" class="cls-13" d="M32.8,378.5h1.5v-6.8c-.6,0-1.2,0-1.7.1v-1.2c.9-.2,1.7-.4,2.3-.8h1.1v8.6h1.5v1.4h-4.8v-1.4Z" inkscape:connector-curvature="0"/>
  <path id="path243" class="cls-13" d="M40.3,378.5h1.5v-6.8c-.6,0-1.2,0-1.7.1v-1.2c.9-.2,1.7-.4,2.3-.8h1.1v8.6h1.5v1.4h-4.8v-1.4Z" inkscape:connector-curvature="0"/>
  <circle id="circle245" class="cls-11" cx="69.4" cy="341.7" r="10.2"/>
  <path id="path247" class="cls-13" d="M63.2,344.8h1.5v-6.8c-.6,0-1.2,0-1.7.1v-1.2c.9-.2,1.7-.4,2.3-.8h1.1v8.6h1.5v1.4h-4.8v-1.4Z" inkscape:connector-curvature="0"/>
  <path id="path249" class="cls-13" d="M69.7,344.4c.6-1,1.6-1.8,2.6-2.6,1.3-1,2.2-1.7,2.2-2.8s-.5-1.3-1.4-1.3-1.6.6-1.7,1.5l-1.7-.3c.3-1.7,1.6-2.7,3.4-2.7s3.1,1.2,3.1,2.9-.9,2.4-2.5,3.5c-1.2.9-2.1,1.4-2.4,2h4.8v1.6h-6.6v-1.8Z" inkscape:connector-curvature="0"/>
  <circle id="circle251" class="cls-11" cx="79.7" cy="281.1" r="10.2"/>
  <path id="path253" class="cls-13" d="M73.5,284.1h1.5v-6.8c-.6,0-1.2,0-1.7.1v-1.2c.9-.2,1.7-.4,2.3-.8h1.1v8.6h1.5v1.4h-4.8v-1.4Z" inkscape:connector-curvature="0"/>
  <path id="path255" class="cls-13" d="M81.5,283.1c.4.7,1,1.1,1.7,1.1s1.8-.8,1.8-2.1-.7-1.8-1.7-1.8-1.2.3-1.5.9l-1.4-.3.4-5.2h5.3v1.6h-4v2.2c.3-.4.8-.6,1.6-.6,1.8,0,3.1,1.3,3.1,3.3s-1.3,3.5-3.5,3.5-2.7-.7-3.3-1.9l1.5-.8Z" inkscape:connector-curvature="0"/>
  <circle id="circle257" class="cls-11" cx="82.2" cy="208.4" r="10.2"/>
  <path id="path259" class="cls-13" d="M76,211.4h1.5v-6.8c-.6,0-1.2,0-1.7.1v-1.2c.9-.2,1.7-.4,2.3-.8h1.1v8.6h1.5v1.4h-4.8v-1.4Z" inkscape:connector-curvature="0"/>
  <path id="path261" class="cls-13" d="M87.1,204.6h-4.6v-1.6h6.7v1.1l-3.9,8.9h-1.9l3.8-8.3Z" inkscape:connector-curvature="0"/>
  <circle id="circle263" class="cls-11" cx="75.7" cy="253.8" r="10.2"/>
  <path id="path265" class="cls-13" d="M69.5,256.9h1.5v-6.8c-.6,0-1.2,0-1.7.1v-1.2c.9-.2,1.7-.4,2.3-.8h1.1v8.6h1.5v1.4h-4.8v-1.4Z" inkscape:connector-curvature="0"/>
  <path id="path267" class="cls-13" d="M79.8,251.9c1.7,0,3,1.3,3,3.1s-1.3,3.4-3.4,3.4-3.5-1.6-3.5-4.6,1.6-5.6,4.1-5.6,1.8.2,2.5.7l-.7,1.3c-.6-.4-1.2-.6-1.8-.6-1.2,0-2.2,1.1-2.3,3,.6-.5,1.3-.8,2.1-.8h0ZM79.5,256.9c1,0,1.6-.7,1.6-1.7s-.7-1.8-1.7-1.8-1.6.5-1.8,1.2c0,1.5.7,2.3,1.8,2.3h0Z" inkscape:connector-curvature="0"/>
  <circle id="circle269" class="cls-11" cx="111.5" cy="262.8" r="10.2"/>
  <path id="path271" class="cls-13" d="M105.2,265.8h1.5v-6.8c-.6,0-1.2,0-1.7.1v-1.2c.9-.2,1.7-.4,2.3-.8h1.1v8.6h1.5v1.4h-4.8v-1.4Z" inkscape:connector-curvature="0"/>
  <path id="path273" class="cls-13" d="M111.8,259.6c0-1.5,1.2-2.4,3.2-2.4s3.2,1,3.2,2.5-.5,1.7-1.5,2.2c1.3.7,1.9,1.5,1.9,2.7,0,1.7-1.3,2.8-3.7,2.8s-3.5-1.1-3.5-2.7.6-2,1.9-2.7c-1.1-.6-1.5-1.3-1.5-2.3h0ZM113.2,264.5c0,.8.7,1.3,1.7,1.3s1.9-.5,1.9-1.4-.6-1.3-1.9-1.8c-1.1.4-1.7,1-1.7,1.8ZM116.6,259.7c0-.7-.5-1.1-1.5-1.1s-1.5.4-1.5,1.1.5,1.3,1.6,1.5c1-.3,1.5-.8,1.5-1.5Z" inkscape:connector-curvature="0"/>
  <circle id="circle275" class="cls-11" cx="146.3" cy="234.9" r="10.2"/>
  <path id="path277" class="cls-13" d="M140,237.9h1.5v-6.8c-.6,0-1.2,0-1.7.1v-1.2c.9-.2,1.7-.4,2.3-.8h1.1v8.6h1.5v1.4h-4.8v-1.4Z" inkscape:connector-curvature="0"/>
  <path id="path279" class="cls-13" d="M149.3,235.7c-1.7,0-3-1.3-3-3.1s1.3-3.4,3.4-3.4,3.5,1.6,3.5,4.6-1.6,5.6-4.1,5.6-1.9-.3-2.5-.7l.7-1.3c.6.4,1.2.6,1.8.6,1.2,0,2.2-1.1,2.3-3-.6.5-1.3.8-2.1.8h0ZM149.7,230.7c-1,0-1.6.7-1.6,1.7s.7,1.8,1.7,1.8,1.6-.5,1.8-1.2c0-1.5-.8-2.3-1.8-2.3h0Z" inkscape:connector-curvature="0"/>
  <circle id="circle281" class="cls-11" cx="101.3" cy="156.1" r="10.2"/>
  <path id="path283" class="cls-13" d="M93.9,158.8c.6-1,1.6-1.8,2.6-2.6,1.3-1,2.2-1.7,2.2-2.8s-.5-1.3-1.4-1.3-1.6.6-1.7,1.5l-1.7-.3c.3-1.7,1.6-2.7,3.4-2.7s3.1,1.2,3.1,2.9-.9,2.4-2.4,3.5c-1.2.9-2.1,1.4-2.4,2h4.8v1.6h-6.6v-1.8Z" inkscape:connector-curvature="0"/>
  <path id="path285" class="cls-13" d="M104.9,150.5c2.3,0,3.6,1.7,3.6,5.1s-1.2,5.1-3.6,5.1-3.6-1.7-3.6-5.1,1.2-5.1,3.6-5.1ZM104.9,159.2c1.2,0,1.8-1.2,1.8-3.6s-.6-3.6-1.8-3.6-1.8,1.2-1.8,3.6.6,3.6,1.8,3.6Z" inkscape:connector-curvature="0"/>
  <circle id="circle287" class="cls-11" cx="137.4" cy="102.6" r="10.2"/>
  <path id="path289" class="cls-13" d="M130,105.2c.6-1,1.6-1.8,2.6-2.6,1.3-1,2.2-1.7,2.2-2.8s-.5-1.3-1.4-1.3-1.6.6-1.7,1.5l-1.7-.3c.3-1.7,1.6-2.7,3.4-2.7s3.1,1.2,3.1,2.9-.9,2.4-2.4,3.5c-1.2.9-2.1,1.4-2.4,2h4.8v1.6h-6.6v-1.8Z" inkscape:connector-curvature="0"/>
  <path id="path291" class="cls-13" d="M138.7,105.6h1.5v-6.8c-.6,0-1.2,0-1.7.1v-1.2c.9-.2,1.7-.4,2.3-.8h1.1v8.6h1.5v1.4h-4.8v-1.4Z" inkscape:connector-curvature="0"/>
  <circle id="circle293" class="cls-11" cx="89.3" cy="384.1" r="10.2"/>
  <path id="path295" class="cls-13" d="M83,387.1h1.5v-6.8c-.6,0-1.2,0-1.7.1v-1.2c.9-.2,1.7-.4,2.3-.8h1.1v8.6h1.5v1.4h-4.8v-1.4Z" inkscape:connector-curvature="0"/>
  <path id="path297" class="cls-13" d="M90.5,385.9c.6.9,1.2,1.3,2,1.3s1.7-.7,1.7-1.5-.9-1.6-2.6-1.6h-.3v-1.5c.1,0,.3,0,.4,0,1.5,0,2.2-.5,2.2-1.4s-.5-1.2-1.4-1.2-1.4.3-1.8,1l-1.2-1c.7-.9,1.8-1.5,3.1-1.5s3.1,1,3.1,2.5-.5,1.8-1.4,2.2c1.1.3,1.8,1.2,1.8,2.5,0,1.8-1.3,3-3.4,3s-2.8-.7-3.5-1.9l1.4-.9Z" inkscape:connector-curvature="0"/>
  <path id="path299" class="cls-11" d="M137,348.2c0,5.6-4.6,10.2-10.2,10.2s-10.2-4.6-10.2-10.2,4.6-10.2,10.2-10.2,10.2,4.6,10.2,10.2Z" inkscape:connector-curvature="0"/>
  <path id="path301" class="cls-13" d="M120.6,351.2h1.5v-6.8c-.6,0-1.2,0-1.7.1v-1.2c.9-.2,1.7-.4,2.3-.8h1.1v8.6h1.5v1.4h-4.8v-1.4Z" inkscape:connector-curvature="0"/>
  <path id="path303" class="cls-13" d="M131,350.3h-4.4v-1.8l4.2-5.9h1.8v6.2h1.4v1.4h-1.4v2.3h-1.6v-2.3ZM131,348.9v-4.3l-3.1,4.3h3.1Z" inkscape:connector-curvature="0"/>
  <circle id="circle317" class="cls-12" cx="263.4" cy="170.5" r="2.9"/>
  <circle id="circle337" class="cls-12" cx="393.7" cy="14.7" r="2.9"/>
  <circle id="circle339" class="cls-11" cx="411.8" cy="10.7" r="10.2"/>
  <path id="path341" class="cls-13" d="M413,6.9h-4.6v-1.6h6.7v1.1l-3.9,8.9h-1.9l3.8-8.3Z" inkscape:connector-curvature="0"/>
  <path id="path465" class="cls-13" d="M372.6,59.7c.4.7,1,1.1,1.7,1.1s1.8-.8,1.8-2.1-.7-1.8-1.7-1.8-1.2.3-1.5.9l-1.4-.3.4-5.2h5.3v1.6h-4v2.2c.3-.4.8-.6,1.6-.6,1.8,0,3.1,1.3,3.1,3.3s-1.3,3.5-3.5,3.5-2.7-.7-3.3-1.9l1.5-.8Z" inkscape:connector-curvature="0"/>
</svg>