<?xml version="1.0" encoding="UTF-8"?>
<svg id="Layer_1" data-name="Layer 1" xmlns="http://www.w3.org/2000/svg" viewBox="0 0 133.65 65.03">
  <defs>
    <style>
      .cls-1 {
        fill: #444;
      }

      .cls-1, .cls-2 {
        stroke-width: 0px;
      }

      .cls-2 {
        fill: #ff5e93;
      }
    </style>
  </defs>
  <path class="cls-2" d="M130.64,0H5C2.24,0,0,2.24,0,5v55.03c0,2.76,2.24,5,5,5h63.73c2.65,0,5.2-1.05,7.07-2.93L132.76,5.12c1.89-1.89.55-5.12-2.12-5.12Z"/>
  <g>
    <path class="cls-1" d="M26.81,45.48h-3.59v-21.66l-3.64,2.23v-3.71l3.64-2.43h3.59v25.56Z"/>
    <path class="cls-1" d="M36.2,45.43c-.94-.21-1.83-.53-2.65-.95s-1.58-.95-2.27-1.58l2.13-2.62c.98.75,1.96,1.31,2.94,1.69s1.93.56,2.88.56c1.42,0,2.48-.22,3.19-.66s1.06-1.1,1.06-1.98c0-.59-.19-1.03-.58-1.32s-.87-.49-1.44-.59-1.38-.19-2.43-.27c-.09,0-.19,0-.3,0s-.21-.01-.3-.03c-.05,0-.09,0-.14,0s-.09,0-.14,0c-1.18-.09-2.19-.27-3.01-.52s-1.5-.72-2.05-1.42-.82-1.68-.82-2.97.26-2.36.79-3.22,1.31-1.5,2.36-1.92,2.35-.64,3.92-.64c.95,0,1.85.09,2.72.26s1.68.44,2.47.78,1.54.78,2.27,1.31l-2.16,2.62c-.91-.59-1.81-1.03-2.7-1.32s-1.75-.44-2.59-.44c-1.22,0-2.13.21-2.74.62s-.91,1.04-.91,1.87c0,.49.17.86.52,1.11s.78.41,1.31.49,1.28.15,2.25.21c.07.01.14.02.22.02s.16,0,.24.02h.11s.07,0,.11.02c1.28.08,2.36.25,3.26.51s1.65.77,2.26,1.53.91,1.86.91,3.3c0,1.31-.28,2.4-.84,3.26s-1.41,1.51-2.54,1.94-2.55.65-4.26.65c-1.08,0-2.09-.11-3.03-.32Z"/>
    <path class="cls-1" d="M50.04,27.24h8.23v3.23h-8.23v-3.23ZM52.95,44.35c-.69-.81-1.03-2.02-1.03-3.61v-18.81h3.59v18.84c0,.45.09.79.26,1.03s.43.36.77.36h1.72v3.41h-2.07c-1.48,0-2.56-.41-3.24-1.22Z"/>
  </g>
</svg>