<?xml version="1.0" encoding="UTF-8"?>
<svg id="Layer_1" data-name="Layer 1" xmlns="http://www.w3.org/2000/svg" viewBox="0 0 133.65 65.03">
  <defs>
    <style>
      .cls-1 {
        fill: #21cee0;
      }

      .cls-1, .cls-2 {
        stroke-width: 0px;
      }

      .cls-2 {
        fill: #444;
      }
    </style>
  </defs>
  <path class="cls-1" d="M130.64,0H5C2.24,0,0,2.24,0,5v55.03c0,2.76,2.24,5,5,5h63.73c2.65,0,5.2-1.05,7.07-2.93L132.76,5.12c1.89-1.89.55-5.12-2.12-5.12Z"/>
  <g>
    <path class="cls-2" d="M20.25,42.37l8.91-11.88c.52-.68.92-1.39,1.2-2.12s.43-1.42.43-2.05v-.04c0-1.02-.3-1.81-.9-2.37s-1.45-.84-2.55-.84c-1.04,0-1.89.31-2.53.92s-1.04,1.49-1.18,2.61v.02h-3.71v-.02c.21-1.46.64-2.72,1.29-3.75s1.49-1.83,2.52-2.37,2.22-.82,3.57-.82c1.52,0,2.82.26,3.9.78s1.9,1.28,2.46,2.28.84,2.2.84,3.6v.02c0,.9-.19,1.85-.56,2.83s-.9,1.93-1.56,2.85l-7.4,10.05h9.67v3.41h-14.41v-3.11Z"/>
    <path class="cls-2" d="M39.41,27.24h3.59v18.25h-3.59v-18.25ZM50.48,34.43c0-1.29-.33-2.29-1-2.99s-1.61-1.05-2.81-1.05-2.08.31-2.72.93-.96,1.49-.96,2.62l-.37-3.52c.56-1.1,1.3-1.95,2.21-2.55s1.91-.9,3.01-.9c1.98,0,3.51.65,4.6,1.94s1.63,3.13,1.63,5.49v11.07h-3.59v-11.06Z"/>
    <path class="cls-2" d="M61.88,44.93c-.94-.58-1.66-1.43-2.15-2.54s-.74-2.45-.74-4.01v-4.03c0-1.57.24-2.91.72-4.03s1.18-1.96,2.1-2.54,2.02-.87,3.31-.87c1.08,0,2.07.28,2.96.84s1.62,1.35,2.17,2.37l-.37,3.73c0-.77-.14-1.44-.42-1.99s-.69-.97-1.22-1.26-1.18-.43-1.94-.43c-1.18,0-2.1.37-2.75,1.11s-.98,1.78-.98,3.11v3.97c0,1.32.33,2.35.98,3.07s1.57,1.08,2.75,1.08c.76,0,1.41-.15,1.94-.45s.94-.73,1.22-1.29.42-1.24.42-2.02l.25,3.85c-.36.9-.96,1.66-1.78,2.27s-1.84.91-3.05.91c-1.34,0-2.48-.29-3.42-.87ZM69.89,19.93h3.59v25.56h-3.59v-25.56Z"/>
  </g>
</svg>