<?xml version="1.0" encoding="UTF-8"?>
<svg id="Layer_1" data-name="Layer 1" xmlns="http://www.w3.org/2000/svg" viewBox="0 0 133.65 65.03">
  <defs>
    <style>
      .cls-1 {
        fill: #d7ff01;
      }

      .cls-1, .cls-2 {
        stroke-width: 0px;
      }

      .cls-2 {
        fill: #444;
      }
    </style>
  </defs>
  <path class="cls-1" d="M130.64,0H5C2.24,0,0,2.24,0,5v55.03c0,2.76,2.24,5,5,5h63.73c2.65,0,5.2-1.05,7.07-2.93L132.76,5.12c1.89-1.89.55-5.12-2.12-5.12Z"/>
  <g>
    <path class="cls-2" d="M23.47,44.97c-1.09-.52-1.97-1.28-2.63-2.27s-1.08-2.18-1.26-3.58h3.66c.11.73.33,1.32.69,1.79s.81.82,1.36,1.05,1.21.34,1.96.34c1.18,0,2.1-.32,2.76-.95s.98-1.52.98-2.67v-.77c0-1.28-.31-2.26-.93-2.96s-1.5-1.05-2.64-1.05h-1.81v-3.41h1.81c1,0,1.77-.3,2.32-.9s.83-1.44.83-2.53v-.79c0-1.01-.29-1.79-.87-2.34s-1.4-.83-2.47-.83c-.61,0-1.15.11-1.63.34s-.89.58-1.22,1.05-.58,1.07-.73,1.78h-3.64c.23-1.39.68-2.59,1.33-3.59s1.47-1.75,2.47-2.27,2.14-.77,3.43-.77c2.2,0,3.91.58,5.12,1.74s1.81,2.79,1.81,4.9v.42c0,1.28-.35,2.39-1.04,3.34s-1.67,1.64-2.94,2.07c1.39.3,2.48.99,3.24,2.06s1.15,2.43,1.15,4.08v.42c0,1.49-.29,2.76-.86,3.81s-1.41,1.86-2.5,2.41-2.42.83-3.96.83c-1.43,0-2.69-.26-3.78-.78Z"/>
    <path class="cls-2" d="M39.85,27.24h3.59v18.25h-3.59v-18.25ZM48.69,30.68c-.48-.2-1.04-.3-1.67-.3-1.14,0-2.02.31-2.65.94s-.94,1.5-.94,2.61l-.37-3.52c.56-1.09,1.29-1.94,2.18-2.54s1.88-.91,2.95-.91c.83,0,1.58.12,2.26.36s1.26.59,1.77,1.06l-2.34,3.16c-.32-.39-.71-.68-1.2-.88Z"/>
    <path class="cls-2" d="M57.23,44.93c-.94-.58-1.66-1.43-2.15-2.54s-.74-2.45-.74-4.01v-4.03c0-1.57.24-2.91.72-4.03s1.18-1.96,2.1-2.54,2.02-.87,3.31-.87c1.08,0,2.07.28,2.96.84s1.62,1.35,2.17,2.37l-.37,3.73c0-.77-.14-1.44-.42-1.99s-.69-.97-1.22-1.26-1.18-.43-1.94-.43c-1.18,0-2.1.37-2.75,1.11s-.98,1.78-.98,3.11v3.97c0,1.32.33,2.35.98,3.07s1.57,1.08,2.75,1.08c.76,0,1.41-.15,1.94-.45s.94-.73,1.22-1.29.42-1.24.42-2.02l.25,3.85c-.36.9-.96,1.66-1.78,2.27s-1.84.91-3.05.91c-1.34,0-2.48-.29-3.42-.87ZM65.23,19.93h3.59v25.56h-3.59v-25.56Z"/>
  </g>
</svg>