<?xml version="1.0" encoding="UTF-8"?>
<svg id="Layer_1" data-name="Layer 1" xmlns="http://www.w3.org/2000/svg" viewBox="0 0 263.65 65.03">
  <defs>
    <style>
      .cls-1 {
        fill: #d7ff01;
      }

      .cls-1, .cls-2 {
        stroke-width: 0px;
      }

      .cls-2 {
        fill: #444;
      }
    </style>
  </defs>
  <path class="cls-1" d="M260.64,0H5C2.24,0,0,2.24,0,5v55.03c0,2.76,2.24,5,5,5h193.73c2.65,0,5.2-1.05,7.07-2.93l56.96-56.98c1.89-1.89.55-5.12-2.12-5.12Z"/>
  <g>
    <polygon class="cls-2" points="17.65 23.34 24.87 23.34 24.87 45.48 28.46 45.48 28.46 23.34 35.68 23.34 35.68 19.93 17.65 19.93 17.65 23.34"/>
    <path class="cls-2" d="M46.58,26.97c-1.1,0-2.11.3-3.01.89-.72.47-1.33,1.1-1.84,1.88v-9.82h-3.59v25.56h3.59v-11.6c0-1.11.32-1.97.96-2.58s1.54-.91,2.72-.91,2.14.35,2.81,1.05,1,1.7,1,2.99v11.06h3.59v-11.07c0-2.37-.54-4.2-1.63-5.49s-2.62-1.94-4.6-1.94Z"/>
    <rect class="cls-2" x="58.25" y="19.93" width="3.59" height="3.59"/>
    <rect class="cls-2" x="58.25" y="27.24" width="3.59" height="18.25"/>
    <path class="cls-2" d="M78.21,35.06c-.9-.26-1.98-.43-3.26-.51-.04-.01-.07-.02-.11-.02h-.11c-.08-.01-.16-.02-.24-.02s-.15,0-.22-.02c-.97-.06-1.72-.13-2.25-.21s-.96-.25-1.31-.49-.52-.62-.52-1.11c0-.83.3-1.46.91-1.87s1.52-.62,2.74-.62c.84,0,1.71.15,2.59.44s1.78.73,2.7,1.32l2.16-2.62c-.73-.53-1.48-.96-2.27-1.31s-1.61-.61-2.47-.78-1.77-.26-2.72-.26c-1.57,0-2.88.21-3.92.64s-1.83,1.07-2.36,1.92-.79,1.93-.79,3.22.27,2.28.82,2.97,1.23,1.16,2.05,1.42,1.82.42,3.01.52c.05,0,.09,0,.14,0s.09,0,.14,0c.09.01.19.02.3.03s.21,0,.3,0c1.04.08,1.85.17,2.43.27s1.05.3,1.44.59.58.73.58,1.32c0,.88-.35,1.54-1.06,1.98s-1.77.66-3.19.66c-.95,0-1.91-.19-2.88-.56s-1.95-.94-2.94-1.69l-2.13,2.62c.69.63,1.45,1.16,2.27,1.58s1.7.74,2.65.95,1.95.32,3.03.32c1.71,0,3.13-.22,4.26-.65s1.98-1.08,2.54-1.94.84-1.95.84-3.26c0-1.44-.3-2.54-.91-3.3s-1.36-1.27-2.26-1.53Z"/>
    <polygon class="cls-2" points="114.52 39.97 109.28 19.93 106.82 19.93 101.58 39.97 97.07 19.93 93.34 19.93 99.58 45.48 103.24 45.48 108.16 27.63 112.87 45.48 116.53 45.48 122.77 19.93 119.04 19.93 114.52 39.97"/>
    <path class="cls-2" d="M135.58,28.12c-1.08-.76-2.38-1.14-3.9-1.14-1.62,0-3,.33-4.15,1s-2.02,1.64-2.63,2.92-.91,2.82-.91,4.62v2.06c0,1.73.31,3.21.94,4.44s1.54,2.15,2.73,2.79,2.64.95,4.32.95c1.14,0,2.27-.24,3.39-.71s2.14-1.15,3.04-2.01l-2.36-2.36c-.56.53-1.2.94-1.92,1.23s-1.44.44-2.16.44c-1.46,0-2.6-.4-3.39-1.21-.77-.78-1.16-1.89-1.18-3.32h11.49v-1.2c0-2.02-.28-3.74-.85-5.19s-1.39-2.54-2.47-3.3ZM127.43,34.92c.06-1.43.41-2.56,1.09-3.38.74-.89,1.8-1.34,3.16-1.34,1.11,0,2,.41,2.66,1.24s1.05,1.98,1.15,3.47h-8.06Z"/>
    <path class="cls-2" d="M154.88,28.12c-1.08-.76-2.38-1.14-3.9-1.14-1.62,0-3,.33-4.15,1s-2.02,1.64-2.63,2.92-.91,2.82-.91,4.62v2.06c0,1.73.31,3.21.94,4.44s1.54,2.15,2.73,2.79,2.64.95,4.32.95c1.14,0,2.27-.24,3.39-.71s2.14-1.15,3.04-2.01l-2.36-2.36c-.56.53-1.2.94-1.92,1.23s-1.44.44-2.16.44c-1.46,0-2.6-.4-3.39-1.21-.77-.78-1.16-1.89-1.18-3.32h11.49v-1.2c0-2.02-.28-3.74-.85-5.19s-1.39-2.54-2.47-3.3ZM146.73,34.92c.06-1.43.41-2.56,1.09-3.38.74-.89,1.8-1.34,3.16-1.34,1.11,0,2,.41,2.66,1.24s1.05,1.98,1.15,3.47h-8.06Z"/>
    <polygon class="cls-2" points="178.28 27.24 174.06 27.24 166.71 36.1 166.71 19.93 163.13 19.93 163.13 45.48 166.71 45.48 166.71 40.26 169.93 36.64 175.27 45.48 179.17 45.48 172.17 34.12 178.28 27.24"/>
    <rect class="cls-2" x="181.55" y="41.72" width="3.76" height="3.76"/>
    <rect class="cls-2" x="181.55" y="27.06" width="3.76" height="3.76"/>
  </g>
</svg>